%TF.GenerationSoftware,KiCad,Pcbnew,(6.0.2)*%
%TF.CreationDate,2022-06-03T16:11:15+03:00*%
%TF.ProjectId,TypeC_Bulgin_PCB,54797065-435f-4427-956c-67696e5f5043,rev?*%
%TF.SameCoordinates,Original*%
%TF.FileFunction,Copper,L2,Bot*%
%TF.FilePolarity,Positive*%
%FSLAX46Y46*%
G04 Gerber Fmt 4.6, Leading zero omitted, Abs format (unit mm)*
G04 Created by KiCad (PCBNEW (6.0.2)) date 2022-06-03 16:11:15*
%MOMM*%
%LPD*%
G01*
G04 APERTURE LIST*
G04 Aperture macros list*
%AMRoundRect*
0 Rectangle with rounded corners*
0 $1 Rounding radius*
0 $2 $3 $4 $5 $6 $7 $8 $9 X,Y pos of 4 corners*
0 Add a 4 corners polygon primitive as box body*
4,1,4,$2,$3,$4,$5,$6,$7,$8,$9,$2,$3,0*
0 Add four circle primitives for the rounded corners*
1,1,$1+$1,$2,$3*
1,1,$1+$1,$4,$5*
1,1,$1+$1,$6,$7*
1,1,$1+$1,$8,$9*
0 Add four rect primitives between the rounded corners*
20,1,$1+$1,$2,$3,$4,$5,0*
20,1,$1+$1,$4,$5,$6,$7,0*
20,1,$1+$1,$6,$7,$8,$9,0*
20,1,$1+$1,$8,$9,$2,$3,0*%
G04 Aperture macros list end*
%TA.AperFunction,ComponentPad*%
%ADD10RoundRect,0.153846X-0.246154X0.396154X-0.246154X-0.396154X0.246154X-0.396154X0.246154X0.396154X0*%
%TD*%
%TA.AperFunction,ComponentPad*%
%ADD11O,0.800000X1.200000*%
%TD*%
%TA.AperFunction,ComponentPad*%
%ADD12O,1.700000X1.200000*%
%TD*%
%TA.AperFunction,ComponentPad*%
%ADD13RoundRect,0.153846X0.246154X-0.396154X0.246154X0.396154X-0.246154X0.396154X-0.246154X-0.396154X0*%
%TD*%
%TA.AperFunction,ComponentPad*%
%ADD14R,0.850000X0.850000*%
%TD*%
%TA.AperFunction,ViaPad*%
%ADD15C,0.800000*%
%TD*%
%TA.AperFunction,Conductor*%
%ADD16C,0.800000*%
%TD*%
%TA.AperFunction,Conductor*%
%ADD17C,0.600000*%
%TD*%
G04 APERTURE END LIST*
D10*
%TO.P,J3,1,Pin_1*%
%TO.N,VBUS*%
X155225000Y-92630000D03*
D11*
%TO.P,J3,2,Pin_2*%
X154590000Y-93900000D03*
%TO.P,J3,3,Pin_3*%
%TO.N,unconnected-(J3-Pad3)*%
X153955000Y-92630000D03*
%TO.P,J3,4,Pin_4*%
%TO.N,GND*%
X153320000Y-93900000D03*
%TO.P,J3,5,Pin_5*%
%TO.N,TX1+*%
X152685000Y-92630000D03*
%TO.P,J3,6,Pin_6*%
%TO.N,TX1-*%
X152050000Y-93900000D03*
%TO.P,J3,7,Pin_7*%
%TO.N,GND*%
X151415000Y-92630000D03*
%TO.P,J3,8,Pin_8*%
%TO.N,unconnected-(J3-Pad8)*%
X150780000Y-93900000D03*
%TO.P,J3,9,Pin_9*%
%TO.N,unconnected-(J3-Pad9)*%
X150145000Y-92630000D03*
%TO.P,J3,10,Pin_10*%
%TO.N,GND*%
X149510000Y-93900000D03*
%TO.P,J3,11,Pin_11*%
%TO.N,RX1-*%
X148875000Y-92630000D03*
%TO.P,J3,12,Pin_12*%
%TO.N,RX1+*%
X148240000Y-93900000D03*
%TO.P,J3,13,Pin_13*%
%TO.N,GND*%
X147605000Y-92630000D03*
%TD*%
D12*
%TO.P,J6,S1,SHIELD*%
%TO.N,Net-(J1-Pad1)*%
X147100000Y-86030000D03*
X155300000Y-88970000D03*
X155300000Y-86030000D03*
X147100000Y-88970000D03*
%TD*%
D13*
%TO.P,J4,1,Pin_1*%
%TO.N,VBUS*%
X147360000Y-82280000D03*
D11*
%TO.P,J4,2,Pin_2*%
X147995000Y-81010000D03*
%TO.P,J4,3,Pin_3*%
%TO.N,unconnected-(J4-Pad3)*%
X148630000Y-82280000D03*
%TO.P,J4,4,Pin_4*%
%TO.N,GND*%
X149265000Y-81010000D03*
%TO.P,J4,5,Pin_5*%
%TO.N,TX2+*%
X149900000Y-82280000D03*
%TO.P,J4,6,Pin_6*%
%TO.N,TX2-*%
X150535000Y-81010000D03*
%TO.P,J4,7,Pin_7*%
%TO.N,GND*%
X151170000Y-82280000D03*
%TO.P,J4,8,Pin_8*%
%TO.N,unconnected-(J4-Pad8)*%
X151805000Y-81010000D03*
%TO.P,J4,9,Pin_9*%
%TO.N,unconnected-(J4-Pad9)*%
X152440000Y-82280000D03*
%TO.P,J4,10,Pin_10*%
%TO.N,GND*%
X153075000Y-81010000D03*
%TO.P,J4,11,Pin_11*%
%TO.N,RX2-*%
X153710000Y-82280000D03*
%TO.P,J4,12,Pin_12*%
%TO.N,RX2+*%
X154345000Y-81010000D03*
%TO.P,J4,13,Pin_13*%
%TO.N,GND*%
X154980000Y-82280000D03*
%TD*%
D14*
%TO.P,J1,1,Pin_1*%
%TO.N,Net-(J1-Pad1)*%
X144340000Y-87390000D03*
%TD*%
D15*
%TO.N,GND*%
X148380000Y-83650000D03*
X151870000Y-83730000D03*
X156280000Y-82500000D03*
X157240000Y-90380000D03*
X145260000Y-83710000D03*
X157380000Y-87610000D03*
X148260000Y-87920000D03*
X156690000Y-91890000D03*
X154260000Y-91360000D03*
X151000000Y-91020000D03*
X150630000Y-84380000D03*
X154710000Y-84590000D03*
X155390000Y-87500000D03*
X147580000Y-90750000D03*
X145970000Y-84880000D03*
X157080000Y-84480000D03*
X153080000Y-83220000D03*
X149930000Y-91430000D03*
X152080000Y-90590000D03*
X144390000Y-85500000D03*
X146310000Y-92670000D03*
X145860000Y-90850000D03*
X144460000Y-89200000D03*
X146120000Y-82470000D03*
%TO.N,VBUS*%
X149970000Y-88050000D03*
X149960000Y-86890000D03*
X152440000Y-86900000D03*
X152460000Y-88070000D03*
%TD*%
D16*
%TO.N,VBUS*%
X147995000Y-81010000D02*
X147850000Y-81010000D01*
X149960000Y-86890000D02*
X149960000Y-88040000D01*
X147360000Y-81500000D02*
X147360000Y-82280000D01*
X152440000Y-88050000D02*
X152460000Y-88070000D01*
X149960000Y-88040000D02*
X149970000Y-88050000D01*
D17*
X153950480Y-88350480D02*
X153950480Y-89425436D01*
X153670000Y-88070000D02*
X153950480Y-88350480D01*
D16*
X152440000Y-86900000D02*
X152440000Y-88050000D01*
D17*
X148469520Y-86669520D02*
X148700000Y-86900000D01*
X155225000Y-90699956D02*
X155225000Y-92630000D01*
X147360000Y-84330000D02*
X148449520Y-85419520D01*
X147360000Y-82280000D02*
X147360000Y-84330000D01*
X153950480Y-89425436D02*
X155225000Y-90699956D01*
X152460000Y-88070000D02*
X153670000Y-88070000D01*
X148449520Y-85419520D02*
X148449520Y-86669520D01*
X148449520Y-86669520D02*
X148469520Y-86669520D01*
D16*
X147850000Y-81010000D02*
X147360000Y-81500000D01*
D17*
X152480000Y-86940000D02*
X152440000Y-86900000D01*
D16*
X154590000Y-93900000D02*
X155225000Y-93265000D01*
X155225000Y-93265000D02*
X155225000Y-92630000D01*
D17*
X149950000Y-86900000D02*
X149960000Y-86890000D01*
X148700000Y-86900000D02*
X149950000Y-86900000D01*
X149990000Y-86890000D02*
X149960000Y-86890000D01*
D16*
%TO.N,Net-(J1-Pad1)*%
X147100000Y-87590000D02*
X146900000Y-87390000D01*
X146900000Y-87390000D02*
X144340000Y-87390000D01*
X147100000Y-87590000D02*
X147100000Y-88970000D01*
X147100000Y-86030000D02*
X147100000Y-87590000D01*
%TD*%
%TA.AperFunction,Conductor*%
%TO.N,GND*%
G36*
X151286786Y-79511127D02*
G01*
X153714196Y-79914096D01*
X153722930Y-79916389D01*
X153908939Y-79984091D01*
X153915485Y-79987033D01*
X154077561Y-80074662D01*
X154265165Y-80176094D01*
X154288816Y-80205196D01*
X154284962Y-80242501D01*
X154255859Y-80266153D01*
X154251547Y-80267228D01*
X154162257Y-80285233D01*
X154159281Y-80286749D01*
X154159279Y-80286750D01*
X154030848Y-80352188D01*
X154030845Y-80352190D01*
X154027868Y-80353707D01*
X153916844Y-80455799D01*
X153915085Y-80458636D01*
X153853230Y-80558399D01*
X153837365Y-80583986D01*
X153836434Y-80587189D01*
X153836434Y-80587190D01*
X153814115Y-80664014D01*
X153795285Y-80728825D01*
X153795097Y-80731389D01*
X153795096Y-80731393D01*
X153794823Y-80735122D01*
X153794500Y-80739515D01*
X153794500Y-81247785D01*
X153794726Y-81249432D01*
X153794726Y-81249438D01*
X153800083Y-81288540D01*
X153809794Y-81359432D01*
X153811121Y-81362498D01*
X153811121Y-81362499D01*
X153856269Y-81466830D01*
X153856858Y-81504328D01*
X153830759Y-81531260D01*
X153807710Y-81535158D01*
X153754630Y-81531260D01*
X153675109Y-81525420D01*
X153616392Y-81537260D01*
X153579592Y-81530040D01*
X153558675Y-81498913D01*
X153565063Y-81463407D01*
X153580413Y-81438650D01*
X153583106Y-81432598D01*
X153623498Y-81293567D01*
X153624403Y-81288540D01*
X153624933Y-81281319D01*
X153625000Y-81279508D01*
X153625000Y-81144747D01*
X153622145Y-81137855D01*
X153615253Y-81135000D01*
X153209747Y-81135000D01*
X153202855Y-81137855D01*
X153200000Y-81144747D01*
X153200000Y-81736152D01*
X153202855Y-81743044D01*
X153203910Y-81743481D01*
X153230428Y-81770000D01*
X153230428Y-81807503D01*
X153226805Y-81814568D01*
X153219265Y-81826729D01*
X153204125Y-81851148D01*
X153202365Y-81853986D01*
X153201434Y-81857189D01*
X153201434Y-81857190D01*
X153179115Y-81934014D01*
X153160285Y-81998825D01*
X153160097Y-82001389D01*
X153160096Y-82001393D01*
X153159823Y-82005122D01*
X153159500Y-82009515D01*
X153159500Y-82517785D01*
X153159726Y-82519432D01*
X153159726Y-82519438D01*
X153165083Y-82558540D01*
X153174794Y-82629432D01*
X153176121Y-82632498D01*
X153176121Y-82632499D01*
X153227293Y-82750749D01*
X153234695Y-82767855D01*
X153329614Y-82885070D01*
X153452558Y-82972442D01*
X153455698Y-82973573D01*
X153455701Y-82973574D01*
X153591326Y-83022402D01*
X153591327Y-83022402D01*
X153594468Y-83023533D01*
X153597796Y-83023777D01*
X153597799Y-83023778D01*
X153677532Y-83029633D01*
X153744891Y-83034580D01*
X153748164Y-83033920D01*
X153748165Y-83033920D01*
X153889467Y-83005428D01*
X153889470Y-83005427D01*
X153892743Y-83004767D01*
X153895719Y-83003251D01*
X153895721Y-83003250D01*
X154024152Y-82937812D01*
X154024155Y-82937810D01*
X154027132Y-82936293D01*
X154138156Y-82834201D01*
X154191986Y-82747382D01*
X154215878Y-82708848D01*
X154215878Y-82708847D01*
X154217635Y-82706014D01*
X154218566Y-82702810D01*
X154258997Y-82563647D01*
X154258997Y-82563645D01*
X154259715Y-82561175D01*
X154259909Y-82558540D01*
X154260433Y-82551392D01*
X154260500Y-82550485D01*
X154260500Y-82516078D01*
X154430000Y-82516078D01*
X154430226Y-82519402D01*
X154444827Y-82625986D01*
X154446607Y-82632363D01*
X154503800Y-82764528D01*
X154507229Y-82770190D01*
X154597858Y-82882107D01*
X154602681Y-82886636D01*
X154720069Y-82970060D01*
X154725934Y-82973126D01*
X154845829Y-83016291D01*
X154853282Y-83015940D01*
X154855000Y-83014051D01*
X154855000Y-83006152D01*
X155105000Y-83006152D01*
X155107855Y-83013044D01*
X155111556Y-83014577D01*
X155159302Y-83004950D01*
X155165555Y-83002773D01*
X155293864Y-82937397D01*
X155299304Y-82933616D01*
X155405309Y-82836139D01*
X155409526Y-82831042D01*
X155485414Y-82708646D01*
X155488106Y-82702598D01*
X155528498Y-82563567D01*
X155529403Y-82558540D01*
X155529933Y-82551319D01*
X155530000Y-82549508D01*
X155530000Y-82414747D01*
X155527145Y-82407855D01*
X155520253Y-82405000D01*
X155114747Y-82405000D01*
X155107855Y-82407855D01*
X155105000Y-82414747D01*
X155105000Y-83006152D01*
X154855000Y-83006152D01*
X154855000Y-82414747D01*
X154852145Y-82407855D01*
X154845253Y-82405000D01*
X154439747Y-82405000D01*
X154432855Y-82407855D01*
X154430000Y-82414747D01*
X154430000Y-82516078D01*
X154260500Y-82516078D01*
X154260500Y-82042215D01*
X154256155Y-82010492D01*
X154245659Y-81933878D01*
X154245206Y-81930568D01*
X154213544Y-81857402D01*
X154198731Y-81823170D01*
X154198142Y-81785672D01*
X154224241Y-81758740D01*
X154247290Y-81754842D01*
X154292322Y-81758149D01*
X154379891Y-81764580D01*
X154438608Y-81752740D01*
X154475408Y-81759960D01*
X154496325Y-81791087D01*
X154489937Y-81826593D01*
X154474587Y-81851350D01*
X154471894Y-81857402D01*
X154431502Y-81996433D01*
X154430597Y-82001460D01*
X154430067Y-82008681D01*
X154430000Y-82010492D01*
X154430000Y-82145253D01*
X154432855Y-82152145D01*
X154439747Y-82155000D01*
X154845253Y-82155000D01*
X154852145Y-82152145D01*
X154855000Y-82145253D01*
X155105000Y-82145253D01*
X155107855Y-82152145D01*
X155114747Y-82155000D01*
X155520253Y-82155000D01*
X155527145Y-82152145D01*
X155530000Y-82145253D01*
X155530000Y-82043922D01*
X155529774Y-82040598D01*
X155515173Y-81934014D01*
X155513393Y-81927637D01*
X155456200Y-81795472D01*
X155452771Y-81789810D01*
X155362142Y-81677893D01*
X155357319Y-81673364D01*
X155239931Y-81589940D01*
X155234066Y-81586874D01*
X155114171Y-81543709D01*
X155106718Y-81544060D01*
X155105000Y-81545949D01*
X155105000Y-82145253D01*
X154855000Y-82145253D01*
X154855000Y-81553848D01*
X154852145Y-81546956D01*
X154851090Y-81546519D01*
X154824572Y-81520000D01*
X154824572Y-81482497D01*
X154828197Y-81475428D01*
X154835651Y-81463407D01*
X154844521Y-81449101D01*
X154850878Y-81438848D01*
X154850878Y-81438847D01*
X154852635Y-81436014D01*
X154853566Y-81432810D01*
X154893997Y-81293647D01*
X154893997Y-81293645D01*
X154894715Y-81291175D01*
X154894909Y-81288540D01*
X154895433Y-81281392D01*
X154895500Y-81280485D01*
X154895500Y-80772215D01*
X154891155Y-80740492D01*
X154880659Y-80663878D01*
X154880206Y-80660568D01*
X154857621Y-80608376D01*
X154850569Y-80592081D01*
X154849980Y-80554583D01*
X154876079Y-80527651D01*
X154913577Y-80527062D01*
X154918837Y-80529515D01*
X155696523Y-80949986D01*
X155892613Y-81056006D01*
X155905635Y-81066225D01*
X157676393Y-83022402D01*
X157805457Y-83164981D01*
X157813011Y-83176059D01*
X158617030Y-84794024D01*
X158621263Y-84806559D01*
X158812672Y-85800824D01*
X158978982Y-86664714D01*
X158979846Y-86675376D01*
X158961223Y-87327184D01*
X158940481Y-88053184D01*
X158940086Y-88067001D01*
X158939549Y-88072964D01*
X158680895Y-89774115D01*
X158677722Y-89785499D01*
X158303374Y-90689284D01*
X158014839Y-91385889D01*
X158012004Y-91391638D01*
X157945765Y-91506368D01*
X157939726Y-91514675D01*
X156160997Y-93487802D01*
X156152960Y-93496717D01*
X156146496Y-93502703D01*
X155355434Y-94112951D01*
X155351471Y-94115708D01*
X155215466Y-94200693D01*
X155178477Y-94206883D01*
X155147946Y-94185105D01*
X155140500Y-94159139D01*
X155140500Y-94148321D01*
X155154852Y-94113673D01*
X155604790Y-93663735D01*
X155606271Y-93662314D01*
X155640877Y-93630492D01*
X155653156Y-93619201D01*
X155654913Y-93616367D01*
X155654918Y-93616361D01*
X155678001Y-93579130D01*
X155680616Y-93575325D01*
X155696895Y-93553878D01*
X155709112Y-93537783D01*
X155717176Y-93517415D01*
X155721091Y-93509632D01*
X155730872Y-93493858D01*
X155730873Y-93493856D01*
X155732635Y-93491014D01*
X155745787Y-93445744D01*
X155747281Y-93441380D01*
X155763407Y-93400652D01*
X155763408Y-93400649D01*
X155764636Y-93397547D01*
X155766926Y-93375756D01*
X155768604Y-93367208D01*
X155768871Y-93366291D01*
X155774715Y-93346175D01*
X155775500Y-93335485D01*
X155775500Y-93296757D01*
X155775768Y-93291635D01*
X155780053Y-93250867D01*
X155780402Y-93247546D01*
X155776186Y-93222620D01*
X155775500Y-93214448D01*
X155775500Y-92592215D01*
X155775499Y-92592211D01*
X155775499Y-92188626D01*
X155772343Y-92162093D01*
X155764961Y-92145472D01*
X155728155Y-92062611D01*
X155728154Y-92062610D01*
X155726318Y-92058476D01*
X155723118Y-92055282D01*
X155723117Y-92055280D01*
X155689882Y-92022104D01*
X155675500Y-91987425D01*
X155675500Y-90729628D01*
X155675840Y-90723869D01*
X155679933Y-90689284D01*
X155680364Y-90685645D01*
X155669604Y-90626728D01*
X155669352Y-90625210D01*
X155660994Y-90569616D01*
X155660993Y-90569613D01*
X155660449Y-90565994D01*
X155658865Y-90562694D01*
X155657840Y-90559363D01*
X155656683Y-90555985D01*
X155656025Y-90552382D01*
X155628422Y-90499242D01*
X155627747Y-90497891D01*
X155603395Y-90447180D01*
X155601809Y-90443877D01*
X155599322Y-90441187D01*
X155597264Y-90438158D01*
X155597546Y-90437966D01*
X155596709Y-90436775D01*
X155596429Y-90436964D01*
X155594866Y-90434644D01*
X155593579Y-90432167D01*
X155589275Y-90427128D01*
X155550967Y-90388820D01*
X155549633Y-90387433D01*
X155512342Y-90347091D01*
X155512340Y-90347090D01*
X155509854Y-90344400D01*
X155506687Y-90342561D01*
X155503827Y-90340269D01*
X155503857Y-90340232D01*
X155497446Y-90335299D01*
X155016295Y-89854148D01*
X155001943Y-89819500D01*
X155016295Y-89784852D01*
X155050943Y-89770500D01*
X155595155Y-89770500D01*
X155596506Y-89770348D01*
X155596514Y-89770348D01*
X155725754Y-89755851D01*
X155725755Y-89755851D01*
X155728472Y-89755546D01*
X155782958Y-89736572D01*
X155895484Y-89697387D01*
X155895487Y-89697385D01*
X155898073Y-89696485D01*
X155905965Y-89691554D01*
X156048050Y-89602769D01*
X156048051Y-89602768D01*
X156050375Y-89601316D01*
X156057473Y-89594268D01*
X156152227Y-89500172D01*
X156177807Y-89474770D01*
X156274037Y-89323136D01*
X156334281Y-89153951D01*
X156355545Y-88975624D01*
X156336773Y-88797017D01*
X156278897Y-88627007D01*
X156220061Y-88531370D01*
X156186229Y-88476377D01*
X156186227Y-88476375D01*
X156184794Y-88474045D01*
X156178429Y-88467545D01*
X156061059Y-88347690D01*
X156061056Y-88347688D01*
X156059141Y-88345732D01*
X156038712Y-88332566D01*
X155910481Y-88249927D01*
X155908183Y-88248446D01*
X155783066Y-88202907D01*
X155741997Y-88187959D01*
X155741995Y-88187959D01*
X155739422Y-88187022D01*
X155600717Y-88169500D01*
X155004845Y-88169500D01*
X155003494Y-88169652D01*
X155003486Y-88169652D01*
X154874246Y-88184149D01*
X154874245Y-88184149D01*
X154871528Y-88184454D01*
X154844951Y-88193709D01*
X154704516Y-88242613D01*
X154704513Y-88242615D01*
X154701927Y-88243515D01*
X154699604Y-88244966D01*
X154699603Y-88244967D01*
X154572073Y-88324657D01*
X154549625Y-88338684D01*
X154547682Y-88340613D01*
X154547680Y-88340615D01*
X154486059Y-88401808D01*
X154451361Y-88416039D01*
X154416763Y-88401566D01*
X154402532Y-88366868D01*
X154402872Y-88361280D01*
X154404411Y-88348275D01*
X154405844Y-88336170D01*
X154404749Y-88330172D01*
X154395084Y-88277248D01*
X154394832Y-88275731D01*
X154386474Y-88220143D01*
X154385929Y-88216518D01*
X154384342Y-88213214D01*
X154383299Y-88209822D01*
X154382163Y-88206506D01*
X154381506Y-88202907D01*
X154373742Y-88187959D01*
X154353896Y-88149754D01*
X154353221Y-88148403D01*
X154327289Y-88094401D01*
X154324800Y-88091709D01*
X154322742Y-88088681D01*
X154323029Y-88088486D01*
X154322191Y-88087295D01*
X154321907Y-88087486D01*
X154320348Y-88085172D01*
X154319060Y-88082692D01*
X154317169Y-88080477D01*
X154315374Y-88078375D01*
X154315366Y-88078367D01*
X154314756Y-88077652D01*
X154276437Y-88039333D01*
X154275103Y-88037946D01*
X154237821Y-87997614D01*
X154237819Y-87997613D01*
X154235334Y-87994924D01*
X154232166Y-87993084D01*
X154229309Y-87990795D01*
X154229339Y-87990758D01*
X154222931Y-87985827D01*
X154009537Y-87772434D01*
X154005713Y-87768132D01*
X153981872Y-87737890D01*
X153978858Y-87735807D01*
X153978856Y-87735805D01*
X153932607Y-87703840D01*
X153931354Y-87702945D01*
X153886131Y-87669543D01*
X153883184Y-87667366D01*
X153879729Y-87666153D01*
X153876628Y-87664511D01*
X153873441Y-87662950D01*
X153870431Y-87660869D01*
X153866940Y-87659765D01*
X153866938Y-87659764D01*
X153813333Y-87642811D01*
X153811915Y-87642338D01*
X153755369Y-87622481D01*
X153751709Y-87622337D01*
X153748110Y-87621651D01*
X153748175Y-87621312D01*
X153746740Y-87621062D01*
X153746675Y-87621397D01*
X153743935Y-87620863D01*
X153741270Y-87620020D01*
X153734663Y-87619500D01*
X153680463Y-87619500D01*
X153678539Y-87619462D01*
X153677218Y-87619410D01*
X153620006Y-87617162D01*
X153616463Y-87618102D01*
X153612826Y-87618503D01*
X153612821Y-87618456D01*
X153604804Y-87619500D01*
X153039500Y-87619500D01*
X153004852Y-87605148D01*
X152990500Y-87570500D01*
X152990500Y-86939292D01*
X152990919Y-86932896D01*
X152994831Y-86903183D01*
X152995250Y-86900000D01*
X152990705Y-86865478D01*
X152990500Y-86863421D01*
X152990500Y-86862215D01*
X152984728Y-86820083D01*
X152976330Y-86756291D01*
X152975961Y-86755400D01*
X152975671Y-86753959D01*
X152975206Y-86750568D01*
X152973870Y-86747481D01*
X152946246Y-86683644D01*
X152945946Y-86682936D01*
X152943570Y-86677199D01*
X152920861Y-86622375D01*
X152919021Y-86619977D01*
X152916686Y-86615333D01*
X152916637Y-86615219D01*
X152916632Y-86615210D01*
X152915305Y-86612145D01*
X152871971Y-86558631D01*
X152871180Y-86557629D01*
X152864282Y-86548640D01*
X152832621Y-86507379D01*
X152830072Y-86505423D01*
X152827803Y-86503154D01*
X152827926Y-86503031D01*
X152823286Y-86498510D01*
X152822494Y-86497532D01*
X152822490Y-86497528D01*
X152820386Y-86494930D01*
X152767080Y-86457047D01*
X152765695Y-86456025D01*
X152717625Y-86419139D01*
X152714651Y-86417907D01*
X152713421Y-86417397D01*
X152703798Y-86412074D01*
X152700168Y-86409495D01*
X152700167Y-86409495D01*
X152697442Y-86407558D01*
X152639066Y-86386541D01*
X152636955Y-86385725D01*
X152583709Y-86363670D01*
X152580526Y-86363251D01*
X152580523Y-86363250D01*
X152576061Y-86362663D01*
X152565863Y-86360186D01*
X152555532Y-86356467D01*
X152552201Y-86356222D01*
X152552199Y-86356222D01*
X152496943Y-86352164D01*
X152494136Y-86351877D01*
X152443183Y-86345169D01*
X152440000Y-86344750D01*
X152429215Y-86346170D01*
X152419230Y-86346457D01*
X152416029Y-86346222D01*
X152405109Y-86345420D01*
X152401836Y-86346080D01*
X152401835Y-86346080D01*
X152394302Y-86347599D01*
X152350682Y-86356394D01*
X152347409Y-86356940D01*
X152328741Y-86359398D01*
X152299470Y-86363251D01*
X152299467Y-86363252D01*
X152296291Y-86363670D01*
X152293326Y-86364898D01*
X152293323Y-86364899D01*
X152283315Y-86369044D01*
X152274249Y-86371807D01*
X152269682Y-86372728D01*
X152257257Y-86375233D01*
X152210642Y-86398984D01*
X152207173Y-86400583D01*
X152162375Y-86419139D01*
X152159829Y-86421092D01*
X152159823Y-86421096D01*
X152148729Y-86429609D01*
X152141145Y-86434394D01*
X152125847Y-86442189D01*
X152122868Y-86443707D01*
X152120411Y-86445966D01*
X152120410Y-86445967D01*
X152116568Y-86449500D01*
X152086709Y-86476956D01*
X152083381Y-86479753D01*
X152049927Y-86505423D01*
X152049924Y-86505426D01*
X152047379Y-86507379D01*
X152045426Y-86509924D01*
X152045423Y-86509927D01*
X152034989Y-86523525D01*
X152029290Y-86529756D01*
X152011844Y-86545799D01*
X152010086Y-86548635D01*
X152010082Y-86548640D01*
X151987650Y-86584821D01*
X151984881Y-86588827D01*
X151959139Y-86622375D01*
X151957911Y-86625340D01*
X151950146Y-86644088D01*
X151946523Y-86651152D01*
X151932365Y-86673986D01*
X151931433Y-86677195D01*
X151931431Y-86677199D01*
X151920443Y-86715023D01*
X151918660Y-86720103D01*
X151903670Y-86756291D01*
X151900540Y-86780066D01*
X151900193Y-86782700D01*
X151898666Y-86789975D01*
X151891001Y-86816358D01*
X151891000Y-86816364D01*
X151890285Y-86818825D01*
X151889500Y-86829515D01*
X151889500Y-86860708D01*
X151889081Y-86867103D01*
X151884750Y-86900000D01*
X151885169Y-86903183D01*
X151889081Y-86932896D01*
X151889500Y-86939292D01*
X151889500Y-88036609D01*
X151889457Y-88038661D01*
X151886790Y-88102294D01*
X151897556Y-88148196D01*
X151898394Y-88152715D01*
X151904794Y-88199432D01*
X151912774Y-88217871D01*
X151913496Y-88219540D01*
X151916228Y-88227801D01*
X151921232Y-88249136D01*
X151922844Y-88252068D01*
X151943944Y-88290451D01*
X151945975Y-88294596D01*
X151960368Y-88327855D01*
X151964695Y-88337855D01*
X151971074Y-88345732D01*
X151978478Y-88354876D01*
X151983336Y-88362106D01*
X151993893Y-88381308D01*
X151995572Y-88383253D01*
X151995574Y-88383256D01*
X152000144Y-88388549D01*
X152000897Y-88389422D01*
X152028288Y-88416813D01*
X152031719Y-88420623D01*
X152059614Y-88455070D01*
X152062311Y-88456986D01*
X152063201Y-88457849D01*
X152065422Y-88460070D01*
X152067379Y-88462621D01*
X152094997Y-88483813D01*
X152096604Y-88485128D01*
X152097456Y-88485980D01*
X152098784Y-88486988D01*
X152131251Y-88511632D01*
X152131454Y-88511788D01*
X152150189Y-88526164D01*
X152182375Y-88550861D01*
X152183266Y-88551230D01*
X152184489Y-88552043D01*
X152184552Y-88552091D01*
X152184556Y-88552093D01*
X152187216Y-88554112D01*
X152205247Y-88561251D01*
X152255004Y-88580951D01*
X152255716Y-88581239D01*
X152316291Y-88606330D01*
X152319287Y-88606724D01*
X152324228Y-88608358D01*
X152327453Y-88609635D01*
X152371196Y-88614233D01*
X152395958Y-88616836D01*
X152397231Y-88616987D01*
X152456816Y-88624831D01*
X152456817Y-88624831D01*
X152460000Y-88625250D01*
X152463183Y-88624831D01*
X152466395Y-88624831D01*
X152466395Y-88625005D01*
X152472875Y-88624920D01*
X152474131Y-88625052D01*
X152474133Y-88625052D01*
X152477454Y-88625401D01*
X152541932Y-88614496D01*
X152543661Y-88614236D01*
X152603709Y-88606330D01*
X152607910Y-88604590D01*
X152618489Y-88601547D01*
X152622877Y-88600805D01*
X152622878Y-88600805D01*
X152626170Y-88600248D01*
X152633277Y-88596904D01*
X152654857Y-88586749D01*
X152682305Y-88573833D01*
X152684404Y-88572906D01*
X152734658Y-88552090D01*
X152737625Y-88550861D01*
X152740168Y-88548910D01*
X152740171Y-88548908D01*
X152743746Y-88546164D01*
X152752714Y-88540701D01*
X152759617Y-88537453D01*
X152759620Y-88537451D01*
X152762642Y-88536029D01*
X152766837Y-88532408D01*
X152798855Y-88520500D01*
X153450980Y-88520500D01*
X153485628Y-88534852D01*
X153499980Y-88569500D01*
X153499980Y-89395763D01*
X153499640Y-89401521D01*
X153495116Y-89439746D01*
X153505881Y-89498689D01*
X153506122Y-89500144D01*
X153515031Y-89559398D01*
X153516617Y-89562700D01*
X153517635Y-89566010D01*
X153518796Y-89569402D01*
X153519455Y-89573009D01*
X153531269Y-89595751D01*
X153547046Y-89626124D01*
X153547727Y-89627487D01*
X153573671Y-89681515D01*
X153576157Y-89684204D01*
X153578216Y-89687234D01*
X153577927Y-89687430D01*
X153578766Y-89688623D01*
X153579053Y-89688430D01*
X153580615Y-89690748D01*
X153581901Y-89693224D01*
X153583713Y-89695345D01*
X153583713Y-89695346D01*
X153585587Y-89697541D01*
X153585595Y-89697549D01*
X153586205Y-89698264D01*
X153624513Y-89736572D01*
X153625847Y-89737959D01*
X153655787Y-89770348D01*
X153665626Y-89780992D01*
X153668793Y-89782831D01*
X153671653Y-89785123D01*
X153671623Y-89785160D01*
X153678034Y-89790093D01*
X154760148Y-90872207D01*
X154774500Y-90906855D01*
X154774500Y-91987438D01*
X154760178Y-92022056D01*
X154723376Y-92058922D01*
X154677532Y-92162618D01*
X154674500Y-92188625D01*
X154674500Y-93016679D01*
X154660148Y-93051327D01*
X154579281Y-93132194D01*
X154554319Y-93145579D01*
X154532871Y-93149904D01*
X154497066Y-93157124D01*
X154460265Y-93149905D01*
X154439348Y-93118777D01*
X154445736Y-93083271D01*
X154460876Y-93058852D01*
X154460878Y-93058848D01*
X154462635Y-93056014D01*
X154463566Y-93052810D01*
X154503997Y-92913647D01*
X154503997Y-92913645D01*
X154504715Y-92911175D01*
X154504909Y-92908540D01*
X154505433Y-92901392D01*
X154505500Y-92900485D01*
X154505500Y-92392215D01*
X154501155Y-92360492D01*
X154490659Y-92283878D01*
X154490206Y-92280568D01*
X154458544Y-92207402D01*
X154431632Y-92145211D01*
X154431631Y-92145210D01*
X154430305Y-92142145D01*
X154335386Y-92024930D01*
X154212442Y-91937558D01*
X154209302Y-91936427D01*
X154209299Y-91936426D01*
X154073674Y-91887598D01*
X154073673Y-91887598D01*
X154070532Y-91886467D01*
X154067204Y-91886223D01*
X154067201Y-91886222D01*
X153987468Y-91880367D01*
X153920109Y-91875420D01*
X153916836Y-91876080D01*
X153916835Y-91876080D01*
X153775533Y-91904572D01*
X153775530Y-91904573D01*
X153772257Y-91905233D01*
X153769281Y-91906749D01*
X153769279Y-91906750D01*
X153640848Y-91972188D01*
X153640845Y-91972190D01*
X153637868Y-91973707D01*
X153526844Y-92075799D01*
X153525085Y-92078636D01*
X153456889Y-92188626D01*
X153447365Y-92203986D01*
X153446434Y-92207189D01*
X153446434Y-92207190D01*
X153424115Y-92284014D01*
X153405285Y-92348825D01*
X153405097Y-92351389D01*
X153405096Y-92351393D01*
X153404823Y-92355122D01*
X153404500Y-92359515D01*
X153404500Y-92867785D01*
X153404726Y-92869432D01*
X153404726Y-92869438D01*
X153410083Y-92908540D01*
X153419794Y-92979432D01*
X153466288Y-93086872D01*
X153470474Y-93096546D01*
X153471063Y-93134044D01*
X153458330Y-93147183D01*
X153460379Y-93149047D01*
X153445000Y-93165949D01*
X153445000Y-93765253D01*
X153447855Y-93772145D01*
X153454747Y-93775000D01*
X153860253Y-93775000D01*
X153867145Y-93772145D01*
X153870000Y-93765253D01*
X153870000Y-93663922D01*
X153869774Y-93660598D01*
X153855173Y-93554014D01*
X153853393Y-93547637D01*
X153808168Y-93443128D01*
X153807579Y-93405630D01*
X153833678Y-93378698D01*
X153856725Y-93374800D01*
X153989891Y-93384580D01*
X154047934Y-93372876D01*
X154084735Y-93380096D01*
X154105652Y-93411223D01*
X154099264Y-93446729D01*
X154084124Y-93471148D01*
X154084122Y-93471152D01*
X154082365Y-93473986D01*
X154081434Y-93477189D01*
X154081434Y-93477190D01*
X154047840Y-93592822D01*
X154040285Y-93618825D01*
X154040097Y-93621389D01*
X154040096Y-93621393D01*
X154040091Y-93621461D01*
X154039500Y-93629515D01*
X154039500Y-93868250D01*
X154039232Y-93873372D01*
X154034599Y-93917454D01*
X154035156Y-93920747D01*
X154038814Y-93942375D01*
X154039500Y-93950547D01*
X154039500Y-94137785D01*
X154039726Y-94139432D01*
X154039726Y-94139438D01*
X154045083Y-94178540D01*
X154054794Y-94249432D01*
X154056121Y-94252498D01*
X154056121Y-94252499D01*
X154086548Y-94322810D01*
X154114695Y-94387855D01*
X154209614Y-94505070D01*
X154269926Y-94547932D01*
X154299832Y-94569185D01*
X154319761Y-94600954D01*
X154311388Y-94637511D01*
X154290626Y-94654217D01*
X154139875Y-94718329D01*
X153920464Y-94811641D01*
X153918046Y-94812594D01*
X153716734Y-94885866D01*
X153642835Y-94912763D01*
X153639597Y-94913815D01*
X153427641Y-94974593D01*
X153112824Y-95064865D01*
X153109506Y-95065692D01*
X152941001Y-95101509D01*
X152936813Y-95102211D01*
X151822991Y-95239631D01*
X151816991Y-95240000D01*
X150258661Y-95240000D01*
X150251841Y-95239523D01*
X149963040Y-95198934D01*
X149958225Y-95198010D01*
X148689948Y-94887987D01*
X148684824Y-94886433D01*
X148292574Y-94743666D01*
X148264924Y-94718329D01*
X148263288Y-94680862D01*
X148288625Y-94653212D01*
X148299648Y-94649588D01*
X148419467Y-94625428D01*
X148419470Y-94625427D01*
X148422743Y-94624767D01*
X148425719Y-94623251D01*
X148425721Y-94623250D01*
X148554152Y-94557812D01*
X148554155Y-94557810D01*
X148557132Y-94556293D01*
X148668156Y-94454201D01*
X148747635Y-94326014D01*
X148748566Y-94322810D01*
X148788997Y-94183647D01*
X148788997Y-94183645D01*
X148789715Y-94181175D01*
X148789909Y-94178540D01*
X148790433Y-94171392D01*
X148790500Y-94170485D01*
X148790500Y-94136078D01*
X148960000Y-94136078D01*
X148960226Y-94139402D01*
X148974827Y-94245986D01*
X148976607Y-94252363D01*
X149033800Y-94384528D01*
X149037229Y-94390190D01*
X149127858Y-94502107D01*
X149132681Y-94506636D01*
X149250069Y-94590060D01*
X149255934Y-94593126D01*
X149375829Y-94636291D01*
X149383282Y-94635940D01*
X149385000Y-94634051D01*
X149385000Y-94626152D01*
X149635000Y-94626152D01*
X149637855Y-94633044D01*
X149641556Y-94634577D01*
X149689302Y-94624950D01*
X149695555Y-94622773D01*
X149823864Y-94557397D01*
X149829304Y-94553616D01*
X149935309Y-94456139D01*
X149939526Y-94451042D01*
X150015414Y-94328646D01*
X150018106Y-94322598D01*
X150058498Y-94183567D01*
X150059403Y-94178540D01*
X150059933Y-94171319D01*
X150060000Y-94169508D01*
X150060000Y-94034747D01*
X150057145Y-94027855D01*
X150050253Y-94025000D01*
X149644747Y-94025000D01*
X149637855Y-94027855D01*
X149635000Y-94034747D01*
X149635000Y-94626152D01*
X149385000Y-94626152D01*
X149385000Y-94034747D01*
X149382145Y-94027855D01*
X149375253Y-94025000D01*
X148969747Y-94025000D01*
X148962855Y-94027855D01*
X148960000Y-94034747D01*
X148960000Y-94136078D01*
X148790500Y-94136078D01*
X148790500Y-93662215D01*
X148786155Y-93630492D01*
X148780545Y-93589545D01*
X148775206Y-93550568D01*
X148770824Y-93540441D01*
X148728731Y-93443170D01*
X148728142Y-93405672D01*
X148754241Y-93378740D01*
X148777290Y-93374842D01*
X148822322Y-93378149D01*
X148909891Y-93384580D01*
X148968608Y-93372740D01*
X149005408Y-93379960D01*
X149026325Y-93411087D01*
X149019937Y-93446593D01*
X149004587Y-93471350D01*
X149001894Y-93477402D01*
X148961502Y-93616433D01*
X148960597Y-93621460D01*
X148960067Y-93628681D01*
X148960000Y-93630492D01*
X148960000Y-93765253D01*
X148962855Y-93772145D01*
X148969747Y-93775000D01*
X149375253Y-93775000D01*
X149382145Y-93772145D01*
X149385000Y-93765253D01*
X149385000Y-93173848D01*
X149382145Y-93166956D01*
X149381090Y-93166519D01*
X149354572Y-93140000D01*
X149354572Y-93102497D01*
X149358197Y-93095428D01*
X149365651Y-93083407D01*
X149374521Y-93069101D01*
X149380878Y-93058848D01*
X149380878Y-93058847D01*
X149382635Y-93056014D01*
X149383566Y-93052810D01*
X149423997Y-92913647D01*
X149423997Y-92913645D01*
X149424715Y-92911175D01*
X149424909Y-92908540D01*
X149425433Y-92901392D01*
X149425500Y-92900485D01*
X149425500Y-92867785D01*
X149594500Y-92867785D01*
X149594726Y-92869432D01*
X149594726Y-92869438D01*
X149600083Y-92908540D01*
X149609794Y-92979432D01*
X149656288Y-93086872D01*
X149660474Y-93096546D01*
X149661063Y-93134044D01*
X149648330Y-93147183D01*
X149650379Y-93149047D01*
X149635000Y-93165949D01*
X149635000Y-93765253D01*
X149637855Y-93772145D01*
X149644747Y-93775000D01*
X150050253Y-93775000D01*
X150057145Y-93772145D01*
X150060000Y-93765253D01*
X150060000Y-93663922D01*
X150059774Y-93660598D01*
X150045173Y-93554014D01*
X150043393Y-93547637D01*
X149998168Y-93443128D01*
X149997579Y-93405630D01*
X150023678Y-93378698D01*
X150046725Y-93374800D01*
X150179891Y-93384580D01*
X150237934Y-93372876D01*
X150274735Y-93380096D01*
X150295652Y-93411223D01*
X150289264Y-93446729D01*
X150274124Y-93471148D01*
X150274122Y-93471152D01*
X150272365Y-93473986D01*
X150271434Y-93477189D01*
X150271434Y-93477190D01*
X150237840Y-93592822D01*
X150230285Y-93618825D01*
X150230097Y-93621389D01*
X150230096Y-93621393D01*
X150230091Y-93621461D01*
X150229500Y-93629515D01*
X150229500Y-94137785D01*
X150229726Y-94139432D01*
X150229726Y-94139438D01*
X150235083Y-94178540D01*
X150244794Y-94249432D01*
X150246121Y-94252498D01*
X150246121Y-94252499D01*
X150276548Y-94322810D01*
X150304695Y-94387855D01*
X150399614Y-94505070D01*
X150522558Y-94592442D01*
X150525698Y-94593573D01*
X150525701Y-94593574D01*
X150661326Y-94642402D01*
X150661327Y-94642402D01*
X150664468Y-94643533D01*
X150667796Y-94643777D01*
X150667799Y-94643778D01*
X150746917Y-94649588D01*
X150814891Y-94654580D01*
X150818164Y-94653920D01*
X150818165Y-94653920D01*
X150959467Y-94625428D01*
X150959470Y-94625427D01*
X150962743Y-94624767D01*
X150965719Y-94623251D01*
X150965721Y-94623250D01*
X151094152Y-94557812D01*
X151094155Y-94557810D01*
X151097132Y-94556293D01*
X151208156Y-94454201D01*
X151287635Y-94326014D01*
X151288566Y-94322810D01*
X151328997Y-94183647D01*
X151328997Y-94183645D01*
X151329715Y-94181175D01*
X151329909Y-94178540D01*
X151330433Y-94171392D01*
X151330500Y-94170485D01*
X151330500Y-94137785D01*
X151499500Y-94137785D01*
X151499726Y-94139432D01*
X151499726Y-94139438D01*
X151505083Y-94178540D01*
X151514794Y-94249432D01*
X151516121Y-94252498D01*
X151516121Y-94252499D01*
X151546548Y-94322810D01*
X151574695Y-94387855D01*
X151669614Y-94505070D01*
X151792558Y-94592442D01*
X151795698Y-94593573D01*
X151795701Y-94593574D01*
X151931326Y-94642402D01*
X151931327Y-94642402D01*
X151934468Y-94643533D01*
X151937796Y-94643777D01*
X151937799Y-94643778D01*
X152016917Y-94649588D01*
X152084891Y-94654580D01*
X152088164Y-94653920D01*
X152088165Y-94653920D01*
X152229467Y-94625428D01*
X152229470Y-94625427D01*
X152232743Y-94624767D01*
X152235719Y-94623251D01*
X152235721Y-94623250D01*
X152364152Y-94557812D01*
X152364155Y-94557810D01*
X152367132Y-94556293D01*
X152478156Y-94454201D01*
X152557635Y-94326014D01*
X152558566Y-94322810D01*
X152598997Y-94183647D01*
X152598997Y-94183645D01*
X152599715Y-94181175D01*
X152599909Y-94178540D01*
X152600433Y-94171392D01*
X152600500Y-94170485D01*
X152600500Y-94136078D01*
X152770000Y-94136078D01*
X152770226Y-94139402D01*
X152784827Y-94245986D01*
X152786607Y-94252363D01*
X152843800Y-94384528D01*
X152847229Y-94390190D01*
X152937858Y-94502107D01*
X152942681Y-94506636D01*
X153060069Y-94590060D01*
X153065934Y-94593126D01*
X153185829Y-94636291D01*
X153193282Y-94635940D01*
X153195000Y-94634051D01*
X153195000Y-94626152D01*
X153445000Y-94626152D01*
X153447855Y-94633044D01*
X153451556Y-94634577D01*
X153499302Y-94624950D01*
X153505555Y-94622773D01*
X153633864Y-94557397D01*
X153639304Y-94553616D01*
X153745309Y-94456139D01*
X153749526Y-94451042D01*
X153825414Y-94328646D01*
X153828106Y-94322598D01*
X153868498Y-94183567D01*
X153869403Y-94178540D01*
X153869933Y-94171319D01*
X153870000Y-94169508D01*
X153870000Y-94034747D01*
X153867145Y-94027855D01*
X153860253Y-94025000D01*
X153454747Y-94025000D01*
X153447855Y-94027855D01*
X153445000Y-94034747D01*
X153445000Y-94626152D01*
X153195000Y-94626152D01*
X153195000Y-94034747D01*
X153192145Y-94027855D01*
X153185253Y-94025000D01*
X152779747Y-94025000D01*
X152772855Y-94027855D01*
X152770000Y-94034747D01*
X152770000Y-94136078D01*
X152600500Y-94136078D01*
X152600500Y-93662215D01*
X152596155Y-93630492D01*
X152590545Y-93589545D01*
X152585206Y-93550568D01*
X152580824Y-93540441D01*
X152538731Y-93443170D01*
X152538142Y-93405672D01*
X152564241Y-93378740D01*
X152587290Y-93374842D01*
X152632322Y-93378149D01*
X152719891Y-93384580D01*
X152778608Y-93372740D01*
X152815408Y-93379960D01*
X152836325Y-93411087D01*
X152829937Y-93446593D01*
X152814587Y-93471350D01*
X152811894Y-93477402D01*
X152771502Y-93616433D01*
X152770597Y-93621460D01*
X152770067Y-93628681D01*
X152770000Y-93630492D01*
X152770000Y-93765253D01*
X152772855Y-93772145D01*
X152779747Y-93775000D01*
X153185253Y-93775000D01*
X153192145Y-93772145D01*
X153195000Y-93765253D01*
X153195000Y-93173848D01*
X153192145Y-93166956D01*
X153191090Y-93166519D01*
X153164572Y-93140000D01*
X153164572Y-93102497D01*
X153168197Y-93095428D01*
X153175651Y-93083407D01*
X153184521Y-93069101D01*
X153190878Y-93058848D01*
X153190878Y-93058847D01*
X153192635Y-93056014D01*
X153193566Y-93052810D01*
X153233997Y-92913647D01*
X153233997Y-92913645D01*
X153234715Y-92911175D01*
X153234909Y-92908540D01*
X153235433Y-92901392D01*
X153235500Y-92900485D01*
X153235500Y-92392215D01*
X153231155Y-92360492D01*
X153220659Y-92283878D01*
X153220206Y-92280568D01*
X153188544Y-92207402D01*
X153161632Y-92145211D01*
X153161631Y-92145210D01*
X153160305Y-92142145D01*
X153065386Y-92024930D01*
X152942442Y-91937558D01*
X152939302Y-91936427D01*
X152939299Y-91936426D01*
X152803674Y-91887598D01*
X152803673Y-91887598D01*
X152800532Y-91886467D01*
X152797204Y-91886223D01*
X152797201Y-91886222D01*
X152717468Y-91880367D01*
X152650109Y-91875420D01*
X152646836Y-91876080D01*
X152646835Y-91876080D01*
X152505533Y-91904572D01*
X152505530Y-91904573D01*
X152502257Y-91905233D01*
X152499281Y-91906749D01*
X152499279Y-91906750D01*
X152370848Y-91972188D01*
X152370845Y-91972190D01*
X152367868Y-91973707D01*
X152256844Y-92075799D01*
X152255085Y-92078636D01*
X152186889Y-92188626D01*
X152177365Y-92203986D01*
X152176434Y-92207189D01*
X152176434Y-92207190D01*
X152154115Y-92284014D01*
X152135285Y-92348825D01*
X152135097Y-92351389D01*
X152135096Y-92351393D01*
X152134823Y-92355122D01*
X152134500Y-92359515D01*
X152134500Y-92867785D01*
X152134726Y-92869432D01*
X152134726Y-92869438D01*
X152140083Y-92908540D01*
X152149794Y-92979432D01*
X152151121Y-92982498D01*
X152151121Y-92982499D01*
X152196269Y-93086830D01*
X152196858Y-93124328D01*
X152170759Y-93151260D01*
X152147710Y-93155158D01*
X152094630Y-93151260D01*
X152015109Y-93145420D01*
X151956392Y-93157260D01*
X151919592Y-93150040D01*
X151898675Y-93118913D01*
X151905063Y-93083407D01*
X151920413Y-93058650D01*
X151923106Y-93052598D01*
X151963498Y-92913567D01*
X151964403Y-92908540D01*
X151964933Y-92901319D01*
X151965000Y-92899508D01*
X151965000Y-92764747D01*
X151962145Y-92757855D01*
X151955253Y-92755000D01*
X151549747Y-92755000D01*
X151542855Y-92757855D01*
X151540000Y-92764747D01*
X151540000Y-93356152D01*
X151542855Y-93363044D01*
X151543910Y-93363481D01*
X151570428Y-93390000D01*
X151570428Y-93427503D01*
X151566805Y-93434568D01*
X151559265Y-93446729D01*
X151544125Y-93471148D01*
X151542365Y-93473986D01*
X151541434Y-93477189D01*
X151541434Y-93477190D01*
X151507840Y-93592822D01*
X151500285Y-93618825D01*
X151500097Y-93621389D01*
X151500096Y-93621393D01*
X151500091Y-93621461D01*
X151499500Y-93629515D01*
X151499500Y-94137785D01*
X151330500Y-94137785D01*
X151330500Y-93662215D01*
X151326155Y-93630492D01*
X151320545Y-93589545D01*
X151315206Y-93550568D01*
X151309674Y-93537783D01*
X151268731Y-93443170D01*
X151264526Y-93433453D01*
X151263937Y-93395956D01*
X151276670Y-93382817D01*
X151274621Y-93380953D01*
X151290000Y-93364051D01*
X151290000Y-92764747D01*
X151287145Y-92757855D01*
X151280253Y-92755000D01*
X150874747Y-92755000D01*
X150867855Y-92757855D01*
X150865000Y-92764747D01*
X150865000Y-92866078D01*
X150865226Y-92869402D01*
X150879827Y-92975986D01*
X150881607Y-92982363D01*
X150926832Y-93086872D01*
X150927421Y-93124370D01*
X150901322Y-93151302D01*
X150878275Y-93155200D01*
X150745109Y-93145420D01*
X150687066Y-93157124D01*
X150650265Y-93149904D01*
X150629348Y-93118777D01*
X150635736Y-93083271D01*
X150650876Y-93058852D01*
X150650878Y-93058848D01*
X150652635Y-93056014D01*
X150653566Y-93052810D01*
X150693997Y-92913647D01*
X150693997Y-92913645D01*
X150694715Y-92911175D01*
X150694909Y-92908540D01*
X150695433Y-92901392D01*
X150695500Y-92900485D01*
X150695500Y-92495253D01*
X150865000Y-92495253D01*
X150867855Y-92502145D01*
X150874747Y-92505000D01*
X151280253Y-92505000D01*
X151287145Y-92502145D01*
X151290000Y-92495253D01*
X151540000Y-92495253D01*
X151542855Y-92502145D01*
X151549747Y-92505000D01*
X151955253Y-92505000D01*
X151962145Y-92502145D01*
X151965000Y-92495253D01*
X151965000Y-92393922D01*
X151964774Y-92390598D01*
X151950173Y-92284014D01*
X151948393Y-92277637D01*
X151891200Y-92145472D01*
X151887771Y-92139810D01*
X151797142Y-92027893D01*
X151792319Y-92023364D01*
X151674931Y-91939940D01*
X151669066Y-91936874D01*
X151549171Y-91893709D01*
X151541718Y-91894060D01*
X151540000Y-91895949D01*
X151540000Y-92495253D01*
X151290000Y-92495253D01*
X151290000Y-91903848D01*
X151287145Y-91896956D01*
X151283444Y-91895423D01*
X151235698Y-91905050D01*
X151229445Y-91907227D01*
X151101136Y-91972603D01*
X151095696Y-91976384D01*
X150989691Y-92073861D01*
X150985474Y-92078958D01*
X150909586Y-92201354D01*
X150906894Y-92207402D01*
X150866502Y-92346433D01*
X150865597Y-92351460D01*
X150865067Y-92358681D01*
X150865000Y-92360492D01*
X150865000Y-92495253D01*
X150695500Y-92495253D01*
X150695500Y-92392215D01*
X150691155Y-92360492D01*
X150680659Y-92283878D01*
X150680206Y-92280568D01*
X150648544Y-92207402D01*
X150621632Y-92145211D01*
X150621631Y-92145210D01*
X150620305Y-92142145D01*
X150525386Y-92024930D01*
X150402442Y-91937558D01*
X150399302Y-91936427D01*
X150399299Y-91936426D01*
X150263674Y-91887598D01*
X150263673Y-91887598D01*
X150260532Y-91886467D01*
X150257204Y-91886223D01*
X150257201Y-91886222D01*
X150177468Y-91880367D01*
X150110109Y-91875420D01*
X150106836Y-91876080D01*
X150106835Y-91876080D01*
X149965533Y-91904572D01*
X149965530Y-91904573D01*
X149962257Y-91905233D01*
X149959281Y-91906749D01*
X149959279Y-91906750D01*
X149830848Y-91972188D01*
X149830845Y-91972190D01*
X149827868Y-91973707D01*
X149716844Y-92075799D01*
X149715085Y-92078636D01*
X149646889Y-92188626D01*
X149637365Y-92203986D01*
X149636434Y-92207189D01*
X149636434Y-92207190D01*
X149614115Y-92284014D01*
X149595285Y-92348825D01*
X149595097Y-92351389D01*
X149595096Y-92351393D01*
X149594823Y-92355122D01*
X149594500Y-92359515D01*
X149594500Y-92867785D01*
X149425500Y-92867785D01*
X149425500Y-92392215D01*
X149421155Y-92360492D01*
X149410659Y-92283878D01*
X149410206Y-92280568D01*
X149378544Y-92207402D01*
X149351632Y-92145211D01*
X149351631Y-92145210D01*
X149350305Y-92142145D01*
X149255386Y-92024930D01*
X149132442Y-91937558D01*
X149129302Y-91936427D01*
X149129299Y-91936426D01*
X148993674Y-91887598D01*
X148993673Y-91887598D01*
X148990532Y-91886467D01*
X148987204Y-91886223D01*
X148987201Y-91886222D01*
X148907468Y-91880367D01*
X148840109Y-91875420D01*
X148836836Y-91876080D01*
X148836835Y-91876080D01*
X148695533Y-91904572D01*
X148695530Y-91904573D01*
X148692257Y-91905233D01*
X148689281Y-91906749D01*
X148689279Y-91906750D01*
X148560848Y-91972188D01*
X148560845Y-91972190D01*
X148557868Y-91973707D01*
X148446844Y-92075799D01*
X148445085Y-92078636D01*
X148376889Y-92188626D01*
X148367365Y-92203986D01*
X148366434Y-92207189D01*
X148366434Y-92207190D01*
X148344115Y-92284014D01*
X148325285Y-92348825D01*
X148325097Y-92351389D01*
X148325096Y-92351393D01*
X148324823Y-92355122D01*
X148324500Y-92359515D01*
X148324500Y-92867785D01*
X148324726Y-92869432D01*
X148324726Y-92869438D01*
X148330083Y-92908540D01*
X148339794Y-92979432D01*
X148341121Y-92982498D01*
X148341121Y-92982499D01*
X148386269Y-93086830D01*
X148386858Y-93124328D01*
X148360759Y-93151260D01*
X148337710Y-93155158D01*
X148284630Y-93151260D01*
X148205109Y-93145420D01*
X148146392Y-93157260D01*
X148109592Y-93150040D01*
X148088675Y-93118913D01*
X148095063Y-93083407D01*
X148110413Y-93058650D01*
X148113106Y-93052598D01*
X148153498Y-92913567D01*
X148154403Y-92908540D01*
X148154933Y-92901319D01*
X148155000Y-92899508D01*
X148155000Y-92764747D01*
X148152145Y-92757855D01*
X148145253Y-92755000D01*
X147739747Y-92755000D01*
X147732855Y-92757855D01*
X147730000Y-92764747D01*
X147730000Y-93356152D01*
X147732855Y-93363044D01*
X147733910Y-93363481D01*
X147760428Y-93390000D01*
X147760428Y-93427503D01*
X147756805Y-93434568D01*
X147749265Y-93446729D01*
X147734125Y-93471148D01*
X147732365Y-93473986D01*
X147731434Y-93477189D01*
X147731434Y-93477190D01*
X147697840Y-93592822D01*
X147690285Y-93618825D01*
X147690097Y-93621389D01*
X147690096Y-93621393D01*
X147690091Y-93621461D01*
X147689500Y-93629515D01*
X147689500Y-94137785D01*
X147689726Y-94139432D01*
X147689726Y-94139438D01*
X147695083Y-94178540D01*
X147704794Y-94249432D01*
X147706121Y-94252498D01*
X147706121Y-94252499D01*
X147764695Y-94387855D01*
X147763823Y-94388232D01*
X147768945Y-94421701D01*
X147746743Y-94451926D01*
X147709671Y-94457599D01*
X147697781Y-94452967D01*
X147694861Y-94451364D01*
X146797961Y-93959044D01*
X146795587Y-93957652D01*
X146783823Y-93950301D01*
X146781009Y-93948404D01*
X146337656Y-93626289D01*
X146334967Y-93624188D01*
X146325629Y-93616353D01*
X146297574Y-93592812D01*
X146294049Y-93589545D01*
X145586840Y-92866078D01*
X147055000Y-92866078D01*
X147055226Y-92869402D01*
X147069827Y-92975986D01*
X147071607Y-92982363D01*
X147128800Y-93114528D01*
X147132229Y-93120190D01*
X147222858Y-93232107D01*
X147227681Y-93236636D01*
X147345069Y-93320060D01*
X147350934Y-93323126D01*
X147470829Y-93366291D01*
X147478282Y-93365940D01*
X147480000Y-93364051D01*
X147480000Y-92764747D01*
X147477145Y-92757855D01*
X147470253Y-92755000D01*
X147064747Y-92755000D01*
X147057855Y-92757855D01*
X147055000Y-92764747D01*
X147055000Y-92866078D01*
X145586840Y-92866078D01*
X145224348Y-92495253D01*
X147055000Y-92495253D01*
X147057855Y-92502145D01*
X147064747Y-92505000D01*
X147470253Y-92505000D01*
X147477145Y-92502145D01*
X147480000Y-92495253D01*
X147730000Y-92495253D01*
X147732855Y-92502145D01*
X147739747Y-92505000D01*
X148145253Y-92505000D01*
X148152145Y-92502145D01*
X148155000Y-92495253D01*
X148155000Y-92393922D01*
X148154774Y-92390598D01*
X148140173Y-92284014D01*
X148138393Y-92277637D01*
X148081200Y-92145472D01*
X148077771Y-92139810D01*
X147987142Y-92027893D01*
X147982319Y-92023364D01*
X147864931Y-91939940D01*
X147859066Y-91936874D01*
X147739171Y-91893709D01*
X147731718Y-91894060D01*
X147730000Y-91895949D01*
X147730000Y-92495253D01*
X147480000Y-92495253D01*
X147480000Y-91903848D01*
X147477145Y-91896956D01*
X147473444Y-91895423D01*
X147425698Y-91905050D01*
X147419445Y-91907227D01*
X147291136Y-91972603D01*
X147285696Y-91976384D01*
X147179691Y-92073861D01*
X147175474Y-92078958D01*
X147099586Y-92201354D01*
X147096894Y-92207402D01*
X147056502Y-92346433D01*
X147055597Y-92351460D01*
X147055067Y-92358681D01*
X147055000Y-92360492D01*
X147055000Y-92495253D01*
X145224348Y-92495253D01*
X144914237Y-92178013D01*
X144910667Y-92173931D01*
X144901829Y-92162618D01*
X144820464Y-92058476D01*
X144809817Y-92044848D01*
X144807807Y-92042081D01*
X144614784Y-91755912D01*
X144612172Y-91751571D01*
X144143177Y-90872207D01*
X143915281Y-90444902D01*
X143913097Y-90440225D01*
X143859321Y-90307125D01*
X143856856Y-90299109D01*
X143745916Y-89785160D01*
X143381103Y-88095110D01*
X143380000Y-88084771D01*
X143380000Y-87451570D01*
X143380100Y-87448438D01*
X143389255Y-87305482D01*
X143493549Y-85676894D01*
X143494903Y-85668182D01*
X143605619Y-85224126D01*
X143606559Y-85220847D01*
X143614070Y-85197732D01*
X143616264Y-85192163D01*
X144624009Y-83031489D01*
X144627793Y-83024800D01*
X144629411Y-83022402D01*
X144642650Y-83002773D01*
X144768196Y-82816645D01*
X144774925Y-82808659D01*
X146884780Y-80787827D01*
X146892708Y-80781660D01*
X147187028Y-80597748D01*
X147248551Y-80559304D01*
X147251512Y-80557595D01*
X147304323Y-80529515D01*
X147467425Y-80442792D01*
X147504755Y-80439197D01*
X147533693Y-80463052D01*
X147537288Y-80500382D01*
X147532074Y-80511877D01*
X147502668Y-80559305D01*
X147487365Y-80583986D01*
X147486433Y-80587193D01*
X147485083Y-80590226D01*
X147471156Y-80608376D01*
X147457526Y-80619414D01*
X147444930Y-80629614D01*
X147442996Y-80632336D01*
X147430289Y-80650216D01*
X147424996Y-80656479D01*
X146980222Y-81101254D01*
X146978741Y-81102675D01*
X146931844Y-81145799D01*
X146930087Y-81148634D01*
X146930082Y-81148639D01*
X146906997Y-81185873D01*
X146904393Y-81189663D01*
X146875888Y-81227217D01*
X146868421Y-81246078D01*
X146867824Y-81247585D01*
X146863909Y-81255368D01*
X146852365Y-81273986D01*
X146850214Y-81281392D01*
X146839214Y-81319253D01*
X146837719Y-81323620D01*
X146823540Y-81359432D01*
X146820364Y-81367453D01*
X146820015Y-81370771D01*
X146820015Y-81370772D01*
X146818074Y-81389239D01*
X146816397Y-81397786D01*
X146810285Y-81418825D01*
X146809500Y-81429515D01*
X146809500Y-81468250D01*
X146809232Y-81473372D01*
X146804599Y-81517454D01*
X146805156Y-81520747D01*
X146808814Y-81542375D01*
X146809500Y-81550547D01*
X146809500Y-82317785D01*
X146809501Y-82317789D01*
X146809501Y-82721374D01*
X146812657Y-82747907D01*
X146814148Y-82751264D01*
X146814149Y-82751267D01*
X146839642Y-82808659D01*
X146858682Y-82851524D01*
X146861882Y-82854718D01*
X146861883Y-82854720D01*
X146895118Y-82887896D01*
X146909500Y-82922575D01*
X146909500Y-84300327D01*
X146909160Y-84306085D01*
X146904636Y-84344310D01*
X146915401Y-84403253D01*
X146915642Y-84404708D01*
X146924551Y-84463962D01*
X146926137Y-84467264D01*
X146927155Y-84470574D01*
X146928316Y-84473966D01*
X146928975Y-84477573D01*
X146930666Y-84480828D01*
X146956566Y-84530688D01*
X146957247Y-84532051D01*
X146983191Y-84586079D01*
X146985677Y-84588768D01*
X146987736Y-84591798D01*
X146987447Y-84591994D01*
X146988286Y-84593187D01*
X146988573Y-84592994D01*
X146990135Y-84595312D01*
X146991421Y-84597788D01*
X146993233Y-84599909D01*
X146993233Y-84599910D01*
X146995107Y-84602105D01*
X146995115Y-84602113D01*
X146995725Y-84602828D01*
X147034033Y-84641136D01*
X147035367Y-84642523D01*
X147075146Y-84685556D01*
X147078313Y-84687395D01*
X147081173Y-84689687D01*
X147081143Y-84689724D01*
X147087554Y-84694657D01*
X147553251Y-85160354D01*
X147567603Y-85195002D01*
X147553251Y-85229650D01*
X147518603Y-85244002D01*
X147512462Y-85243616D01*
X147474233Y-85238787D01*
X147400717Y-85229500D01*
X146804845Y-85229500D01*
X146803494Y-85229652D01*
X146803486Y-85229652D01*
X146674246Y-85244149D01*
X146674245Y-85244149D01*
X146671528Y-85244454D01*
X146668940Y-85245355D01*
X146668941Y-85245355D01*
X146504516Y-85302613D01*
X146504513Y-85302615D01*
X146501927Y-85303515D01*
X146499604Y-85304966D01*
X146499603Y-85304967D01*
X146435883Y-85344784D01*
X146349625Y-85398684D01*
X146347682Y-85400613D01*
X146347680Y-85400615D01*
X146298762Y-85449193D01*
X146222193Y-85525230D01*
X146216599Y-85534045D01*
X146131477Y-85668176D01*
X146125963Y-85676864D01*
X146125045Y-85679442D01*
X146125044Y-85679444D01*
X146087543Y-85784760D01*
X146062400Y-85812586D01*
X146024945Y-85814484D01*
X146008946Y-85805050D01*
X145980231Y-85779690D01*
X145977612Y-85777377D01*
X145974454Y-85775894D01*
X145974452Y-85775893D01*
X145900317Y-85741087D01*
X145847837Y-85716447D01*
X145738991Y-85699500D01*
X145664060Y-85699500D01*
X145662336Y-85699747D01*
X145662334Y-85699747D01*
X145590889Y-85709979D01*
X145558082Y-85714677D01*
X145427572Y-85774016D01*
X145424929Y-85776293D01*
X145424928Y-85776294D01*
X145380607Y-85814484D01*
X145318963Y-85867600D01*
X145240985Y-85987905D01*
X145199907Y-86125261D01*
X145199031Y-86268624D01*
X145199990Y-86271979D01*
X145199990Y-86271980D01*
X145232622Y-86386156D01*
X145238428Y-86406471D01*
X145314930Y-86527720D01*
X145422388Y-86622623D01*
X145425546Y-86624106D01*
X145425548Y-86624107D01*
X145446377Y-86633886D01*
X145552163Y-86683553D01*
X145606384Y-86691995D01*
X145606949Y-86692083D01*
X145638977Y-86711595D01*
X145647828Y-86748038D01*
X145628316Y-86780066D01*
X145599411Y-86789500D01*
X144878100Y-86789500D01*
X144850877Y-86781242D01*
X144847245Y-86778815D01*
X144843231Y-86776133D01*
X144784748Y-86764500D01*
X143895252Y-86764500D01*
X143836769Y-86776133D01*
X143832755Y-86778815D01*
X143818421Y-86788393D01*
X143770448Y-86820448D01*
X143726133Y-86886769D01*
X143714500Y-86945252D01*
X143714500Y-87834748D01*
X143726133Y-87893231D01*
X143770448Y-87959552D01*
X143774459Y-87962232D01*
X143832540Y-88001041D01*
X143836769Y-88003867D01*
X143895252Y-88015500D01*
X144784748Y-88015500D01*
X144843231Y-88003867D01*
X144850877Y-87998758D01*
X144878100Y-87990500D01*
X146450500Y-87990500D01*
X146485148Y-88004852D01*
X146499500Y-88039500D01*
X146499500Y-88217871D01*
X146485148Y-88252519D01*
X146476466Y-88259425D01*
X146353648Y-88336170D01*
X146349625Y-88338684D01*
X146347682Y-88340613D01*
X146347680Y-88340615D01*
X146298532Y-88389422D01*
X146222193Y-88465230D01*
X146214319Y-88477637D01*
X146127633Y-88614233D01*
X146125963Y-88616864D01*
X146065719Y-88786049D01*
X146044455Y-88964376D01*
X146063227Y-89142983D01*
X146121103Y-89312993D01*
X146122539Y-89315327D01*
X146172024Y-89395763D01*
X146215206Y-89465955D01*
X146217121Y-89467911D01*
X146217123Y-89467913D01*
X146338941Y-89592310D01*
X146338944Y-89592312D01*
X146340859Y-89594268D01*
X146491817Y-89691554D01*
X146599683Y-89730814D01*
X146658003Y-89752041D01*
X146658005Y-89752041D01*
X146660578Y-89752978D01*
X146799283Y-89770500D01*
X147395155Y-89770500D01*
X147396506Y-89770348D01*
X147396514Y-89770348D01*
X147525754Y-89755851D01*
X147525755Y-89755851D01*
X147528472Y-89755546D01*
X147582958Y-89736572D01*
X147695484Y-89697387D01*
X147695487Y-89697385D01*
X147698073Y-89696485D01*
X147705965Y-89691554D01*
X147848050Y-89602769D01*
X147848051Y-89602768D01*
X147850375Y-89601316D01*
X147857473Y-89594268D01*
X147952227Y-89500172D01*
X147977807Y-89474770D01*
X148074037Y-89323136D01*
X148134281Y-89153951D01*
X148155545Y-88975624D01*
X148136773Y-88797017D01*
X148078897Y-88627007D01*
X148020061Y-88531370D01*
X147986229Y-88476377D01*
X147986227Y-88476375D01*
X147984794Y-88474045D01*
X147978429Y-88467545D01*
X147861059Y-88347690D01*
X147861056Y-88347688D01*
X147859141Y-88345732D01*
X147856845Y-88344253D01*
X147856841Y-88344249D01*
X147750521Y-88275731D01*
X147722955Y-88257966D01*
X147701607Y-88227134D01*
X147700500Y-88216779D01*
X147700500Y-87632574D01*
X147700919Y-87626178D01*
X147705263Y-87593183D01*
X147705682Y-87590000D01*
X147700919Y-87553821D01*
X147700500Y-87547426D01*
X147700500Y-86782129D01*
X147714852Y-86747481D01*
X147723534Y-86740575D01*
X147848050Y-86662769D01*
X147848051Y-86662768D01*
X147850375Y-86661316D01*
X147855979Y-86655751D01*
X147912125Y-86599996D01*
X147946823Y-86585765D01*
X147981421Y-86600238D01*
X147993764Y-86633886D01*
X147995335Y-86633775D01*
X147998898Y-86684095D01*
X147999020Y-86687556D01*
X147999020Y-86703370D01*
X148001084Y-86717097D01*
X148001504Y-86720905D01*
X148004625Y-86764971D01*
X148004903Y-86768904D01*
X148006225Y-86772321D01*
X148009443Y-86780638D01*
X148012200Y-86791035D01*
X148014071Y-86803482D01*
X148015655Y-86806780D01*
X148015655Y-86806781D01*
X148034896Y-86846850D01*
X148036422Y-86850377D01*
X148038400Y-86855488D01*
X148048949Y-86882755D01*
X148053781Y-86895246D01*
X148056051Y-86898125D01*
X148061572Y-86905129D01*
X148067262Y-86914253D01*
X148071124Y-86922295D01*
X148072711Y-86925599D01*
X148075195Y-86928287D01*
X148075197Y-86928289D01*
X148105370Y-86960930D01*
X148107865Y-86963852D01*
X148137648Y-87001630D01*
X148148000Y-87008784D01*
X148156119Y-87015829D01*
X148164666Y-87025076D01*
X148167836Y-87026917D01*
X148167837Y-87026918D01*
X148206274Y-87049244D01*
X148209521Y-87051305D01*
X148221023Y-87059254D01*
X148227813Y-87064916D01*
X148360462Y-87197565D01*
X148364294Y-87201877D01*
X148388128Y-87232110D01*
X148391139Y-87234191D01*
X148391140Y-87234192D01*
X148437388Y-87266156D01*
X148438631Y-87267044D01*
X148486817Y-87302634D01*
X148490271Y-87303847D01*
X148493359Y-87305482D01*
X148496554Y-87307047D01*
X148499569Y-87309131D01*
X148503063Y-87310236D01*
X148556652Y-87327184D01*
X148558112Y-87327671D01*
X148611171Y-87346304D01*
X148614631Y-87347519D01*
X148618296Y-87347663D01*
X148621889Y-87348348D01*
X148621824Y-87348687D01*
X148623260Y-87348938D01*
X148623325Y-87348603D01*
X148626065Y-87349137D01*
X148628730Y-87349980D01*
X148635337Y-87350500D01*
X148689537Y-87350500D01*
X148691461Y-87350538D01*
X148749994Y-87352838D01*
X148753537Y-87351898D01*
X148757174Y-87351497D01*
X148757179Y-87351544D01*
X148765196Y-87350500D01*
X149360500Y-87350500D01*
X149395148Y-87364852D01*
X149409500Y-87399500D01*
X149409500Y-88026609D01*
X149409457Y-88028661D01*
X149406790Y-88092294D01*
X149407552Y-88095542D01*
X149407552Y-88095544D01*
X149409898Y-88105544D01*
X149417556Y-88138196D01*
X149418394Y-88142715D01*
X149424794Y-88189432D01*
X149430448Y-88202496D01*
X149433496Y-88209540D01*
X149436228Y-88217801D01*
X149441232Y-88239136D01*
X149443639Y-88243515D01*
X149463944Y-88280451D01*
X149465975Y-88284596D01*
X149477078Y-88310252D01*
X149484695Y-88327855D01*
X149495028Y-88340615D01*
X149498478Y-88344876D01*
X149503336Y-88352106D01*
X149513893Y-88371308D01*
X149515572Y-88373253D01*
X149515574Y-88373256D01*
X149518038Y-88376109D01*
X149520897Y-88379422D01*
X149521535Y-88380060D01*
X149548291Y-88406815D01*
X149551723Y-88410627D01*
X149556346Y-88416336D01*
X149572425Y-88436193D01*
X149573216Y-88437197D01*
X149575423Y-88440072D01*
X149577379Y-88442621D01*
X149578044Y-88443131D01*
X149579614Y-88445070D01*
X149582340Y-88447007D01*
X149591834Y-88453754D01*
X149593276Y-88454819D01*
X149604325Y-88463297D01*
X149605005Y-88463819D01*
X149606608Y-88465132D01*
X149607456Y-88465980D01*
X149641251Y-88491632D01*
X149692375Y-88530861D01*
X149693266Y-88531230D01*
X149694489Y-88532043D01*
X149694552Y-88532091D01*
X149694556Y-88532093D01*
X149697216Y-88534112D01*
X149747730Y-88554112D01*
X149765031Y-88560962D01*
X149765742Y-88561250D01*
X149826291Y-88586330D01*
X149829284Y-88586724D01*
X149834227Y-88588359D01*
X149837453Y-88589636D01*
X149865971Y-88592633D01*
X149905978Y-88596838D01*
X149907252Y-88596989D01*
X149966817Y-88604831D01*
X149970000Y-88605250D01*
X149973183Y-88604831D01*
X149976395Y-88604831D01*
X149976395Y-88605005D01*
X149982875Y-88604920D01*
X149984131Y-88605052D01*
X149984132Y-88605052D01*
X149987454Y-88605401D01*
X150051932Y-88594496D01*
X150053661Y-88594236D01*
X150113709Y-88586330D01*
X150117910Y-88584590D01*
X150128489Y-88581547D01*
X150132877Y-88580805D01*
X150132878Y-88580805D01*
X150136170Y-88580248D01*
X150192305Y-88553833D01*
X150194404Y-88552906D01*
X150244658Y-88532090D01*
X150247625Y-88530861D01*
X150250168Y-88528910D01*
X150250171Y-88528908D01*
X150253746Y-88526164D01*
X150262714Y-88520701D01*
X150269617Y-88517453D01*
X150269620Y-88517451D01*
X150272642Y-88516029D01*
X150317125Y-88477633D01*
X150319308Y-88475856D01*
X150321669Y-88474045D01*
X150362621Y-88442621D01*
X150367173Y-88436689D01*
X150369243Y-88433992D01*
X150376100Y-88426728D01*
X150384292Y-88419657D01*
X150386819Y-88417476D01*
X150392697Y-88408630D01*
X150417537Y-88371242D01*
X150419475Y-88368529D01*
X150448907Y-88330172D01*
X150448908Y-88330170D01*
X150450861Y-88327625D01*
X150456235Y-88314651D01*
X150460692Y-88306286D01*
X150468435Y-88294631D01*
X150470285Y-88291847D01*
X150478736Y-88265836D01*
X150486448Y-88242103D01*
X150487780Y-88238494D01*
X150505101Y-88196677D01*
X150505102Y-88196674D01*
X150506330Y-88193709D01*
X150508574Y-88176661D01*
X150510554Y-88167915D01*
X150515861Y-88151583D01*
X150515862Y-88151579D01*
X150516894Y-88148402D01*
X150517322Y-88138183D01*
X150518951Y-88099337D01*
X150519327Y-88094994D01*
X150524831Y-88053184D01*
X150524831Y-88053183D01*
X150525250Y-88050000D01*
X150522594Y-88029825D01*
X150522218Y-88021377D01*
X150523070Y-88001041D01*
X150523210Y-87997706D01*
X150521581Y-87990758D01*
X150512724Y-87953001D01*
X150511848Y-87948205D01*
X150510919Y-87941147D01*
X150510500Y-87934753D01*
X150510500Y-86929292D01*
X150510919Y-86922896D01*
X150514831Y-86893183D01*
X150515250Y-86890000D01*
X150510705Y-86855478D01*
X150510500Y-86853421D01*
X150510500Y-86852215D01*
X150504728Y-86810083D01*
X150496330Y-86746291D01*
X150495961Y-86745400D01*
X150495671Y-86743959D01*
X150495206Y-86740568D01*
X150484152Y-86715023D01*
X150466246Y-86673644D01*
X150465946Y-86672936D01*
X150458828Y-86655751D01*
X150440861Y-86612375D01*
X150439021Y-86609977D01*
X150436686Y-86605333D01*
X150436637Y-86605219D01*
X150436632Y-86605210D01*
X150435305Y-86602145D01*
X150391971Y-86548631D01*
X150391180Y-86547629D01*
X150381313Y-86534770D01*
X150352621Y-86497379D01*
X150350073Y-86495424D01*
X150347803Y-86493154D01*
X150347926Y-86493031D01*
X150343286Y-86488510D01*
X150342494Y-86487532D01*
X150342490Y-86487528D01*
X150340386Y-86484930D01*
X150287080Y-86447047D01*
X150285695Y-86446025D01*
X150237625Y-86409139D01*
X150234651Y-86407907D01*
X150233421Y-86407397D01*
X150223798Y-86402074D01*
X150220168Y-86399495D01*
X150220167Y-86399495D01*
X150217442Y-86397558D01*
X150159066Y-86376541D01*
X150156955Y-86375725D01*
X150103709Y-86353670D01*
X150100526Y-86353251D01*
X150100523Y-86353250D01*
X150096061Y-86352663D01*
X150085863Y-86350186D01*
X150075532Y-86346467D01*
X150072201Y-86346222D01*
X150072199Y-86346222D01*
X150016943Y-86342164D01*
X150014136Y-86341877D01*
X149963183Y-86335169D01*
X149960000Y-86334750D01*
X149949215Y-86336170D01*
X149939230Y-86336457D01*
X149937391Y-86336322D01*
X149925109Y-86335420D01*
X149921836Y-86336080D01*
X149921835Y-86336080D01*
X149904225Y-86339631D01*
X149870682Y-86346394D01*
X149867409Y-86346940D01*
X149848741Y-86349398D01*
X149819470Y-86353251D01*
X149819467Y-86353252D01*
X149816291Y-86353670D01*
X149813326Y-86354898D01*
X149813323Y-86354899D01*
X149803315Y-86359044D01*
X149794249Y-86361807D01*
X149793421Y-86361974D01*
X149777257Y-86365233D01*
X149730642Y-86388984D01*
X149727173Y-86390583D01*
X149682375Y-86409139D01*
X149679829Y-86411092D01*
X149679823Y-86411096D01*
X149668729Y-86419609D01*
X149661145Y-86424394D01*
X149645847Y-86432189D01*
X149642868Y-86433707D01*
X149639758Y-86436567D01*
X149639277Y-86436754D01*
X149637665Y-86437875D01*
X149637396Y-86437488D01*
X149606589Y-86449500D01*
X148949020Y-86449500D01*
X148914372Y-86435148D01*
X148900020Y-86400500D01*
X148900020Y-86024376D01*
X154244455Y-86024376D01*
X154263227Y-86202983D01*
X154321103Y-86372993D01*
X154330936Y-86388976D01*
X154402575Y-86505423D01*
X154415206Y-86525955D01*
X154417121Y-86527911D01*
X154417123Y-86527913D01*
X154538941Y-86652310D01*
X154538944Y-86652312D01*
X154540859Y-86654268D01*
X154543159Y-86655751D01*
X154543160Y-86655751D01*
X154629813Y-86711595D01*
X154691817Y-86751554D01*
X154766716Y-86778815D01*
X154858003Y-86812041D01*
X154858005Y-86812041D01*
X154860578Y-86812978D01*
X154999283Y-86830500D01*
X155595155Y-86830500D01*
X155596506Y-86830348D01*
X155596514Y-86830348D01*
X155725754Y-86815851D01*
X155725755Y-86815851D01*
X155728472Y-86815546D01*
X155773502Y-86799865D01*
X155895484Y-86757387D01*
X155895487Y-86757385D01*
X155898073Y-86756485D01*
X155902137Y-86753946D01*
X156048050Y-86662769D01*
X156048051Y-86662768D01*
X156050375Y-86661316D01*
X156057473Y-86654268D01*
X156126455Y-86585765D01*
X156177807Y-86534770D01*
X156207306Y-86488287D01*
X156237989Y-86466723D01*
X156274934Y-86473171D01*
X156290118Y-86488395D01*
X156314930Y-86527720D01*
X156422388Y-86622623D01*
X156425546Y-86624106D01*
X156425548Y-86624107D01*
X156446377Y-86633886D01*
X156552163Y-86683553D01*
X156661009Y-86700500D01*
X156735940Y-86700500D01*
X156737664Y-86700253D01*
X156737666Y-86700253D01*
X156826325Y-86687556D01*
X156841918Y-86685323D01*
X156972428Y-86625984D01*
X156976617Y-86622375D01*
X157078391Y-86534680D01*
X157078393Y-86534678D01*
X157081037Y-86532400D01*
X157159015Y-86412095D01*
X157200093Y-86274739D01*
X157200969Y-86131376D01*
X157161572Y-85993529D01*
X157085070Y-85872280D01*
X156977612Y-85777377D01*
X156974454Y-85775894D01*
X156974452Y-85775893D01*
X156900317Y-85741087D01*
X156847837Y-85716447D01*
X156738991Y-85699500D01*
X156664060Y-85699500D01*
X156662336Y-85699747D01*
X156662334Y-85699747D01*
X156590889Y-85709979D01*
X156558082Y-85714677D01*
X156427572Y-85774016D01*
X156391556Y-85805050D01*
X156390502Y-85805958D01*
X156354885Y-85817703D01*
X156321396Y-85800824D01*
X156312130Y-85784629D01*
X156308517Y-85774016D01*
X156278897Y-85687007D01*
X156184794Y-85534045D01*
X156174269Y-85523297D01*
X156061059Y-85407690D01*
X156061056Y-85407688D01*
X156059141Y-85405732D01*
X155908183Y-85308446D01*
X155798960Y-85268692D01*
X155741997Y-85247959D01*
X155741995Y-85247959D01*
X155739422Y-85247022D01*
X155600717Y-85229500D01*
X155004845Y-85229500D01*
X155003494Y-85229652D01*
X155003486Y-85229652D01*
X154874246Y-85244149D01*
X154874245Y-85244149D01*
X154871528Y-85244454D01*
X154868940Y-85245355D01*
X154868941Y-85245355D01*
X154704516Y-85302613D01*
X154704513Y-85302615D01*
X154701927Y-85303515D01*
X154699604Y-85304966D01*
X154699603Y-85304967D01*
X154635883Y-85344784D01*
X154549625Y-85398684D01*
X154547682Y-85400613D01*
X154547680Y-85400615D01*
X154498762Y-85449193D01*
X154422193Y-85525230D01*
X154416599Y-85534045D01*
X154331477Y-85668176D01*
X154325963Y-85676864D01*
X154325045Y-85679442D01*
X154325044Y-85679444D01*
X154266638Y-85843468D01*
X154265719Y-85846049D01*
X154265395Y-85848769D01*
X154265394Y-85848772D01*
X154262591Y-85872280D01*
X154244455Y-86024376D01*
X148900020Y-86024376D01*
X148900020Y-85449193D01*
X148900360Y-85443434D01*
X148904453Y-85408849D01*
X148904884Y-85405210D01*
X148894119Y-85346267D01*
X148893873Y-85344784D01*
X148888270Y-85307511D01*
X148884969Y-85285558D01*
X148883383Y-85282256D01*
X148882365Y-85278946D01*
X148881204Y-85275554D01*
X148880545Y-85271947D01*
X148852947Y-85218819D01*
X148852266Y-85217455D01*
X148827915Y-85166743D01*
X148827914Y-85166741D01*
X148826329Y-85163441D01*
X148823843Y-85160752D01*
X148821784Y-85157722D01*
X148822073Y-85157526D01*
X148821234Y-85156333D01*
X148820947Y-85156526D01*
X148819385Y-85154208D01*
X148818099Y-85151732D01*
X148816287Y-85149610D01*
X148814413Y-85147415D01*
X148814405Y-85147407D01*
X148813795Y-85146692D01*
X148775487Y-85108384D01*
X148774153Y-85106997D01*
X148736862Y-85066655D01*
X148736860Y-85066654D01*
X148734374Y-85063964D01*
X148731207Y-85062125D01*
X148728347Y-85059833D01*
X148728377Y-85059796D01*
X148721966Y-85054863D01*
X147824852Y-84157749D01*
X147810500Y-84123101D01*
X147810500Y-82922562D01*
X147824822Y-82887944D01*
X147827691Y-82885070D01*
X147861624Y-82851078D01*
X147907468Y-82747382D01*
X147910500Y-82721375D01*
X147910500Y-81808542D01*
X147924852Y-81773894D01*
X147963089Y-81759674D01*
X148029891Y-81764580D01*
X148087934Y-81752876D01*
X148124735Y-81760096D01*
X148145652Y-81791223D01*
X148139264Y-81826729D01*
X148124124Y-81851148D01*
X148124122Y-81851152D01*
X148122365Y-81853986D01*
X148121434Y-81857189D01*
X148121434Y-81857190D01*
X148099115Y-81934014D01*
X148080285Y-81998825D01*
X148080097Y-82001389D01*
X148080096Y-82001393D01*
X148079823Y-82005122D01*
X148079500Y-82009515D01*
X148079500Y-82517785D01*
X148079726Y-82519432D01*
X148079726Y-82519438D01*
X148085083Y-82558540D01*
X148094794Y-82629432D01*
X148096121Y-82632498D01*
X148096121Y-82632499D01*
X148147293Y-82750749D01*
X148154695Y-82767855D01*
X148249614Y-82885070D01*
X148372558Y-82972442D01*
X148375698Y-82973573D01*
X148375701Y-82973574D01*
X148511326Y-83022402D01*
X148511327Y-83022402D01*
X148514468Y-83023533D01*
X148517796Y-83023777D01*
X148517799Y-83023778D01*
X148597532Y-83029633D01*
X148664891Y-83034580D01*
X148668164Y-83033920D01*
X148668165Y-83033920D01*
X148809467Y-83005428D01*
X148809470Y-83005427D01*
X148812743Y-83004767D01*
X148815719Y-83003251D01*
X148815721Y-83003250D01*
X148944152Y-82937812D01*
X148944155Y-82937810D01*
X148947132Y-82936293D01*
X149058156Y-82834201D01*
X149111986Y-82747382D01*
X149135878Y-82708848D01*
X149135878Y-82708847D01*
X149137635Y-82706014D01*
X149138566Y-82702810D01*
X149178997Y-82563647D01*
X149178997Y-82563645D01*
X149179715Y-82561175D01*
X149179909Y-82558540D01*
X149180433Y-82551392D01*
X149180500Y-82550485D01*
X149180500Y-82517785D01*
X149349500Y-82517785D01*
X149349726Y-82519432D01*
X149349726Y-82519438D01*
X149355083Y-82558540D01*
X149364794Y-82629432D01*
X149366121Y-82632498D01*
X149366121Y-82632499D01*
X149417293Y-82750749D01*
X149424695Y-82767855D01*
X149519614Y-82885070D01*
X149642558Y-82972442D01*
X149645698Y-82973573D01*
X149645701Y-82973574D01*
X149781326Y-83022402D01*
X149781327Y-83022402D01*
X149784468Y-83023533D01*
X149787796Y-83023777D01*
X149787799Y-83023778D01*
X149867532Y-83029633D01*
X149934891Y-83034580D01*
X149938164Y-83033920D01*
X149938165Y-83033920D01*
X150079467Y-83005428D01*
X150079470Y-83005427D01*
X150082743Y-83004767D01*
X150085719Y-83003251D01*
X150085721Y-83003250D01*
X150214152Y-82937812D01*
X150214155Y-82937810D01*
X150217132Y-82936293D01*
X150328156Y-82834201D01*
X150381986Y-82747382D01*
X150405878Y-82708848D01*
X150405878Y-82708847D01*
X150407635Y-82706014D01*
X150408566Y-82702810D01*
X150448997Y-82563647D01*
X150448997Y-82563645D01*
X150449715Y-82561175D01*
X150449909Y-82558540D01*
X150450433Y-82551392D01*
X150450500Y-82550485D01*
X150450500Y-82516078D01*
X150620000Y-82516078D01*
X150620226Y-82519402D01*
X150634827Y-82625986D01*
X150636607Y-82632363D01*
X150693800Y-82764528D01*
X150697229Y-82770190D01*
X150787858Y-82882107D01*
X150792681Y-82886636D01*
X150910069Y-82970060D01*
X150915934Y-82973126D01*
X151035829Y-83016291D01*
X151043282Y-83015940D01*
X151045000Y-83014051D01*
X151045000Y-83006152D01*
X151295000Y-83006152D01*
X151297855Y-83013044D01*
X151301556Y-83014577D01*
X151349302Y-83004950D01*
X151355555Y-83002773D01*
X151483864Y-82937397D01*
X151489304Y-82933616D01*
X151595309Y-82836139D01*
X151599526Y-82831042D01*
X151675414Y-82708646D01*
X151678106Y-82702598D01*
X151718498Y-82563567D01*
X151719403Y-82558540D01*
X151719933Y-82551319D01*
X151720000Y-82549508D01*
X151720000Y-82414747D01*
X151717145Y-82407855D01*
X151710253Y-82405000D01*
X151304747Y-82405000D01*
X151297855Y-82407855D01*
X151295000Y-82414747D01*
X151295000Y-83006152D01*
X151045000Y-83006152D01*
X151045000Y-82414747D01*
X151042145Y-82407855D01*
X151035253Y-82405000D01*
X150629747Y-82405000D01*
X150622855Y-82407855D01*
X150620000Y-82414747D01*
X150620000Y-82516078D01*
X150450500Y-82516078D01*
X150450500Y-82042215D01*
X150446155Y-82010492D01*
X150435659Y-81933878D01*
X150435206Y-81930568D01*
X150403544Y-81857402D01*
X150388731Y-81823170D01*
X150388142Y-81785672D01*
X150414241Y-81758740D01*
X150437290Y-81754842D01*
X150482322Y-81758149D01*
X150569891Y-81764580D01*
X150628608Y-81752740D01*
X150665408Y-81759960D01*
X150686325Y-81791087D01*
X150679937Y-81826593D01*
X150664587Y-81851350D01*
X150661894Y-81857402D01*
X150621502Y-81996433D01*
X150620597Y-82001460D01*
X150620067Y-82008681D01*
X150620000Y-82010492D01*
X150620000Y-82145253D01*
X150622855Y-82152145D01*
X150629747Y-82155000D01*
X151035253Y-82155000D01*
X151042145Y-82152145D01*
X151045000Y-82145253D01*
X151045000Y-81553848D01*
X151042145Y-81546956D01*
X151041090Y-81546519D01*
X151014572Y-81520000D01*
X151014572Y-81482497D01*
X151018197Y-81475428D01*
X151025651Y-81463407D01*
X151034521Y-81449101D01*
X151040878Y-81438848D01*
X151040878Y-81438847D01*
X151042635Y-81436014D01*
X151043566Y-81432810D01*
X151083997Y-81293647D01*
X151083997Y-81293645D01*
X151084715Y-81291175D01*
X151084909Y-81288540D01*
X151085433Y-81281392D01*
X151085500Y-81280485D01*
X151085500Y-81247785D01*
X151254500Y-81247785D01*
X151254726Y-81249432D01*
X151254726Y-81249438D01*
X151260083Y-81288540D01*
X151269794Y-81359432D01*
X151316288Y-81466872D01*
X151320474Y-81476546D01*
X151321063Y-81514044D01*
X151308330Y-81527183D01*
X151310379Y-81529047D01*
X151295000Y-81545949D01*
X151295000Y-82145253D01*
X151297855Y-82152145D01*
X151304747Y-82155000D01*
X151710253Y-82155000D01*
X151717145Y-82152145D01*
X151720000Y-82145253D01*
X151720000Y-82043922D01*
X151719774Y-82040598D01*
X151705173Y-81934014D01*
X151703393Y-81927637D01*
X151658168Y-81823128D01*
X151657579Y-81785630D01*
X151683678Y-81758698D01*
X151706725Y-81754800D01*
X151839891Y-81764580D01*
X151897934Y-81752876D01*
X151934735Y-81760096D01*
X151955652Y-81791223D01*
X151949264Y-81826729D01*
X151934124Y-81851148D01*
X151934122Y-81851152D01*
X151932365Y-81853986D01*
X151931434Y-81857189D01*
X151931434Y-81857190D01*
X151909115Y-81934014D01*
X151890285Y-81998825D01*
X151890097Y-82001389D01*
X151890096Y-82001393D01*
X151889823Y-82005122D01*
X151889500Y-82009515D01*
X151889500Y-82517785D01*
X151889726Y-82519432D01*
X151889726Y-82519438D01*
X151895083Y-82558540D01*
X151904794Y-82629432D01*
X151906121Y-82632498D01*
X151906121Y-82632499D01*
X151957293Y-82750749D01*
X151964695Y-82767855D01*
X152059614Y-82885070D01*
X152182558Y-82972442D01*
X152185698Y-82973573D01*
X152185701Y-82973574D01*
X152321326Y-83022402D01*
X152321327Y-83022402D01*
X152324468Y-83023533D01*
X152327796Y-83023777D01*
X152327799Y-83023778D01*
X152407532Y-83029633D01*
X152474891Y-83034580D01*
X152478164Y-83033920D01*
X152478165Y-83033920D01*
X152619467Y-83005428D01*
X152619470Y-83005427D01*
X152622743Y-83004767D01*
X152625719Y-83003251D01*
X152625721Y-83003250D01*
X152754152Y-82937812D01*
X152754155Y-82937810D01*
X152757132Y-82936293D01*
X152868156Y-82834201D01*
X152921986Y-82747382D01*
X152945878Y-82708848D01*
X152945878Y-82708847D01*
X152947635Y-82706014D01*
X152948566Y-82702810D01*
X152988997Y-82563647D01*
X152988997Y-82563645D01*
X152989715Y-82561175D01*
X152989909Y-82558540D01*
X152990433Y-82551392D01*
X152990500Y-82550485D01*
X152990500Y-82042215D01*
X152986155Y-82010492D01*
X152975659Y-81933878D01*
X152975206Y-81930568D01*
X152924526Y-81813453D01*
X152923937Y-81775956D01*
X152936670Y-81762817D01*
X152934621Y-81760953D01*
X152950000Y-81744051D01*
X152950000Y-81144747D01*
X152947145Y-81137855D01*
X152940253Y-81135000D01*
X152534747Y-81135000D01*
X152527855Y-81137855D01*
X152525000Y-81144747D01*
X152525000Y-81246078D01*
X152525226Y-81249402D01*
X152539827Y-81355986D01*
X152541607Y-81362363D01*
X152586832Y-81466872D01*
X152587421Y-81504370D01*
X152561322Y-81531302D01*
X152538275Y-81535200D01*
X152405109Y-81525420D01*
X152347066Y-81537124D01*
X152310265Y-81529904D01*
X152289348Y-81498777D01*
X152295736Y-81463271D01*
X152310876Y-81438852D01*
X152310878Y-81438848D01*
X152312635Y-81436014D01*
X152313566Y-81432810D01*
X152353997Y-81293647D01*
X152353997Y-81293645D01*
X152354715Y-81291175D01*
X152354909Y-81288540D01*
X152355433Y-81281392D01*
X152355500Y-81280485D01*
X152355500Y-80875253D01*
X152525000Y-80875253D01*
X152527855Y-80882145D01*
X152534747Y-80885000D01*
X152940253Y-80885000D01*
X152947145Y-80882145D01*
X152950000Y-80875253D01*
X153200000Y-80875253D01*
X153202855Y-80882145D01*
X153209747Y-80885000D01*
X153615253Y-80885000D01*
X153622145Y-80882145D01*
X153625000Y-80875253D01*
X153625000Y-80773922D01*
X153624774Y-80770598D01*
X153610173Y-80664014D01*
X153608393Y-80657637D01*
X153551200Y-80525472D01*
X153547771Y-80519810D01*
X153457142Y-80407893D01*
X153452319Y-80403364D01*
X153334931Y-80319940D01*
X153329066Y-80316874D01*
X153209171Y-80273709D01*
X153201718Y-80274060D01*
X153200000Y-80275949D01*
X153200000Y-80875253D01*
X152950000Y-80875253D01*
X152950000Y-80283848D01*
X152947145Y-80276956D01*
X152943444Y-80275423D01*
X152895698Y-80285050D01*
X152889445Y-80287227D01*
X152761136Y-80352603D01*
X152755696Y-80356384D01*
X152649691Y-80453861D01*
X152645474Y-80458958D01*
X152569586Y-80581354D01*
X152566894Y-80587402D01*
X152526502Y-80726433D01*
X152525597Y-80731460D01*
X152525067Y-80738681D01*
X152525000Y-80740492D01*
X152525000Y-80875253D01*
X152355500Y-80875253D01*
X152355500Y-80772215D01*
X152351155Y-80740492D01*
X152340659Y-80663878D01*
X152340206Y-80660568D01*
X152325902Y-80627513D01*
X152281632Y-80525211D01*
X152281631Y-80525210D01*
X152280305Y-80522145D01*
X152185386Y-80404930D01*
X152062442Y-80317558D01*
X152059302Y-80316427D01*
X152059299Y-80316426D01*
X151923674Y-80267598D01*
X151923673Y-80267598D01*
X151920532Y-80266467D01*
X151917204Y-80266223D01*
X151917201Y-80266222D01*
X151837468Y-80260367D01*
X151770109Y-80255420D01*
X151766836Y-80256080D01*
X151766835Y-80256080D01*
X151625533Y-80284572D01*
X151625530Y-80284573D01*
X151622257Y-80285233D01*
X151619281Y-80286749D01*
X151619279Y-80286750D01*
X151490848Y-80352188D01*
X151490845Y-80352190D01*
X151487868Y-80353707D01*
X151376844Y-80455799D01*
X151375085Y-80458636D01*
X151313230Y-80558399D01*
X151297365Y-80583986D01*
X151296434Y-80587189D01*
X151296434Y-80587190D01*
X151274115Y-80664014D01*
X151255285Y-80728825D01*
X151255097Y-80731389D01*
X151255096Y-80731393D01*
X151254823Y-80735122D01*
X151254500Y-80739515D01*
X151254500Y-81247785D01*
X151085500Y-81247785D01*
X151085500Y-80772215D01*
X151081155Y-80740492D01*
X151070659Y-80663878D01*
X151070206Y-80660568D01*
X151055902Y-80627513D01*
X151011632Y-80525211D01*
X151011631Y-80525210D01*
X151010305Y-80522145D01*
X150915386Y-80404930D01*
X150792442Y-80317558D01*
X150789302Y-80316427D01*
X150789299Y-80316426D01*
X150653674Y-80267598D01*
X150653673Y-80267598D01*
X150650532Y-80266467D01*
X150647204Y-80266223D01*
X150647201Y-80266222D01*
X150567468Y-80260367D01*
X150500109Y-80255420D01*
X150496836Y-80256080D01*
X150496835Y-80256080D01*
X150355533Y-80284572D01*
X150355530Y-80284573D01*
X150352257Y-80285233D01*
X150349281Y-80286749D01*
X150349279Y-80286750D01*
X150220848Y-80352188D01*
X150220845Y-80352190D01*
X150217868Y-80353707D01*
X150106844Y-80455799D01*
X150105085Y-80458636D01*
X150043230Y-80558399D01*
X150027365Y-80583986D01*
X150026434Y-80587189D01*
X150026434Y-80587190D01*
X150004115Y-80664014D01*
X149985285Y-80728825D01*
X149985097Y-80731389D01*
X149985096Y-80731393D01*
X149984823Y-80735122D01*
X149984500Y-80739515D01*
X149984500Y-81247785D01*
X149984726Y-81249432D01*
X149984726Y-81249438D01*
X149990083Y-81288540D01*
X149999794Y-81359432D01*
X150001121Y-81362498D01*
X150001121Y-81362499D01*
X150046269Y-81466830D01*
X150046858Y-81504328D01*
X150020759Y-81531260D01*
X149997710Y-81535158D01*
X149944630Y-81531260D01*
X149865109Y-81525420D01*
X149806392Y-81537260D01*
X149769592Y-81530040D01*
X149748675Y-81498913D01*
X149755063Y-81463407D01*
X149770413Y-81438650D01*
X149773106Y-81432598D01*
X149813498Y-81293567D01*
X149814403Y-81288540D01*
X149814933Y-81281319D01*
X149815000Y-81279508D01*
X149815000Y-81144747D01*
X149812145Y-81137855D01*
X149805253Y-81135000D01*
X149399747Y-81135000D01*
X149392855Y-81137855D01*
X149390000Y-81144747D01*
X149390000Y-81736152D01*
X149392855Y-81743044D01*
X149393910Y-81743481D01*
X149420428Y-81770000D01*
X149420428Y-81807503D01*
X149416805Y-81814568D01*
X149409265Y-81826729D01*
X149394125Y-81851148D01*
X149392365Y-81853986D01*
X149391434Y-81857189D01*
X149391434Y-81857190D01*
X149369115Y-81934014D01*
X149350285Y-81998825D01*
X149350097Y-82001389D01*
X149350096Y-82001393D01*
X149349823Y-82005122D01*
X149349500Y-82009515D01*
X149349500Y-82517785D01*
X149180500Y-82517785D01*
X149180500Y-82042215D01*
X149176155Y-82010492D01*
X149165659Y-81933878D01*
X149165206Y-81930568D01*
X149114526Y-81813453D01*
X149113937Y-81775956D01*
X149126670Y-81762817D01*
X149124621Y-81760953D01*
X149140000Y-81744051D01*
X149140000Y-81144747D01*
X149137145Y-81137855D01*
X149130253Y-81135000D01*
X148724747Y-81135000D01*
X148717855Y-81137855D01*
X148715000Y-81144747D01*
X148715000Y-81246078D01*
X148715226Y-81249402D01*
X148729827Y-81355986D01*
X148731607Y-81362363D01*
X148776832Y-81466872D01*
X148777421Y-81504370D01*
X148751322Y-81531302D01*
X148728275Y-81535200D01*
X148595109Y-81525420D01*
X148537066Y-81537124D01*
X148500265Y-81529904D01*
X148479348Y-81498777D01*
X148485736Y-81463271D01*
X148500876Y-81438852D01*
X148500878Y-81438848D01*
X148502635Y-81436014D01*
X148503566Y-81432810D01*
X148543997Y-81293647D01*
X148543997Y-81293645D01*
X148544715Y-81291175D01*
X148544909Y-81288540D01*
X148545433Y-81281392D01*
X148545500Y-81280485D01*
X148545500Y-81032457D01*
X148545632Y-81028868D01*
X148549335Y-80978441D01*
X148549580Y-80975109D01*
X148546467Y-80959669D01*
X148545500Y-80949986D01*
X148545500Y-80875253D01*
X148715000Y-80875253D01*
X148717855Y-80882145D01*
X148724747Y-80885000D01*
X149130253Y-80885000D01*
X149137145Y-80882145D01*
X149140000Y-80875253D01*
X149390000Y-80875253D01*
X149392855Y-80882145D01*
X149399747Y-80885000D01*
X149805253Y-80885000D01*
X149812145Y-80882145D01*
X149815000Y-80875253D01*
X149815000Y-80773922D01*
X149814774Y-80770598D01*
X149800173Y-80664014D01*
X149798393Y-80657637D01*
X149741200Y-80525472D01*
X149737771Y-80519810D01*
X149647142Y-80407893D01*
X149642319Y-80403364D01*
X149524931Y-80319940D01*
X149519066Y-80316874D01*
X149399171Y-80273709D01*
X149391718Y-80274060D01*
X149390000Y-80275949D01*
X149390000Y-80875253D01*
X149140000Y-80875253D01*
X149140000Y-80283848D01*
X149137145Y-80276956D01*
X149133444Y-80275423D01*
X149085698Y-80285050D01*
X149079445Y-80287227D01*
X148951136Y-80352603D01*
X148945696Y-80356384D01*
X148839691Y-80453861D01*
X148835474Y-80458958D01*
X148759586Y-80581354D01*
X148756894Y-80587402D01*
X148716502Y-80726433D01*
X148715597Y-80731460D01*
X148715067Y-80738681D01*
X148715000Y-80740492D01*
X148715000Y-80875253D01*
X148545500Y-80875253D01*
X148545500Y-80772215D01*
X148541155Y-80740492D01*
X148530659Y-80663878D01*
X148530206Y-80660568D01*
X148515902Y-80627513D01*
X148471632Y-80525211D01*
X148471631Y-80525210D01*
X148470305Y-80522145D01*
X148375386Y-80404930D01*
X148252442Y-80317558D01*
X148249302Y-80316427D01*
X148249299Y-80316426D01*
X148113674Y-80267598D01*
X148113673Y-80267598D01*
X148110532Y-80266467D01*
X148107204Y-80266223D01*
X148107201Y-80266222D01*
X148075794Y-80263916D01*
X148048067Y-80261880D01*
X148014564Y-80245030D01*
X148002789Y-80209423D01*
X148019639Y-80175919D01*
X148031727Y-80168248D01*
X148239047Y-80075943D01*
X148242218Y-80074662D01*
X148757173Y-79887234D01*
X148760395Y-79886187D01*
X149260440Y-79742801D01*
X149268351Y-79741224D01*
X151273166Y-79510786D01*
X151286786Y-79511127D01*
G37*
%TD.AperFunction*%
%TD*%
M02*
