%TF.GenerationSoftware,KiCad,Pcbnew,(6.0.2)*%
%TF.CreationDate,2022-06-03T16:11:15+03:00*%
%TF.ProjectId,TypeC_Bulgin_PCB,54797065-435f-4427-956c-67696e5f5043,rev?*%
%TF.SameCoordinates,Original*%
%TF.FileFunction,Copper,L1,Top*%
%TF.FilePolarity,Positive*%
%FSLAX46Y46*%
G04 Gerber Fmt 4.6, Leading zero omitted, Abs format (unit mm)*
G04 Created by KiCad (PCBNEW (6.0.2)) date 2022-06-03 16:11:15*
%MOMM*%
%LPD*%
G01*
G04 APERTURE LIST*
G04 Aperture macros list*
%AMRoundRect*
0 Rectangle with rounded corners*
0 $1 Rounding radius*
0 $2 $3 $4 $5 $6 $7 $8 $9 X,Y pos of 4 corners*
0 Add a 4 corners polygon primitive as box body*
4,1,4,$2,$3,$4,$5,$6,$7,$8,$9,$2,$3,0*
0 Add four circle primitives for the rounded corners*
1,1,$1+$1,$2,$3*
1,1,$1+$1,$4,$5*
1,1,$1+$1,$6,$7*
1,1,$1+$1,$8,$9*
0 Add four rect primitives between the rounded corners*
20,1,$1+$1,$2,$3,$4,$5,0*
20,1,$1+$1,$4,$5,$6,$7,0*
20,1,$1+$1,$6,$7,$8,$9,0*
20,1,$1+$1,$8,$9,$2,$3,0*%
G04 Aperture macros list end*
%TA.AperFunction,ComponentPad*%
%ADD10RoundRect,0.153846X-0.246154X0.396154X-0.246154X-0.396154X0.246154X-0.396154X0.246154X0.396154X0*%
%TD*%
%TA.AperFunction,ComponentPad*%
%ADD11O,0.800000X1.200000*%
%TD*%
%TA.AperFunction,SMDPad,CuDef*%
%ADD12R,0.270000X1.300000*%
%TD*%
%TA.AperFunction,ComponentPad*%
%ADD13O,1.700000X1.200000*%
%TD*%
%TA.AperFunction,ComponentPad*%
%ADD14RoundRect,0.153846X0.246154X-0.396154X0.246154X0.396154X-0.246154X0.396154X-0.246154X-0.396154X0*%
%TD*%
%TA.AperFunction,ComponentPad*%
%ADD15R,0.850000X0.850000*%
%TD*%
%TA.AperFunction,ViaPad*%
%ADD16C,0.800000*%
%TD*%
%TA.AperFunction,Conductor*%
%ADD17C,0.112000*%
%TD*%
%TA.AperFunction,Conductor*%
%ADD18C,0.250000*%
%TD*%
%TA.AperFunction,Conductor*%
%ADD19C,0.600000*%
%TD*%
%TA.AperFunction,Conductor*%
%ADD20C,0.800000*%
%TD*%
G04 APERTURE END LIST*
D10*
%TO.P,J3,1,Pin_1*%
%TO.N,VBUS*%
X155225000Y-92630000D03*
D11*
%TO.P,J3,2,Pin_2*%
X154590000Y-93900000D03*
%TO.P,J3,3,Pin_3*%
%TO.N,unconnected-(J3-Pad3)*%
X153955000Y-92630000D03*
%TO.P,J3,4,Pin_4*%
%TO.N,GND*%
X153320000Y-93900000D03*
%TO.P,J3,5,Pin_5*%
%TO.N,TX1+*%
X152685000Y-92630000D03*
%TO.P,J3,6,Pin_6*%
%TO.N,TX1-*%
X152050000Y-93900000D03*
%TO.P,J3,7,Pin_7*%
%TO.N,GND*%
X151415000Y-92630000D03*
%TO.P,J3,8,Pin_8*%
%TO.N,unconnected-(J3-Pad8)*%
X150780000Y-93900000D03*
%TO.P,J3,9,Pin_9*%
%TO.N,unconnected-(J3-Pad9)*%
X150145000Y-92630000D03*
%TO.P,J3,10,Pin_10*%
%TO.N,GND*%
X149510000Y-93900000D03*
%TO.P,J3,11,Pin_11*%
%TO.N,RX1-*%
X148875000Y-92630000D03*
%TO.P,J3,12,Pin_12*%
%TO.N,RX1+*%
X148240000Y-93900000D03*
%TO.P,J3,13,Pin_13*%
%TO.N,GND*%
X147605000Y-92630000D03*
%TD*%
D12*
%TO.P,J6,A1,GND*%
%TO.N,GND*%
X148450000Y-85750000D03*
%TO.P,J6,A2,TX1+*%
%TO.N,TX2+*%
X148950000Y-85750000D03*
%TO.P,J6,A3,TX1-*%
%TO.N,TX2-*%
X149450000Y-85750000D03*
%TO.P,J6,A4,VBUS*%
%TO.N,VBUS*%
X149950000Y-85750000D03*
%TO.P,J6,A5,CC1*%
%TO.N,unconnected-(J6-PadA5)*%
X150450000Y-85750000D03*
%TO.P,J6,A6,D+*%
%TO.N,unconnected-(J6-PadA6)*%
X150950000Y-85750000D03*
%TO.P,J6,A7,D-*%
%TO.N,unconnected-(J6-PadA7)*%
X151450000Y-85750000D03*
%TO.P,J6,A8,SBU1*%
%TO.N,unconnected-(J6-PadA8)*%
X151950000Y-85750000D03*
%TO.P,J6,A9,VBUS*%
%TO.N,VBUS*%
X152450000Y-85750000D03*
%TO.P,J6,A10,RX2-*%
%TO.N,RX2-*%
X152950000Y-85750000D03*
%TO.P,J6,A11,RX2+*%
%TO.N,RX2+*%
X153450000Y-85750000D03*
%TO.P,J6,A12,GND*%
%TO.N,GND*%
X153950000Y-85750000D03*
%TO.P,J6,B1,GND*%
X153950000Y-89250000D03*
%TO.P,J6,B2,TX2+*%
%TO.N,TX1+*%
X153450000Y-89250000D03*
%TO.P,J6,B3,TX2-*%
%TO.N,TX1-*%
X152950000Y-89250000D03*
%TO.P,J6,B4,VBUS*%
%TO.N,VBUS*%
X152450000Y-89250000D03*
%TO.P,J6,B5,CC2*%
%TO.N,unconnected-(J6-PadB5)*%
X151950000Y-89250000D03*
%TO.P,J6,B6,D+*%
%TO.N,unconnected-(J6-PadB6)*%
X151450000Y-89250000D03*
%TO.P,J6,B7,D-*%
%TO.N,unconnected-(J6-PadB7)*%
X150950000Y-89250000D03*
%TO.P,J6,B8,SBU2*%
%TO.N,unconnected-(J6-PadB8)*%
X150450000Y-89250000D03*
%TO.P,J6,B9,VBUS*%
%TO.N,VBUS*%
X149950000Y-89250000D03*
%TO.P,J6,B10,RX1-*%
%TO.N,RX1-*%
X149450000Y-89250000D03*
%TO.P,J6,B11,RX1+*%
%TO.N,RX1+*%
X148950000Y-89250000D03*
%TO.P,J6,B12,GND*%
%TO.N,GND*%
X148450000Y-89250000D03*
D13*
%TO.P,J6,S1,SHIELD*%
%TO.N,Net-(J1-Pad1)*%
X147100000Y-86030000D03*
X155300000Y-88970000D03*
X155300000Y-86030000D03*
X147100000Y-88970000D03*
%TD*%
D14*
%TO.P,J4,1,Pin_1*%
%TO.N,VBUS*%
X147360000Y-82280000D03*
D11*
%TO.P,J4,2,Pin_2*%
X147995000Y-81010000D03*
%TO.P,J4,3,Pin_3*%
%TO.N,unconnected-(J4-Pad3)*%
X148630000Y-82280000D03*
%TO.P,J4,4,Pin_4*%
%TO.N,GND*%
X149265000Y-81010000D03*
%TO.P,J4,5,Pin_5*%
%TO.N,TX2+*%
X149900000Y-82280000D03*
%TO.P,J4,6,Pin_6*%
%TO.N,TX2-*%
X150535000Y-81010000D03*
%TO.P,J4,7,Pin_7*%
%TO.N,GND*%
X151170000Y-82280000D03*
%TO.P,J4,8,Pin_8*%
%TO.N,unconnected-(J4-Pad8)*%
X151805000Y-81010000D03*
%TO.P,J4,9,Pin_9*%
%TO.N,unconnected-(J4-Pad9)*%
X152440000Y-82280000D03*
%TO.P,J4,10,Pin_10*%
%TO.N,GND*%
X153075000Y-81010000D03*
%TO.P,J4,11,Pin_11*%
%TO.N,RX2-*%
X153710000Y-82280000D03*
%TO.P,J4,12,Pin_12*%
%TO.N,RX2+*%
X154345000Y-81010000D03*
%TO.P,J4,13,Pin_13*%
%TO.N,GND*%
X154980000Y-82280000D03*
%TD*%
D15*
%TO.P,J1,1,Pin_1*%
%TO.N,Net-(J1-Pad1)*%
X144340000Y-87390000D03*
%TD*%
D16*
%TO.N,GND*%
X148380000Y-83650000D03*
X151870000Y-83730000D03*
X156280000Y-82500000D03*
X157240000Y-90380000D03*
X145260000Y-83710000D03*
X157380000Y-87610000D03*
X148260000Y-87920000D03*
X156690000Y-91890000D03*
X154260000Y-91360000D03*
X151000000Y-91020000D03*
X150630000Y-84380000D03*
X154710000Y-84590000D03*
X155390000Y-87500000D03*
X147580000Y-90750000D03*
X145970000Y-84880000D03*
X157080000Y-84480000D03*
X153080000Y-83220000D03*
X149930000Y-91430000D03*
X152080000Y-90590000D03*
X144390000Y-85500000D03*
X146310000Y-92670000D03*
X145860000Y-90850000D03*
X144460000Y-89200000D03*
X146120000Y-82470000D03*
%TO.N,VBUS*%
X149970000Y-88050000D03*
X149960000Y-86890000D03*
X152440000Y-86900000D03*
X152460000Y-88070000D03*
%TD*%
D17*
%TO.N,RX1-*%
X149319500Y-90772500D02*
X149319500Y-90822500D01*
X149319500Y-91119500D02*
X149213435Y-91225565D01*
X149213435Y-91463153D02*
X149258690Y-91508408D01*
X149021104Y-91745996D02*
X149021102Y-91745997D01*
X149450000Y-89840000D02*
X149319500Y-89970500D01*
X149319500Y-90822500D02*
X149319500Y-91119500D01*
X148479001Y-91959999D02*
X148479001Y-92234001D01*
X148738260Y-91700743D02*
X148738259Y-91700742D01*
X148479001Y-92234001D02*
X148875000Y-92630000D01*
X148632193Y-91806807D02*
X148479001Y-91959999D01*
X149319500Y-89970500D02*
X149319500Y-90100500D01*
X149551500Y-90604500D02*
X149487500Y-90604500D01*
X149450000Y-89250000D02*
X149450000Y-89840000D01*
X148738259Y-91700742D02*
X148632193Y-91806807D01*
X149021102Y-91745997D02*
X148975848Y-91700743D01*
X149487500Y-90268500D02*
X149551500Y-90268500D01*
X149258690Y-91745996D02*
G75*
G03*
X149258690Y-91508408I-118794J118794D01*
G01*
X149719500Y-90436500D02*
G75*
G03*
X149551500Y-90268500I-168000J0D01*
G01*
X149021104Y-91745996D02*
G75*
G03*
X149258690Y-91745996I118793J118788D01*
G01*
X149487500Y-90268500D02*
G75*
G02*
X149319500Y-90100500I0J168000D01*
G01*
X149213435Y-91463153D02*
G75*
G02*
X149213435Y-91225565I118794J118794D01*
G01*
X149319500Y-90772500D02*
G75*
G02*
X149487500Y-90604500I168000J0D01*
G01*
X149551500Y-90604500D02*
G75*
G03*
X149719500Y-90436500I0J168000D01*
G01*
X148738260Y-91700743D02*
G75*
G02*
X148975848Y-91700743I118794J-118794D01*
G01*
%TO.N,RX1+*%
X148240000Y-91861000D02*
X149080000Y-91021000D01*
X148950000Y-89840000D02*
X148950000Y-89250000D01*
X148240000Y-93900000D02*
X148240000Y-91861000D01*
X149080000Y-89970000D02*
X148950000Y-89840000D01*
X149080000Y-91021000D02*
X149080000Y-89970000D01*
%TO.N,TX1-*%
X152950000Y-89765000D02*
X153080500Y-89895500D01*
X153080500Y-90570500D02*
X152050000Y-91601000D01*
X152950000Y-89250000D02*
X152950000Y-89765000D01*
X153080500Y-89895500D02*
X153080500Y-90570500D01*
X152050000Y-91601000D02*
X152050000Y-93900000D01*
%TO.N,TX1+*%
X152689083Y-91702202D02*
X152606736Y-91619855D01*
X152844323Y-91382265D02*
X152926671Y-91464613D01*
X153319500Y-90907088D02*
X153401848Y-90989436D01*
X152289001Y-92234001D02*
X152685000Y-92630000D01*
X152369147Y-91619854D02*
X152289001Y-91699999D01*
X152844324Y-91144677D02*
X152844323Y-91144677D01*
X153164262Y-91227024D02*
X153164260Y-91227025D01*
X152689085Y-91702201D02*
X152689083Y-91702202D01*
X152369148Y-91619855D02*
X152369147Y-91619854D01*
X153450000Y-89250000D02*
X153450000Y-89765000D01*
X152844325Y-91144678D02*
X152844324Y-91144677D01*
X152289001Y-91699999D02*
X152289001Y-92234001D01*
X153319500Y-89895500D02*
X153319500Y-90669500D01*
X153164260Y-91227025D02*
X153081913Y-91144678D01*
X153450000Y-89765000D02*
X153319500Y-89895500D01*
X152369148Y-91619855D02*
G75*
G02*
X152606736Y-91619855I118794J-118794D01*
G01*
X153319500Y-90907088D02*
G75*
G02*
X153319500Y-90669500I118794J118794D01*
G01*
X153164262Y-91227024D02*
G75*
G03*
X153401848Y-91227024I118793J118788D01*
G01*
X152844323Y-91382265D02*
G75*
G02*
X152844323Y-91144677I118794J118794D01*
G01*
X152844325Y-91144678D02*
G75*
G02*
X153081913Y-91144678I118794J-118794D01*
G01*
X153401848Y-91227024D02*
G75*
G03*
X153401848Y-90989436I-118794J118794D01*
G01*
X152926671Y-91702201D02*
G75*
G03*
X152926671Y-91464613I-118794J118794D01*
G01*
X152689085Y-91702201D02*
G75*
G03*
X152926671Y-91702201I118793J118788D01*
G01*
D18*
%TO.N,VBUS*%
X152450000Y-89250000D02*
X152450000Y-88080000D01*
X152450000Y-88080000D02*
X152460000Y-88070000D01*
D19*
X149960000Y-88040000D02*
X149970000Y-88050000D01*
D20*
X149970000Y-88050000D02*
X152440000Y-88050000D01*
D18*
X149950000Y-88070000D02*
X149970000Y-88050000D01*
X149950000Y-85750000D02*
X149950000Y-86880000D01*
X149950000Y-89250000D02*
X149950000Y-88070000D01*
X149950000Y-86880000D02*
X149960000Y-86890000D01*
D19*
X152430000Y-86890000D02*
X152440000Y-86900000D01*
D20*
X152440000Y-88050000D02*
X152460000Y-88070000D01*
D18*
X152450000Y-85750000D02*
X152450000Y-86890000D01*
D19*
X149960000Y-86890000D02*
X152430000Y-86890000D01*
D18*
X152450000Y-86890000D02*
X152440000Y-86900000D01*
D17*
%TO.N,RX2-*%
X154105999Y-82675999D02*
X153710000Y-82280000D01*
X153555678Y-84185191D02*
X153555677Y-84185190D01*
X153555677Y-84185190D02*
X153555677Y-84185189D01*
X153272835Y-84139936D02*
X153318090Y-84185191D01*
X153080500Y-84422780D02*
X153080501Y-84422778D01*
X153748012Y-83664759D02*
X153793267Y-83710014D01*
X153555678Y-83947601D02*
X153510424Y-83902347D01*
X154030855Y-83710014D02*
X154030854Y-83710013D01*
X152950000Y-85235000D02*
X153080500Y-85104500D01*
X154105999Y-83634867D02*
X154105999Y-82675999D01*
X153080500Y-85104500D02*
X153080500Y-84660366D01*
X153555677Y-83947603D02*
X153555678Y-83947601D01*
X154030854Y-83710013D02*
X154105999Y-83634867D01*
X152950000Y-85750000D02*
X152950000Y-85235000D01*
X153080501Y-84422778D02*
X153035247Y-84377524D01*
X153555678Y-84185191D02*
G75*
G02*
X153318090Y-84185191I-118794J118794D01*
G01*
X153035247Y-84139936D02*
G75*
G03*
X153035247Y-84377524I118794J-118794D01*
G01*
X154030855Y-83710014D02*
G75*
G02*
X153793267Y-83710014I-118794J118794D01*
G01*
X153510424Y-83664759D02*
G75*
G03*
X153510424Y-83902347I118794J-118794D01*
G01*
X153272835Y-84139936D02*
G75*
G03*
X153035247Y-84139936I-118794J-118794D01*
G01*
X153080500Y-84422780D02*
G75*
G02*
X153080500Y-84660366I-118788J-118793D01*
G01*
X153555677Y-83947603D02*
G75*
G02*
X153555677Y-84185189I-118788J-118793D01*
G01*
X153748012Y-83664759D02*
G75*
G03*
X153510424Y-83664759I-118794J-118794D01*
G01*
%TO.N,RX2+*%
X153450000Y-85235000D02*
X153319500Y-85104500D01*
X154345000Y-83695000D02*
X154345000Y-81010000D01*
X153450000Y-85750000D02*
X153450000Y-85235000D01*
X153319500Y-85104500D02*
X153319500Y-84720500D01*
X153319500Y-84720500D02*
X154345000Y-83695000D01*
%TO.N,TX2-*%
X149450000Y-85235000D02*
X149319500Y-85104500D01*
X150535000Y-83406250D02*
X150535000Y-81010000D01*
X149450000Y-85750000D02*
X149450000Y-85235000D01*
X149319500Y-84621750D02*
X150535000Y-83406250D01*
X149319500Y-85104500D02*
X149319500Y-84621750D01*
%TO.N,TX2+*%
X149555678Y-83809985D02*
X149510424Y-83764731D01*
X149080500Y-85104500D02*
X149080500Y-84522750D01*
X150295999Y-82675999D02*
X149900000Y-82280000D01*
X149080500Y-84285164D02*
X149080501Y-84285162D01*
X148950000Y-85750000D02*
X148950000Y-85235000D01*
X148950000Y-85235000D02*
X149080500Y-85104500D01*
X150030855Y-83572398D02*
X150030854Y-83572397D01*
X149555677Y-84047574D02*
X149555677Y-84047573D01*
X150030854Y-83572397D02*
X150136919Y-83466331D01*
X149555678Y-84047575D02*
X149555677Y-84047574D01*
X150136919Y-83466331D02*
X150295999Y-83307251D01*
X150295999Y-83307251D02*
X150295999Y-82675999D01*
X149080501Y-84285162D02*
X149035247Y-84239908D01*
X149272835Y-84002320D02*
X149318090Y-84047575D01*
X149555677Y-83809987D02*
X149555678Y-83809985D01*
X149748012Y-83527143D02*
X149793267Y-83572398D01*
X150030855Y-83572398D02*
G75*
G02*
X149793267Y-83572398I-118794J118794D01*
G01*
X149510424Y-83527143D02*
G75*
G03*
X149510424Y-83764731I118794J-118794D01*
G01*
X149272835Y-84002320D02*
G75*
G03*
X149035247Y-84002320I-118794J-118794D01*
G01*
X149080500Y-84285164D02*
G75*
G02*
X149080500Y-84522750I-118788J-118793D01*
G01*
X149555678Y-84047575D02*
G75*
G02*
X149318090Y-84047575I-118794J118794D01*
G01*
X149748012Y-83527143D02*
G75*
G03*
X149510424Y-83527143I-118794J-118794D01*
G01*
X149555677Y-83809987D02*
G75*
G02*
X149555677Y-84047573I-118788J-118793D01*
G01*
X149035247Y-84002320D02*
G75*
G03*
X149035247Y-84239908I118794J-118794D01*
G01*
D20*
%TO.N,Net-(J1-Pad1)*%
X147100000Y-87350000D02*
X147100000Y-86030000D01*
X147100000Y-87430000D02*
X147100000Y-88970000D01*
X147060000Y-87390000D02*
X147100000Y-87350000D01*
X144340000Y-87390000D02*
X147060000Y-87390000D01*
X147060000Y-87390000D02*
X147100000Y-87430000D01*
%TD*%
%TA.AperFunction,Conductor*%
%TO.N,GND*%
G36*
X154918837Y-80529515D02*
G01*
X155892613Y-81056006D01*
X155905635Y-81066225D01*
X157713388Y-83063271D01*
X157805457Y-83164981D01*
X157813011Y-83176059D01*
X158617030Y-84794024D01*
X158621263Y-84806559D01*
X158812672Y-85800824D01*
X158978982Y-86664714D01*
X158979846Y-86675376D01*
X158960480Y-87353183D01*
X158940264Y-88060785D01*
X158940086Y-88067001D01*
X158939549Y-88072964D01*
X158680895Y-89774115D01*
X158677722Y-89785499D01*
X158052847Y-91294128D01*
X158014839Y-91385889D01*
X158012005Y-91391637D01*
X157946841Y-91504505D01*
X157945765Y-91506368D01*
X157939726Y-91514675D01*
X156175828Y-93471350D01*
X156152960Y-93496717D01*
X156146496Y-93502703D01*
X155355434Y-94112951D01*
X155351471Y-94115708D01*
X155215466Y-94200693D01*
X155178477Y-94206883D01*
X155147946Y-94185105D01*
X155140500Y-94159139D01*
X155140500Y-93662215D01*
X155136155Y-93630492D01*
X155125659Y-93553878D01*
X155125206Y-93550568D01*
X155093544Y-93477402D01*
X155066632Y-93415211D01*
X155066631Y-93415210D01*
X155065305Y-93412145D01*
X155063203Y-93409550D01*
X155061472Y-93406691D01*
X155062565Y-93406029D01*
X155053190Y-93374377D01*
X155071085Y-93341419D01*
X155101921Y-93330500D01*
X155509186Y-93330499D01*
X155516374Y-93330499D01*
X155542907Y-93327343D01*
X155546264Y-93325852D01*
X155546267Y-93325851D01*
X155642389Y-93283155D01*
X155642390Y-93283154D01*
X155646524Y-93281318D01*
X155649719Y-93278117D01*
X155649721Y-93278116D01*
X155720155Y-93207558D01*
X155726624Y-93201078D01*
X155730802Y-93191629D01*
X155741709Y-93166956D01*
X155772468Y-93097382D01*
X155775500Y-93071375D01*
X155775499Y-92188626D01*
X155772343Y-92162093D01*
X155764845Y-92145211D01*
X155728155Y-92062611D01*
X155728154Y-92062610D01*
X155726318Y-92058476D01*
X155723117Y-92055281D01*
X155723116Y-92055279D01*
X155649592Y-91981884D01*
X155646078Y-91978376D01*
X155641573Y-91976384D01*
X155594458Y-91955555D01*
X155542382Y-91932532D01*
X155538726Y-91932106D01*
X155538723Y-91932105D01*
X155529175Y-91930992D01*
X155516375Y-91929500D01*
X155228050Y-91929500D01*
X154933626Y-91929501D01*
X154907093Y-91932657D01*
X154903736Y-91934148D01*
X154903733Y-91934149D01*
X154807611Y-91976845D01*
X154807610Y-91976846D01*
X154803476Y-91978682D01*
X154800281Y-91981883D01*
X154800279Y-91981884D01*
X154790117Y-91992064D01*
X154723376Y-92058922D01*
X154677532Y-92162618D01*
X154674500Y-92188625D01*
X154674501Y-93071374D01*
X154674672Y-93072809D01*
X154674672Y-93072814D01*
X154677419Y-93095911D01*
X154667260Y-93132012D01*
X154634549Y-93150355D01*
X154625176Y-93150566D01*
X154555109Y-93145420D01*
X154497066Y-93157124D01*
X154460265Y-93149904D01*
X154439348Y-93118777D01*
X154445736Y-93083271D01*
X154460876Y-93058852D01*
X154460878Y-93058848D01*
X154462635Y-93056014D01*
X154485846Y-92976122D01*
X154503997Y-92913647D01*
X154503997Y-92913645D01*
X154504715Y-92911175D01*
X154505500Y-92900485D01*
X154505500Y-92392215D01*
X154501155Y-92360492D01*
X154490659Y-92283878D01*
X154490206Y-92280568D01*
X154458544Y-92207402D01*
X154431632Y-92145211D01*
X154431631Y-92145210D01*
X154430305Y-92142145D01*
X154335386Y-92024930D01*
X154212442Y-91937558D01*
X154209302Y-91936427D01*
X154209299Y-91936426D01*
X154073674Y-91887598D01*
X154073673Y-91887598D01*
X154070532Y-91886467D01*
X154067204Y-91886223D01*
X154067201Y-91886222D01*
X153987468Y-91880367D01*
X153920109Y-91875420D01*
X153916836Y-91876080D01*
X153916835Y-91876080D01*
X153775533Y-91904572D01*
X153775530Y-91904573D01*
X153772257Y-91905233D01*
X153769281Y-91906749D01*
X153769279Y-91906750D01*
X153640848Y-91972188D01*
X153640845Y-91972190D01*
X153637868Y-91973707D01*
X153635408Y-91975969D01*
X153632458Y-91978682D01*
X153526844Y-92075799D01*
X153525085Y-92078636D01*
X153456889Y-92188626D01*
X153447365Y-92203986D01*
X153446434Y-92207189D01*
X153446434Y-92207190D01*
X153446373Y-92207402D01*
X153405285Y-92348825D01*
X153405097Y-92351389D01*
X153405096Y-92351393D01*
X153404823Y-92355122D01*
X153404500Y-92359515D01*
X153404500Y-92867785D01*
X153404726Y-92869432D01*
X153404726Y-92869438D01*
X153410092Y-92908607D01*
X153419794Y-92979432D01*
X153466288Y-93086872D01*
X153470474Y-93096546D01*
X153471063Y-93134044D01*
X153458330Y-93147183D01*
X153460379Y-93149047D01*
X153445000Y-93165949D01*
X153445000Y-93765253D01*
X153447855Y-93772145D01*
X153454747Y-93775000D01*
X153860253Y-93775000D01*
X153867145Y-93772145D01*
X153870000Y-93765253D01*
X153870000Y-93663922D01*
X153869774Y-93660598D01*
X153855173Y-93554014D01*
X153853393Y-93547637D01*
X153808168Y-93443128D01*
X153807579Y-93405630D01*
X153833678Y-93378698D01*
X153856725Y-93374800D01*
X153989891Y-93384580D01*
X154047934Y-93372876D01*
X154084735Y-93380096D01*
X154105652Y-93411223D01*
X154099264Y-93446729D01*
X154084124Y-93471148D01*
X154084122Y-93471152D01*
X154082365Y-93473986D01*
X154081434Y-93477189D01*
X154081434Y-93477190D01*
X154047840Y-93592822D01*
X154040285Y-93618825D01*
X154040097Y-93621389D01*
X154040096Y-93621393D01*
X154039891Y-93624188D01*
X154039500Y-93629515D01*
X154039500Y-94137785D01*
X154039726Y-94139432D01*
X154039726Y-94139438D01*
X154045083Y-94178540D01*
X154054794Y-94249432D01*
X154056121Y-94252498D01*
X154056121Y-94252499D01*
X154086548Y-94322810D01*
X154114695Y-94387855D01*
X154209614Y-94505070D01*
X154269926Y-94547932D01*
X154299832Y-94569185D01*
X154319761Y-94600954D01*
X154311388Y-94637511D01*
X154290626Y-94654217D01*
X154139875Y-94718329D01*
X153920464Y-94811641D01*
X153918046Y-94812594D01*
X153716734Y-94885866D01*
X153642835Y-94912763D01*
X153639597Y-94913815D01*
X153427641Y-94974593D01*
X153112824Y-95064865D01*
X153109506Y-95065692D01*
X152941001Y-95101509D01*
X152936813Y-95102211D01*
X151822991Y-95239631D01*
X151816991Y-95240000D01*
X150258661Y-95240000D01*
X150251841Y-95239523D01*
X149963040Y-95198934D01*
X149958225Y-95198010D01*
X148689948Y-94887987D01*
X148684824Y-94886433D01*
X148292574Y-94743666D01*
X148264924Y-94718329D01*
X148263288Y-94680862D01*
X148288625Y-94653212D01*
X148299648Y-94649588D01*
X148419467Y-94625428D01*
X148419470Y-94625427D01*
X148422743Y-94624767D01*
X148425719Y-94623251D01*
X148425721Y-94623250D01*
X148554152Y-94557812D01*
X148554155Y-94557810D01*
X148557132Y-94556293D01*
X148668156Y-94454201D01*
X148747635Y-94326014D01*
X148748566Y-94322810D01*
X148788997Y-94183647D01*
X148788997Y-94183645D01*
X148789715Y-94181175D01*
X148789909Y-94178540D01*
X148790433Y-94171392D01*
X148790500Y-94170485D01*
X148790500Y-94136078D01*
X148960000Y-94136078D01*
X148960226Y-94139402D01*
X148974827Y-94245986D01*
X148976607Y-94252363D01*
X149033800Y-94384528D01*
X149037229Y-94390190D01*
X149127858Y-94502107D01*
X149132681Y-94506636D01*
X149250069Y-94590060D01*
X149255934Y-94593126D01*
X149375829Y-94636291D01*
X149383282Y-94635940D01*
X149385000Y-94634051D01*
X149385000Y-94626152D01*
X149635000Y-94626152D01*
X149637855Y-94633044D01*
X149641556Y-94634577D01*
X149689302Y-94624950D01*
X149695555Y-94622773D01*
X149823864Y-94557397D01*
X149829304Y-94553616D01*
X149935309Y-94456139D01*
X149939526Y-94451042D01*
X150015414Y-94328646D01*
X150018106Y-94322598D01*
X150058498Y-94183567D01*
X150059403Y-94178540D01*
X150059933Y-94171319D01*
X150060000Y-94169508D01*
X150060000Y-94034747D01*
X150057145Y-94027855D01*
X150050253Y-94025000D01*
X149644747Y-94025000D01*
X149637855Y-94027855D01*
X149635000Y-94034747D01*
X149635000Y-94626152D01*
X149385000Y-94626152D01*
X149385000Y-94034747D01*
X149382145Y-94027855D01*
X149375253Y-94025000D01*
X148969747Y-94025000D01*
X148962855Y-94027855D01*
X148960000Y-94034747D01*
X148960000Y-94136078D01*
X148790500Y-94136078D01*
X148790500Y-93662215D01*
X148786155Y-93630492D01*
X148775659Y-93553878D01*
X148775206Y-93550568D01*
X148754493Y-93502703D01*
X148728731Y-93443170D01*
X148728142Y-93405672D01*
X148754241Y-93378740D01*
X148777290Y-93374842D01*
X148822322Y-93378149D01*
X148909891Y-93384580D01*
X148968608Y-93372740D01*
X149005408Y-93379960D01*
X149026325Y-93411087D01*
X149019937Y-93446593D01*
X149004587Y-93471350D01*
X149001894Y-93477402D01*
X148961502Y-93616433D01*
X148960597Y-93621460D01*
X148960067Y-93628681D01*
X148960000Y-93630492D01*
X148960000Y-93765253D01*
X148962855Y-93772145D01*
X148969747Y-93775000D01*
X149375253Y-93775000D01*
X149382145Y-93772145D01*
X149385000Y-93765253D01*
X149385000Y-93173848D01*
X149382145Y-93166956D01*
X149381090Y-93166519D01*
X149354572Y-93140000D01*
X149354572Y-93102497D01*
X149358197Y-93095428D01*
X149359255Y-93093723D01*
X149374521Y-93069101D01*
X149380878Y-93058848D01*
X149380878Y-93058847D01*
X149382635Y-93056014D01*
X149405846Y-92976122D01*
X149423997Y-92913647D01*
X149423997Y-92913645D01*
X149424715Y-92911175D01*
X149425500Y-92900485D01*
X149425500Y-92867785D01*
X149594500Y-92867785D01*
X149594726Y-92869432D01*
X149594726Y-92869438D01*
X149600092Y-92908607D01*
X149609794Y-92979432D01*
X149656288Y-93086872D01*
X149660474Y-93096546D01*
X149661063Y-93134044D01*
X149648330Y-93147183D01*
X149650379Y-93149047D01*
X149635000Y-93165949D01*
X149635000Y-93765253D01*
X149637855Y-93772145D01*
X149644747Y-93775000D01*
X150050253Y-93775000D01*
X150057145Y-93772145D01*
X150060000Y-93765253D01*
X150060000Y-93663922D01*
X150059774Y-93660598D01*
X150045173Y-93554014D01*
X150043393Y-93547637D01*
X149998168Y-93443128D01*
X149997579Y-93405630D01*
X150023678Y-93378698D01*
X150046725Y-93374800D01*
X150179891Y-93384580D01*
X150237934Y-93372876D01*
X150274735Y-93380096D01*
X150295652Y-93411223D01*
X150289264Y-93446729D01*
X150274124Y-93471148D01*
X150274122Y-93471152D01*
X150272365Y-93473986D01*
X150271434Y-93477189D01*
X150271434Y-93477190D01*
X150237840Y-93592822D01*
X150230285Y-93618825D01*
X150230097Y-93621389D01*
X150230096Y-93621393D01*
X150229891Y-93624188D01*
X150229500Y-93629515D01*
X150229500Y-94137785D01*
X150229726Y-94139432D01*
X150229726Y-94139438D01*
X150235083Y-94178540D01*
X150244794Y-94249432D01*
X150246121Y-94252498D01*
X150246121Y-94252499D01*
X150276548Y-94322810D01*
X150304695Y-94387855D01*
X150399614Y-94505070D01*
X150522558Y-94592442D01*
X150525698Y-94593573D01*
X150525701Y-94593574D01*
X150661326Y-94642402D01*
X150661327Y-94642402D01*
X150664468Y-94643533D01*
X150667796Y-94643777D01*
X150667799Y-94643778D01*
X150746917Y-94649588D01*
X150814891Y-94654580D01*
X150818164Y-94653920D01*
X150818165Y-94653920D01*
X150959467Y-94625428D01*
X150959470Y-94625427D01*
X150962743Y-94624767D01*
X150965719Y-94623251D01*
X150965721Y-94623250D01*
X151094152Y-94557812D01*
X151094155Y-94557810D01*
X151097132Y-94556293D01*
X151208156Y-94454201D01*
X151287635Y-94326014D01*
X151288566Y-94322810D01*
X151328997Y-94183647D01*
X151328997Y-94183645D01*
X151329715Y-94181175D01*
X151329909Y-94178540D01*
X151330433Y-94171392D01*
X151330500Y-94170485D01*
X151330500Y-93662215D01*
X151326155Y-93630492D01*
X151315659Y-93553878D01*
X151315206Y-93550568D01*
X151264526Y-93433453D01*
X151263937Y-93395956D01*
X151276670Y-93382817D01*
X151274621Y-93380953D01*
X151290000Y-93364051D01*
X151290000Y-92764747D01*
X151287145Y-92757855D01*
X151280253Y-92755000D01*
X150874747Y-92755000D01*
X150867855Y-92757855D01*
X150865000Y-92764747D01*
X150865000Y-92866078D01*
X150865226Y-92869402D01*
X150879827Y-92975986D01*
X150881607Y-92982363D01*
X150926832Y-93086872D01*
X150927421Y-93124370D01*
X150901322Y-93151302D01*
X150878275Y-93155200D01*
X150745109Y-93145420D01*
X150687066Y-93157124D01*
X150650265Y-93149904D01*
X150629348Y-93118777D01*
X150635736Y-93083271D01*
X150650876Y-93058852D01*
X150650878Y-93058848D01*
X150652635Y-93056014D01*
X150675846Y-92976122D01*
X150693997Y-92913647D01*
X150693997Y-92913645D01*
X150694715Y-92911175D01*
X150695500Y-92900485D01*
X150695500Y-92495253D01*
X150865000Y-92495253D01*
X150867855Y-92502145D01*
X150874747Y-92505000D01*
X151280253Y-92505000D01*
X151287145Y-92502145D01*
X151290000Y-92495253D01*
X151290000Y-91903848D01*
X151287145Y-91896956D01*
X151283444Y-91895423D01*
X151235698Y-91905050D01*
X151229445Y-91907227D01*
X151101136Y-91972603D01*
X151095696Y-91976384D01*
X150989691Y-92073861D01*
X150985474Y-92078958D01*
X150909586Y-92201354D01*
X150906894Y-92207402D01*
X150866502Y-92346433D01*
X150865597Y-92351460D01*
X150865067Y-92358681D01*
X150865000Y-92360492D01*
X150865000Y-92495253D01*
X150695500Y-92495253D01*
X150695500Y-92392215D01*
X150691155Y-92360492D01*
X150680659Y-92283878D01*
X150680206Y-92280568D01*
X150648544Y-92207402D01*
X150621632Y-92145211D01*
X150621631Y-92145210D01*
X150620305Y-92142145D01*
X150525386Y-92024930D01*
X150402442Y-91937558D01*
X150399302Y-91936427D01*
X150399299Y-91936426D01*
X150263674Y-91887598D01*
X150263673Y-91887598D01*
X150260532Y-91886467D01*
X150257204Y-91886223D01*
X150257201Y-91886222D01*
X150177468Y-91880367D01*
X150110109Y-91875420D01*
X150106836Y-91876080D01*
X150106835Y-91876080D01*
X149965533Y-91904572D01*
X149965530Y-91904573D01*
X149962257Y-91905233D01*
X149959281Y-91906749D01*
X149959279Y-91906750D01*
X149830848Y-91972188D01*
X149830845Y-91972190D01*
X149827868Y-91973707D01*
X149825408Y-91975969D01*
X149822458Y-91978682D01*
X149716844Y-92075799D01*
X149715085Y-92078636D01*
X149646889Y-92188626D01*
X149637365Y-92203986D01*
X149636434Y-92207189D01*
X149636434Y-92207190D01*
X149636373Y-92207402D01*
X149595285Y-92348825D01*
X149595097Y-92351389D01*
X149595096Y-92351393D01*
X149594823Y-92355122D01*
X149594500Y-92359515D01*
X149594500Y-92867785D01*
X149425500Y-92867785D01*
X149425500Y-92392215D01*
X149421155Y-92360492D01*
X149410659Y-92283878D01*
X149410206Y-92280568D01*
X149378544Y-92207402D01*
X149351632Y-92145211D01*
X149351631Y-92145210D01*
X149350305Y-92142145D01*
X149272300Y-92045817D01*
X149261648Y-92009858D01*
X149279543Y-91976900D01*
X149291628Y-91969710D01*
X149328765Y-91954327D01*
X149387138Y-91909535D01*
X149391039Y-91906832D01*
X149393611Y-91905228D01*
X149393612Y-91905227D01*
X149405581Y-91897762D01*
X149407940Y-91896291D01*
X149408463Y-91895769D01*
X149408466Y-91895766D01*
X149419015Y-91878981D01*
X149421624Y-91875232D01*
X149465066Y-91818617D01*
X149467022Y-91816068D01*
X149504757Y-91724966D01*
X149517628Y-91627202D01*
X149504757Y-91529438D01*
X149467022Y-91438336D01*
X149430364Y-91390563D01*
X149422236Y-91379970D01*
X149419531Y-91376068D01*
X149415337Y-91369342D01*
X149409182Y-91332347D01*
X149422268Y-91308767D01*
X149434702Y-91296333D01*
X149442077Y-91291106D01*
X149442063Y-91291089D01*
X149446384Y-91287652D01*
X149451355Y-91285265D01*
X149471963Y-91259496D01*
X149475583Y-91255452D01*
X149481981Y-91249054D01*
X149486622Y-91241671D01*
X149489838Y-91237145D01*
X149506752Y-91215995D01*
X149510197Y-91211687D01*
X149511433Y-91206310D01*
X149513514Y-91202006D01*
X149514891Y-91198692D01*
X149516472Y-91194177D01*
X149519408Y-91189506D01*
X149523070Y-91157113D01*
X149524007Y-91151635D01*
X149525378Y-91145674D01*
X149525379Y-91145668D01*
X149526000Y-91142966D01*
X149526000Y-91133962D01*
X149526310Y-91128457D01*
X149529372Y-91101374D01*
X149529992Y-91095889D01*
X149528172Y-91090677D01*
X149527601Y-91085589D01*
X149526000Y-91076149D01*
X149526000Y-90861209D01*
X149540352Y-90826561D01*
X149564105Y-90813436D01*
X149570827Y-90811903D01*
X149575326Y-90811095D01*
X149616784Y-90805637D01*
X149649264Y-90801361D01*
X149740366Y-90763626D01*
X149818597Y-90703597D01*
X149826755Y-90692966D01*
X149876670Y-90627915D01*
X149878626Y-90625366D01*
X149916361Y-90534264D01*
X149925965Y-90461319D01*
X149926811Y-90456652D01*
X149930684Y-90439943D01*
X149930685Y-90439937D01*
X149931310Y-90437239D01*
X149931311Y-90436500D01*
X149929287Y-90427626D01*
X149926902Y-90417172D01*
X149926094Y-90412669D01*
X149916780Y-90341919D01*
X149916361Y-90338736D01*
X149878626Y-90247634D01*
X149818597Y-90169403D01*
X149778159Y-90138373D01*
X149759407Y-90105896D01*
X149769114Y-90069671D01*
X149801592Y-90050919D01*
X149807988Y-90050500D01*
X150099820Y-90050500D01*
X150143722Y-90041767D01*
X150172777Y-90022353D01*
X150209559Y-90015037D01*
X150227222Y-90022353D01*
X150256278Y-90041767D01*
X150300180Y-90050500D01*
X150599820Y-90050500D01*
X150643722Y-90041767D01*
X150672777Y-90022353D01*
X150709559Y-90015037D01*
X150727222Y-90022353D01*
X150756278Y-90041767D01*
X150800180Y-90050500D01*
X151099820Y-90050500D01*
X151143722Y-90041767D01*
X151172777Y-90022353D01*
X151209559Y-90015037D01*
X151227222Y-90022353D01*
X151256278Y-90041767D01*
X151300180Y-90050500D01*
X151599820Y-90050500D01*
X151643722Y-90041767D01*
X151672777Y-90022353D01*
X151709559Y-90015037D01*
X151727222Y-90022353D01*
X151756278Y-90041767D01*
X151800180Y-90050500D01*
X152099820Y-90050500D01*
X152143722Y-90041767D01*
X152172777Y-90022353D01*
X152209559Y-90015037D01*
X152227222Y-90022353D01*
X152256278Y-90041767D01*
X152300180Y-90050500D01*
X152599820Y-90050500D01*
X152643722Y-90041767D01*
X152672777Y-90022353D01*
X152709559Y-90015037D01*
X152727222Y-90022353D01*
X152756278Y-90041767D01*
X152800180Y-90050500D01*
X152825000Y-90050500D01*
X152859648Y-90064852D01*
X152874000Y-90099500D01*
X152874000Y-90464669D01*
X152859648Y-90499317D01*
X151934798Y-91424167D01*
X151927423Y-91429394D01*
X151927437Y-91429411D01*
X151923116Y-91432848D01*
X151918145Y-91435235D01*
X151912637Y-91442123D01*
X151897537Y-91461004D01*
X151893917Y-91465048D01*
X151887520Y-91471445D01*
X151886057Y-91473772D01*
X151886055Y-91473775D01*
X151882879Y-91478828D01*
X151879662Y-91483355D01*
X151862748Y-91504505D01*
X151859303Y-91508813D01*
X151858067Y-91514190D01*
X151855986Y-91518494D01*
X151854609Y-91521808D01*
X151853028Y-91526323D01*
X151850092Y-91530994D01*
X151849472Y-91536476D01*
X151849472Y-91536477D01*
X151846430Y-91563386D01*
X151845493Y-91568865D01*
X151844122Y-91574826D01*
X151844121Y-91574832D01*
X151843500Y-91577534D01*
X151843500Y-91586538D01*
X151843190Y-91592043D01*
X151839508Y-91624610D01*
X151841328Y-91629822D01*
X151841899Y-91634910D01*
X151843500Y-91644350D01*
X151843500Y-91964800D01*
X151829148Y-91999448D01*
X151794500Y-92013800D01*
X151766115Y-92004741D01*
X151674931Y-91939940D01*
X151669066Y-91936874D01*
X151549171Y-91893709D01*
X151541718Y-91894060D01*
X151540000Y-91895949D01*
X151540000Y-93356152D01*
X151542855Y-93363044D01*
X151543910Y-93363481D01*
X151570428Y-93390000D01*
X151570428Y-93427503D01*
X151566805Y-93434568D01*
X151559265Y-93446729D01*
X151544125Y-93471148D01*
X151542365Y-93473986D01*
X151541434Y-93477189D01*
X151541434Y-93477190D01*
X151507840Y-93592822D01*
X151500285Y-93618825D01*
X151500097Y-93621389D01*
X151500096Y-93621393D01*
X151499891Y-93624188D01*
X151499500Y-93629515D01*
X151499500Y-94137785D01*
X151499726Y-94139432D01*
X151499726Y-94139438D01*
X151505083Y-94178540D01*
X151514794Y-94249432D01*
X151516121Y-94252498D01*
X151516121Y-94252499D01*
X151546548Y-94322810D01*
X151574695Y-94387855D01*
X151669614Y-94505070D01*
X151792558Y-94592442D01*
X151795698Y-94593573D01*
X151795701Y-94593574D01*
X151931326Y-94642402D01*
X151931327Y-94642402D01*
X151934468Y-94643533D01*
X151937796Y-94643777D01*
X151937799Y-94643778D01*
X152016917Y-94649588D01*
X152084891Y-94654580D01*
X152088164Y-94653920D01*
X152088165Y-94653920D01*
X152229467Y-94625428D01*
X152229470Y-94625427D01*
X152232743Y-94624767D01*
X152235719Y-94623251D01*
X152235721Y-94623250D01*
X152364152Y-94557812D01*
X152364155Y-94557810D01*
X152367132Y-94556293D01*
X152478156Y-94454201D01*
X152557635Y-94326014D01*
X152558566Y-94322810D01*
X152598997Y-94183647D01*
X152598997Y-94183645D01*
X152599715Y-94181175D01*
X152599909Y-94178540D01*
X152600433Y-94171392D01*
X152600500Y-94170485D01*
X152600500Y-94136078D01*
X152770000Y-94136078D01*
X152770226Y-94139402D01*
X152784827Y-94245986D01*
X152786607Y-94252363D01*
X152843800Y-94384528D01*
X152847229Y-94390190D01*
X152937858Y-94502107D01*
X152942681Y-94506636D01*
X153060069Y-94590060D01*
X153065934Y-94593126D01*
X153185829Y-94636291D01*
X153193282Y-94635940D01*
X153195000Y-94634051D01*
X153195000Y-94626152D01*
X153445000Y-94626152D01*
X153447855Y-94633044D01*
X153451556Y-94634577D01*
X153499302Y-94624950D01*
X153505555Y-94622773D01*
X153633864Y-94557397D01*
X153639304Y-94553616D01*
X153745309Y-94456139D01*
X153749526Y-94451042D01*
X153825414Y-94328646D01*
X153828106Y-94322598D01*
X153868498Y-94183567D01*
X153869403Y-94178540D01*
X153869933Y-94171319D01*
X153870000Y-94169508D01*
X153870000Y-94034747D01*
X153867145Y-94027855D01*
X153860253Y-94025000D01*
X153454747Y-94025000D01*
X153447855Y-94027855D01*
X153445000Y-94034747D01*
X153445000Y-94626152D01*
X153195000Y-94626152D01*
X153195000Y-94034747D01*
X153192145Y-94027855D01*
X153185253Y-94025000D01*
X152779747Y-94025000D01*
X152772855Y-94027855D01*
X152770000Y-94034747D01*
X152770000Y-94136078D01*
X152600500Y-94136078D01*
X152600500Y-93662215D01*
X152596155Y-93630492D01*
X152585659Y-93553878D01*
X152585206Y-93550568D01*
X152564493Y-93502703D01*
X152538731Y-93443170D01*
X152538142Y-93405672D01*
X152564241Y-93378740D01*
X152587290Y-93374842D01*
X152632322Y-93378149D01*
X152719891Y-93384580D01*
X152778608Y-93372740D01*
X152815408Y-93379960D01*
X152836325Y-93411087D01*
X152829937Y-93446593D01*
X152814587Y-93471350D01*
X152811894Y-93477402D01*
X152771502Y-93616433D01*
X152770597Y-93621460D01*
X152770067Y-93628681D01*
X152770000Y-93630492D01*
X152770000Y-93765253D01*
X152772855Y-93772145D01*
X152779747Y-93775000D01*
X153185253Y-93775000D01*
X153192145Y-93772145D01*
X153195000Y-93765253D01*
X153195000Y-93173848D01*
X153192145Y-93166956D01*
X153191090Y-93166519D01*
X153164572Y-93140000D01*
X153164572Y-93102497D01*
X153168197Y-93095428D01*
X153169255Y-93093723D01*
X153184521Y-93069101D01*
X153190878Y-93058848D01*
X153190878Y-93058847D01*
X153192635Y-93056014D01*
X153215846Y-92976122D01*
X153233997Y-92913647D01*
X153233997Y-92913645D01*
X153234715Y-92911175D01*
X153235500Y-92900485D01*
X153235500Y-92392215D01*
X153231155Y-92360492D01*
X153220659Y-92283878D01*
X153220206Y-92280568D01*
X153188544Y-92207402D01*
X153161632Y-92145211D01*
X153161631Y-92145210D01*
X153160305Y-92142145D01*
X153065386Y-92024930D01*
X153006424Y-91983028D01*
X152986496Y-91951260D01*
X152994869Y-91914703D01*
X153004980Y-91904214D01*
X153055119Y-91865740D01*
X153059020Y-91863037D01*
X153061592Y-91861433D01*
X153061593Y-91861432D01*
X153073562Y-91853967D01*
X153075921Y-91852496D01*
X153076444Y-91851974D01*
X153076447Y-91851971D01*
X153086996Y-91835186D01*
X153089605Y-91831437D01*
X153124138Y-91786433D01*
X153135003Y-91772273D01*
X153172738Y-91681171D01*
X153185609Y-91583407D01*
X153179170Y-91534500D01*
X153188876Y-91498276D01*
X153221355Y-91479524D01*
X153234145Y-91479524D01*
X153283055Y-91485963D01*
X153286238Y-91485544D01*
X153377639Y-91473511D01*
X153377640Y-91473511D01*
X153380821Y-91473092D01*
X153384798Y-91471445D01*
X153468958Y-91436583D01*
X153471923Y-91435355D01*
X153530296Y-91390563D01*
X153534197Y-91387860D01*
X153536769Y-91386256D01*
X153536770Y-91386255D01*
X153548739Y-91378790D01*
X153551098Y-91377319D01*
X153551621Y-91376797D01*
X153551624Y-91376794D01*
X153562173Y-91360009D01*
X153564782Y-91356260D01*
X153608224Y-91299645D01*
X153610180Y-91297096D01*
X153647915Y-91205994D01*
X153660786Y-91108230D01*
X153647915Y-91010466D01*
X153610180Y-90919364D01*
X153584623Y-90886058D01*
X153565394Y-90860998D01*
X153562691Y-90857098D01*
X153553618Y-90842549D01*
X153553612Y-90842541D01*
X153552143Y-90840186D01*
X153551621Y-90839663D01*
X153536072Y-90829890D01*
X153527499Y-90823052D01*
X153519542Y-90815095D01*
X153505190Y-90780447D01*
X153509202Y-90762932D01*
X153510197Y-90761687D01*
X153511434Y-90756307D01*
X153513836Y-90751339D01*
X153513840Y-90751341D01*
X153514511Y-90749728D01*
X153514507Y-90749727D01*
X153516340Y-90744523D01*
X153519285Y-90739855D01*
X153523029Y-90707246D01*
X153523953Y-90701867D01*
X153526000Y-90692966D01*
X153526000Y-90684175D01*
X153526320Y-90678586D01*
X153529403Y-90651738D01*
X153529403Y-90651737D01*
X153530032Y-90646257D01*
X153528223Y-90641047D01*
X153527746Y-90636727D01*
X153526000Y-90626379D01*
X153526000Y-90099500D01*
X153540352Y-90064852D01*
X153575000Y-90050500D01*
X153599820Y-90050500D01*
X153643722Y-90041767D01*
X153673226Y-90022053D01*
X153710008Y-90014737D01*
X153727672Y-90022053D01*
X153752461Y-90038616D01*
X153761206Y-90042238D01*
X153797859Y-90049529D01*
X153802635Y-90050000D01*
X153815253Y-90050000D01*
X153822145Y-90047145D01*
X153825000Y-90040253D01*
X153825000Y-90040252D01*
X154075000Y-90040252D01*
X154077855Y-90047144D01*
X154084747Y-90049999D01*
X154097370Y-90049999D01*
X154102130Y-90049530D01*
X154138795Y-90042238D01*
X154147539Y-90038617D01*
X154189133Y-90010824D01*
X154195824Y-90004133D01*
X154223616Y-89962539D01*
X154227238Y-89953794D01*
X154234529Y-89917141D01*
X154235000Y-89912365D01*
X154235000Y-89346197D01*
X154249352Y-89311549D01*
X154284000Y-89297197D01*
X154318648Y-89311549D01*
X154325734Y-89320521D01*
X154415206Y-89465955D01*
X154417121Y-89467911D01*
X154417123Y-89467913D01*
X154538941Y-89592310D01*
X154538944Y-89592312D01*
X154540859Y-89594268D01*
X154691817Y-89691554D01*
X154799683Y-89730814D01*
X154858003Y-89752041D01*
X154858005Y-89752041D01*
X154860578Y-89752978D01*
X154999283Y-89770500D01*
X155595155Y-89770500D01*
X155596506Y-89770348D01*
X155596514Y-89770348D01*
X155725754Y-89755851D01*
X155725755Y-89755851D01*
X155728472Y-89755546D01*
X155766696Y-89742235D01*
X155895484Y-89697387D01*
X155895487Y-89697385D01*
X155898073Y-89696485D01*
X155905965Y-89691554D01*
X156048050Y-89602769D01*
X156048051Y-89602768D01*
X156050375Y-89601316D01*
X156057473Y-89594268D01*
X156175860Y-89476703D01*
X156177807Y-89474770D01*
X156274037Y-89323136D01*
X156281619Y-89301845D01*
X156333362Y-89156532D01*
X156334281Y-89153951D01*
X156355545Y-88975624D01*
X156336773Y-88797017D01*
X156278897Y-88627007D01*
X156194103Y-88489176D01*
X156186229Y-88476377D01*
X156186227Y-88476375D01*
X156184794Y-88474045D01*
X156174269Y-88463297D01*
X156061059Y-88347690D01*
X156061056Y-88347688D01*
X156059141Y-88345732D01*
X156035005Y-88330177D01*
X155929370Y-88262100D01*
X155908183Y-88248446D01*
X155765908Y-88196662D01*
X155741997Y-88187959D01*
X155741995Y-88187959D01*
X155739422Y-88187022D01*
X155600717Y-88169500D01*
X155004845Y-88169500D01*
X155003494Y-88169652D01*
X155003486Y-88169652D01*
X154874246Y-88184149D01*
X154874245Y-88184149D01*
X154871528Y-88184454D01*
X154868940Y-88185355D01*
X154868941Y-88185355D01*
X154704516Y-88242613D01*
X154704513Y-88242615D01*
X154701927Y-88243515D01*
X154699604Y-88244966D01*
X154699603Y-88244967D01*
X154551950Y-88337231D01*
X154549625Y-88338684D01*
X154547682Y-88340613D01*
X154547680Y-88340615D01*
X154520978Y-88367132D01*
X154422193Y-88465230D01*
X154325963Y-88616864D01*
X154324827Y-88616143D01*
X154299955Y-88638151D01*
X154262522Y-88635864D01*
X154237670Y-88607778D01*
X154234999Y-88591822D01*
X154234999Y-88587630D01*
X154234530Y-88582870D01*
X154227238Y-88546205D01*
X154223617Y-88537461D01*
X154195824Y-88495867D01*
X154189133Y-88489176D01*
X154147539Y-88461384D01*
X154138794Y-88457762D01*
X154102141Y-88450471D01*
X154097365Y-88450000D01*
X154084747Y-88450000D01*
X154077855Y-88452855D01*
X154075000Y-88459747D01*
X154075000Y-90040252D01*
X153825000Y-90040252D01*
X153825000Y-88459748D01*
X153822145Y-88452856D01*
X153815253Y-88450001D01*
X153802630Y-88450001D01*
X153797870Y-88450470D01*
X153761205Y-88457762D01*
X153752461Y-88461384D01*
X153727672Y-88477947D01*
X153690889Y-88485263D01*
X153673226Y-88477947D01*
X153672777Y-88477647D01*
X153643722Y-88458233D01*
X153599820Y-88449500D01*
X153300180Y-88449500D01*
X153256278Y-88458233D01*
X153227223Y-88477647D01*
X153190441Y-88484963D01*
X153172777Y-88477647D01*
X153143722Y-88458233D01*
X153099820Y-88449500D01*
X152962052Y-88449500D01*
X152927404Y-88435148D01*
X152913052Y-88400500D01*
X152923178Y-88370671D01*
X152938905Y-88350175D01*
X152938907Y-88350171D01*
X152940861Y-88347625D01*
X152942260Y-88344249D01*
X152946234Y-88334652D01*
X152950692Y-88326285D01*
X152958437Y-88314629D01*
X152958438Y-88314627D01*
X152960285Y-88311847D01*
X152976452Y-88262093D01*
X152977781Y-88258491D01*
X152981329Y-88249927D01*
X152996330Y-88213709D01*
X152998574Y-88196660D01*
X153000554Y-88187914D01*
X153005861Y-88171582D01*
X153005862Y-88171578D01*
X153006894Y-88168401D01*
X153008951Y-88119327D01*
X153009326Y-88114994D01*
X153012859Y-88088165D01*
X153015250Y-88070000D01*
X153012594Y-88049825D01*
X153012218Y-88041377D01*
X153013070Y-88021041D01*
X153013210Y-88017706D01*
X153002724Y-87972999D01*
X153001848Y-87968206D01*
X152996749Y-87929471D01*
X152996748Y-87929468D01*
X152996330Y-87926291D01*
X152987336Y-87904577D01*
X152984906Y-87897032D01*
X152978768Y-87870864D01*
X152977156Y-87867931D01*
X152958182Y-87833416D01*
X152955851Y-87828563D01*
X152945820Y-87804348D01*
X152940861Y-87792375D01*
X152924641Y-87771237D01*
X152920576Y-87765013D01*
X152907343Y-87740942D01*
X152906106Y-87738692D01*
X152899103Y-87730578D01*
X152877048Y-87708523D01*
X152872822Y-87703705D01*
X152854573Y-87679923D01*
X152852621Y-87677379D01*
X152842502Y-87669614D01*
X152831012Y-87660797D01*
X152824774Y-87655090D01*
X152796465Y-87624305D01*
X152796461Y-87624302D01*
X152794201Y-87621844D01*
X152791366Y-87620087D01*
X152791361Y-87620082D01*
X152754127Y-87596997D01*
X152750337Y-87594393D01*
X152712783Y-87565888D01*
X152692415Y-87557824D01*
X152684632Y-87553909D01*
X152668858Y-87544128D01*
X152668856Y-87544127D01*
X152666014Y-87542365D01*
X152620744Y-87529213D01*
X152616380Y-87527719D01*
X152599349Y-87520976D01*
X152572417Y-87494877D01*
X152571828Y-87457379D01*
X152598636Y-87430147D01*
X152598991Y-87430000D01*
X152717625Y-87380861D01*
X152832621Y-87292621D01*
X152920861Y-87177625D01*
X152976330Y-87043709D01*
X152995250Y-86900000D01*
X152976330Y-86756291D01*
X152920861Y-86622375D01*
X152921089Y-86622281D01*
X152916420Y-86586818D01*
X152939250Y-86557065D01*
X152963750Y-86550500D01*
X153099820Y-86550500D01*
X153143722Y-86541767D01*
X153172777Y-86522353D01*
X153209559Y-86515037D01*
X153227222Y-86522353D01*
X153256278Y-86541767D01*
X153300180Y-86550500D01*
X153599820Y-86550500D01*
X153643722Y-86541767D01*
X153673226Y-86522053D01*
X153710008Y-86514737D01*
X153727672Y-86522053D01*
X153752461Y-86538616D01*
X153761206Y-86542238D01*
X153797859Y-86549529D01*
X153802635Y-86550000D01*
X153815253Y-86550000D01*
X153822145Y-86547145D01*
X153825000Y-86540253D01*
X153825000Y-86540252D01*
X154075000Y-86540252D01*
X154077855Y-86547144D01*
X154084747Y-86549999D01*
X154097370Y-86549999D01*
X154102130Y-86549530D01*
X154138795Y-86542238D01*
X154147539Y-86538617D01*
X154189133Y-86510824D01*
X154195824Y-86504133D01*
X154223616Y-86462539D01*
X154227238Y-86453794D01*
X154234529Y-86417141D01*
X154235000Y-86412365D01*
X154235000Y-86406197D01*
X154249352Y-86371549D01*
X154284000Y-86357197D01*
X154318648Y-86371549D01*
X154325735Y-86380522D01*
X154408305Y-86514737D01*
X154415206Y-86525955D01*
X154417121Y-86527911D01*
X154417123Y-86527913D01*
X154538941Y-86652310D01*
X154538944Y-86652312D01*
X154540859Y-86654268D01*
X154543159Y-86655751D01*
X154543160Y-86655751D01*
X154629813Y-86711595D01*
X154691817Y-86751554D01*
X154766716Y-86778815D01*
X154858003Y-86812041D01*
X154858005Y-86812041D01*
X154860578Y-86812978D01*
X154999283Y-86830500D01*
X155595155Y-86830500D01*
X155596506Y-86830348D01*
X155596514Y-86830348D01*
X155725754Y-86815851D01*
X155725755Y-86815851D01*
X155728472Y-86815546D01*
X155766696Y-86802235D01*
X155895484Y-86757387D01*
X155895487Y-86757385D01*
X155898073Y-86756485D01*
X155905965Y-86751554D01*
X156048050Y-86662769D01*
X156048051Y-86662768D01*
X156050375Y-86661316D01*
X156057473Y-86654268D01*
X156162471Y-86549999D01*
X156177807Y-86534770D01*
X156207306Y-86488287D01*
X156237989Y-86466723D01*
X156274934Y-86473171D01*
X156290118Y-86488395D01*
X156314930Y-86527720D01*
X156422388Y-86622623D01*
X156425546Y-86624106D01*
X156425548Y-86624107D01*
X156485618Y-86652310D01*
X156552163Y-86683553D01*
X156661009Y-86700500D01*
X156735940Y-86700500D01*
X156737664Y-86700253D01*
X156737666Y-86700253D01*
X156809111Y-86690021D01*
X156841918Y-86685323D01*
X156972428Y-86625984D01*
X156976617Y-86622375D01*
X157078391Y-86534680D01*
X157078393Y-86534678D01*
X157081037Y-86532400D01*
X157159015Y-86412095D01*
X157200093Y-86274739D01*
X157200969Y-86131376D01*
X157161572Y-85993529D01*
X157085070Y-85872280D01*
X156977612Y-85777377D01*
X156974454Y-85775894D01*
X156974452Y-85775893D01*
X156900317Y-85741087D01*
X156847837Y-85716447D01*
X156738991Y-85699500D01*
X156664060Y-85699500D01*
X156662336Y-85699747D01*
X156662334Y-85699747D01*
X156590889Y-85709979D01*
X156558082Y-85714677D01*
X156427572Y-85774016D01*
X156391556Y-85805050D01*
X156390502Y-85805958D01*
X156354885Y-85817703D01*
X156321396Y-85800824D01*
X156312130Y-85784629D01*
X156308517Y-85774016D01*
X156278897Y-85687007D01*
X156184794Y-85534045D01*
X156174269Y-85523297D01*
X156061059Y-85407690D01*
X156061056Y-85407688D01*
X156059141Y-85405732D01*
X155908183Y-85308446D01*
X155800317Y-85269186D01*
X155741997Y-85247959D01*
X155741995Y-85247959D01*
X155739422Y-85247022D01*
X155600717Y-85229500D01*
X155004845Y-85229500D01*
X155003494Y-85229652D01*
X155003486Y-85229652D01*
X154874246Y-85244149D01*
X154874245Y-85244149D01*
X154871528Y-85244454D01*
X154868940Y-85245355D01*
X154868941Y-85245355D01*
X154704516Y-85302613D01*
X154704513Y-85302615D01*
X154701927Y-85303515D01*
X154699604Y-85304966D01*
X154699603Y-85304967D01*
X154551950Y-85397231D01*
X154549625Y-85398684D01*
X154547682Y-85400613D01*
X154547680Y-85400615D01*
X154540556Y-85407690D01*
X154422193Y-85525230D01*
X154325963Y-85676864D01*
X154324830Y-85676145D01*
X154299940Y-85698155D01*
X154262508Y-85695856D01*
X154237665Y-85667762D01*
X154234999Y-85651821D01*
X154234999Y-85087630D01*
X154234530Y-85082870D01*
X154227238Y-85046205D01*
X154223617Y-85037461D01*
X154195824Y-84995867D01*
X154189133Y-84989176D01*
X154147539Y-84961384D01*
X154138794Y-84957762D01*
X154102141Y-84950471D01*
X154097365Y-84950000D01*
X154084747Y-84950000D01*
X154077855Y-84952855D01*
X154075000Y-84959747D01*
X154075000Y-86540252D01*
X153825000Y-86540252D01*
X153825000Y-84959748D01*
X153822145Y-84952856D01*
X153815253Y-84950001D01*
X153802630Y-84950001D01*
X153797870Y-84950470D01*
X153761205Y-84957762D01*
X153752461Y-84961384D01*
X153727672Y-84977947D01*
X153690889Y-84985263D01*
X153673226Y-84977947D01*
X153672777Y-84977647D01*
X153643722Y-84958233D01*
X153599820Y-84949500D01*
X153575000Y-84949500D01*
X153540352Y-84935148D01*
X153526000Y-84900500D01*
X153526000Y-84826332D01*
X153540352Y-84791684D01*
X154460202Y-83871833D01*
X154467577Y-83866606D01*
X154467563Y-83866589D01*
X154471884Y-83863152D01*
X154476855Y-83860765D01*
X154497463Y-83834996D01*
X154501083Y-83830952D01*
X154507480Y-83824555D01*
X154508943Y-83822228D01*
X154508945Y-83822225D01*
X154512121Y-83817172D01*
X154515338Y-83812645D01*
X154532252Y-83791495D01*
X154532252Y-83791494D01*
X154535697Y-83787187D01*
X154536933Y-83781810D01*
X154539014Y-83777506D01*
X154540391Y-83774192D01*
X154541972Y-83769677D01*
X154544908Y-83765006D01*
X154548570Y-83732613D01*
X154549507Y-83727135D01*
X154550878Y-83721174D01*
X154550879Y-83721168D01*
X154551500Y-83718466D01*
X154551500Y-83709462D01*
X154551810Y-83703957D01*
X154554872Y-83676875D01*
X154554872Y-83676874D01*
X154555492Y-83671390D01*
X154553672Y-83666178D01*
X154553101Y-83661090D01*
X154551500Y-83651650D01*
X154551500Y-82945200D01*
X154565852Y-82910552D01*
X154600500Y-82896200D01*
X154628885Y-82905259D01*
X154720069Y-82970060D01*
X154725934Y-82973126D01*
X154845829Y-83016291D01*
X154853282Y-83015940D01*
X154855000Y-83014051D01*
X154855000Y-83006152D01*
X155105000Y-83006152D01*
X155107855Y-83013044D01*
X155111556Y-83014577D01*
X155159302Y-83004950D01*
X155165555Y-83002773D01*
X155293864Y-82937397D01*
X155299304Y-82933616D01*
X155405309Y-82836139D01*
X155409526Y-82831042D01*
X155485414Y-82708646D01*
X155488106Y-82702598D01*
X155528498Y-82563567D01*
X155529403Y-82558540D01*
X155529933Y-82551319D01*
X155530000Y-82549508D01*
X155530000Y-82414747D01*
X155527145Y-82407855D01*
X155520253Y-82405000D01*
X155114747Y-82405000D01*
X155107855Y-82407855D01*
X155105000Y-82414747D01*
X155105000Y-83006152D01*
X154855000Y-83006152D01*
X154855000Y-82145253D01*
X155105000Y-82145253D01*
X155107855Y-82152145D01*
X155114747Y-82155000D01*
X155520253Y-82155000D01*
X155527145Y-82152145D01*
X155530000Y-82145253D01*
X155530000Y-82043922D01*
X155529774Y-82040598D01*
X155515173Y-81934014D01*
X155513393Y-81927637D01*
X155456200Y-81795472D01*
X155452771Y-81789810D01*
X155362142Y-81677893D01*
X155357319Y-81673364D01*
X155239931Y-81589940D01*
X155234066Y-81586874D01*
X155114171Y-81543709D01*
X155106718Y-81544060D01*
X155105000Y-81545949D01*
X155105000Y-82145253D01*
X154855000Y-82145253D01*
X154855000Y-81553848D01*
X154852145Y-81546956D01*
X154851090Y-81546519D01*
X154824572Y-81520000D01*
X154824572Y-81482497D01*
X154828197Y-81475428D01*
X154835651Y-81463407D01*
X154844521Y-81449101D01*
X154850878Y-81438848D01*
X154850878Y-81438847D01*
X154852635Y-81436014D01*
X154853566Y-81432810D01*
X154893997Y-81293647D01*
X154893997Y-81293645D01*
X154894715Y-81291175D01*
X154894909Y-81288540D01*
X154895433Y-81281392D01*
X154895500Y-81280485D01*
X154895500Y-80772215D01*
X154891155Y-80740492D01*
X154880659Y-80663878D01*
X154880206Y-80660568D01*
X154850569Y-80592081D01*
X154849980Y-80554583D01*
X154876079Y-80527651D01*
X154913577Y-80527062D01*
X154918837Y-80529515D01*
G37*
%TD.AperFunction*%
%TA.AperFunction,Conductor*%
G36*
X151286786Y-79511127D02*
G01*
X153714196Y-79914096D01*
X153722930Y-79916389D01*
X153908939Y-79984091D01*
X153915485Y-79987033D01*
X154077561Y-80074662D01*
X154265165Y-80176094D01*
X154288816Y-80205196D01*
X154284962Y-80242501D01*
X154255859Y-80266153D01*
X154251547Y-80267228D01*
X154162257Y-80285233D01*
X154159281Y-80286749D01*
X154159279Y-80286750D01*
X154030848Y-80352188D01*
X154030845Y-80352190D01*
X154027868Y-80353707D01*
X153916844Y-80455799D01*
X153915085Y-80458636D01*
X153853230Y-80558399D01*
X153837365Y-80583986D01*
X153836434Y-80587189D01*
X153836434Y-80587190D01*
X153814115Y-80664014D01*
X153795285Y-80728825D01*
X153795097Y-80731389D01*
X153795096Y-80731393D01*
X153794823Y-80735122D01*
X153794500Y-80739515D01*
X153794500Y-81247785D01*
X153794726Y-81249432D01*
X153794726Y-81249438D01*
X153800083Y-81288540D01*
X153809794Y-81359432D01*
X153811121Y-81362498D01*
X153811121Y-81362499D01*
X153856269Y-81466830D01*
X153856858Y-81504328D01*
X153830759Y-81531260D01*
X153807710Y-81535158D01*
X153754630Y-81531260D01*
X153675109Y-81525420D01*
X153616392Y-81537260D01*
X153579592Y-81530040D01*
X153558675Y-81498913D01*
X153565063Y-81463407D01*
X153580413Y-81438650D01*
X153583106Y-81432598D01*
X153623498Y-81293567D01*
X153624403Y-81288540D01*
X153624933Y-81281319D01*
X153625000Y-81279508D01*
X153625000Y-81144747D01*
X153622145Y-81137855D01*
X153615253Y-81135000D01*
X153209747Y-81135000D01*
X153202855Y-81137855D01*
X153200000Y-81144747D01*
X153200000Y-81736152D01*
X153202855Y-81743044D01*
X153203910Y-81743481D01*
X153230428Y-81770000D01*
X153230428Y-81807503D01*
X153226805Y-81814568D01*
X153221498Y-81823128D01*
X153204125Y-81851148D01*
X153202365Y-81853986D01*
X153201434Y-81857189D01*
X153201434Y-81857190D01*
X153179115Y-81934014D01*
X153160285Y-81998825D01*
X153159500Y-82009515D01*
X153159500Y-82517785D01*
X153159726Y-82519432D01*
X153159726Y-82519438D01*
X153165083Y-82558540D01*
X153174794Y-82629432D01*
X153176121Y-82632498D01*
X153176121Y-82632499D01*
X153227293Y-82750749D01*
X153234695Y-82767855D01*
X153329614Y-82885070D01*
X153452558Y-82972442D01*
X153455698Y-82973573D01*
X153455701Y-82973574D01*
X153591326Y-83022402D01*
X153591327Y-83022402D01*
X153594468Y-83023533D01*
X153597796Y-83023777D01*
X153597799Y-83023778D01*
X153677532Y-83029633D01*
X153744891Y-83034580D01*
X153748164Y-83033920D01*
X153748165Y-83033920D01*
X153840814Y-83015238D01*
X153877615Y-83022458D01*
X153898532Y-83053586D01*
X153899499Y-83063271D01*
X153899499Y-83419537D01*
X153885147Y-83454185D01*
X153850499Y-83468537D01*
X153823727Y-83459448D01*
X153823415Y-83459989D01*
X153820693Y-83458417D01*
X153820666Y-83458408D01*
X153818084Y-83456427D01*
X153726982Y-83418692D01*
X153629218Y-83405821D01*
X153531454Y-83418692D01*
X153440352Y-83456427D01*
X153437806Y-83458381D01*
X153437803Y-83458383D01*
X153381979Y-83501219D01*
X153378077Y-83503923D01*
X153368356Y-83509985D01*
X153363538Y-83512989D01*
X153363534Y-83512992D01*
X153361174Y-83514464D01*
X153360651Y-83514986D01*
X153360160Y-83515768D01*
X153350098Y-83531776D01*
X153347503Y-83535507D01*
X153302092Y-83594687D01*
X153264357Y-83685789D01*
X153251486Y-83783553D01*
X153257735Y-83831014D01*
X153257925Y-83832460D01*
X153248218Y-83868685D01*
X153215740Y-83887437D01*
X153202950Y-83887437D01*
X153154041Y-83880998D01*
X153056277Y-83893869D01*
X152965175Y-83931604D01*
X152962626Y-83933560D01*
X152906802Y-83976396D01*
X152902909Y-83979095D01*
X152885997Y-83989641D01*
X152885474Y-83990163D01*
X152884003Y-83992503D01*
X152884001Y-83992506D01*
X152874928Y-84006941D01*
X152872316Y-84010697D01*
X152826915Y-84069864D01*
X152789180Y-84160966D01*
X152776309Y-84258730D01*
X152789180Y-84356494D01*
X152826915Y-84447596D01*
X152828871Y-84450145D01*
X152871701Y-84505962D01*
X152874404Y-84509862D01*
X152884951Y-84526774D01*
X152883623Y-84527602D01*
X152892580Y-84558967D01*
X152889967Y-84567974D01*
X152889803Y-84568179D01*
X152889405Y-84569911D01*
X152888983Y-84571745D01*
X152888619Y-84572620D01*
X152888017Y-84574694D01*
X152886165Y-84578525D01*
X152886161Y-84578523D01*
X152885490Y-84580135D01*
X152885494Y-84580136D01*
X152883662Y-84585339D01*
X152880716Y-84590007D01*
X152880086Y-84595490D01*
X152880086Y-84595491D01*
X152876972Y-84622612D01*
X152876047Y-84627999D01*
X152874000Y-84636900D01*
X152874000Y-84645690D01*
X152873680Y-84651279D01*
X152869968Y-84683605D01*
X152871777Y-84688816D01*
X152872254Y-84693134D01*
X152874000Y-84703482D01*
X152874000Y-84900500D01*
X152859648Y-84935148D01*
X152825000Y-84949500D01*
X152800180Y-84949500D01*
X152756278Y-84958233D01*
X152727223Y-84977647D01*
X152690441Y-84984963D01*
X152672777Y-84977647D01*
X152643722Y-84958233D01*
X152599820Y-84949500D01*
X152300180Y-84949500D01*
X152256278Y-84958233D01*
X152227223Y-84977647D01*
X152190441Y-84984963D01*
X152172777Y-84977647D01*
X152143722Y-84958233D01*
X152099820Y-84949500D01*
X151800180Y-84949500D01*
X151756278Y-84958233D01*
X151727223Y-84977647D01*
X151690441Y-84984963D01*
X151672777Y-84977647D01*
X151643722Y-84958233D01*
X151599820Y-84949500D01*
X151300180Y-84949500D01*
X151256278Y-84958233D01*
X151227223Y-84977647D01*
X151190441Y-84984963D01*
X151172777Y-84977647D01*
X151143722Y-84958233D01*
X151099820Y-84949500D01*
X150800180Y-84949500D01*
X150756278Y-84958233D01*
X150727223Y-84977647D01*
X150690441Y-84984963D01*
X150672777Y-84977647D01*
X150643722Y-84958233D01*
X150599820Y-84949500D01*
X150300180Y-84949500D01*
X150256278Y-84958233D01*
X150227223Y-84977647D01*
X150190441Y-84984963D01*
X150172777Y-84977647D01*
X150143722Y-84958233D01*
X150099820Y-84949500D01*
X149800180Y-84949500D01*
X149756278Y-84958233D01*
X149727223Y-84977647D01*
X149690441Y-84984963D01*
X149672777Y-84977647D01*
X149643722Y-84958233D01*
X149599820Y-84949500D01*
X149575000Y-84949500D01*
X149540352Y-84935148D01*
X149526000Y-84900500D01*
X149526000Y-84727582D01*
X149540352Y-84692934D01*
X150650202Y-83583083D01*
X150657577Y-83577856D01*
X150657563Y-83577839D01*
X150661884Y-83574402D01*
X150666855Y-83572015D01*
X150687463Y-83546246D01*
X150691083Y-83542202D01*
X150697481Y-83535804D01*
X150702122Y-83528421D01*
X150705338Y-83523895D01*
X150722252Y-83502745D01*
X150725697Y-83498437D01*
X150726933Y-83493060D01*
X150729014Y-83488756D01*
X150730391Y-83485442D01*
X150731972Y-83480927D01*
X150734908Y-83476256D01*
X150738570Y-83443863D01*
X150739507Y-83438385D01*
X150740878Y-83432424D01*
X150740879Y-83432418D01*
X150741500Y-83429716D01*
X150741500Y-83420712D01*
X150741810Y-83415207D01*
X150744872Y-83388124D01*
X150745492Y-83382639D01*
X150743672Y-83377427D01*
X150743101Y-83372339D01*
X150741500Y-83362899D01*
X150741500Y-82945200D01*
X150755852Y-82910552D01*
X150790500Y-82896200D01*
X150818885Y-82905259D01*
X150910069Y-82970060D01*
X150915934Y-82973126D01*
X151035829Y-83016291D01*
X151043282Y-83015940D01*
X151045000Y-83014051D01*
X151045000Y-83006152D01*
X151295000Y-83006152D01*
X151297855Y-83013044D01*
X151301556Y-83014577D01*
X151349302Y-83004950D01*
X151355555Y-83002773D01*
X151483864Y-82937397D01*
X151489304Y-82933616D01*
X151595309Y-82836139D01*
X151599526Y-82831042D01*
X151675414Y-82708646D01*
X151678106Y-82702598D01*
X151718498Y-82563567D01*
X151719403Y-82558540D01*
X151719933Y-82551319D01*
X151720000Y-82549508D01*
X151720000Y-82414747D01*
X151717145Y-82407855D01*
X151710253Y-82405000D01*
X151304747Y-82405000D01*
X151297855Y-82407855D01*
X151295000Y-82414747D01*
X151295000Y-83006152D01*
X151045000Y-83006152D01*
X151045000Y-81553848D01*
X151042145Y-81546956D01*
X151041090Y-81546519D01*
X151014572Y-81520000D01*
X151014572Y-81482497D01*
X151018197Y-81475428D01*
X151025651Y-81463407D01*
X151034521Y-81449101D01*
X151040878Y-81438848D01*
X151040878Y-81438847D01*
X151042635Y-81436014D01*
X151043566Y-81432810D01*
X151083997Y-81293647D01*
X151083997Y-81293645D01*
X151084715Y-81291175D01*
X151084909Y-81288540D01*
X151085433Y-81281392D01*
X151085500Y-81280485D01*
X151085500Y-81247785D01*
X151254500Y-81247785D01*
X151254726Y-81249432D01*
X151254726Y-81249438D01*
X151260083Y-81288540D01*
X151269794Y-81359432D01*
X151316288Y-81466872D01*
X151320474Y-81476546D01*
X151321063Y-81514044D01*
X151308330Y-81527183D01*
X151310379Y-81529047D01*
X151295000Y-81545949D01*
X151295000Y-82145253D01*
X151297855Y-82152145D01*
X151304747Y-82155000D01*
X151710253Y-82155000D01*
X151717145Y-82152145D01*
X151720000Y-82145253D01*
X151720000Y-82043922D01*
X151719774Y-82040598D01*
X151705173Y-81934014D01*
X151703393Y-81927637D01*
X151658168Y-81823128D01*
X151657579Y-81785630D01*
X151683678Y-81758698D01*
X151706725Y-81754800D01*
X151839891Y-81764580D01*
X151897934Y-81752876D01*
X151934735Y-81760096D01*
X151955652Y-81791223D01*
X151949264Y-81826729D01*
X151934124Y-81851148D01*
X151934122Y-81851152D01*
X151932365Y-81853986D01*
X151931434Y-81857189D01*
X151931434Y-81857190D01*
X151909115Y-81934014D01*
X151890285Y-81998825D01*
X151889500Y-82009515D01*
X151889500Y-82517785D01*
X151889726Y-82519432D01*
X151889726Y-82519438D01*
X151895083Y-82558540D01*
X151904794Y-82629432D01*
X151906121Y-82632498D01*
X151906121Y-82632499D01*
X151957293Y-82750749D01*
X151964695Y-82767855D01*
X152059614Y-82885070D01*
X152182558Y-82972442D01*
X152185698Y-82973573D01*
X152185701Y-82973574D01*
X152321326Y-83022402D01*
X152321327Y-83022402D01*
X152324468Y-83023533D01*
X152327796Y-83023777D01*
X152327799Y-83023778D01*
X152407532Y-83029633D01*
X152474891Y-83034580D01*
X152478164Y-83033920D01*
X152478165Y-83033920D01*
X152619467Y-83005428D01*
X152619470Y-83005427D01*
X152622743Y-83004767D01*
X152625719Y-83003251D01*
X152625721Y-83003250D01*
X152754152Y-82937812D01*
X152754155Y-82937810D01*
X152757132Y-82936293D01*
X152762210Y-82931624D01*
X152812836Y-82885070D01*
X152868156Y-82834201D01*
X152921986Y-82747382D01*
X152945878Y-82708848D01*
X152945878Y-82708847D01*
X152947635Y-82706014D01*
X152948566Y-82702810D01*
X152988997Y-82563647D01*
X152988997Y-82563645D01*
X152989715Y-82561175D01*
X152989909Y-82558540D01*
X152990433Y-82551392D01*
X152990500Y-82550485D01*
X152990500Y-82042215D01*
X152986145Y-82010419D01*
X152975659Y-81933878D01*
X152975206Y-81930568D01*
X152924526Y-81813453D01*
X152923937Y-81775956D01*
X152936670Y-81762817D01*
X152934621Y-81760953D01*
X152950000Y-81744051D01*
X152950000Y-81144747D01*
X152947145Y-81137855D01*
X152940253Y-81135000D01*
X152534747Y-81135000D01*
X152527855Y-81137855D01*
X152525000Y-81144747D01*
X152525000Y-81246078D01*
X152525226Y-81249402D01*
X152539827Y-81355986D01*
X152541607Y-81362363D01*
X152586832Y-81466872D01*
X152587421Y-81504370D01*
X152561322Y-81531302D01*
X152538275Y-81535200D01*
X152405109Y-81525420D01*
X152347066Y-81537124D01*
X152310265Y-81529904D01*
X152289348Y-81498777D01*
X152295736Y-81463271D01*
X152310876Y-81438852D01*
X152310878Y-81438848D01*
X152312635Y-81436014D01*
X152313566Y-81432810D01*
X152353997Y-81293647D01*
X152353997Y-81293645D01*
X152354715Y-81291175D01*
X152354909Y-81288540D01*
X152355433Y-81281392D01*
X152355500Y-81280485D01*
X152355500Y-80875253D01*
X152525000Y-80875253D01*
X152527855Y-80882145D01*
X152534747Y-80885000D01*
X152940253Y-80885000D01*
X152947145Y-80882145D01*
X152950000Y-80875253D01*
X153200000Y-80875253D01*
X153202855Y-80882145D01*
X153209747Y-80885000D01*
X153615253Y-80885000D01*
X153622145Y-80882145D01*
X153625000Y-80875253D01*
X153625000Y-80773922D01*
X153624774Y-80770598D01*
X153610173Y-80664014D01*
X153608393Y-80657637D01*
X153551200Y-80525472D01*
X153547771Y-80519810D01*
X153457142Y-80407893D01*
X153452319Y-80403364D01*
X153334931Y-80319940D01*
X153329066Y-80316874D01*
X153209171Y-80273709D01*
X153201718Y-80274060D01*
X153200000Y-80275949D01*
X153200000Y-80875253D01*
X152950000Y-80875253D01*
X152950000Y-80283848D01*
X152947145Y-80276956D01*
X152943444Y-80275423D01*
X152895698Y-80285050D01*
X152889445Y-80287227D01*
X152761136Y-80352603D01*
X152755696Y-80356384D01*
X152649691Y-80453861D01*
X152645474Y-80458958D01*
X152569586Y-80581354D01*
X152566894Y-80587402D01*
X152526502Y-80726433D01*
X152525597Y-80731460D01*
X152525067Y-80738681D01*
X152525000Y-80740492D01*
X152525000Y-80875253D01*
X152355500Y-80875253D01*
X152355500Y-80772215D01*
X152351155Y-80740492D01*
X152340659Y-80663878D01*
X152340206Y-80660568D01*
X152338879Y-80657501D01*
X152281632Y-80525211D01*
X152281631Y-80525210D01*
X152280305Y-80522145D01*
X152185386Y-80404930D01*
X152062442Y-80317558D01*
X152059302Y-80316427D01*
X152059299Y-80316426D01*
X151923674Y-80267598D01*
X151923673Y-80267598D01*
X151920532Y-80266467D01*
X151917204Y-80266223D01*
X151917201Y-80266222D01*
X151837468Y-80260367D01*
X151770109Y-80255420D01*
X151766836Y-80256080D01*
X151766835Y-80256080D01*
X151625533Y-80284572D01*
X151625530Y-80284573D01*
X151622257Y-80285233D01*
X151619281Y-80286749D01*
X151619279Y-80286750D01*
X151490848Y-80352188D01*
X151490845Y-80352190D01*
X151487868Y-80353707D01*
X151376844Y-80455799D01*
X151375085Y-80458636D01*
X151313230Y-80558399D01*
X151297365Y-80583986D01*
X151296434Y-80587189D01*
X151296434Y-80587190D01*
X151274115Y-80664014D01*
X151255285Y-80728825D01*
X151255097Y-80731389D01*
X151255096Y-80731393D01*
X151254823Y-80735122D01*
X151254500Y-80739515D01*
X151254500Y-81247785D01*
X151085500Y-81247785D01*
X151085500Y-80772215D01*
X151081155Y-80740492D01*
X151070659Y-80663878D01*
X151070206Y-80660568D01*
X151068879Y-80657501D01*
X151011632Y-80525211D01*
X151011631Y-80525210D01*
X151010305Y-80522145D01*
X150915386Y-80404930D01*
X150792442Y-80317558D01*
X150789302Y-80316427D01*
X150789299Y-80316426D01*
X150653674Y-80267598D01*
X150653673Y-80267598D01*
X150650532Y-80266467D01*
X150647204Y-80266223D01*
X150647201Y-80266222D01*
X150567468Y-80260367D01*
X150500109Y-80255420D01*
X150496836Y-80256080D01*
X150496835Y-80256080D01*
X150355533Y-80284572D01*
X150355530Y-80284573D01*
X150352257Y-80285233D01*
X150349281Y-80286749D01*
X150349279Y-80286750D01*
X150220848Y-80352188D01*
X150220845Y-80352190D01*
X150217868Y-80353707D01*
X150106844Y-80455799D01*
X150105085Y-80458636D01*
X150043230Y-80558399D01*
X150027365Y-80583986D01*
X150026434Y-80587189D01*
X150026434Y-80587190D01*
X150004115Y-80664014D01*
X149985285Y-80728825D01*
X149985097Y-80731389D01*
X149985096Y-80731393D01*
X149984823Y-80735122D01*
X149984500Y-80739515D01*
X149984500Y-81247785D01*
X149984726Y-81249432D01*
X149984726Y-81249438D01*
X149990083Y-81288540D01*
X149999794Y-81359432D01*
X150001121Y-81362498D01*
X150001121Y-81362499D01*
X150046269Y-81466830D01*
X150046858Y-81504328D01*
X150020759Y-81531260D01*
X149997710Y-81535158D01*
X149944630Y-81531260D01*
X149865109Y-81525420D01*
X149806392Y-81537260D01*
X149769592Y-81530040D01*
X149748675Y-81498913D01*
X149755063Y-81463407D01*
X149770413Y-81438650D01*
X149773106Y-81432598D01*
X149813498Y-81293567D01*
X149814403Y-81288540D01*
X149814933Y-81281319D01*
X149815000Y-81279508D01*
X149815000Y-81144747D01*
X149812145Y-81137855D01*
X149805253Y-81135000D01*
X149399747Y-81135000D01*
X149392855Y-81137855D01*
X149390000Y-81144747D01*
X149390000Y-81736152D01*
X149392855Y-81743044D01*
X149393910Y-81743481D01*
X149420428Y-81770000D01*
X149420428Y-81807503D01*
X149416805Y-81814568D01*
X149411498Y-81823128D01*
X149394125Y-81851148D01*
X149392365Y-81853986D01*
X149391434Y-81857189D01*
X149391434Y-81857190D01*
X149369115Y-81934014D01*
X149350285Y-81998825D01*
X149349500Y-82009515D01*
X149349500Y-82517785D01*
X149349726Y-82519432D01*
X149349726Y-82519438D01*
X149355083Y-82558540D01*
X149364794Y-82629432D01*
X149366121Y-82632498D01*
X149366121Y-82632499D01*
X149417293Y-82750749D01*
X149424695Y-82767855D01*
X149519614Y-82885070D01*
X149642558Y-82972442D01*
X149645698Y-82973573D01*
X149645701Y-82973574D01*
X149781326Y-83022402D01*
X149781327Y-83022402D01*
X149784468Y-83023533D01*
X149787796Y-83023777D01*
X149787799Y-83023778D01*
X149867532Y-83029633D01*
X149934891Y-83034580D01*
X149938164Y-83033920D01*
X149938165Y-83033920D01*
X150030814Y-83015238D01*
X150067615Y-83022458D01*
X150088532Y-83053586D01*
X150089499Y-83063271D01*
X150089499Y-83201420D01*
X150075147Y-83236068D01*
X150007503Y-83303712D01*
X150007493Y-83303721D01*
X149947563Y-83363652D01*
X149912914Y-83378004D01*
X149886840Y-83370491D01*
X149881007Y-83366825D01*
X149877251Y-83364212D01*
X149820633Y-83320767D01*
X149818084Y-83318811D01*
X149726982Y-83281076D01*
X149629218Y-83268205D01*
X149531454Y-83281076D01*
X149440352Y-83318811D01*
X149437803Y-83320767D01*
X149381979Y-83363603D01*
X149378086Y-83366302D01*
X149361174Y-83376848D01*
X149360651Y-83377370D01*
X149359180Y-83379710D01*
X149359178Y-83379713D01*
X149350105Y-83394148D01*
X149347493Y-83397904D01*
X149302092Y-83457071D01*
X149264357Y-83548173D01*
X149251486Y-83645937D01*
X149251905Y-83649119D01*
X149257925Y-83694844D01*
X149248218Y-83731069D01*
X149215740Y-83749821D01*
X149202950Y-83749821D01*
X149154041Y-83743382D01*
X149056277Y-83756253D01*
X148965175Y-83793988D01*
X148962626Y-83795944D01*
X148906802Y-83838780D01*
X148902900Y-83841484D01*
X148898248Y-83844385D01*
X148888360Y-83850551D01*
X148888358Y-83850553D01*
X148885997Y-83852025D01*
X148885474Y-83852547D01*
X148884003Y-83854888D01*
X148884002Y-83854889D01*
X148877783Y-83864785D01*
X148877780Y-83864790D01*
X148874931Y-83869322D01*
X148872321Y-83873073D01*
X148828873Y-83929695D01*
X148828870Y-83929700D01*
X148826915Y-83932248D01*
X148789180Y-84023350D01*
X148776309Y-84121114D01*
X148789180Y-84218878D01*
X148826915Y-84309980D01*
X148828871Y-84312529D01*
X148871701Y-84368346D01*
X148874404Y-84372246D01*
X148884951Y-84389158D01*
X148883623Y-84389986D01*
X148892580Y-84421351D01*
X148889967Y-84430358D01*
X148889803Y-84430563D01*
X148889405Y-84432295D01*
X148888983Y-84434129D01*
X148888619Y-84435004D01*
X148888017Y-84437078D01*
X148886165Y-84440909D01*
X148886161Y-84440907D01*
X148885490Y-84442519D01*
X148885494Y-84442520D01*
X148883662Y-84447723D01*
X148880716Y-84452391D01*
X148880086Y-84457874D01*
X148880086Y-84457875D01*
X148876972Y-84484996D01*
X148876047Y-84490383D01*
X148874000Y-84499284D01*
X148874000Y-84508074D01*
X148873680Y-84513664D01*
X148872175Y-84526774D01*
X148869968Y-84545989D01*
X148871777Y-84551200D01*
X148872254Y-84555518D01*
X148874000Y-84565866D01*
X148874000Y-84900500D01*
X148859648Y-84935148D01*
X148825000Y-84949500D01*
X148800180Y-84949500D01*
X148756278Y-84958233D01*
X148727223Y-84977647D01*
X148726774Y-84977947D01*
X148689992Y-84985263D01*
X148672328Y-84977947D01*
X148647539Y-84961384D01*
X148638794Y-84957762D01*
X148602141Y-84950471D01*
X148597365Y-84950000D01*
X148584747Y-84950000D01*
X148577855Y-84952855D01*
X148575000Y-84959747D01*
X148575000Y-86540252D01*
X148577855Y-86547144D01*
X148584747Y-86549999D01*
X148597370Y-86549999D01*
X148602130Y-86549530D01*
X148638795Y-86542238D01*
X148647539Y-86538616D01*
X148672328Y-86522053D01*
X148709111Y-86514737D01*
X148726773Y-86522053D01*
X148756278Y-86541767D01*
X148800180Y-86550500D01*
X149099820Y-86550500D01*
X149143722Y-86541767D01*
X149172777Y-86522353D01*
X149209559Y-86515037D01*
X149227222Y-86522353D01*
X149256278Y-86541767D01*
X149300180Y-86550500D01*
X149431435Y-86550500D01*
X149466083Y-86564852D01*
X149480435Y-86599500D01*
X149476705Y-86618251D01*
X149473502Y-86625984D01*
X149423670Y-86746291D01*
X149404750Y-86890000D01*
X149423670Y-87033709D01*
X149479139Y-87167625D01*
X149567379Y-87282621D01*
X149682375Y-87370861D01*
X149741171Y-87395215D01*
X149816017Y-87426217D01*
X149842536Y-87452735D01*
X149842536Y-87490238D01*
X149816727Y-87516456D01*
X149790700Y-87527719D01*
X149753644Y-87543754D01*
X149752936Y-87544054D01*
X149692375Y-87569139D01*
X149689977Y-87570979D01*
X149685333Y-87573314D01*
X149685219Y-87573363D01*
X149685210Y-87573368D01*
X149682145Y-87574695D01*
X149654604Y-87596997D01*
X149628635Y-87618026D01*
X149627632Y-87618817D01*
X149577379Y-87657379D01*
X149575424Y-87659927D01*
X149573154Y-87662197D01*
X149573031Y-87662074D01*
X149568510Y-87666714D01*
X149567532Y-87667506D01*
X149567528Y-87667510D01*
X149564930Y-87669614D01*
X149562993Y-87672340D01*
X149527060Y-87722903D01*
X149526025Y-87724305D01*
X149489139Y-87772375D01*
X149487907Y-87775349D01*
X149487397Y-87776579D01*
X149482074Y-87786202D01*
X149479497Y-87789829D01*
X149477558Y-87792558D01*
X149462849Y-87833416D01*
X149456547Y-87850920D01*
X149455725Y-87853045D01*
X149433670Y-87906291D01*
X149433251Y-87909474D01*
X149433250Y-87909477D01*
X149432663Y-87913939D01*
X149430186Y-87924137D01*
X149426467Y-87934468D01*
X149426222Y-87937799D01*
X149426222Y-87937801D01*
X149422164Y-87993057D01*
X149421877Y-87995864D01*
X149416132Y-88039500D01*
X149414750Y-88050000D01*
X149415169Y-88053182D01*
X149416170Y-88060785D01*
X149416457Y-88070770D01*
X149415420Y-88084891D01*
X149416080Y-88088164D01*
X149416080Y-88088165D01*
X149426393Y-88139310D01*
X149426941Y-88142599D01*
X149432790Y-88187022D01*
X149433670Y-88193709D01*
X149434898Y-88196674D01*
X149434899Y-88196677D01*
X149439044Y-88206685D01*
X149441807Y-88215751D01*
X149442728Y-88220318D01*
X149445233Y-88232743D01*
X149468984Y-88279358D01*
X149470583Y-88282827D01*
X149489139Y-88327625D01*
X149491092Y-88330171D01*
X149491096Y-88330177D01*
X149499609Y-88341271D01*
X149504394Y-88348855D01*
X149513707Y-88367132D01*
X149515968Y-88369591D01*
X149517875Y-88372335D01*
X149516154Y-88373531D01*
X149526781Y-88402529D01*
X149511007Y-88436553D01*
X149477823Y-88449500D01*
X149300180Y-88449500D01*
X149256278Y-88458233D01*
X149227223Y-88477647D01*
X149190441Y-88484963D01*
X149172777Y-88477647D01*
X149143722Y-88458233D01*
X149099820Y-88449500D01*
X148800180Y-88449500D01*
X148756278Y-88458233D01*
X148727223Y-88477647D01*
X148726774Y-88477947D01*
X148689992Y-88485263D01*
X148672328Y-88477947D01*
X148647539Y-88461384D01*
X148638794Y-88457762D01*
X148602141Y-88450471D01*
X148597365Y-88450000D01*
X148584747Y-88450000D01*
X148577855Y-88452855D01*
X148575000Y-88459747D01*
X148575000Y-90040252D01*
X148577855Y-90047144D01*
X148584747Y-90049999D01*
X148597370Y-90049999D01*
X148602130Y-90049530D01*
X148638795Y-90042238D01*
X148647539Y-90038616D01*
X148672328Y-90022053D01*
X148709111Y-90014737D01*
X148726773Y-90022053D01*
X148756278Y-90041767D01*
X148800180Y-90050500D01*
X148824500Y-90050500D01*
X148859148Y-90064852D01*
X148873500Y-90099500D01*
X148873500Y-90915169D01*
X148859148Y-90949817D01*
X148124798Y-91684167D01*
X148117423Y-91689394D01*
X148117437Y-91689411D01*
X148113116Y-91692848D01*
X148108145Y-91695235D01*
X148087760Y-91720725D01*
X148087537Y-91721004D01*
X148083917Y-91725048D01*
X148077520Y-91731445D01*
X148076057Y-91733772D01*
X148076055Y-91733775D01*
X148072879Y-91738828D01*
X148069662Y-91743355D01*
X148049303Y-91768813D01*
X148048067Y-91774190D01*
X148045986Y-91778494D01*
X148044609Y-91781808D01*
X148043028Y-91786323D01*
X148040092Y-91790994D01*
X148039472Y-91796476D01*
X148039472Y-91796477D01*
X148036430Y-91823386D01*
X148035493Y-91828865D01*
X148034122Y-91834826D01*
X148034121Y-91834832D01*
X148033500Y-91837534D01*
X148033500Y-91846538D01*
X148033190Y-91852043D01*
X148030420Y-91876547D01*
X148029508Y-91884610D01*
X148031328Y-91889822D01*
X148031899Y-91894910D01*
X148033500Y-91904350D01*
X148033500Y-91964800D01*
X148019148Y-91999448D01*
X147984500Y-92013800D01*
X147956115Y-92004741D01*
X147864931Y-91939940D01*
X147859066Y-91936874D01*
X147739171Y-91893709D01*
X147731718Y-91894060D01*
X147730000Y-91895949D01*
X147730000Y-93356152D01*
X147732855Y-93363044D01*
X147733910Y-93363481D01*
X147760428Y-93390000D01*
X147760428Y-93427503D01*
X147756805Y-93434568D01*
X147749265Y-93446729D01*
X147734125Y-93471148D01*
X147732365Y-93473986D01*
X147731434Y-93477189D01*
X147731434Y-93477190D01*
X147697840Y-93592822D01*
X147690285Y-93618825D01*
X147690097Y-93621389D01*
X147690096Y-93621393D01*
X147689891Y-93624188D01*
X147689500Y-93629515D01*
X147689500Y-94137785D01*
X147689726Y-94139432D01*
X147689726Y-94139438D01*
X147695083Y-94178540D01*
X147704794Y-94249432D01*
X147706121Y-94252498D01*
X147706121Y-94252499D01*
X147764695Y-94387855D01*
X147763823Y-94388232D01*
X147768945Y-94421701D01*
X147746743Y-94451926D01*
X147709671Y-94457599D01*
X147697781Y-94452967D01*
X147694861Y-94451364D01*
X146797961Y-93959044D01*
X146795587Y-93957652D01*
X146783823Y-93950301D01*
X146781009Y-93948404D01*
X146337656Y-93626289D01*
X146334967Y-93624188D01*
X146325629Y-93616353D01*
X146297574Y-93592812D01*
X146294049Y-93589545D01*
X145586840Y-92866078D01*
X147055000Y-92866078D01*
X147055226Y-92869402D01*
X147069827Y-92975986D01*
X147071607Y-92982363D01*
X147128800Y-93114528D01*
X147132229Y-93120190D01*
X147222858Y-93232107D01*
X147227681Y-93236636D01*
X147345069Y-93320060D01*
X147350934Y-93323126D01*
X147470829Y-93366291D01*
X147478282Y-93365940D01*
X147480000Y-93364051D01*
X147480000Y-92764747D01*
X147477145Y-92757855D01*
X147470253Y-92755000D01*
X147064747Y-92755000D01*
X147057855Y-92757855D01*
X147055000Y-92764747D01*
X147055000Y-92866078D01*
X145586840Y-92866078D01*
X145224348Y-92495253D01*
X147055000Y-92495253D01*
X147057855Y-92502145D01*
X147064747Y-92505000D01*
X147470253Y-92505000D01*
X147477145Y-92502145D01*
X147480000Y-92495253D01*
X147480000Y-91903848D01*
X147477145Y-91896956D01*
X147473444Y-91895423D01*
X147425698Y-91905050D01*
X147419445Y-91907227D01*
X147291136Y-91972603D01*
X147285696Y-91976384D01*
X147179691Y-92073861D01*
X147175474Y-92078958D01*
X147099586Y-92201354D01*
X147096894Y-92207402D01*
X147056502Y-92346433D01*
X147055597Y-92351460D01*
X147055067Y-92358681D01*
X147055000Y-92360492D01*
X147055000Y-92495253D01*
X145224348Y-92495253D01*
X144914237Y-92178013D01*
X144910667Y-92173931D01*
X144901829Y-92162618D01*
X144820464Y-92058476D01*
X144809817Y-92044848D01*
X144807807Y-92042081D01*
X144614784Y-91755912D01*
X144612172Y-91751571D01*
X144279844Y-91128457D01*
X143915281Y-90444902D01*
X143913097Y-90440225D01*
X143859321Y-90307125D01*
X143856856Y-90299109D01*
X143845195Y-90245085D01*
X143381103Y-88095110D01*
X143380000Y-88084771D01*
X143380000Y-87834748D01*
X143714500Y-87834748D01*
X143726133Y-87893231D01*
X143728815Y-87897245D01*
X143736988Y-87909477D01*
X143770448Y-87959552D01*
X143836769Y-88003867D01*
X143895252Y-88015500D01*
X144784748Y-88015500D01*
X144843231Y-88003867D01*
X144850877Y-87998758D01*
X144878100Y-87990500D01*
X146450500Y-87990500D01*
X146485148Y-88004852D01*
X146499500Y-88039500D01*
X146499500Y-88217871D01*
X146485148Y-88252519D01*
X146476466Y-88259425D01*
X146351950Y-88337231D01*
X146349625Y-88338684D01*
X146347682Y-88340613D01*
X146347680Y-88340615D01*
X146320978Y-88367132D01*
X146222193Y-88465230D01*
X146125963Y-88616864D01*
X146125045Y-88619442D01*
X146125044Y-88619444D01*
X146066638Y-88783468D01*
X146065719Y-88786049D01*
X146044455Y-88964376D01*
X146063227Y-89142983D01*
X146121103Y-89312993D01*
X146215206Y-89465955D01*
X146217121Y-89467911D01*
X146217123Y-89467913D01*
X146338941Y-89592310D01*
X146338944Y-89592312D01*
X146340859Y-89594268D01*
X146491817Y-89691554D01*
X146599683Y-89730814D01*
X146658003Y-89752041D01*
X146658005Y-89752041D01*
X146660578Y-89752978D01*
X146799283Y-89770500D01*
X147395155Y-89770500D01*
X147396506Y-89770348D01*
X147396514Y-89770348D01*
X147525754Y-89755851D01*
X147525755Y-89755851D01*
X147528472Y-89755546D01*
X147566696Y-89742235D01*
X147695484Y-89697387D01*
X147695487Y-89697385D01*
X147698073Y-89696485D01*
X147705965Y-89691554D01*
X147848050Y-89602769D01*
X147848051Y-89602768D01*
X147850375Y-89601316D01*
X147857473Y-89594268D01*
X147975860Y-89476703D01*
X147977807Y-89474770D01*
X148074037Y-89323136D01*
X148075170Y-89323855D01*
X148100060Y-89301845D01*
X148137492Y-89304144D01*
X148162335Y-89332238D01*
X148165001Y-89348179D01*
X148165001Y-89912370D01*
X148165470Y-89917130D01*
X148172762Y-89953795D01*
X148176383Y-89962539D01*
X148204176Y-90004133D01*
X148210867Y-90010824D01*
X148252461Y-90038616D01*
X148261206Y-90042238D01*
X148297859Y-90049529D01*
X148302635Y-90050000D01*
X148315253Y-90050000D01*
X148322145Y-90047145D01*
X148325000Y-90040253D01*
X148325000Y-88459748D01*
X148322145Y-88452856D01*
X148315253Y-88450001D01*
X148302630Y-88450001D01*
X148297870Y-88450470D01*
X148261205Y-88457762D01*
X148252461Y-88461383D01*
X148210867Y-88489176D01*
X148204176Y-88495867D01*
X148176384Y-88537461D01*
X148172762Y-88546206D01*
X148165471Y-88582859D01*
X148165000Y-88587635D01*
X148165000Y-88593803D01*
X148150648Y-88628451D01*
X148116000Y-88642803D01*
X148081352Y-88628451D01*
X148074265Y-88619478D01*
X147986229Y-88476377D01*
X147986227Y-88476375D01*
X147984794Y-88474045D01*
X147974269Y-88463297D01*
X147861059Y-88347690D01*
X147861056Y-88347688D01*
X147859141Y-88345732D01*
X147856845Y-88344253D01*
X147856841Y-88344249D01*
X147756121Y-88279340D01*
X147722955Y-88257966D01*
X147701607Y-88227134D01*
X147700500Y-88216779D01*
X147700500Y-87472581D01*
X147700919Y-87466185D01*
X147705264Y-87433183D01*
X147705264Y-87433182D01*
X147705683Y-87430000D01*
X147701259Y-87396396D01*
X147701259Y-87383604D01*
X147705264Y-87353183D01*
X147705683Y-87350000D01*
X147700919Y-87313815D01*
X147700500Y-87307419D01*
X147700500Y-86782129D01*
X147714852Y-86747481D01*
X147723534Y-86740575D01*
X147848050Y-86662769D01*
X147848051Y-86662768D01*
X147850375Y-86661316D01*
X147857473Y-86654268D01*
X147962471Y-86549999D01*
X147977807Y-86534770D01*
X148074037Y-86383136D01*
X148075173Y-86383857D01*
X148100045Y-86361849D01*
X148137478Y-86364136D01*
X148162330Y-86392222D01*
X148165001Y-86408178D01*
X148165001Y-86412370D01*
X148165470Y-86417130D01*
X148172762Y-86453795D01*
X148176383Y-86462539D01*
X148204176Y-86504133D01*
X148210867Y-86510824D01*
X148252461Y-86538616D01*
X148261206Y-86542238D01*
X148297859Y-86549529D01*
X148302635Y-86550000D01*
X148315253Y-86550000D01*
X148322145Y-86547145D01*
X148325000Y-86540253D01*
X148325000Y-84959748D01*
X148322145Y-84952856D01*
X148315253Y-84950001D01*
X148302630Y-84950001D01*
X148297870Y-84950470D01*
X148261205Y-84957762D01*
X148252461Y-84961383D01*
X148210867Y-84989176D01*
X148204176Y-84995867D01*
X148176384Y-85037461D01*
X148172762Y-85046206D01*
X148165471Y-85082859D01*
X148165000Y-85087635D01*
X148165000Y-85653803D01*
X148150648Y-85688451D01*
X148116000Y-85702803D01*
X148081352Y-85688451D01*
X148074265Y-85679478D01*
X147986229Y-85536377D01*
X147986227Y-85536375D01*
X147984794Y-85534045D01*
X147974269Y-85523297D01*
X147861059Y-85407690D01*
X147861056Y-85407688D01*
X147859141Y-85405732D01*
X147708183Y-85308446D01*
X147600317Y-85269186D01*
X147541997Y-85247959D01*
X147541995Y-85247959D01*
X147539422Y-85247022D01*
X147400717Y-85229500D01*
X146804845Y-85229500D01*
X146803494Y-85229652D01*
X146803486Y-85229652D01*
X146674246Y-85244149D01*
X146674245Y-85244149D01*
X146671528Y-85244454D01*
X146668940Y-85245355D01*
X146668941Y-85245355D01*
X146504516Y-85302613D01*
X146504513Y-85302615D01*
X146501927Y-85303515D01*
X146499604Y-85304966D01*
X146499603Y-85304967D01*
X146351950Y-85397231D01*
X146349625Y-85398684D01*
X146347682Y-85400613D01*
X146347680Y-85400615D01*
X146340556Y-85407690D01*
X146222193Y-85525230D01*
X146216599Y-85534045D01*
X146131477Y-85668176D01*
X146125963Y-85676864D01*
X146125045Y-85679442D01*
X146125044Y-85679444D01*
X146087543Y-85784760D01*
X146062400Y-85812586D01*
X146024945Y-85814484D01*
X146008946Y-85805050D01*
X145980231Y-85779690D01*
X145977612Y-85777377D01*
X145974454Y-85775894D01*
X145974452Y-85775893D01*
X145900317Y-85741087D01*
X145847837Y-85716447D01*
X145738991Y-85699500D01*
X145664060Y-85699500D01*
X145662336Y-85699747D01*
X145662334Y-85699747D01*
X145590889Y-85709979D01*
X145558082Y-85714677D01*
X145427572Y-85774016D01*
X145424929Y-85776293D01*
X145424928Y-85776294D01*
X145380607Y-85814484D01*
X145318963Y-85867600D01*
X145240985Y-85987905D01*
X145199907Y-86125261D01*
X145199031Y-86268624D01*
X145199990Y-86271979D01*
X145199990Y-86271980D01*
X145237469Y-86403116D01*
X145238428Y-86406471D01*
X145314930Y-86527720D01*
X145422388Y-86622623D01*
X145425546Y-86624106D01*
X145425548Y-86624107D01*
X145485618Y-86652310D01*
X145552163Y-86683553D01*
X145606384Y-86691995D01*
X145606949Y-86692083D01*
X145638977Y-86711595D01*
X145647828Y-86748038D01*
X145628316Y-86780066D01*
X145599411Y-86789500D01*
X144878100Y-86789500D01*
X144850877Y-86781242D01*
X144847245Y-86778815D01*
X144843231Y-86776133D01*
X144784748Y-86764500D01*
X143895252Y-86764500D01*
X143836769Y-86776133D01*
X143770448Y-86820448D01*
X143726133Y-86886769D01*
X143714500Y-86945252D01*
X143714500Y-87834748D01*
X143380000Y-87834748D01*
X143380000Y-87451570D01*
X143380100Y-87448438D01*
X143398273Y-87164657D01*
X143493549Y-85676894D01*
X143494903Y-85668182D01*
X143605619Y-85224126D01*
X143606559Y-85220847D01*
X143614070Y-85197732D01*
X143616264Y-85192163D01*
X144288977Y-83749821D01*
X144624009Y-83031488D01*
X144627793Y-83024800D01*
X144629411Y-83022402D01*
X144657674Y-82980500D01*
X144768196Y-82816645D01*
X144774925Y-82808659D01*
X146884780Y-80787827D01*
X146892708Y-80781660D01*
X147187028Y-80597748D01*
X147248551Y-80559304D01*
X147251512Y-80557595D01*
X147304323Y-80529515D01*
X147467425Y-80442792D01*
X147504755Y-80439197D01*
X147533693Y-80463052D01*
X147537288Y-80500382D01*
X147532074Y-80511877D01*
X147502668Y-80559305D01*
X147487365Y-80583986D01*
X147486434Y-80587189D01*
X147486434Y-80587190D01*
X147464115Y-80664014D01*
X147445285Y-80728825D01*
X147445097Y-80731389D01*
X147445096Y-80731393D01*
X147444823Y-80735122D01*
X147444500Y-80739515D01*
X147444500Y-81247785D01*
X147444726Y-81249432D01*
X147444726Y-81249438D01*
X147450083Y-81288540D01*
X147459794Y-81359432D01*
X147461121Y-81362498D01*
X147461121Y-81362499D01*
X147494075Y-81438650D01*
X147519695Y-81497855D01*
X147521797Y-81500450D01*
X147523528Y-81503309D01*
X147522435Y-81503971D01*
X147531810Y-81535623D01*
X147513915Y-81568581D01*
X147483079Y-81579500D01*
X147075814Y-81579501D01*
X147068626Y-81579501D01*
X147042093Y-81582657D01*
X147038736Y-81584148D01*
X147038733Y-81584149D01*
X146942611Y-81626845D01*
X146942610Y-81626846D01*
X146938476Y-81628682D01*
X146935281Y-81631883D01*
X146935279Y-81631884D01*
X146900931Y-81666293D01*
X146858376Y-81708922D01*
X146856546Y-81713060D01*
X146856546Y-81713061D01*
X146850915Y-81725799D01*
X146812532Y-81812618D01*
X146809500Y-81838625D01*
X146809501Y-82721374D01*
X146812657Y-82747907D01*
X146814148Y-82751264D01*
X146814149Y-82751267D01*
X146839642Y-82808659D01*
X146858682Y-82851524D01*
X146861883Y-82854719D01*
X146861884Y-82854721D01*
X146889687Y-82882475D01*
X146938922Y-82931624D01*
X146943060Y-82933454D01*
X146943061Y-82933454D01*
X146944366Y-82934031D01*
X147042618Y-82977468D01*
X147046274Y-82977894D01*
X147046277Y-82977895D01*
X147055825Y-82979008D01*
X147068625Y-82980500D01*
X147356950Y-82980500D01*
X147651374Y-82980499D01*
X147677907Y-82977343D01*
X147681264Y-82975852D01*
X147681267Y-82975851D01*
X147777389Y-82933155D01*
X147777390Y-82933154D01*
X147781524Y-82931318D01*
X147784719Y-82928117D01*
X147784721Y-82928116D01*
X147857987Y-82854721D01*
X147861624Y-82851078D01*
X147907468Y-82747382D01*
X147910500Y-82721375D01*
X147910499Y-81838626D01*
X147907638Y-81814572D01*
X147907581Y-81814089D01*
X147917740Y-81777988D01*
X147950451Y-81759645D01*
X147959824Y-81759434D01*
X148029891Y-81764580D01*
X148087934Y-81752876D01*
X148124735Y-81760096D01*
X148145652Y-81791223D01*
X148139264Y-81826729D01*
X148124124Y-81851148D01*
X148124122Y-81851152D01*
X148122365Y-81853986D01*
X148121434Y-81857189D01*
X148121434Y-81857190D01*
X148099115Y-81934014D01*
X148080285Y-81998825D01*
X148079500Y-82009515D01*
X148079500Y-82517785D01*
X148079726Y-82519432D01*
X148079726Y-82519438D01*
X148085083Y-82558540D01*
X148094794Y-82629432D01*
X148096121Y-82632498D01*
X148096121Y-82632499D01*
X148147293Y-82750749D01*
X148154695Y-82767855D01*
X148249614Y-82885070D01*
X148372558Y-82972442D01*
X148375698Y-82973573D01*
X148375701Y-82973574D01*
X148511326Y-83022402D01*
X148511327Y-83022402D01*
X148514468Y-83023533D01*
X148517796Y-83023777D01*
X148517799Y-83023778D01*
X148597532Y-83029633D01*
X148664891Y-83034580D01*
X148668164Y-83033920D01*
X148668165Y-83033920D01*
X148809467Y-83005428D01*
X148809470Y-83005427D01*
X148812743Y-83004767D01*
X148815719Y-83003251D01*
X148815721Y-83003250D01*
X148944152Y-82937812D01*
X148944155Y-82937810D01*
X148947132Y-82936293D01*
X148952210Y-82931624D01*
X149002836Y-82885070D01*
X149058156Y-82834201D01*
X149111986Y-82747382D01*
X149135878Y-82708848D01*
X149135878Y-82708847D01*
X149137635Y-82706014D01*
X149138566Y-82702810D01*
X149178997Y-82563647D01*
X149178997Y-82563645D01*
X149179715Y-82561175D01*
X149179909Y-82558540D01*
X149180433Y-82551392D01*
X149180500Y-82550485D01*
X149180500Y-82042215D01*
X149176145Y-82010419D01*
X149165659Y-81933878D01*
X149165206Y-81930568D01*
X149114526Y-81813453D01*
X149113937Y-81775956D01*
X149126670Y-81762817D01*
X149124621Y-81760953D01*
X149140000Y-81744051D01*
X149140000Y-81144747D01*
X149137145Y-81137855D01*
X149130253Y-81135000D01*
X148724747Y-81135000D01*
X148717855Y-81137855D01*
X148715000Y-81144747D01*
X148715000Y-81246078D01*
X148715226Y-81249402D01*
X148729827Y-81355986D01*
X148731607Y-81362363D01*
X148776832Y-81466872D01*
X148777421Y-81504370D01*
X148751322Y-81531302D01*
X148728275Y-81535200D01*
X148595109Y-81525420D01*
X148537066Y-81537124D01*
X148500265Y-81529904D01*
X148479348Y-81498777D01*
X148485736Y-81463271D01*
X148500876Y-81438852D01*
X148500878Y-81438848D01*
X148502635Y-81436014D01*
X148503566Y-81432810D01*
X148543997Y-81293647D01*
X148543997Y-81293645D01*
X148544715Y-81291175D01*
X148544909Y-81288540D01*
X148545433Y-81281392D01*
X148545500Y-81280485D01*
X148545500Y-80875253D01*
X148715000Y-80875253D01*
X148717855Y-80882145D01*
X148724747Y-80885000D01*
X149130253Y-80885000D01*
X149137145Y-80882145D01*
X149140000Y-80875253D01*
X149390000Y-80875253D01*
X149392855Y-80882145D01*
X149399747Y-80885000D01*
X149805253Y-80885000D01*
X149812145Y-80882145D01*
X149815000Y-80875253D01*
X149815000Y-80773922D01*
X149814774Y-80770598D01*
X149800173Y-80664014D01*
X149798393Y-80657637D01*
X149741200Y-80525472D01*
X149737771Y-80519810D01*
X149647142Y-80407893D01*
X149642319Y-80403364D01*
X149524931Y-80319940D01*
X149519066Y-80316874D01*
X149399171Y-80273709D01*
X149391718Y-80274060D01*
X149390000Y-80275949D01*
X149390000Y-80875253D01*
X149140000Y-80875253D01*
X149140000Y-80283848D01*
X149137145Y-80276956D01*
X149133444Y-80275423D01*
X149085698Y-80285050D01*
X149079445Y-80287227D01*
X148951136Y-80352603D01*
X148945696Y-80356384D01*
X148839691Y-80453861D01*
X148835474Y-80458958D01*
X148759586Y-80581354D01*
X148756894Y-80587402D01*
X148716502Y-80726433D01*
X148715597Y-80731460D01*
X148715067Y-80738681D01*
X148715000Y-80740492D01*
X148715000Y-80875253D01*
X148545500Y-80875253D01*
X148545500Y-80772215D01*
X148541155Y-80740492D01*
X148530659Y-80663878D01*
X148530206Y-80660568D01*
X148528879Y-80657501D01*
X148471632Y-80525211D01*
X148471631Y-80525210D01*
X148470305Y-80522145D01*
X148375386Y-80404930D01*
X148252442Y-80317558D01*
X148249302Y-80316427D01*
X148249299Y-80316426D01*
X148113674Y-80267598D01*
X148113673Y-80267598D01*
X148110532Y-80266467D01*
X148107204Y-80266223D01*
X148107201Y-80266222D01*
X148075794Y-80263916D01*
X148048067Y-80261880D01*
X148014564Y-80245030D01*
X148002789Y-80209423D01*
X148019639Y-80175919D01*
X148031727Y-80168248D01*
X148239047Y-80075943D01*
X148242218Y-80074662D01*
X148757173Y-79887234D01*
X148760395Y-79886187D01*
X149260440Y-79742801D01*
X149268351Y-79741224D01*
X151273166Y-79510786D01*
X151286786Y-79511127D01*
G37*
%TD.AperFunction*%
%TD*%
M02*
