%TF.GenerationSoftware,KiCad,Pcbnew,(6.0.2)*%
%TF.CreationDate,2022-06-06T08:56:34+03:00*%
%TF.ProjectId,TypeC_Bulgin_PCB,54797065-435f-4427-956c-67696e5f5043,rev?*%
%TF.SameCoordinates,Original*%
%TF.FileFunction,Copper,L1,Top*%
%TF.FilePolarity,Positive*%
%FSLAX46Y46*%
G04 Gerber Fmt 4.6, Leading zero omitted, Abs format (unit mm)*
G04 Created by KiCad (PCBNEW (6.0.2)) date 2022-06-06 08:56:34*
%MOMM*%
%LPD*%
G01*
G04 APERTURE LIST*
G04 Aperture macros list*
%AMRoundRect*
0 Rectangle with rounded corners*
0 $1 Rounding radius*
0 $2 $3 $4 $5 $6 $7 $8 $9 X,Y pos of 4 corners*
0 Add a 4 corners polygon primitive as box body*
4,1,4,$2,$3,$4,$5,$6,$7,$8,$9,$2,$3,0*
0 Add four circle primitives for the rounded corners*
1,1,$1+$1,$2,$3*
1,1,$1+$1,$4,$5*
1,1,$1+$1,$6,$7*
1,1,$1+$1,$8,$9*
0 Add four rect primitives between the rounded corners*
20,1,$1+$1,$2,$3,$4,$5,0*
20,1,$1+$1,$4,$5,$6,$7,0*
20,1,$1+$1,$6,$7,$8,$9,0*
20,1,$1+$1,$8,$9,$2,$3,0*%
G04 Aperture macros list end*
%TA.AperFunction,ComponentPad*%
%ADD10RoundRect,0.153846X-0.246154X0.396154X-0.246154X-0.396154X0.246154X-0.396154X0.246154X0.396154X0*%
%TD*%
%TA.AperFunction,ComponentPad*%
%ADD11O,0.800000X1.200000*%
%TD*%
%TA.AperFunction,SMDPad,CuDef*%
%ADD12R,0.270000X1.300000*%
%TD*%
%TA.AperFunction,ComponentPad*%
%ADD13O,1.700000X1.200000*%
%TD*%
%TA.AperFunction,ComponentPad*%
%ADD14RoundRect,0.153846X0.246154X-0.396154X0.246154X0.396154X-0.246154X0.396154X-0.246154X-0.396154X0*%
%TD*%
%TA.AperFunction,ComponentPad*%
%ADD15R,0.850000X0.850000*%
%TD*%
%TA.AperFunction,ViaPad*%
%ADD16C,0.800000*%
%TD*%
%TA.AperFunction,Conductor*%
%ADD17C,0.112000*%
%TD*%
%TA.AperFunction,Conductor*%
%ADD18C,0.250000*%
%TD*%
%TA.AperFunction,Conductor*%
%ADD19C,0.400000*%
%TD*%
%TA.AperFunction,Conductor*%
%ADD20C,0.800000*%
%TD*%
G04 APERTURE END LIST*
D10*
%TO.P,J3,1,Pin_1*%
%TO.N,VBUS*%
X104025000Y-105130000D03*
D11*
%TO.P,J3,2,Pin_2*%
X103390000Y-106400000D03*
%TO.P,J3,3,Pin_3*%
%TO.N,unconnected-(J3-Pad3)*%
X102755000Y-105130000D03*
%TO.P,J3,4,Pin_4*%
%TO.N,GND*%
X102120000Y-106400000D03*
%TO.P,J3,5,Pin_5*%
%TO.N,TX1+*%
X101485000Y-105130000D03*
%TO.P,J3,6,Pin_6*%
%TO.N,TX1-*%
X100850000Y-106400000D03*
%TO.P,J3,7,Pin_7*%
%TO.N,GND*%
X100215000Y-105130000D03*
%TO.P,J3,8,Pin_8*%
%TO.N,unconnected-(J3-Pad8)*%
X99580000Y-106400000D03*
%TO.P,J3,9,Pin_9*%
%TO.N,unconnected-(J3-Pad9)*%
X98945000Y-105130000D03*
%TO.P,J3,10,Pin_10*%
%TO.N,GND*%
X98310000Y-106400000D03*
%TO.P,J3,11,Pin_11*%
%TO.N,RX1-*%
X97675000Y-105130000D03*
%TO.P,J3,12,Pin_12*%
%TO.N,RX1+*%
X97040000Y-106400000D03*
%TO.P,J3,13,Pin_13*%
%TO.N,GND*%
X96405000Y-105130000D03*
%TD*%
D12*
%TO.P,J6,A1,GND*%
%TO.N,GND*%
X97250000Y-98250000D03*
%TO.P,J6,A2,TX1+*%
%TO.N,TX1-*%
X97750000Y-98250000D03*
%TO.P,J6,A3,TX1-*%
%TO.N,TX1+*%
X98250000Y-98250000D03*
%TO.P,J6,A4,VBUS*%
%TO.N,VBUS*%
X98750000Y-98250000D03*
%TO.P,J6,A5,CC1*%
%TO.N,unconnected-(J6-PadA5)*%
X99250000Y-98250000D03*
%TO.P,J6,A6,D+*%
%TO.N,unconnected-(J6-PadA6)*%
X99750000Y-98250000D03*
%TO.P,J6,A7,D-*%
%TO.N,unconnected-(J6-PadA7)*%
X100250000Y-98250000D03*
%TO.P,J6,A8,SBU1*%
%TO.N,unconnected-(J6-PadA8)*%
X100750000Y-98250000D03*
%TO.P,J6,A9,VBUS*%
%TO.N,VBUS*%
X101250000Y-98250000D03*
%TO.P,J6,A10,RX2-*%
%TO.N,RX2-*%
X101750000Y-98250000D03*
%TO.P,J6,A11,RX2+*%
%TO.N,RX2+*%
X102250000Y-98250000D03*
%TO.P,J6,A12,GND*%
%TO.N,GND*%
X102750000Y-98250000D03*
%TO.P,J6,B1,GND*%
X102750000Y-101750000D03*
%TO.P,J6,B2,TX2+*%
%TO.N,TX2-*%
X102250000Y-101750000D03*
%TO.P,J6,B3,TX2-*%
%TO.N,TX2+*%
X101750000Y-101750000D03*
%TO.P,J6,B4,VBUS*%
%TO.N,VBUS*%
X101250000Y-101750000D03*
%TO.P,J6,B5,CC2*%
%TO.N,unconnected-(J6-PadB5)*%
X100750000Y-101750000D03*
%TO.P,J6,B6,D+*%
%TO.N,unconnected-(J6-PadB6)*%
X100250000Y-101750000D03*
%TO.P,J6,B7,D-*%
%TO.N,unconnected-(J6-PadB7)*%
X99750000Y-101750000D03*
%TO.P,J6,B8,SBU2*%
%TO.N,unconnected-(J6-PadB8)*%
X99250000Y-101750000D03*
%TO.P,J6,B9,VBUS*%
%TO.N,VBUS*%
X98750000Y-101750000D03*
%TO.P,J6,B10,RX1-*%
%TO.N,RX1-*%
X98250000Y-101750000D03*
%TO.P,J6,B11,RX1+*%
%TO.N,RX1+*%
X97750000Y-101750000D03*
%TO.P,J6,B12,GND*%
%TO.N,GND*%
X97250000Y-101750000D03*
D13*
%TO.P,J6,S1,SHIELD*%
%TO.N,Net-(J1-Pad1)*%
X95900000Y-98530000D03*
X104100000Y-101470000D03*
X104100000Y-98530000D03*
X95900000Y-101470000D03*
%TD*%
D14*
%TO.P,J4,1,Pin_1*%
%TO.N,VBUS*%
X96160000Y-94780000D03*
D11*
%TO.P,J4,2,Pin_2*%
X96795000Y-93510000D03*
%TO.P,J4,3,Pin_3*%
%TO.N,unconnected-(J4-Pad3)*%
X97430000Y-94780000D03*
%TO.P,J4,4,Pin_4*%
%TO.N,GND*%
X98065000Y-93510000D03*
%TO.P,J4,5,Pin_5*%
%TO.N,TX2+*%
X98700000Y-94780000D03*
%TO.P,J4,6,Pin_6*%
%TO.N,TX2-*%
X99335000Y-93510000D03*
%TO.P,J4,7,Pin_7*%
%TO.N,GND*%
X99970000Y-94780000D03*
%TO.P,J4,8,Pin_8*%
%TO.N,unconnected-(J4-Pad8)*%
X100605000Y-93510000D03*
%TO.P,J4,9,Pin_9*%
%TO.N,unconnected-(J4-Pad9)*%
X101240000Y-94780000D03*
%TO.P,J4,10,Pin_10*%
%TO.N,GND*%
X101875000Y-93510000D03*
%TO.P,J4,11,Pin_11*%
%TO.N,RX2-*%
X102510000Y-94780000D03*
%TO.P,J4,12,Pin_12*%
%TO.N,RX2+*%
X103145000Y-93510000D03*
%TO.P,J4,13,Pin_13*%
%TO.N,GND*%
X103780000Y-94780000D03*
%TD*%
D15*
%TO.P,J1,1,Pin_1*%
%TO.N,Net-(J1-Pad1)*%
X93140000Y-99890000D03*
%TD*%
D16*
%TO.N,GND*%
X105080000Y-95000000D03*
X106040000Y-102880000D03*
X94060000Y-96210000D03*
X106180000Y-100110000D03*
X96517610Y-99671781D03*
X105490000Y-104390000D03*
X102310000Y-103890000D03*
X103510000Y-97090000D03*
X103510000Y-99990000D03*
X96380000Y-103250000D03*
X94770000Y-97380000D03*
X105880000Y-96980000D03*
X99510000Y-99650000D03*
X98730000Y-103930000D03*
X93190000Y-98000000D03*
X95110000Y-105170000D03*
X94660000Y-103350000D03*
X93260000Y-101700000D03*
X94920000Y-94970000D03*
X100470000Y-100010000D03*
%TO.N,TX1-*%
X97536500Y-99609772D03*
%TO.N,TX1+*%
X98463500Y-99609772D03*
%TO.N,TX2-*%
X102463500Y-99996990D03*
%TO.N,TX2+*%
X101536500Y-99996990D03*
%TD*%
D17*
%TO.N,RX1-*%
X98119500Y-103272500D02*
X98119500Y-103322500D01*
X98119500Y-103619500D02*
X98013435Y-103725565D01*
X98013435Y-103963153D02*
X98058690Y-104008408D01*
X97821104Y-104245996D02*
X97821102Y-104245997D01*
X98250000Y-102340000D02*
X98119500Y-102470500D01*
X98119500Y-103322500D02*
X98119500Y-103619500D01*
X97279001Y-104459999D02*
X97279001Y-104734001D01*
X97538260Y-104200743D02*
X97538259Y-104200742D01*
X97279001Y-104734001D02*
X97675000Y-105130000D01*
X97432193Y-104306807D02*
X97279001Y-104459999D01*
X98119500Y-102470500D02*
X98119500Y-102600500D01*
X98351500Y-103104500D02*
X98287500Y-103104500D01*
X98250000Y-101750000D02*
X98250000Y-102340000D01*
X97538259Y-104200742D02*
X97432193Y-104306807D01*
X97821102Y-104245997D02*
X97775848Y-104200743D01*
X98287500Y-102768500D02*
X98351500Y-102768500D01*
X98058690Y-104245996D02*
G75*
G03*
X98058690Y-104008408I-118794J118794D01*
G01*
X98519500Y-102936500D02*
G75*
G03*
X98351500Y-102768500I-168000J0D01*
G01*
X97821104Y-104245996D02*
G75*
G03*
X98058690Y-104245996I118793J118788D01*
G01*
X98287500Y-102768500D02*
G75*
G02*
X98119500Y-102600500I0J168000D01*
G01*
X98013435Y-103963153D02*
G75*
G02*
X98013435Y-103725565I118794J118794D01*
G01*
X98119500Y-103272500D02*
G75*
G02*
X98287500Y-103104500I168000J0D01*
G01*
X98351500Y-103104500D02*
G75*
G03*
X98519500Y-102936500I0J168000D01*
G01*
X97538260Y-104200743D02*
G75*
G02*
X97775848Y-104200743I118794J-118794D01*
G01*
%TO.N,RX1+*%
X97040000Y-104361000D02*
X97880000Y-103521000D01*
X97750000Y-102340000D02*
X97750000Y-101750000D01*
X97040000Y-106400000D02*
X97040000Y-104361000D01*
X97880000Y-102470000D02*
X97750000Y-102340000D01*
X97880000Y-103521000D02*
X97880000Y-102470000D01*
%TO.N,TX1-*%
X97750000Y-98765000D02*
X97880500Y-98895500D01*
X97880500Y-98895500D02*
X97880500Y-99265772D01*
X97880500Y-99265772D02*
X97536500Y-99609772D01*
X97750000Y-98250000D02*
X97750000Y-98765000D01*
%TO.N,TX1+*%
X98250000Y-98765000D02*
X98119500Y-98895500D01*
X98119500Y-99265772D02*
X98463500Y-99609772D01*
X98119500Y-98895500D02*
X98119500Y-99265772D01*
X98250000Y-98250000D02*
X98250000Y-98765000D01*
D18*
%TO.N,VBUS*%
X101250000Y-97390000D02*
X101060000Y-97200000D01*
D19*
X96160000Y-94780000D02*
X96160000Y-95850000D01*
X101110000Y-102750000D02*
X99020000Y-102750000D01*
X99020000Y-102750000D02*
X98990000Y-102720000D01*
D20*
X104025000Y-105765000D02*
X104025000Y-105130000D01*
D19*
X96160000Y-95850000D02*
X97510000Y-97200000D01*
D18*
X98750000Y-101750000D02*
X98750000Y-102480000D01*
D19*
X97510000Y-97200000D02*
X98930000Y-97200000D01*
D18*
X98930000Y-97200000D02*
X98750000Y-97380000D01*
X101250000Y-102610000D02*
X101250000Y-101750000D01*
D20*
X103390000Y-106400000D02*
X104025000Y-105765000D01*
D19*
X104025000Y-104155000D02*
X102620000Y-102750000D01*
D18*
X101250000Y-98250000D02*
X101250000Y-97390000D01*
X98750000Y-102480000D02*
X98990000Y-102720000D01*
D19*
X102620000Y-102750000D02*
X101110000Y-102750000D01*
X98930000Y-97200000D02*
X101060000Y-97200000D01*
X104025000Y-105130000D02*
X104025000Y-104155000D01*
D20*
X96160000Y-94145000D02*
X96160000Y-94780000D01*
D18*
X101110000Y-102750000D02*
X101250000Y-102610000D01*
X98750000Y-97380000D02*
X98750000Y-98250000D01*
D20*
X96795000Y-93510000D02*
X96160000Y-94145000D01*
D17*
%TO.N,RX2-*%
X102905999Y-95175999D02*
X102510000Y-94780000D01*
X102355678Y-96685191D02*
X102355677Y-96685190D01*
X102355677Y-96685190D02*
X102355677Y-96685189D01*
X102072835Y-96639936D02*
X102118090Y-96685191D01*
X101880500Y-96922780D02*
X101880501Y-96922778D01*
X102548012Y-96164759D02*
X102593267Y-96210014D01*
X102355678Y-96447601D02*
X102310424Y-96402347D01*
X102830855Y-96210014D02*
X102830854Y-96210013D01*
X101750000Y-97735000D02*
X101880500Y-97604500D01*
X102905999Y-96134867D02*
X102905999Y-95175999D01*
X101880500Y-97604500D02*
X101880500Y-97160366D01*
X102355677Y-96447603D02*
X102355678Y-96447601D01*
X102830854Y-96210013D02*
X102905999Y-96134867D01*
X101750000Y-98250000D02*
X101750000Y-97735000D01*
X101880501Y-96922778D02*
X101835247Y-96877524D01*
X102355678Y-96685191D02*
G75*
G02*
X102118090Y-96685191I-118794J118794D01*
G01*
X101835247Y-96639936D02*
G75*
G03*
X101835247Y-96877524I118794J-118794D01*
G01*
X102830855Y-96210014D02*
G75*
G02*
X102593267Y-96210014I-118794J118794D01*
G01*
X102310424Y-96164759D02*
G75*
G03*
X102310424Y-96402347I118794J-118794D01*
G01*
X102072835Y-96639936D02*
G75*
G03*
X101835247Y-96639936I-118794J-118794D01*
G01*
X101880500Y-96922780D02*
G75*
G02*
X101880500Y-97160366I-118788J-118793D01*
G01*
X102355677Y-96447603D02*
G75*
G02*
X102355677Y-96685189I-118788J-118793D01*
G01*
X102548012Y-96164759D02*
G75*
G03*
X102310424Y-96164759I-118794J-118794D01*
G01*
%TO.N,RX2+*%
X102250000Y-97735000D02*
X102119500Y-97604500D01*
X103145000Y-96195000D02*
X103145000Y-93510000D01*
X102250000Y-98250000D02*
X102250000Y-97735000D01*
X102119500Y-97604500D02*
X102119500Y-97220500D01*
X102119500Y-97220500D02*
X103145000Y-96195000D01*
%TO.N,TX2-*%
X102250000Y-101750000D02*
X102250000Y-101235000D01*
X102119500Y-100340990D02*
X102463500Y-99996990D01*
X102250000Y-101235000D02*
X102119500Y-101104500D01*
X102119500Y-101104500D02*
X102119500Y-100340990D01*
%TO.N,TX2+*%
X101750000Y-101750000D02*
X101750000Y-101235000D01*
X101880500Y-101104500D02*
X101880500Y-100340990D01*
X101880500Y-100340990D02*
X101536500Y-99996990D01*
X101750000Y-101235000D02*
X101880500Y-101104500D01*
D20*
%TO.N,Net-(J1-Pad1)*%
X95170000Y-99890000D02*
X95900000Y-100620000D01*
X95380000Y-99680000D02*
X95380000Y-99050000D01*
X93140000Y-99890000D02*
X95170000Y-99890000D01*
X95900000Y-100620000D02*
X95900000Y-101470000D01*
X95380000Y-99050000D02*
X95900000Y-98530000D01*
X95170000Y-99890000D02*
X95380000Y-99680000D01*
%TD*%
%TA.AperFunction,Conductor*%
%TO.N,GND*%
G36*
X98791958Y-103017640D02*
G01*
X98792746Y-103018428D01*
X98794393Y-103019605D01*
X98808551Y-103029723D01*
X98810387Y-103031100D01*
X98848811Y-103061392D01*
X98852630Y-103062733D01*
X98856182Y-103064686D01*
X98856053Y-103064921D01*
X98856619Y-103065216D01*
X98856737Y-103064975D01*
X98860376Y-103066758D01*
X98863669Y-103069111D01*
X98867546Y-103070270D01*
X98867547Y-103070271D01*
X98910553Y-103083132D01*
X98912749Y-103083846D01*
X98958906Y-103100055D01*
X98961975Y-103100321D01*
X98961976Y-103100321D01*
X98962387Y-103100356D01*
X98964044Y-103100500D01*
X98964038Y-103100567D01*
X98967529Y-103101157D01*
X98967565Y-103100875D01*
X98971582Y-103101382D01*
X98975463Y-103102543D01*
X98979512Y-103102384D01*
X99026506Y-103100538D01*
X99028429Y-103100500D01*
X102454522Y-103100500D01*
X102489170Y-103114852D01*
X103660148Y-104285830D01*
X103674500Y-104320478D01*
X103674500Y-104415283D01*
X103660148Y-104449931D01*
X103645392Y-104460064D01*
X103634729Y-104464800D01*
X103607611Y-104476845D01*
X103607610Y-104476846D01*
X103603476Y-104478682D01*
X103600281Y-104481883D01*
X103600279Y-104481884D01*
X103590117Y-104492064D01*
X103523376Y-104558922D01*
X103477532Y-104662618D01*
X103474500Y-104688625D01*
X103474500Y-105516679D01*
X103460148Y-105551327D01*
X103379281Y-105632194D01*
X103354319Y-105645579D01*
X103332871Y-105649904D01*
X103297066Y-105657124D01*
X103260265Y-105649905D01*
X103239348Y-105618777D01*
X103245736Y-105583271D01*
X103260876Y-105558852D01*
X103260878Y-105558848D01*
X103262635Y-105556014D01*
X103263566Y-105552810D01*
X103303997Y-105413647D01*
X103303997Y-105413645D01*
X103304715Y-105411175D01*
X103304909Y-105408540D01*
X103305433Y-105401392D01*
X103305500Y-105400485D01*
X103305500Y-104892215D01*
X103301155Y-104860492D01*
X103290659Y-104783878D01*
X103290206Y-104780568D01*
X103258544Y-104707402D01*
X103231632Y-104645211D01*
X103231631Y-104645210D01*
X103230305Y-104642145D01*
X103135386Y-104524930D01*
X103033289Y-104452373D01*
X103015165Y-104439493D01*
X103015164Y-104439493D01*
X103012442Y-104437558D01*
X103009302Y-104436427D01*
X103009299Y-104436426D01*
X102873674Y-104387598D01*
X102873673Y-104387598D01*
X102870532Y-104386467D01*
X102867204Y-104386223D01*
X102867201Y-104386222D01*
X102787468Y-104380367D01*
X102720109Y-104375420D01*
X102716836Y-104376080D01*
X102716835Y-104376080D01*
X102575533Y-104404572D01*
X102575530Y-104404573D01*
X102572257Y-104405233D01*
X102569281Y-104406749D01*
X102569279Y-104406750D01*
X102440848Y-104472188D01*
X102440845Y-104472190D01*
X102437868Y-104473707D01*
X102435408Y-104475969D01*
X102432458Y-104478682D01*
X102326844Y-104575799D01*
X102325085Y-104578636D01*
X102256889Y-104688626D01*
X102247365Y-104703986D01*
X102246434Y-104707189D01*
X102246434Y-104707190D01*
X102224115Y-104784014D01*
X102205285Y-104848825D01*
X102205097Y-104851389D01*
X102205096Y-104851393D01*
X102204823Y-104855122D01*
X102204500Y-104859515D01*
X102204500Y-105367785D01*
X102204726Y-105369432D01*
X102204726Y-105369438D01*
X102210083Y-105408540D01*
X102219794Y-105479432D01*
X102266288Y-105586872D01*
X102270474Y-105596546D01*
X102271063Y-105634044D01*
X102258330Y-105647183D01*
X102260379Y-105649047D01*
X102245000Y-105665949D01*
X102245000Y-106265253D01*
X102247855Y-106272145D01*
X102254747Y-106275000D01*
X102660253Y-106275000D01*
X102667145Y-106272145D01*
X102670000Y-106265253D01*
X102670000Y-106163922D01*
X102669774Y-106160598D01*
X102655173Y-106054014D01*
X102653393Y-106047637D01*
X102608168Y-105943128D01*
X102607579Y-105905630D01*
X102633678Y-105878698D01*
X102656725Y-105874800D01*
X102789891Y-105884580D01*
X102847934Y-105872876D01*
X102884735Y-105880096D01*
X102905652Y-105911223D01*
X102899264Y-105946729D01*
X102884124Y-105971148D01*
X102884122Y-105971152D01*
X102882365Y-105973986D01*
X102881434Y-105977189D01*
X102881434Y-105977190D01*
X102847840Y-106092822D01*
X102840285Y-106118825D01*
X102840097Y-106121389D01*
X102840096Y-106121393D01*
X102840091Y-106121461D01*
X102839500Y-106129515D01*
X102839500Y-106368250D01*
X102839232Y-106373372D01*
X102834599Y-106417454D01*
X102835156Y-106420747D01*
X102838814Y-106442375D01*
X102839500Y-106450547D01*
X102839500Y-106637785D01*
X102839726Y-106639432D01*
X102839726Y-106639438D01*
X102845083Y-106678540D01*
X102854794Y-106749432D01*
X102856121Y-106752498D01*
X102856121Y-106752499D01*
X102886548Y-106822810D01*
X102914695Y-106887855D01*
X103009614Y-107005070D01*
X103069926Y-107047932D01*
X103099832Y-107069185D01*
X103119761Y-107100954D01*
X103111388Y-107137511D01*
X103090626Y-107154217D01*
X102939875Y-107218329D01*
X102720464Y-107311641D01*
X102718046Y-107312594D01*
X102516734Y-107385866D01*
X102442835Y-107412763D01*
X102439597Y-107413815D01*
X102227641Y-107474593D01*
X101912824Y-107564865D01*
X101909506Y-107565692D01*
X101741001Y-107601509D01*
X101736813Y-107602211D01*
X100622991Y-107739631D01*
X100616991Y-107740000D01*
X99058661Y-107740000D01*
X99051841Y-107739523D01*
X98763040Y-107698934D01*
X98758225Y-107698010D01*
X97489948Y-107387987D01*
X97484824Y-107386433D01*
X97092574Y-107243666D01*
X97064924Y-107218329D01*
X97063288Y-107180862D01*
X97088625Y-107153212D01*
X97099648Y-107149588D01*
X97219467Y-107125428D01*
X97219470Y-107125427D01*
X97222743Y-107124767D01*
X97225719Y-107123251D01*
X97225721Y-107123250D01*
X97354152Y-107057812D01*
X97354155Y-107057810D01*
X97357132Y-107056293D01*
X97468156Y-106954201D01*
X97547635Y-106826014D01*
X97548566Y-106822810D01*
X97588997Y-106683647D01*
X97588997Y-106683645D01*
X97589715Y-106681175D01*
X97589909Y-106678540D01*
X97590433Y-106671392D01*
X97590500Y-106670485D01*
X97590500Y-106636078D01*
X97760000Y-106636078D01*
X97760226Y-106639402D01*
X97774827Y-106745986D01*
X97776607Y-106752363D01*
X97833800Y-106884528D01*
X97837229Y-106890190D01*
X97927858Y-107002107D01*
X97932681Y-107006636D01*
X98050069Y-107090060D01*
X98055934Y-107093126D01*
X98175829Y-107136291D01*
X98183282Y-107135940D01*
X98185000Y-107134051D01*
X98185000Y-107126152D01*
X98435000Y-107126152D01*
X98437855Y-107133044D01*
X98441556Y-107134577D01*
X98489302Y-107124950D01*
X98495555Y-107122773D01*
X98623864Y-107057397D01*
X98629304Y-107053616D01*
X98735309Y-106956139D01*
X98739526Y-106951042D01*
X98815414Y-106828646D01*
X98818106Y-106822598D01*
X98858498Y-106683567D01*
X98859403Y-106678540D01*
X98859933Y-106671319D01*
X98860000Y-106669508D01*
X98860000Y-106534747D01*
X98857145Y-106527855D01*
X98850253Y-106525000D01*
X98444747Y-106525000D01*
X98437855Y-106527855D01*
X98435000Y-106534747D01*
X98435000Y-107126152D01*
X98185000Y-107126152D01*
X98185000Y-106534747D01*
X98182145Y-106527855D01*
X98175253Y-106525000D01*
X97769747Y-106525000D01*
X97762855Y-106527855D01*
X97760000Y-106534747D01*
X97760000Y-106636078D01*
X97590500Y-106636078D01*
X97590500Y-106162215D01*
X97586155Y-106130492D01*
X97580545Y-106089545D01*
X97575206Y-106050568D01*
X97570824Y-106040441D01*
X97528731Y-105943170D01*
X97528142Y-105905672D01*
X97554241Y-105878740D01*
X97577290Y-105874842D01*
X97622322Y-105878149D01*
X97709891Y-105884580D01*
X97768608Y-105872740D01*
X97805408Y-105879960D01*
X97826325Y-105911087D01*
X97819937Y-105946593D01*
X97804587Y-105971350D01*
X97801894Y-105977402D01*
X97761502Y-106116433D01*
X97760597Y-106121460D01*
X97760067Y-106128681D01*
X97760000Y-106130492D01*
X97760000Y-106265253D01*
X97762855Y-106272145D01*
X97769747Y-106275000D01*
X98175253Y-106275000D01*
X98182145Y-106272145D01*
X98185000Y-106265253D01*
X98185000Y-105673848D01*
X98182145Y-105666956D01*
X98181090Y-105666519D01*
X98154572Y-105640000D01*
X98154572Y-105602497D01*
X98158197Y-105595428D01*
X98165651Y-105583407D01*
X98174521Y-105569101D01*
X98180878Y-105558848D01*
X98180878Y-105558847D01*
X98182635Y-105556014D01*
X98183566Y-105552810D01*
X98223997Y-105413647D01*
X98223997Y-105413645D01*
X98224715Y-105411175D01*
X98224909Y-105408540D01*
X98225433Y-105401392D01*
X98225500Y-105400485D01*
X98225500Y-105367785D01*
X98394500Y-105367785D01*
X98394726Y-105369432D01*
X98394726Y-105369438D01*
X98400083Y-105408540D01*
X98409794Y-105479432D01*
X98456288Y-105586872D01*
X98460474Y-105596546D01*
X98461063Y-105634044D01*
X98448330Y-105647183D01*
X98450379Y-105649047D01*
X98435000Y-105665949D01*
X98435000Y-106265253D01*
X98437855Y-106272145D01*
X98444747Y-106275000D01*
X98850253Y-106275000D01*
X98857145Y-106272145D01*
X98860000Y-106265253D01*
X98860000Y-106163922D01*
X98859774Y-106160598D01*
X98845173Y-106054014D01*
X98843393Y-106047637D01*
X98798168Y-105943128D01*
X98797579Y-105905630D01*
X98823678Y-105878698D01*
X98846725Y-105874800D01*
X98979891Y-105884580D01*
X99037934Y-105872876D01*
X99074735Y-105880096D01*
X99095652Y-105911223D01*
X99089264Y-105946729D01*
X99074124Y-105971148D01*
X99074122Y-105971152D01*
X99072365Y-105973986D01*
X99071434Y-105977189D01*
X99071434Y-105977190D01*
X99037840Y-106092822D01*
X99030285Y-106118825D01*
X99030097Y-106121389D01*
X99030096Y-106121393D01*
X99030091Y-106121461D01*
X99029500Y-106129515D01*
X99029500Y-106637785D01*
X99029726Y-106639432D01*
X99029726Y-106639438D01*
X99035083Y-106678540D01*
X99044794Y-106749432D01*
X99046121Y-106752498D01*
X99046121Y-106752499D01*
X99076548Y-106822810D01*
X99104695Y-106887855D01*
X99199614Y-107005070D01*
X99322558Y-107092442D01*
X99325698Y-107093573D01*
X99325701Y-107093574D01*
X99461326Y-107142402D01*
X99461327Y-107142402D01*
X99464468Y-107143533D01*
X99467796Y-107143777D01*
X99467799Y-107143778D01*
X99546917Y-107149588D01*
X99614891Y-107154580D01*
X99618164Y-107153920D01*
X99618165Y-107153920D01*
X99759467Y-107125428D01*
X99759470Y-107125427D01*
X99762743Y-107124767D01*
X99765719Y-107123251D01*
X99765721Y-107123250D01*
X99894152Y-107057812D01*
X99894155Y-107057810D01*
X99897132Y-107056293D01*
X100008156Y-106954201D01*
X100087635Y-106826014D01*
X100088566Y-106822810D01*
X100128997Y-106683647D01*
X100128997Y-106683645D01*
X100129715Y-106681175D01*
X100129909Y-106678540D01*
X100130433Y-106671392D01*
X100130500Y-106670485D01*
X100130500Y-106637785D01*
X100299500Y-106637785D01*
X100299726Y-106639432D01*
X100299726Y-106639438D01*
X100305083Y-106678540D01*
X100314794Y-106749432D01*
X100316121Y-106752498D01*
X100316121Y-106752499D01*
X100346548Y-106822810D01*
X100374695Y-106887855D01*
X100469614Y-107005070D01*
X100592558Y-107092442D01*
X100595698Y-107093573D01*
X100595701Y-107093574D01*
X100731326Y-107142402D01*
X100731327Y-107142402D01*
X100734468Y-107143533D01*
X100737796Y-107143777D01*
X100737799Y-107143778D01*
X100816917Y-107149588D01*
X100884891Y-107154580D01*
X100888164Y-107153920D01*
X100888165Y-107153920D01*
X101029467Y-107125428D01*
X101029470Y-107125427D01*
X101032743Y-107124767D01*
X101035719Y-107123251D01*
X101035721Y-107123250D01*
X101164152Y-107057812D01*
X101164155Y-107057810D01*
X101167132Y-107056293D01*
X101278156Y-106954201D01*
X101357635Y-106826014D01*
X101358566Y-106822810D01*
X101398997Y-106683647D01*
X101398997Y-106683645D01*
X101399715Y-106681175D01*
X101399909Y-106678540D01*
X101400433Y-106671392D01*
X101400500Y-106670485D01*
X101400500Y-106636078D01*
X101570000Y-106636078D01*
X101570226Y-106639402D01*
X101584827Y-106745986D01*
X101586607Y-106752363D01*
X101643800Y-106884528D01*
X101647229Y-106890190D01*
X101737858Y-107002107D01*
X101742681Y-107006636D01*
X101860069Y-107090060D01*
X101865934Y-107093126D01*
X101985829Y-107136291D01*
X101993282Y-107135940D01*
X101995000Y-107134051D01*
X101995000Y-107126152D01*
X102245000Y-107126152D01*
X102247855Y-107133044D01*
X102251556Y-107134577D01*
X102299302Y-107124950D01*
X102305555Y-107122773D01*
X102433864Y-107057397D01*
X102439304Y-107053616D01*
X102545309Y-106956139D01*
X102549526Y-106951042D01*
X102625414Y-106828646D01*
X102628106Y-106822598D01*
X102668498Y-106683567D01*
X102669403Y-106678540D01*
X102669933Y-106671319D01*
X102670000Y-106669508D01*
X102670000Y-106534747D01*
X102667145Y-106527855D01*
X102660253Y-106525000D01*
X102254747Y-106525000D01*
X102247855Y-106527855D01*
X102245000Y-106534747D01*
X102245000Y-107126152D01*
X101995000Y-107126152D01*
X101995000Y-106534747D01*
X101992145Y-106527855D01*
X101985253Y-106525000D01*
X101579747Y-106525000D01*
X101572855Y-106527855D01*
X101570000Y-106534747D01*
X101570000Y-106636078D01*
X101400500Y-106636078D01*
X101400500Y-106162215D01*
X101396155Y-106130492D01*
X101390545Y-106089545D01*
X101385206Y-106050568D01*
X101380824Y-106040441D01*
X101338731Y-105943170D01*
X101338142Y-105905672D01*
X101364241Y-105878740D01*
X101387290Y-105874842D01*
X101432322Y-105878149D01*
X101519891Y-105884580D01*
X101578608Y-105872740D01*
X101615408Y-105879960D01*
X101636325Y-105911087D01*
X101629937Y-105946593D01*
X101614587Y-105971350D01*
X101611894Y-105977402D01*
X101571502Y-106116433D01*
X101570597Y-106121460D01*
X101570067Y-106128681D01*
X101570000Y-106130492D01*
X101570000Y-106265253D01*
X101572855Y-106272145D01*
X101579747Y-106275000D01*
X101985253Y-106275000D01*
X101992145Y-106272145D01*
X101995000Y-106265253D01*
X101995000Y-105673848D01*
X101992145Y-105666956D01*
X101991090Y-105666519D01*
X101964572Y-105640000D01*
X101964572Y-105602497D01*
X101968197Y-105595428D01*
X101975651Y-105583407D01*
X101984521Y-105569101D01*
X101990878Y-105558848D01*
X101990878Y-105558847D01*
X101992635Y-105556014D01*
X101993566Y-105552810D01*
X102033997Y-105413647D01*
X102033997Y-105413645D01*
X102034715Y-105411175D01*
X102034909Y-105408540D01*
X102035433Y-105401392D01*
X102035500Y-105400485D01*
X102035500Y-104892215D01*
X102031155Y-104860492D01*
X102020659Y-104783878D01*
X102020206Y-104780568D01*
X101988544Y-104707402D01*
X101961632Y-104645211D01*
X101961631Y-104645210D01*
X101960305Y-104642145D01*
X101865386Y-104524930D01*
X101763289Y-104452373D01*
X101745165Y-104439493D01*
X101745164Y-104439493D01*
X101742442Y-104437558D01*
X101739302Y-104436427D01*
X101739299Y-104436426D01*
X101603674Y-104387598D01*
X101603673Y-104387598D01*
X101600532Y-104386467D01*
X101597204Y-104386223D01*
X101597201Y-104386222D01*
X101517468Y-104380367D01*
X101450109Y-104375420D01*
X101446836Y-104376080D01*
X101446835Y-104376080D01*
X101305533Y-104404572D01*
X101305530Y-104404573D01*
X101302257Y-104405233D01*
X101299281Y-104406749D01*
X101299279Y-104406750D01*
X101170848Y-104472188D01*
X101170845Y-104472190D01*
X101167868Y-104473707D01*
X101165408Y-104475969D01*
X101162458Y-104478682D01*
X101056844Y-104575799D01*
X101055085Y-104578636D01*
X100986889Y-104688626D01*
X100977365Y-104703986D01*
X100976434Y-104707189D01*
X100976434Y-104707190D01*
X100954115Y-104784014D01*
X100935285Y-104848825D01*
X100935097Y-104851389D01*
X100935096Y-104851393D01*
X100934823Y-104855122D01*
X100934500Y-104859515D01*
X100934500Y-105367785D01*
X100934726Y-105369432D01*
X100934726Y-105369438D01*
X100940083Y-105408540D01*
X100949794Y-105479432D01*
X100951121Y-105482498D01*
X100951121Y-105482499D01*
X100996269Y-105586830D01*
X100996858Y-105624328D01*
X100970759Y-105651260D01*
X100947710Y-105655158D01*
X100894630Y-105651260D01*
X100815109Y-105645420D01*
X100756392Y-105657260D01*
X100719592Y-105650040D01*
X100698675Y-105618913D01*
X100705063Y-105583407D01*
X100720413Y-105558650D01*
X100723106Y-105552598D01*
X100763498Y-105413567D01*
X100764403Y-105408540D01*
X100764933Y-105401319D01*
X100765000Y-105399508D01*
X100765000Y-105264747D01*
X100762145Y-105257855D01*
X100755253Y-105255000D01*
X100349747Y-105255000D01*
X100342855Y-105257855D01*
X100340000Y-105264747D01*
X100340000Y-105856152D01*
X100342855Y-105863044D01*
X100343910Y-105863481D01*
X100370428Y-105890000D01*
X100370428Y-105927503D01*
X100366805Y-105934568D01*
X100359265Y-105946729D01*
X100344125Y-105971148D01*
X100342365Y-105973986D01*
X100341434Y-105977189D01*
X100341434Y-105977190D01*
X100307840Y-106092822D01*
X100300285Y-106118825D01*
X100300097Y-106121389D01*
X100300096Y-106121393D01*
X100300091Y-106121461D01*
X100299500Y-106129515D01*
X100299500Y-106637785D01*
X100130500Y-106637785D01*
X100130500Y-106162215D01*
X100126155Y-106130492D01*
X100120545Y-106089545D01*
X100115206Y-106050568D01*
X100109674Y-106037783D01*
X100068731Y-105943170D01*
X100064526Y-105933453D01*
X100063937Y-105895956D01*
X100076670Y-105882817D01*
X100074621Y-105880953D01*
X100090000Y-105864051D01*
X100090000Y-105264747D01*
X100087145Y-105257855D01*
X100080253Y-105255000D01*
X99674747Y-105255000D01*
X99667855Y-105257855D01*
X99665000Y-105264747D01*
X99665000Y-105366078D01*
X99665226Y-105369402D01*
X99679827Y-105475986D01*
X99681607Y-105482363D01*
X99726832Y-105586872D01*
X99727421Y-105624370D01*
X99701322Y-105651302D01*
X99678275Y-105655200D01*
X99545109Y-105645420D01*
X99487066Y-105657124D01*
X99450265Y-105649904D01*
X99429348Y-105618777D01*
X99435736Y-105583271D01*
X99450876Y-105558852D01*
X99450878Y-105558848D01*
X99452635Y-105556014D01*
X99453566Y-105552810D01*
X99493997Y-105413647D01*
X99493997Y-105413645D01*
X99494715Y-105411175D01*
X99494909Y-105408540D01*
X99495433Y-105401392D01*
X99495500Y-105400485D01*
X99495500Y-104995253D01*
X99665000Y-104995253D01*
X99667855Y-105002145D01*
X99674747Y-105005000D01*
X100080253Y-105005000D01*
X100087145Y-105002145D01*
X100090000Y-104995253D01*
X100340000Y-104995253D01*
X100342855Y-105002145D01*
X100349747Y-105005000D01*
X100755253Y-105005000D01*
X100762145Y-105002145D01*
X100765000Y-104995253D01*
X100765000Y-104893922D01*
X100764774Y-104890598D01*
X100750173Y-104784014D01*
X100748393Y-104777637D01*
X100691200Y-104645472D01*
X100687771Y-104639810D01*
X100597142Y-104527893D01*
X100592319Y-104523364D01*
X100474931Y-104439940D01*
X100469066Y-104436874D01*
X100349171Y-104393709D01*
X100341718Y-104394060D01*
X100340000Y-104395949D01*
X100340000Y-104995253D01*
X100090000Y-104995253D01*
X100090000Y-104403848D01*
X100087145Y-104396956D01*
X100083444Y-104395423D01*
X100035698Y-104405050D01*
X100029445Y-104407227D01*
X99901136Y-104472603D01*
X99895696Y-104476384D01*
X99789691Y-104573861D01*
X99785474Y-104578958D01*
X99709586Y-104701354D01*
X99706894Y-104707402D01*
X99666502Y-104846433D01*
X99665597Y-104851460D01*
X99665067Y-104858681D01*
X99665000Y-104860492D01*
X99665000Y-104995253D01*
X99495500Y-104995253D01*
X99495500Y-104892215D01*
X99491155Y-104860492D01*
X99480659Y-104783878D01*
X99480206Y-104780568D01*
X99448544Y-104707402D01*
X99421632Y-104645211D01*
X99421631Y-104645210D01*
X99420305Y-104642145D01*
X99325386Y-104524930D01*
X99223289Y-104452373D01*
X99205165Y-104439493D01*
X99205164Y-104439493D01*
X99202442Y-104437558D01*
X99199302Y-104436427D01*
X99199299Y-104436426D01*
X99063674Y-104387598D01*
X99063673Y-104387598D01*
X99060532Y-104386467D01*
X99057204Y-104386223D01*
X99057201Y-104386222D01*
X98977468Y-104380367D01*
X98910109Y-104375420D01*
X98906836Y-104376080D01*
X98906835Y-104376080D01*
X98765533Y-104404572D01*
X98765530Y-104404573D01*
X98762257Y-104405233D01*
X98759281Y-104406749D01*
X98759279Y-104406750D01*
X98630848Y-104472188D01*
X98630845Y-104472190D01*
X98627868Y-104473707D01*
X98625408Y-104475969D01*
X98622458Y-104478682D01*
X98516844Y-104575799D01*
X98515085Y-104578636D01*
X98446889Y-104688626D01*
X98437365Y-104703986D01*
X98436434Y-104707189D01*
X98436434Y-104707190D01*
X98414115Y-104784014D01*
X98395285Y-104848825D01*
X98395097Y-104851389D01*
X98395096Y-104851393D01*
X98394823Y-104855122D01*
X98394500Y-104859515D01*
X98394500Y-105367785D01*
X98225500Y-105367785D01*
X98225500Y-104892215D01*
X98221155Y-104860492D01*
X98210659Y-104783878D01*
X98210206Y-104780568D01*
X98178544Y-104707402D01*
X98151632Y-104645211D01*
X98151631Y-104645210D01*
X98150305Y-104642145D01*
X98072300Y-104545817D01*
X98061648Y-104509858D01*
X98079543Y-104476900D01*
X98091628Y-104469710D01*
X98128765Y-104454327D01*
X98187138Y-104409535D01*
X98191039Y-104406832D01*
X98193611Y-104405228D01*
X98193612Y-104405227D01*
X98205581Y-104397762D01*
X98207940Y-104396291D01*
X98208463Y-104395769D01*
X98208466Y-104395766D01*
X98219015Y-104378981D01*
X98221624Y-104375232D01*
X98265066Y-104318617D01*
X98267022Y-104316068D01*
X98304757Y-104224966D01*
X98316716Y-104134133D01*
X98317209Y-104130385D01*
X98317628Y-104127202D01*
X98304757Y-104029438D01*
X98267022Y-103938336D01*
X98239538Y-103902518D01*
X98222236Y-103879970D01*
X98219531Y-103876068D01*
X98215337Y-103869342D01*
X98209182Y-103832347D01*
X98222268Y-103808767D01*
X98234702Y-103796333D01*
X98242077Y-103791106D01*
X98242063Y-103791089D01*
X98246384Y-103787652D01*
X98251355Y-103785265D01*
X98271963Y-103759496D01*
X98275583Y-103755452D01*
X98281981Y-103749054D01*
X98286622Y-103741671D01*
X98289838Y-103737145D01*
X98306752Y-103715995D01*
X98310197Y-103711687D01*
X98311433Y-103706310D01*
X98313514Y-103702006D01*
X98314891Y-103698692D01*
X98316472Y-103694177D01*
X98319408Y-103689506D01*
X98323070Y-103657113D01*
X98324007Y-103651635D01*
X98325378Y-103645674D01*
X98325379Y-103645668D01*
X98326000Y-103642966D01*
X98326000Y-103633962D01*
X98326310Y-103628457D01*
X98329372Y-103601374D01*
X98329992Y-103595889D01*
X98328172Y-103590677D01*
X98327601Y-103585589D01*
X98326000Y-103576149D01*
X98326000Y-103361209D01*
X98340352Y-103326561D01*
X98364105Y-103313436D01*
X98370827Y-103311903D01*
X98375326Y-103311095D01*
X98416784Y-103305637D01*
X98449264Y-103301361D01*
X98540366Y-103263626D01*
X98618597Y-103203597D01*
X98678626Y-103125366D01*
X98715425Y-103036524D01*
X98741942Y-103010006D01*
X98779445Y-103010006D01*
X98791958Y-103017640D01*
G37*
%TD.AperFunction*%
%TA.AperFunction,Conductor*%
G36*
X96333693Y-92963052D02*
G01*
X96337288Y-93000382D01*
X96332074Y-93011877D01*
X96302668Y-93059305D01*
X96287365Y-93083986D01*
X96286434Y-93087189D01*
X96286434Y-93087190D01*
X96264115Y-93164014D01*
X96245285Y-93228825D01*
X96245097Y-93231389D01*
X96245096Y-93231393D01*
X96244823Y-93235122D01*
X96244500Y-93239515D01*
X96244500Y-93261679D01*
X96230148Y-93296327D01*
X95780222Y-93746254D01*
X95778741Y-93747675D01*
X95731844Y-93790799D01*
X95730087Y-93793634D01*
X95730082Y-93793639D01*
X95706997Y-93830873D01*
X95704393Y-93834663D01*
X95675888Y-93872217D01*
X95667824Y-93892585D01*
X95663909Y-93900368D01*
X95652365Y-93918986D01*
X95646594Y-93938852D01*
X95639214Y-93964253D01*
X95637719Y-93968620D01*
X95632225Y-93982497D01*
X95620364Y-94012453D01*
X95620015Y-94015771D01*
X95620015Y-94015772D01*
X95618074Y-94034239D01*
X95616397Y-94042786D01*
X95610285Y-94063825D01*
X95609500Y-94074515D01*
X95609500Y-94113250D01*
X95609232Y-94118372D01*
X95604599Y-94162454D01*
X95605156Y-94165747D01*
X95608814Y-94187375D01*
X95609500Y-94195547D01*
X95609500Y-94817785D01*
X95609501Y-94817789D01*
X95609501Y-95221374D01*
X95612657Y-95247907D01*
X95614148Y-95251264D01*
X95614149Y-95251267D01*
X95639642Y-95308659D01*
X95658682Y-95351524D01*
X95661883Y-95354719D01*
X95661884Y-95354721D01*
X95689318Y-95382107D01*
X95738922Y-95431624D01*
X95743061Y-95433454D01*
X95744366Y-95434031D01*
X95780313Y-95449923D01*
X95806199Y-95477059D01*
X95809500Y-95494739D01*
X95809500Y-95807374D01*
X95808402Y-95817687D01*
X95805049Y-95833261D01*
X95805526Y-95837287D01*
X95809160Y-95867994D01*
X95809500Y-95873753D01*
X95809500Y-95879115D01*
X95812694Y-95898308D01*
X95813014Y-95900554D01*
X95818764Y-95949138D01*
X95820518Y-95952791D01*
X95821647Y-95956677D01*
X95821389Y-95956752D01*
X95821583Y-95957362D01*
X95821835Y-95957276D01*
X95823147Y-95961108D01*
X95823812Y-95965103D01*
X95844755Y-96003916D01*
X95847051Y-96008172D01*
X95848096Y-96010224D01*
X95869274Y-96054326D01*
X95872034Y-96057610D01*
X95872592Y-96058274D01*
X95872538Y-96058319D01*
X95874589Y-96061204D01*
X95874815Y-96061029D01*
X95877301Y-96064234D01*
X95879222Y-96067794D01*
X95882192Y-96070540D01*
X95882194Y-96070542D01*
X95916747Y-96102482D01*
X95918134Y-96103816D01*
X97180671Y-97366353D01*
X97195023Y-97401001D01*
X97180671Y-97435649D01*
X97146023Y-97450001D01*
X97102630Y-97450001D01*
X97097870Y-97450470D01*
X97061205Y-97457762D01*
X97052461Y-97461383D01*
X97010867Y-97489176D01*
X97004176Y-97495867D01*
X96976384Y-97537461D01*
X96972762Y-97546206D01*
X96965471Y-97582859D01*
X96965000Y-97587635D01*
X96965000Y-98153803D01*
X96950648Y-98188451D01*
X96916000Y-98202803D01*
X96881352Y-98188451D01*
X96874265Y-98179478D01*
X96786229Y-98036377D01*
X96786227Y-98036375D01*
X96784794Y-98034045D01*
X96774269Y-98023297D01*
X96661059Y-97907690D01*
X96661056Y-97907688D01*
X96659141Y-97905732D01*
X96508183Y-97808446D01*
X96400317Y-97769186D01*
X96341997Y-97747959D01*
X96341995Y-97747959D01*
X96339422Y-97747022D01*
X96200717Y-97729500D01*
X95604845Y-97729500D01*
X95603494Y-97729652D01*
X95603486Y-97729652D01*
X95474246Y-97744149D01*
X95474245Y-97744149D01*
X95471528Y-97744454D01*
X95468940Y-97745355D01*
X95468941Y-97745355D01*
X95304516Y-97802613D01*
X95304513Y-97802615D01*
X95301927Y-97803515D01*
X95299604Y-97804966D01*
X95299603Y-97804967D01*
X95151950Y-97897231D01*
X95149625Y-97898684D01*
X95147682Y-97900613D01*
X95147680Y-97900615D01*
X95140556Y-97907690D01*
X95022193Y-98025230D01*
X95016599Y-98034045D01*
X94927781Y-98174000D01*
X94925963Y-98176864D01*
X94925045Y-98179442D01*
X94925044Y-98179444D01*
X94887543Y-98284760D01*
X94862400Y-98312586D01*
X94824945Y-98314484D01*
X94808946Y-98305050D01*
X94780231Y-98279690D01*
X94777612Y-98277377D01*
X94774454Y-98275894D01*
X94774452Y-98275893D01*
X94700317Y-98241087D01*
X94647837Y-98216447D01*
X94538991Y-98199500D01*
X94464060Y-98199500D01*
X94462336Y-98199747D01*
X94462334Y-98199747D01*
X94390889Y-98209979D01*
X94358082Y-98214677D01*
X94227572Y-98274016D01*
X94224929Y-98276293D01*
X94224928Y-98276294D01*
X94180607Y-98314484D01*
X94118963Y-98367600D01*
X94040985Y-98487905D01*
X93999907Y-98625261D01*
X93999031Y-98768624D01*
X93999990Y-98771979D01*
X93999990Y-98771980D01*
X94037469Y-98903116D01*
X94038428Y-98906471D01*
X94114930Y-99027720D01*
X94222388Y-99122623D01*
X94225546Y-99124106D01*
X94225548Y-99124107D01*
X94255936Y-99138374D01*
X94352163Y-99183553D01*
X94406384Y-99191995D01*
X94406949Y-99192083D01*
X94438977Y-99211595D01*
X94447828Y-99248038D01*
X94428316Y-99280066D01*
X94399411Y-99289500D01*
X93678100Y-99289500D01*
X93650877Y-99281242D01*
X93647245Y-99278815D01*
X93643231Y-99276133D01*
X93584748Y-99264500D01*
X92695252Y-99264500D01*
X92636769Y-99276133D01*
X92570448Y-99320448D01*
X92526133Y-99386769D01*
X92514500Y-99445252D01*
X92514500Y-100334748D01*
X92526133Y-100393231D01*
X92570448Y-100459552D01*
X92636769Y-100503867D01*
X92695252Y-100515500D01*
X93584748Y-100515500D01*
X93643231Y-100503867D01*
X93650877Y-100498758D01*
X93678100Y-100490500D01*
X94900969Y-100490500D01*
X94935617Y-100504852D01*
X95179810Y-100749045D01*
X95194162Y-100783693D01*
X95179810Y-100818341D01*
X95171129Y-100825247D01*
X95149625Y-100838684D01*
X95147682Y-100840613D01*
X95147680Y-100840615D01*
X95140556Y-100847690D01*
X95022193Y-100965230D01*
X94925963Y-101116864D01*
X94925045Y-101119442D01*
X94925044Y-101119444D01*
X94866638Y-101283468D01*
X94865719Y-101286049D01*
X94844455Y-101464376D01*
X94863227Y-101642983D01*
X94921103Y-101812993D01*
X95015206Y-101965955D01*
X95017121Y-101967911D01*
X95017123Y-101967913D01*
X95138941Y-102092310D01*
X95138944Y-102092312D01*
X95140859Y-102094268D01*
X95291817Y-102191554D01*
X95399683Y-102230814D01*
X95458003Y-102252041D01*
X95458005Y-102252041D01*
X95460578Y-102252978D01*
X95599283Y-102270500D01*
X96195155Y-102270500D01*
X96196506Y-102270348D01*
X96196514Y-102270348D01*
X96325754Y-102255851D01*
X96325755Y-102255851D01*
X96328472Y-102255546D01*
X96366696Y-102242235D01*
X96495484Y-102197387D01*
X96495487Y-102197385D01*
X96498073Y-102196485D01*
X96505965Y-102191554D01*
X96648050Y-102102769D01*
X96648051Y-102102768D01*
X96650375Y-102101316D01*
X96657473Y-102094268D01*
X96775860Y-101976703D01*
X96777807Y-101974770D01*
X96874037Y-101823136D01*
X96875170Y-101823855D01*
X96900060Y-101801845D01*
X96937492Y-101804144D01*
X96962335Y-101832238D01*
X96965001Y-101848179D01*
X96965001Y-102412370D01*
X96965470Y-102417130D01*
X96972762Y-102453795D01*
X96976383Y-102462539D01*
X97004176Y-102504133D01*
X97010867Y-102510824D01*
X97052461Y-102538616D01*
X97061206Y-102542238D01*
X97097859Y-102549529D01*
X97102635Y-102550000D01*
X97115253Y-102550000D01*
X97122145Y-102547145D01*
X97125000Y-102540253D01*
X97125000Y-100959748D01*
X97122145Y-100952856D01*
X97115253Y-100950001D01*
X97102630Y-100950001D01*
X97097870Y-100950470D01*
X97061205Y-100957762D01*
X97052461Y-100961383D01*
X97010867Y-100989176D01*
X97004176Y-100995867D01*
X96976384Y-101037461D01*
X96972762Y-101046206D01*
X96965471Y-101082859D01*
X96965000Y-101087635D01*
X96965000Y-101093803D01*
X96950648Y-101128451D01*
X96916000Y-101142803D01*
X96881352Y-101128451D01*
X96874265Y-101119478D01*
X96786229Y-100976377D01*
X96786227Y-100976375D01*
X96784794Y-100974045D01*
X96774269Y-100963297D01*
X96661059Y-100847690D01*
X96661056Y-100847688D01*
X96659141Y-100845732D01*
X96656845Y-100844253D01*
X96656841Y-100844249D01*
X96571889Y-100789502D01*
X96522955Y-100757966D01*
X96501607Y-100727134D01*
X96500500Y-100716779D01*
X96500500Y-100662574D01*
X96500919Y-100656178D01*
X96505263Y-100623183D01*
X96505682Y-100620000D01*
X96494270Y-100533320D01*
X96485463Y-100466420D01*
X96485463Y-100466419D01*
X96485044Y-100463238D01*
X96483817Y-100460276D01*
X96483816Y-100460272D01*
X96425765Y-100320125D01*
X96425763Y-100320122D01*
X96424536Y-100317159D01*
X96328282Y-100191718D01*
X96299331Y-100169503D01*
X96294513Y-100165278D01*
X95982242Y-99853007D01*
X95967890Y-99818359D01*
X95968309Y-99811964D01*
X95980109Y-99722329D01*
X95985263Y-99683183D01*
X95985263Y-99683182D01*
X95985682Y-99680000D01*
X95980919Y-99643821D01*
X95980500Y-99637426D01*
X95980500Y-99379500D01*
X95994852Y-99344852D01*
X96029500Y-99330500D01*
X96195155Y-99330500D01*
X96196506Y-99330348D01*
X96196514Y-99330348D01*
X96325754Y-99315851D01*
X96325755Y-99315851D01*
X96328472Y-99315546D01*
X96366696Y-99302235D01*
X96495484Y-99257387D01*
X96495487Y-99257385D01*
X96498073Y-99256485D01*
X96505965Y-99251554D01*
X96648050Y-99162769D01*
X96648051Y-99162768D01*
X96650375Y-99161316D01*
X96657472Y-99154269D01*
X96739687Y-99072625D01*
X96777807Y-99034770D01*
X96874037Y-98883136D01*
X96875173Y-98883857D01*
X96900045Y-98861849D01*
X96937478Y-98864136D01*
X96962330Y-98892222D01*
X96965001Y-98908178D01*
X96965001Y-98912370D01*
X96965470Y-98917130D01*
X96972762Y-98953795D01*
X96976383Y-98962539D01*
X97004176Y-99004133D01*
X97010867Y-99010824D01*
X97052461Y-99038616D01*
X97061206Y-99042238D01*
X97097859Y-99049529D01*
X97102635Y-99050000D01*
X97115253Y-99050000D01*
X97122145Y-99047145D01*
X97125000Y-99040253D01*
X97125000Y-98174000D01*
X97139352Y-98139352D01*
X97174000Y-98125000D01*
X97326000Y-98125000D01*
X97360648Y-98139352D01*
X97375000Y-98174000D01*
X97375000Y-99048071D01*
X97360648Y-99082719D01*
X97344753Y-99093340D01*
X97258875Y-99128911D01*
X97143879Y-99217151D01*
X97141923Y-99219700D01*
X97116763Y-99252489D01*
X97055639Y-99332147D01*
X97000170Y-99466063D01*
X96981250Y-99609772D01*
X97000170Y-99753481D01*
X97055639Y-99887397D01*
X97143879Y-100002393D01*
X97258875Y-100090633D01*
X97392791Y-100146102D01*
X97536500Y-100165022D01*
X97680209Y-100146102D01*
X97814125Y-100090633D01*
X97929121Y-100002393D01*
X97961127Y-99960683D01*
X97993604Y-99941931D01*
X98029829Y-99951638D01*
X98038873Y-99960682D01*
X98070879Y-100002393D01*
X98185875Y-100090633D01*
X98319791Y-100146102D01*
X98463500Y-100165022D01*
X98607209Y-100146102D01*
X98741125Y-100090633D01*
X98856121Y-100002393D01*
X98944361Y-99887397D01*
X98999830Y-99753481D01*
X99018750Y-99609772D01*
X98999830Y-99466063D01*
X98944361Y-99332147D01*
X98883237Y-99252489D01*
X98858077Y-99219700D01*
X98856121Y-99217151D01*
X98753457Y-99138374D01*
X98734705Y-99105896D01*
X98744412Y-99069671D01*
X98776890Y-99050919D01*
X98783286Y-99050500D01*
X98899820Y-99050500D01*
X98943722Y-99041767D01*
X98972777Y-99022353D01*
X99009559Y-99015037D01*
X99027222Y-99022353D01*
X99056278Y-99041767D01*
X99100180Y-99050500D01*
X99399820Y-99050500D01*
X99443722Y-99041767D01*
X99472777Y-99022353D01*
X99509559Y-99015037D01*
X99527222Y-99022353D01*
X99556278Y-99041767D01*
X99600180Y-99050500D01*
X99899820Y-99050500D01*
X99943722Y-99041767D01*
X99972777Y-99022353D01*
X100009559Y-99015037D01*
X100027222Y-99022353D01*
X100056278Y-99041767D01*
X100100180Y-99050500D01*
X100399820Y-99050500D01*
X100443722Y-99041767D01*
X100472777Y-99022353D01*
X100509559Y-99015037D01*
X100527222Y-99022353D01*
X100556278Y-99041767D01*
X100600180Y-99050500D01*
X100899820Y-99050500D01*
X100943722Y-99041767D01*
X100972777Y-99022353D01*
X101009559Y-99015037D01*
X101027222Y-99022353D01*
X101056278Y-99041767D01*
X101100180Y-99050500D01*
X101399820Y-99050500D01*
X101443722Y-99041767D01*
X101472777Y-99022353D01*
X101509559Y-99015037D01*
X101527222Y-99022353D01*
X101556278Y-99041767D01*
X101600180Y-99050500D01*
X101899820Y-99050500D01*
X101943722Y-99041767D01*
X101972777Y-99022353D01*
X102009559Y-99015037D01*
X102027222Y-99022353D01*
X102056278Y-99041767D01*
X102100180Y-99050500D01*
X102399820Y-99050500D01*
X102443722Y-99041767D01*
X102473226Y-99022053D01*
X102510008Y-99014737D01*
X102527672Y-99022053D01*
X102552461Y-99038616D01*
X102561206Y-99042238D01*
X102597859Y-99049529D01*
X102602635Y-99050000D01*
X102615253Y-99050000D01*
X102622145Y-99047145D01*
X102625000Y-99040253D01*
X102625000Y-99040252D01*
X102875000Y-99040252D01*
X102877855Y-99047144D01*
X102884747Y-99049999D01*
X102897370Y-99049999D01*
X102902130Y-99049530D01*
X102938795Y-99042238D01*
X102947539Y-99038617D01*
X102989133Y-99010824D01*
X102995824Y-99004133D01*
X103023616Y-98962539D01*
X103027238Y-98953794D01*
X103034529Y-98917141D01*
X103035000Y-98912365D01*
X103035000Y-98906197D01*
X103049352Y-98871549D01*
X103084000Y-98857197D01*
X103118648Y-98871549D01*
X103125735Y-98880522D01*
X103208305Y-99014737D01*
X103215206Y-99025955D01*
X103217121Y-99027911D01*
X103217123Y-99027913D01*
X103338941Y-99152310D01*
X103338944Y-99152312D01*
X103340859Y-99154268D01*
X103343159Y-99155751D01*
X103343160Y-99155751D01*
X103429813Y-99211595D01*
X103491817Y-99251554D01*
X103566716Y-99278815D01*
X103658003Y-99312041D01*
X103658005Y-99312041D01*
X103660578Y-99312978D01*
X103799283Y-99330500D01*
X104395155Y-99330500D01*
X104396506Y-99330348D01*
X104396514Y-99330348D01*
X104525754Y-99315851D01*
X104525755Y-99315851D01*
X104528472Y-99315546D01*
X104566696Y-99302235D01*
X104695484Y-99257387D01*
X104695487Y-99257385D01*
X104698073Y-99256485D01*
X104705965Y-99251554D01*
X104848050Y-99162769D01*
X104848051Y-99162768D01*
X104850375Y-99161316D01*
X104857472Y-99154269D01*
X104939687Y-99072625D01*
X104977807Y-99034770D01*
X105007306Y-98988287D01*
X105037989Y-98966723D01*
X105074934Y-98973171D01*
X105090118Y-98988395D01*
X105114930Y-99027720D01*
X105222388Y-99122623D01*
X105225546Y-99124106D01*
X105225548Y-99124107D01*
X105255936Y-99138374D01*
X105352163Y-99183553D01*
X105461009Y-99200500D01*
X105535940Y-99200500D01*
X105537664Y-99200253D01*
X105537666Y-99200253D01*
X105609111Y-99190021D01*
X105641918Y-99185323D01*
X105772428Y-99125984D01*
X105779501Y-99119890D01*
X105878391Y-99034680D01*
X105881037Y-99032400D01*
X105959015Y-98912095D01*
X106000093Y-98774739D01*
X106000969Y-98631376D01*
X105961572Y-98493529D01*
X105885070Y-98372280D01*
X105777612Y-98277377D01*
X105774454Y-98275894D01*
X105774452Y-98275893D01*
X105700317Y-98241087D01*
X105647837Y-98216447D01*
X105538991Y-98199500D01*
X105464060Y-98199500D01*
X105462336Y-98199747D01*
X105462334Y-98199747D01*
X105390889Y-98209979D01*
X105358082Y-98214677D01*
X105227572Y-98274016D01*
X105191556Y-98305050D01*
X105190502Y-98305958D01*
X105154885Y-98317703D01*
X105121396Y-98300824D01*
X105112130Y-98284629D01*
X105108517Y-98274016D01*
X105078897Y-98187007D01*
X104984794Y-98034045D01*
X104974269Y-98023297D01*
X104861059Y-97907690D01*
X104861056Y-97907688D01*
X104859141Y-97905732D01*
X104708183Y-97808446D01*
X104600317Y-97769186D01*
X104541997Y-97747959D01*
X104541995Y-97747959D01*
X104539422Y-97747022D01*
X104400717Y-97729500D01*
X103804845Y-97729500D01*
X103803494Y-97729652D01*
X103803486Y-97729652D01*
X103674246Y-97744149D01*
X103674245Y-97744149D01*
X103671528Y-97744454D01*
X103668940Y-97745355D01*
X103668941Y-97745355D01*
X103504516Y-97802613D01*
X103504513Y-97802615D01*
X103501927Y-97803515D01*
X103499604Y-97804966D01*
X103499603Y-97804967D01*
X103351950Y-97897231D01*
X103349625Y-97898684D01*
X103347682Y-97900613D01*
X103347680Y-97900615D01*
X103340556Y-97907690D01*
X103222193Y-98025230D01*
X103125963Y-98176864D01*
X103124830Y-98176145D01*
X103099940Y-98198155D01*
X103062508Y-98195856D01*
X103037665Y-98167762D01*
X103034999Y-98151821D01*
X103034999Y-97587630D01*
X103034530Y-97582870D01*
X103027238Y-97546205D01*
X103023617Y-97537461D01*
X102995824Y-97495867D01*
X102989133Y-97489176D01*
X102947539Y-97461384D01*
X102938794Y-97457762D01*
X102902141Y-97450471D01*
X102897365Y-97450000D01*
X102884747Y-97450000D01*
X102877855Y-97452855D01*
X102875000Y-97459747D01*
X102875000Y-99040252D01*
X102625000Y-99040252D01*
X102625000Y-97459748D01*
X102622145Y-97452856D01*
X102615253Y-97450001D01*
X102602630Y-97450001D01*
X102597870Y-97450470D01*
X102561205Y-97457762D01*
X102552461Y-97461384D01*
X102527672Y-97477947D01*
X102490889Y-97485263D01*
X102473226Y-97477947D01*
X102458980Y-97468428D01*
X102443722Y-97458233D01*
X102399820Y-97449500D01*
X102375000Y-97449500D01*
X102340352Y-97435148D01*
X102326000Y-97400500D01*
X102326000Y-97326332D01*
X102340352Y-97291684D01*
X103260202Y-96371833D01*
X103267577Y-96366606D01*
X103267563Y-96366589D01*
X103271884Y-96363152D01*
X103276855Y-96360765D01*
X103297463Y-96334996D01*
X103301083Y-96330952D01*
X103307480Y-96324555D01*
X103308943Y-96322228D01*
X103308945Y-96322225D01*
X103312121Y-96317172D01*
X103315338Y-96312645D01*
X103332252Y-96291495D01*
X103332252Y-96291494D01*
X103335697Y-96287187D01*
X103336933Y-96281810D01*
X103339014Y-96277506D01*
X103340391Y-96274192D01*
X103341972Y-96269677D01*
X103344908Y-96265006D01*
X103348570Y-96232613D01*
X103349507Y-96227135D01*
X103350878Y-96221174D01*
X103350879Y-96221168D01*
X103351500Y-96218466D01*
X103351500Y-96209462D01*
X103351810Y-96203957D01*
X103354872Y-96176875D01*
X103354872Y-96176874D01*
X103355492Y-96171390D01*
X103353672Y-96166178D01*
X103353101Y-96161090D01*
X103351500Y-96151650D01*
X103351500Y-95445200D01*
X103365852Y-95410552D01*
X103400500Y-95396200D01*
X103428885Y-95405259D01*
X103520069Y-95470060D01*
X103525934Y-95473126D01*
X103645829Y-95516291D01*
X103653282Y-95515940D01*
X103655000Y-95514051D01*
X103655000Y-95506152D01*
X103905000Y-95506152D01*
X103907855Y-95513044D01*
X103911556Y-95514577D01*
X103959302Y-95504950D01*
X103965555Y-95502773D01*
X104093864Y-95437397D01*
X104099304Y-95433616D01*
X104205309Y-95336139D01*
X104209526Y-95331042D01*
X104285414Y-95208646D01*
X104288106Y-95202598D01*
X104328498Y-95063567D01*
X104329403Y-95058540D01*
X104329933Y-95051319D01*
X104330000Y-95049508D01*
X104330000Y-94914747D01*
X104327145Y-94907855D01*
X104320253Y-94905000D01*
X103914747Y-94905000D01*
X103907855Y-94907855D01*
X103905000Y-94914747D01*
X103905000Y-95506152D01*
X103655000Y-95506152D01*
X103655000Y-94645253D01*
X103905000Y-94645253D01*
X103907855Y-94652145D01*
X103914747Y-94655000D01*
X104320253Y-94655000D01*
X104327145Y-94652145D01*
X104330000Y-94645253D01*
X104330000Y-94543922D01*
X104329774Y-94540598D01*
X104315173Y-94434014D01*
X104313393Y-94427637D01*
X104256200Y-94295472D01*
X104252771Y-94289810D01*
X104162142Y-94177893D01*
X104157319Y-94173364D01*
X104039931Y-94089940D01*
X104034066Y-94086874D01*
X103914171Y-94043709D01*
X103906718Y-94044060D01*
X103905000Y-94045949D01*
X103905000Y-94645253D01*
X103655000Y-94645253D01*
X103655000Y-94053848D01*
X103652145Y-94046956D01*
X103651090Y-94046519D01*
X103624572Y-94020000D01*
X103624572Y-93982497D01*
X103628197Y-93975428D01*
X103632419Y-93968620D01*
X103644521Y-93949101D01*
X103650878Y-93938848D01*
X103650878Y-93938847D01*
X103652635Y-93936014D01*
X103653566Y-93932810D01*
X103693997Y-93793647D01*
X103693997Y-93793645D01*
X103694715Y-93791175D01*
X103694909Y-93788540D01*
X103695433Y-93781392D01*
X103695500Y-93780485D01*
X103695500Y-93272215D01*
X103691155Y-93240492D01*
X103680659Y-93163878D01*
X103680206Y-93160568D01*
X103650569Y-93092081D01*
X103649980Y-93054583D01*
X103676079Y-93027651D01*
X103713577Y-93027062D01*
X103718837Y-93029515D01*
X104656785Y-93536635D01*
X104692613Y-93556006D01*
X104705635Y-93566225D01*
X106513388Y-95563271D01*
X106605457Y-95664981D01*
X106613011Y-95676059D01*
X107417030Y-97294024D01*
X107421263Y-97306559D01*
X107612672Y-98300824D01*
X107778982Y-99164714D01*
X107779846Y-99175376D01*
X107760387Y-99856465D01*
X107740419Y-100555363D01*
X107740086Y-100567001D01*
X107739549Y-100572964D01*
X107480895Y-102274115D01*
X107477722Y-102285499D01*
X106870711Y-103750999D01*
X106814839Y-103885889D01*
X106812005Y-103891637D01*
X106751857Y-103995817D01*
X106745765Y-104006368D01*
X106739726Y-104014675D01*
X104960997Y-105987802D01*
X104952960Y-105996717D01*
X104946496Y-106002703D01*
X104155434Y-106612951D01*
X104151471Y-106615708D01*
X104015466Y-106700693D01*
X103978477Y-106706883D01*
X103947946Y-106685105D01*
X103940500Y-106659139D01*
X103940500Y-106648321D01*
X103954852Y-106613673D01*
X104404790Y-106163735D01*
X104406271Y-106162314D01*
X104440877Y-106130492D01*
X104453156Y-106119201D01*
X104454913Y-106116367D01*
X104454918Y-106116361D01*
X104478001Y-106079130D01*
X104480616Y-106075325D01*
X104496895Y-106053878D01*
X104509112Y-106037783D01*
X104517176Y-106017415D01*
X104521091Y-106009632D01*
X104530872Y-105993858D01*
X104530873Y-105993856D01*
X104532635Y-105991014D01*
X104545787Y-105945744D01*
X104547281Y-105941380D01*
X104563407Y-105900652D01*
X104563408Y-105900649D01*
X104564636Y-105897547D01*
X104566926Y-105875756D01*
X104568604Y-105867208D01*
X104568871Y-105866291D01*
X104574715Y-105846175D01*
X104575500Y-105835485D01*
X104575500Y-105796757D01*
X104575768Y-105791635D01*
X104580053Y-105750867D01*
X104580402Y-105747546D01*
X104576186Y-105722620D01*
X104575500Y-105714448D01*
X104575500Y-105092215D01*
X104575499Y-105092211D01*
X104575499Y-104688626D01*
X104572343Y-104662093D01*
X104564961Y-104645472D01*
X104528155Y-104562611D01*
X104528154Y-104562610D01*
X104526318Y-104558476D01*
X104523117Y-104555281D01*
X104523116Y-104555279D01*
X104449592Y-104481884D01*
X104446078Y-104478376D01*
X104441573Y-104476384D01*
X104415370Y-104464800D01*
X104404687Y-104460077D01*
X104378801Y-104432941D01*
X104375500Y-104415261D01*
X104375500Y-104197626D01*
X104376598Y-104187313D01*
X104379098Y-104175703D01*
X104379098Y-104175700D01*
X104379951Y-104171739D01*
X104375840Y-104137005D01*
X104375500Y-104131247D01*
X104375500Y-104125885D01*
X104372306Y-104106693D01*
X104371984Y-104104430D01*
X104366712Y-104059884D01*
X104366236Y-104055861D01*
X104364482Y-104052208D01*
X104363353Y-104048322D01*
X104363611Y-104048247D01*
X104363417Y-104047637D01*
X104363165Y-104047723D01*
X104361853Y-104043890D01*
X104361188Y-104039897D01*
X104359266Y-104036335D01*
X104359265Y-104036332D01*
X104337942Y-103996814D01*
X104336894Y-103994757D01*
X104321909Y-103963551D01*
X104315726Y-103950674D01*
X104312408Y-103946726D01*
X104312462Y-103946681D01*
X104310411Y-103943796D01*
X104310185Y-103943971D01*
X104307699Y-103940766D01*
X104305778Y-103937206D01*
X104302808Y-103934460D01*
X104302806Y-103934458D01*
X104268253Y-103902518D01*
X104266866Y-103901184D01*
X102963837Y-102598155D01*
X102949485Y-102563507D01*
X102963837Y-102528859D01*
X102971262Y-102522765D01*
X102989133Y-102510824D01*
X102995824Y-102504133D01*
X103023616Y-102462539D01*
X103027238Y-102453794D01*
X103034529Y-102417141D01*
X103035000Y-102412365D01*
X103035000Y-101846197D01*
X103049352Y-101811549D01*
X103084000Y-101797197D01*
X103118648Y-101811549D01*
X103125734Y-101820521D01*
X103215206Y-101965955D01*
X103217121Y-101967911D01*
X103217123Y-101967913D01*
X103338941Y-102092310D01*
X103338944Y-102092312D01*
X103340859Y-102094268D01*
X103491817Y-102191554D01*
X103599683Y-102230814D01*
X103658003Y-102252041D01*
X103658005Y-102252041D01*
X103660578Y-102252978D01*
X103799283Y-102270500D01*
X104395155Y-102270500D01*
X104396506Y-102270348D01*
X104396514Y-102270348D01*
X104525754Y-102255851D01*
X104525755Y-102255851D01*
X104528472Y-102255546D01*
X104566696Y-102242235D01*
X104695484Y-102197387D01*
X104695487Y-102197385D01*
X104698073Y-102196485D01*
X104705965Y-102191554D01*
X104848050Y-102102769D01*
X104848051Y-102102768D01*
X104850375Y-102101316D01*
X104857473Y-102094268D01*
X104975860Y-101976703D01*
X104977807Y-101974770D01*
X105068261Y-101832238D01*
X105072570Y-101825448D01*
X105072571Y-101825446D01*
X105074037Y-101823136D01*
X105081619Y-101801845D01*
X105133362Y-101656532D01*
X105134281Y-101653951D01*
X105155545Y-101475624D01*
X105136773Y-101297017D01*
X105078897Y-101127007D01*
X104994103Y-100989176D01*
X104986229Y-100976377D01*
X104986227Y-100976375D01*
X104984794Y-100974045D01*
X104974269Y-100963297D01*
X104861059Y-100847690D01*
X104861056Y-100847688D01*
X104859141Y-100845732D01*
X104708183Y-100748446D01*
X104600317Y-100709186D01*
X104541997Y-100687959D01*
X104541995Y-100687959D01*
X104539422Y-100687022D01*
X104400717Y-100669500D01*
X103804845Y-100669500D01*
X103803494Y-100669652D01*
X103803486Y-100669652D01*
X103674246Y-100684149D01*
X103674245Y-100684149D01*
X103671528Y-100684454D01*
X103668940Y-100685355D01*
X103668941Y-100685355D01*
X103504516Y-100742613D01*
X103504513Y-100742615D01*
X103501927Y-100743515D01*
X103499604Y-100744966D01*
X103499603Y-100744967D01*
X103351950Y-100837231D01*
X103349625Y-100838684D01*
X103347682Y-100840613D01*
X103347680Y-100840615D01*
X103340556Y-100847690D01*
X103222193Y-100965230D01*
X103125963Y-101116864D01*
X103124827Y-101116143D01*
X103099955Y-101138151D01*
X103062522Y-101135864D01*
X103037670Y-101107778D01*
X103034999Y-101091822D01*
X103034999Y-101087630D01*
X103034530Y-101082870D01*
X103027238Y-101046205D01*
X103023617Y-101037461D01*
X102995824Y-100995867D01*
X102989133Y-100989176D01*
X102947539Y-100961384D01*
X102938794Y-100957762D01*
X102902141Y-100950471D01*
X102897365Y-100950000D01*
X102884747Y-100950000D01*
X102877855Y-100952855D01*
X102875000Y-100959747D01*
X102875000Y-101826000D01*
X102860648Y-101860648D01*
X102826000Y-101875000D01*
X102674000Y-101875000D01*
X102639352Y-101860648D01*
X102625000Y-101826000D01*
X102625000Y-100959748D01*
X102622145Y-100952856D01*
X102615253Y-100950001D01*
X102602630Y-100950001D01*
X102597870Y-100950470D01*
X102561205Y-100957762D01*
X102552461Y-100961384D01*
X102527672Y-100977947D01*
X102490889Y-100985263D01*
X102473226Y-100977947D01*
X102472777Y-100977647D01*
X102443722Y-100958233D01*
X102399820Y-100949500D01*
X102375000Y-100949500D01*
X102340352Y-100935148D01*
X102326000Y-100900500D01*
X102326000Y-100590011D01*
X102340352Y-100555363D01*
X102375000Y-100541011D01*
X102381391Y-100541430D01*
X102463500Y-100552240D01*
X102607209Y-100533320D01*
X102741125Y-100477851D01*
X102856121Y-100389611D01*
X102944361Y-100274615D01*
X102999830Y-100140699D01*
X103018750Y-99996990D01*
X102999830Y-99853281D01*
X102944361Y-99719365D01*
X102856121Y-99604369D01*
X102741125Y-99516129D01*
X102607209Y-99460660D01*
X102463500Y-99441740D01*
X102319791Y-99460660D01*
X102185875Y-99516129D01*
X102070879Y-99604369D01*
X102045514Y-99637426D01*
X102038874Y-99646079D01*
X102006396Y-99664831D01*
X101970171Y-99655124D01*
X101961126Y-99646079D01*
X101954487Y-99637426D01*
X101929121Y-99604369D01*
X101814125Y-99516129D01*
X101680209Y-99460660D01*
X101536500Y-99441740D01*
X101392791Y-99460660D01*
X101258875Y-99516129D01*
X101143879Y-99604369D01*
X101055639Y-99719365D01*
X101000170Y-99853281D01*
X100981250Y-99996990D01*
X101000170Y-100140699D01*
X101055639Y-100274615D01*
X101143879Y-100389611D01*
X101258875Y-100477851D01*
X101392791Y-100533320D01*
X101536500Y-100552240D01*
X101618605Y-100541430D01*
X101654829Y-100551136D01*
X101673581Y-100583615D01*
X101674000Y-100590011D01*
X101674000Y-100900500D01*
X101659648Y-100935148D01*
X101625000Y-100949500D01*
X101600180Y-100949500D01*
X101556278Y-100958233D01*
X101527223Y-100977647D01*
X101490441Y-100984963D01*
X101472777Y-100977647D01*
X101443722Y-100958233D01*
X101399820Y-100949500D01*
X101100180Y-100949500D01*
X101056278Y-100958233D01*
X101027223Y-100977647D01*
X100990441Y-100984963D01*
X100972777Y-100977647D01*
X100943722Y-100958233D01*
X100899820Y-100949500D01*
X100600180Y-100949500D01*
X100556278Y-100958233D01*
X100527223Y-100977647D01*
X100490441Y-100984963D01*
X100472777Y-100977647D01*
X100443722Y-100958233D01*
X100399820Y-100949500D01*
X100100180Y-100949500D01*
X100056278Y-100958233D01*
X100027223Y-100977647D01*
X99990441Y-100984963D01*
X99972777Y-100977647D01*
X99943722Y-100958233D01*
X99899820Y-100949500D01*
X99600180Y-100949500D01*
X99556278Y-100958233D01*
X99527223Y-100977647D01*
X99490441Y-100984963D01*
X99472777Y-100977647D01*
X99443722Y-100958233D01*
X99399820Y-100949500D01*
X99100180Y-100949500D01*
X99056278Y-100958233D01*
X99027223Y-100977647D01*
X98990441Y-100984963D01*
X98972777Y-100977647D01*
X98943722Y-100958233D01*
X98899820Y-100949500D01*
X98600180Y-100949500D01*
X98556278Y-100958233D01*
X98527223Y-100977647D01*
X98490441Y-100984963D01*
X98472777Y-100977647D01*
X98443722Y-100958233D01*
X98399820Y-100949500D01*
X98100180Y-100949500D01*
X98056278Y-100958233D01*
X98027223Y-100977647D01*
X97990441Y-100984963D01*
X97972777Y-100977647D01*
X97943722Y-100958233D01*
X97899820Y-100949500D01*
X97600180Y-100949500D01*
X97556278Y-100958233D01*
X97527223Y-100977647D01*
X97526774Y-100977947D01*
X97489992Y-100985263D01*
X97472328Y-100977947D01*
X97447539Y-100961384D01*
X97438794Y-100957762D01*
X97402141Y-100950471D01*
X97397365Y-100950000D01*
X97384747Y-100950000D01*
X97377855Y-100952855D01*
X97375000Y-100959747D01*
X97375000Y-102540252D01*
X97377855Y-102547144D01*
X97384747Y-102549999D01*
X97397370Y-102549999D01*
X97402130Y-102549530D01*
X97438795Y-102542238D01*
X97447539Y-102538616D01*
X97472328Y-102522053D01*
X97509111Y-102514737D01*
X97526773Y-102522053D01*
X97556278Y-102541767D01*
X97600180Y-102550500D01*
X97624500Y-102550500D01*
X97659148Y-102564852D01*
X97673500Y-102599500D01*
X97673500Y-103415169D01*
X97659148Y-103449817D01*
X96924798Y-104184167D01*
X96917423Y-104189394D01*
X96917437Y-104189411D01*
X96913116Y-104192848D01*
X96908145Y-104195235D01*
X96887760Y-104220725D01*
X96887537Y-104221004D01*
X96883917Y-104225048D01*
X96877520Y-104231445D01*
X96876057Y-104233772D01*
X96876055Y-104233775D01*
X96872879Y-104238828D01*
X96869662Y-104243355D01*
X96849303Y-104268813D01*
X96848067Y-104274190D01*
X96845986Y-104278494D01*
X96844609Y-104281808D01*
X96843028Y-104286323D01*
X96840092Y-104290994D01*
X96839472Y-104296476D01*
X96839472Y-104296477D01*
X96836430Y-104323386D01*
X96835493Y-104328865D01*
X96834122Y-104334826D01*
X96834121Y-104334832D01*
X96833500Y-104337534D01*
X96833500Y-104346538D01*
X96833190Y-104352043D01*
X96830420Y-104376547D01*
X96829508Y-104384610D01*
X96831328Y-104389822D01*
X96831899Y-104394910D01*
X96833500Y-104404350D01*
X96833500Y-104464800D01*
X96819148Y-104499448D01*
X96784500Y-104513800D01*
X96756115Y-104504741D01*
X96664931Y-104439940D01*
X96659066Y-104436874D01*
X96539171Y-104393709D01*
X96531718Y-104394060D01*
X96530000Y-104395949D01*
X96530000Y-105856152D01*
X96532855Y-105863044D01*
X96533910Y-105863481D01*
X96560428Y-105890000D01*
X96560428Y-105927503D01*
X96556805Y-105934568D01*
X96549265Y-105946729D01*
X96534125Y-105971148D01*
X96532365Y-105973986D01*
X96531434Y-105977189D01*
X96531434Y-105977190D01*
X96497840Y-106092822D01*
X96490285Y-106118825D01*
X96490097Y-106121389D01*
X96490096Y-106121393D01*
X96490091Y-106121461D01*
X96489500Y-106129515D01*
X96489500Y-106637785D01*
X96489726Y-106639432D01*
X96489726Y-106639438D01*
X96495083Y-106678540D01*
X96504794Y-106749432D01*
X96506121Y-106752498D01*
X96506121Y-106752499D01*
X96564695Y-106887855D01*
X96563823Y-106888232D01*
X96568945Y-106921701D01*
X96546743Y-106951926D01*
X96509671Y-106957599D01*
X96497781Y-106952967D01*
X96494861Y-106951364D01*
X95597961Y-106459044D01*
X95595587Y-106457652D01*
X95583823Y-106450301D01*
X95581009Y-106448404D01*
X95137656Y-106126289D01*
X95134967Y-106124188D01*
X95125629Y-106116353D01*
X95097574Y-106092812D01*
X95094049Y-106089545D01*
X94386840Y-105366078D01*
X95855000Y-105366078D01*
X95855226Y-105369402D01*
X95869827Y-105475986D01*
X95871607Y-105482363D01*
X95928800Y-105614528D01*
X95932229Y-105620190D01*
X96022858Y-105732107D01*
X96027681Y-105736636D01*
X96145069Y-105820060D01*
X96150934Y-105823126D01*
X96270829Y-105866291D01*
X96278282Y-105865940D01*
X96280000Y-105864051D01*
X96280000Y-105264747D01*
X96277145Y-105257855D01*
X96270253Y-105255000D01*
X95864747Y-105255000D01*
X95857855Y-105257855D01*
X95855000Y-105264747D01*
X95855000Y-105366078D01*
X94386840Y-105366078D01*
X94024348Y-104995253D01*
X95855000Y-104995253D01*
X95857855Y-105002145D01*
X95864747Y-105005000D01*
X96270253Y-105005000D01*
X96277145Y-105002145D01*
X96280000Y-104995253D01*
X96280000Y-104403848D01*
X96277145Y-104396956D01*
X96273444Y-104395423D01*
X96225698Y-104405050D01*
X96219445Y-104407227D01*
X96091136Y-104472603D01*
X96085696Y-104476384D01*
X95979691Y-104573861D01*
X95975474Y-104578958D01*
X95899586Y-104701354D01*
X95896894Y-104707402D01*
X95856502Y-104846433D01*
X95855597Y-104851460D01*
X95855067Y-104858681D01*
X95855000Y-104860492D01*
X95855000Y-104995253D01*
X94024348Y-104995253D01*
X93714237Y-104678013D01*
X93710667Y-104673931D01*
X93701829Y-104662618D01*
X93620464Y-104558476D01*
X93609817Y-104544848D01*
X93607807Y-104542081D01*
X93414784Y-104255912D01*
X93412172Y-104251571D01*
X92937311Y-103361209D01*
X92715281Y-102944902D01*
X92713097Y-102940225D01*
X92659321Y-102807125D01*
X92656856Y-102799109D01*
X92600980Y-102540252D01*
X92181103Y-100595110D01*
X92180000Y-100584771D01*
X92180000Y-99951570D01*
X92180100Y-99948438D01*
X92202259Y-99602413D01*
X92293549Y-98176894D01*
X92294903Y-98168182D01*
X92405619Y-97724126D01*
X92406559Y-97720847D01*
X92414070Y-97697732D01*
X92416264Y-97692163D01*
X93220108Y-95968667D01*
X93424009Y-95531488D01*
X93427793Y-95524800D01*
X93429411Y-95522402D01*
X93459995Y-95477059D01*
X93568196Y-95316645D01*
X93574925Y-95308659D01*
X95684780Y-93287827D01*
X95692708Y-93281660D01*
X95987028Y-93097748D01*
X96048551Y-93059304D01*
X96051512Y-93057595D01*
X96104323Y-93029515D01*
X96267425Y-92942792D01*
X96304755Y-92939197D01*
X96333693Y-92963052D01*
G37*
%TD.AperFunction*%
%TA.AperFunction,Conductor*%
G36*
X100086786Y-92011127D02*
G01*
X102514196Y-92414096D01*
X102522930Y-92416389D01*
X102708939Y-92484091D01*
X102715485Y-92487033D01*
X102877561Y-92574662D01*
X103065165Y-92676094D01*
X103088816Y-92705196D01*
X103084962Y-92742501D01*
X103055859Y-92766153D01*
X103051547Y-92767228D01*
X102962257Y-92785233D01*
X102959281Y-92786749D01*
X102959279Y-92786750D01*
X102830848Y-92852188D01*
X102830845Y-92852190D01*
X102827868Y-92853707D01*
X102716844Y-92955799D01*
X102715085Y-92958636D01*
X102653230Y-93058399D01*
X102637365Y-93083986D01*
X102636434Y-93087189D01*
X102636434Y-93087190D01*
X102614115Y-93164014D01*
X102595285Y-93228825D01*
X102595097Y-93231389D01*
X102595096Y-93231393D01*
X102594823Y-93235122D01*
X102594500Y-93239515D01*
X102594500Y-93747785D01*
X102594726Y-93749432D01*
X102594726Y-93749438D01*
X102600083Y-93788539D01*
X102609794Y-93859432D01*
X102611121Y-93862498D01*
X102611121Y-93862499D01*
X102656269Y-93966830D01*
X102656858Y-94004328D01*
X102630759Y-94031260D01*
X102607710Y-94035158D01*
X102554630Y-94031260D01*
X102475109Y-94025420D01*
X102416392Y-94037260D01*
X102379592Y-94030040D01*
X102358675Y-93998913D01*
X102365063Y-93963407D01*
X102380413Y-93938650D01*
X102383106Y-93932598D01*
X102423498Y-93793567D01*
X102424403Y-93788540D01*
X102424933Y-93781319D01*
X102425000Y-93779508D01*
X102425000Y-93644747D01*
X102422145Y-93637855D01*
X102415253Y-93635000D01*
X102009747Y-93635000D01*
X102002855Y-93637855D01*
X102000000Y-93644747D01*
X102000000Y-94236152D01*
X102002855Y-94243044D01*
X102003910Y-94243481D01*
X102030428Y-94270000D01*
X102030428Y-94307503D01*
X102026805Y-94314568D01*
X102019265Y-94326729D01*
X102004125Y-94351148D01*
X102002365Y-94353986D01*
X102001434Y-94357189D01*
X102001434Y-94357190D01*
X101979115Y-94434014D01*
X101960285Y-94498825D01*
X101960097Y-94501389D01*
X101960096Y-94501393D01*
X101959823Y-94505122D01*
X101959500Y-94509515D01*
X101959500Y-95017785D01*
X101959726Y-95019432D01*
X101959726Y-95019438D01*
X101965083Y-95058540D01*
X101974794Y-95129432D01*
X101976121Y-95132498D01*
X101976121Y-95132499D01*
X102027293Y-95250749D01*
X102034695Y-95267855D01*
X102129614Y-95385070D01*
X102190620Y-95428425D01*
X102235148Y-95460069D01*
X102252558Y-95472442D01*
X102255698Y-95473573D01*
X102255701Y-95473574D01*
X102391326Y-95522402D01*
X102391327Y-95522402D01*
X102394468Y-95523533D01*
X102397796Y-95523777D01*
X102397799Y-95523778D01*
X102477532Y-95529633D01*
X102544891Y-95534580D01*
X102548164Y-95533920D01*
X102548165Y-95533920D01*
X102640814Y-95515238D01*
X102677615Y-95522458D01*
X102698532Y-95553586D01*
X102699499Y-95563271D01*
X102699499Y-95919537D01*
X102685147Y-95954185D01*
X102650499Y-95968537D01*
X102623727Y-95959448D01*
X102623415Y-95959989D01*
X102620693Y-95958417D01*
X102620666Y-95958408D01*
X102618084Y-95956427D01*
X102526982Y-95918692D01*
X102429218Y-95905821D01*
X102331454Y-95918692D01*
X102240352Y-95956427D01*
X102237806Y-95958381D01*
X102237803Y-95958383D01*
X102181986Y-96001213D01*
X102178086Y-96003916D01*
X102163537Y-96012989D01*
X102163529Y-96012995D01*
X102161174Y-96014464D01*
X102160651Y-96014986D01*
X102160160Y-96015768D01*
X102150098Y-96031776D01*
X102147503Y-96035507D01*
X102102092Y-96094687D01*
X102064357Y-96185789D01*
X102051486Y-96283553D01*
X102051965Y-96287187D01*
X102057925Y-96332460D01*
X102048218Y-96368685D01*
X102015740Y-96387437D01*
X102002950Y-96387437D01*
X101954041Y-96380998D01*
X101856277Y-96393869D01*
X101765175Y-96431604D01*
X101762626Y-96433560D01*
X101706802Y-96476396D01*
X101702909Y-96479095D01*
X101685997Y-96489641D01*
X101685474Y-96490163D01*
X101684003Y-96492503D01*
X101684001Y-96492506D01*
X101674928Y-96506941D01*
X101672316Y-96510697D01*
X101626915Y-96569864D01*
X101589180Y-96660966D01*
X101576309Y-96758730D01*
X101589180Y-96856494D01*
X101626915Y-96947596D01*
X101628871Y-96950145D01*
X101671701Y-97005962D01*
X101674404Y-97009862D01*
X101684951Y-97026774D01*
X101683623Y-97027602D01*
X101692580Y-97058967D01*
X101689967Y-97067974D01*
X101689803Y-97068179D01*
X101689405Y-97069911D01*
X101688983Y-97071745D01*
X101688619Y-97072620D01*
X101688017Y-97074694D01*
X101686165Y-97078525D01*
X101686161Y-97078523D01*
X101685490Y-97080135D01*
X101685494Y-97080136D01*
X101683662Y-97085339D01*
X101680716Y-97090007D01*
X101680086Y-97095490D01*
X101680086Y-97095491D01*
X101676972Y-97122612D01*
X101676047Y-97127999D01*
X101674000Y-97136900D01*
X101674000Y-97145690D01*
X101673680Y-97151280D01*
X101671233Y-97172593D01*
X101669968Y-97183605D01*
X101671777Y-97188816D01*
X101672254Y-97193134D01*
X101674000Y-97203482D01*
X101674000Y-97400500D01*
X101659648Y-97435148D01*
X101625000Y-97449500D01*
X101600180Y-97449500D01*
X101587644Y-97451994D01*
X101550863Y-97444677D01*
X101530027Y-97413494D01*
X101530027Y-97399559D01*
X101529956Y-97399559D01*
X101529956Y-97394731D01*
X101530897Y-97390000D01*
X101509516Y-97282506D01*
X101463994Y-97214378D01*
X101463993Y-97214377D01*
X101448624Y-97191376D01*
X101429634Y-97178687D01*
X101422209Y-97172593D01*
X101421403Y-97171787D01*
X101408496Y-97148952D01*
X101387096Y-97062803D01*
X101387095Y-97062802D01*
X101386120Y-97058875D01*
X101365928Y-97027602D01*
X101325019Y-96964246D01*
X101322825Y-96960848D01*
X101309249Y-96950145D01*
X101234369Y-96891115D01*
X101231189Y-96888608D01*
X101121094Y-96849945D01*
X101117490Y-96849633D01*
X101117011Y-96849591D01*
X101117002Y-96849591D01*
X101115956Y-96849500D01*
X97675478Y-96849500D01*
X97640830Y-96835148D01*
X96524852Y-95719170D01*
X96510500Y-95684522D01*
X96510500Y-95494717D01*
X96524852Y-95460069D01*
X96539609Y-95449936D01*
X96539639Y-95449923D01*
X96566904Y-95437812D01*
X96577389Y-95433155D01*
X96577390Y-95433154D01*
X96581524Y-95431318D01*
X96584719Y-95428117D01*
X96584721Y-95428116D01*
X96657987Y-95354721D01*
X96661624Y-95351078D01*
X96707468Y-95247382D01*
X96710500Y-95221375D01*
X96710500Y-94393321D01*
X96724852Y-94358673D01*
X96805720Y-94277805D01*
X96830682Y-94264420D01*
X96887934Y-94252876D01*
X96924735Y-94260096D01*
X96945652Y-94291224D01*
X96939264Y-94326729D01*
X96924124Y-94351148D01*
X96924122Y-94351152D01*
X96922365Y-94353986D01*
X96921434Y-94357189D01*
X96921434Y-94357190D01*
X96899115Y-94434014D01*
X96880285Y-94498825D01*
X96880097Y-94501389D01*
X96880096Y-94501393D01*
X96879823Y-94505122D01*
X96879500Y-94509515D01*
X96879500Y-95017785D01*
X96879726Y-95019432D01*
X96879726Y-95019438D01*
X96885083Y-95058540D01*
X96894794Y-95129432D01*
X96896121Y-95132498D01*
X96896121Y-95132499D01*
X96947293Y-95250749D01*
X96954695Y-95267855D01*
X97049614Y-95385070D01*
X97110620Y-95428425D01*
X97155148Y-95460069D01*
X97172558Y-95472442D01*
X97175698Y-95473573D01*
X97175701Y-95473574D01*
X97311326Y-95522402D01*
X97311327Y-95522402D01*
X97314468Y-95523533D01*
X97317796Y-95523777D01*
X97317799Y-95523778D01*
X97397532Y-95529633D01*
X97464891Y-95534580D01*
X97468164Y-95533920D01*
X97468165Y-95533920D01*
X97609467Y-95505428D01*
X97609470Y-95505427D01*
X97612743Y-95504767D01*
X97615719Y-95503251D01*
X97615721Y-95503250D01*
X97744152Y-95437812D01*
X97744155Y-95437810D01*
X97747132Y-95436293D01*
X97752210Y-95431624D01*
X97802836Y-95385070D01*
X97858156Y-95334201D01*
X97911986Y-95247382D01*
X97935878Y-95208848D01*
X97935878Y-95208847D01*
X97937635Y-95206014D01*
X97938566Y-95202810D01*
X97978997Y-95063647D01*
X97978997Y-95063645D01*
X97979715Y-95061175D01*
X97979909Y-95058540D01*
X97980433Y-95051392D01*
X97980500Y-95050485D01*
X97980500Y-95017785D01*
X98149500Y-95017785D01*
X98149726Y-95019432D01*
X98149726Y-95019438D01*
X98155083Y-95058540D01*
X98164794Y-95129432D01*
X98166121Y-95132498D01*
X98166121Y-95132499D01*
X98217293Y-95250749D01*
X98224695Y-95267855D01*
X98319614Y-95385070D01*
X98380620Y-95428425D01*
X98425148Y-95460069D01*
X98442558Y-95472442D01*
X98445698Y-95473573D01*
X98445701Y-95473574D01*
X98581326Y-95522402D01*
X98581327Y-95522402D01*
X98584468Y-95523533D01*
X98587796Y-95523777D01*
X98587799Y-95523778D01*
X98667532Y-95529633D01*
X98734891Y-95534580D01*
X98738164Y-95533920D01*
X98738165Y-95533920D01*
X98879467Y-95505428D01*
X98879470Y-95505427D01*
X98882743Y-95504767D01*
X98885719Y-95503251D01*
X98885721Y-95503250D01*
X99014152Y-95437812D01*
X99014155Y-95437810D01*
X99017132Y-95436293D01*
X99022210Y-95431624D01*
X99072836Y-95385070D01*
X99128156Y-95334201D01*
X99181986Y-95247382D01*
X99205878Y-95208848D01*
X99205878Y-95208847D01*
X99207635Y-95206014D01*
X99208566Y-95202810D01*
X99248997Y-95063647D01*
X99248997Y-95063645D01*
X99249715Y-95061175D01*
X99249909Y-95058540D01*
X99250433Y-95051392D01*
X99250500Y-95050485D01*
X99250500Y-95016078D01*
X99420000Y-95016078D01*
X99420226Y-95019402D01*
X99434827Y-95125986D01*
X99436607Y-95132363D01*
X99493800Y-95264528D01*
X99497229Y-95270190D01*
X99587858Y-95382107D01*
X99592681Y-95386636D01*
X99710069Y-95470060D01*
X99715934Y-95473126D01*
X99835829Y-95516291D01*
X99843282Y-95515940D01*
X99845000Y-95514051D01*
X99845000Y-95506152D01*
X100095000Y-95506152D01*
X100097855Y-95513044D01*
X100101556Y-95514577D01*
X100149302Y-95504950D01*
X100155555Y-95502773D01*
X100283864Y-95437397D01*
X100289304Y-95433616D01*
X100395309Y-95336139D01*
X100399526Y-95331042D01*
X100475414Y-95208646D01*
X100478106Y-95202598D01*
X100518498Y-95063567D01*
X100519403Y-95058540D01*
X100519933Y-95051319D01*
X100520000Y-95049508D01*
X100520000Y-94914747D01*
X100517145Y-94907855D01*
X100510253Y-94905000D01*
X100104747Y-94905000D01*
X100097855Y-94907855D01*
X100095000Y-94914747D01*
X100095000Y-95506152D01*
X99845000Y-95506152D01*
X99845000Y-94914747D01*
X99842145Y-94907855D01*
X99835253Y-94905000D01*
X99429747Y-94905000D01*
X99422855Y-94907855D01*
X99420000Y-94914747D01*
X99420000Y-95016078D01*
X99250500Y-95016078D01*
X99250500Y-94542215D01*
X99246155Y-94510492D01*
X99235659Y-94433878D01*
X99235206Y-94430568D01*
X99210305Y-94373025D01*
X99188731Y-94323170D01*
X99188142Y-94285672D01*
X99214241Y-94258740D01*
X99237290Y-94254842D01*
X99282322Y-94258149D01*
X99369891Y-94264580D01*
X99428608Y-94252740D01*
X99465408Y-94259960D01*
X99486325Y-94291087D01*
X99479937Y-94326593D01*
X99464587Y-94351350D01*
X99461894Y-94357402D01*
X99421502Y-94496433D01*
X99420597Y-94501460D01*
X99420067Y-94508681D01*
X99420000Y-94510492D01*
X99420000Y-94645253D01*
X99422855Y-94652145D01*
X99429747Y-94655000D01*
X99835253Y-94655000D01*
X99842145Y-94652145D01*
X99845000Y-94645253D01*
X99845000Y-94053848D01*
X99842145Y-94046956D01*
X99841090Y-94046519D01*
X99814572Y-94020000D01*
X99814572Y-93982497D01*
X99818197Y-93975428D01*
X99822419Y-93968620D01*
X99834521Y-93949101D01*
X99840878Y-93938848D01*
X99840878Y-93938847D01*
X99842635Y-93936014D01*
X99843566Y-93932810D01*
X99883997Y-93793647D01*
X99883997Y-93793645D01*
X99884715Y-93791175D01*
X99884909Y-93788540D01*
X99885433Y-93781392D01*
X99885500Y-93780485D01*
X99885500Y-93747785D01*
X100054500Y-93747785D01*
X100054726Y-93749432D01*
X100054726Y-93749438D01*
X100060083Y-93788539D01*
X100069794Y-93859432D01*
X100071121Y-93862498D01*
X100071121Y-93862499D01*
X100085899Y-93896649D01*
X100116288Y-93966872D01*
X100120474Y-93976546D01*
X100121063Y-94014044D01*
X100108330Y-94027183D01*
X100110379Y-94029047D01*
X100095000Y-94045949D01*
X100095000Y-94645253D01*
X100097855Y-94652145D01*
X100104747Y-94655000D01*
X100510253Y-94655000D01*
X100517145Y-94652145D01*
X100520000Y-94645253D01*
X100520000Y-94543922D01*
X100519774Y-94540598D01*
X100505173Y-94434014D01*
X100503393Y-94427637D01*
X100458168Y-94323128D01*
X100457579Y-94285630D01*
X100483678Y-94258698D01*
X100506725Y-94254800D01*
X100639891Y-94264580D01*
X100697934Y-94252876D01*
X100734735Y-94260096D01*
X100755652Y-94291223D01*
X100749264Y-94326729D01*
X100734124Y-94351148D01*
X100734122Y-94351152D01*
X100732365Y-94353986D01*
X100731434Y-94357189D01*
X100731434Y-94357190D01*
X100709115Y-94434014D01*
X100690285Y-94498825D01*
X100690097Y-94501389D01*
X100690096Y-94501393D01*
X100689823Y-94505122D01*
X100689500Y-94509515D01*
X100689500Y-95017785D01*
X100689726Y-95019432D01*
X100689726Y-95019438D01*
X100695083Y-95058540D01*
X100704794Y-95129432D01*
X100706121Y-95132498D01*
X100706121Y-95132499D01*
X100757293Y-95250749D01*
X100764695Y-95267855D01*
X100859614Y-95385070D01*
X100920620Y-95428425D01*
X100965148Y-95460069D01*
X100982558Y-95472442D01*
X100985698Y-95473573D01*
X100985701Y-95473574D01*
X101121326Y-95522402D01*
X101121327Y-95522402D01*
X101124468Y-95523533D01*
X101127796Y-95523777D01*
X101127799Y-95523778D01*
X101207532Y-95529633D01*
X101274891Y-95534580D01*
X101278164Y-95533920D01*
X101278165Y-95533920D01*
X101419467Y-95505428D01*
X101419470Y-95505427D01*
X101422743Y-95504767D01*
X101425719Y-95503251D01*
X101425721Y-95503250D01*
X101554152Y-95437812D01*
X101554155Y-95437810D01*
X101557132Y-95436293D01*
X101562210Y-95431624D01*
X101612836Y-95385070D01*
X101668156Y-95334201D01*
X101721986Y-95247382D01*
X101745878Y-95208848D01*
X101745878Y-95208847D01*
X101747635Y-95206014D01*
X101748566Y-95202810D01*
X101788997Y-95063647D01*
X101788997Y-95063645D01*
X101789715Y-95061175D01*
X101789909Y-95058540D01*
X101790433Y-95051392D01*
X101790500Y-95050485D01*
X101790500Y-94542215D01*
X101786155Y-94510492D01*
X101775659Y-94433878D01*
X101775206Y-94430568D01*
X101724526Y-94313453D01*
X101723937Y-94275956D01*
X101736670Y-94262817D01*
X101734621Y-94260953D01*
X101750000Y-94244051D01*
X101750000Y-93644747D01*
X101747145Y-93637855D01*
X101740253Y-93635000D01*
X101334747Y-93635000D01*
X101327855Y-93637855D01*
X101325000Y-93644747D01*
X101325000Y-93746078D01*
X101325226Y-93749402D01*
X101339827Y-93855986D01*
X101341607Y-93862363D01*
X101386832Y-93966872D01*
X101387421Y-94004370D01*
X101361322Y-94031302D01*
X101338275Y-94035200D01*
X101205109Y-94025420D01*
X101147066Y-94037124D01*
X101110265Y-94029904D01*
X101089348Y-93998777D01*
X101095736Y-93963271D01*
X101110876Y-93938852D01*
X101110878Y-93938848D01*
X101112635Y-93936014D01*
X101113566Y-93932810D01*
X101153997Y-93793647D01*
X101153997Y-93793645D01*
X101154715Y-93791175D01*
X101154909Y-93788540D01*
X101155433Y-93781392D01*
X101155500Y-93780485D01*
X101155500Y-93375253D01*
X101325000Y-93375253D01*
X101327855Y-93382145D01*
X101334747Y-93385000D01*
X101740253Y-93385000D01*
X101747145Y-93382145D01*
X101750000Y-93375253D01*
X102000000Y-93375253D01*
X102002855Y-93382145D01*
X102009747Y-93385000D01*
X102415253Y-93385000D01*
X102422145Y-93382145D01*
X102425000Y-93375253D01*
X102425000Y-93273922D01*
X102424774Y-93270598D01*
X102410173Y-93164014D01*
X102408393Y-93157637D01*
X102351200Y-93025472D01*
X102347771Y-93019810D01*
X102257142Y-92907893D01*
X102252319Y-92903364D01*
X102134931Y-92819940D01*
X102129066Y-92816874D01*
X102009171Y-92773709D01*
X102001718Y-92774060D01*
X102000000Y-92775949D01*
X102000000Y-93375253D01*
X101750000Y-93375253D01*
X101750000Y-92783848D01*
X101747145Y-92776956D01*
X101743444Y-92775423D01*
X101695698Y-92785050D01*
X101689445Y-92787227D01*
X101561136Y-92852603D01*
X101555696Y-92856384D01*
X101449691Y-92953861D01*
X101445474Y-92958958D01*
X101369586Y-93081354D01*
X101366894Y-93087402D01*
X101326502Y-93226433D01*
X101325597Y-93231460D01*
X101325067Y-93238681D01*
X101325000Y-93240492D01*
X101325000Y-93375253D01*
X101155500Y-93375253D01*
X101155500Y-93272215D01*
X101151155Y-93240492D01*
X101140659Y-93163878D01*
X101140206Y-93160568D01*
X101138879Y-93157501D01*
X101081632Y-93025211D01*
X101081631Y-93025210D01*
X101080305Y-93022145D01*
X100985386Y-92904930D01*
X100862442Y-92817558D01*
X100859302Y-92816427D01*
X100859299Y-92816426D01*
X100723674Y-92767598D01*
X100723673Y-92767598D01*
X100720532Y-92766467D01*
X100717204Y-92766223D01*
X100717201Y-92766222D01*
X100637468Y-92760367D01*
X100570109Y-92755420D01*
X100566836Y-92756080D01*
X100566835Y-92756080D01*
X100425533Y-92784572D01*
X100425530Y-92784573D01*
X100422257Y-92785233D01*
X100419281Y-92786749D01*
X100419279Y-92786750D01*
X100290848Y-92852188D01*
X100290845Y-92852190D01*
X100287868Y-92853707D01*
X100176844Y-92955799D01*
X100175085Y-92958636D01*
X100113230Y-93058399D01*
X100097365Y-93083986D01*
X100096434Y-93087189D01*
X100096434Y-93087190D01*
X100074115Y-93164014D01*
X100055285Y-93228825D01*
X100055097Y-93231389D01*
X100055096Y-93231393D01*
X100054823Y-93235122D01*
X100054500Y-93239515D01*
X100054500Y-93747785D01*
X99885500Y-93747785D01*
X99885500Y-93272215D01*
X99881155Y-93240492D01*
X99870659Y-93163878D01*
X99870206Y-93160568D01*
X99868879Y-93157501D01*
X99811632Y-93025211D01*
X99811631Y-93025210D01*
X99810305Y-93022145D01*
X99715386Y-92904930D01*
X99592442Y-92817558D01*
X99589302Y-92816427D01*
X99589299Y-92816426D01*
X99453674Y-92767598D01*
X99453673Y-92767598D01*
X99450532Y-92766467D01*
X99447204Y-92766223D01*
X99447201Y-92766222D01*
X99367468Y-92760367D01*
X99300109Y-92755420D01*
X99296836Y-92756080D01*
X99296835Y-92756080D01*
X99155533Y-92784572D01*
X99155530Y-92784573D01*
X99152257Y-92785233D01*
X99149281Y-92786749D01*
X99149279Y-92786750D01*
X99020848Y-92852188D01*
X99020845Y-92852190D01*
X99017868Y-92853707D01*
X98906844Y-92955799D01*
X98905085Y-92958636D01*
X98843230Y-93058399D01*
X98827365Y-93083986D01*
X98826434Y-93087189D01*
X98826434Y-93087190D01*
X98804115Y-93164014D01*
X98785285Y-93228825D01*
X98785097Y-93231389D01*
X98785096Y-93231393D01*
X98784823Y-93235122D01*
X98784500Y-93239515D01*
X98784500Y-93747785D01*
X98784726Y-93749432D01*
X98784726Y-93749438D01*
X98790083Y-93788539D01*
X98799794Y-93859432D01*
X98801121Y-93862498D01*
X98801121Y-93862499D01*
X98846269Y-93966830D01*
X98846858Y-94004328D01*
X98820759Y-94031260D01*
X98797710Y-94035158D01*
X98744630Y-94031260D01*
X98665109Y-94025420D01*
X98606392Y-94037260D01*
X98569592Y-94030040D01*
X98548675Y-93998913D01*
X98555063Y-93963407D01*
X98570413Y-93938650D01*
X98573106Y-93932598D01*
X98613498Y-93793567D01*
X98614403Y-93788540D01*
X98614933Y-93781319D01*
X98615000Y-93779508D01*
X98615000Y-93644747D01*
X98612145Y-93637855D01*
X98605253Y-93635000D01*
X98199747Y-93635000D01*
X98192855Y-93637855D01*
X98190000Y-93644747D01*
X98190000Y-94236152D01*
X98192855Y-94243044D01*
X98193910Y-94243481D01*
X98220428Y-94270000D01*
X98220428Y-94307503D01*
X98216805Y-94314568D01*
X98209265Y-94326729D01*
X98194125Y-94351148D01*
X98192365Y-94353986D01*
X98191434Y-94357189D01*
X98191434Y-94357190D01*
X98169115Y-94434014D01*
X98150285Y-94498825D01*
X98150097Y-94501389D01*
X98150096Y-94501393D01*
X98149823Y-94505122D01*
X98149500Y-94509515D01*
X98149500Y-95017785D01*
X97980500Y-95017785D01*
X97980500Y-94542215D01*
X97976155Y-94510492D01*
X97965659Y-94433878D01*
X97965206Y-94430568D01*
X97914526Y-94313453D01*
X97913937Y-94275956D01*
X97926670Y-94262817D01*
X97924621Y-94260953D01*
X97940000Y-94244051D01*
X97940000Y-93644747D01*
X97937145Y-93637855D01*
X97930253Y-93635000D01*
X97524747Y-93635000D01*
X97517855Y-93637855D01*
X97515000Y-93644747D01*
X97515000Y-93746078D01*
X97515226Y-93749402D01*
X97529827Y-93855986D01*
X97531607Y-93862363D01*
X97576832Y-93966872D01*
X97577421Y-94004370D01*
X97551322Y-94031302D01*
X97528275Y-94035200D01*
X97395109Y-94025420D01*
X97337066Y-94037124D01*
X97300265Y-94029904D01*
X97279348Y-93998777D01*
X97285736Y-93963271D01*
X97300876Y-93938852D01*
X97300878Y-93938848D01*
X97302635Y-93936014D01*
X97303566Y-93932810D01*
X97343997Y-93793647D01*
X97343997Y-93793645D01*
X97344715Y-93791175D01*
X97344909Y-93788540D01*
X97345433Y-93781392D01*
X97345500Y-93780485D01*
X97345500Y-93541757D01*
X97345768Y-93536635D01*
X97350053Y-93495867D01*
X97350402Y-93492546D01*
X97346186Y-93467620D01*
X97345500Y-93459448D01*
X97345500Y-93375253D01*
X97515000Y-93375253D01*
X97517855Y-93382145D01*
X97524747Y-93385000D01*
X97930253Y-93385000D01*
X97937145Y-93382145D01*
X97940000Y-93375253D01*
X98190000Y-93375253D01*
X98192855Y-93382145D01*
X98199747Y-93385000D01*
X98605253Y-93385000D01*
X98612145Y-93382145D01*
X98615000Y-93375253D01*
X98615000Y-93273922D01*
X98614774Y-93270598D01*
X98600173Y-93164014D01*
X98598393Y-93157637D01*
X98541200Y-93025472D01*
X98537771Y-93019810D01*
X98447142Y-92907893D01*
X98442319Y-92903364D01*
X98324931Y-92819940D01*
X98319066Y-92816874D01*
X98199171Y-92773709D01*
X98191718Y-92774060D01*
X98190000Y-92775949D01*
X98190000Y-93375253D01*
X97940000Y-93375253D01*
X97940000Y-92783848D01*
X97937145Y-92776956D01*
X97933444Y-92775423D01*
X97885698Y-92785050D01*
X97879445Y-92787227D01*
X97751136Y-92852603D01*
X97745696Y-92856384D01*
X97639691Y-92953861D01*
X97635474Y-92958958D01*
X97559586Y-93081354D01*
X97556894Y-93087402D01*
X97516502Y-93226433D01*
X97515597Y-93231460D01*
X97515067Y-93238681D01*
X97515000Y-93240492D01*
X97515000Y-93375253D01*
X97345500Y-93375253D01*
X97345500Y-93272215D01*
X97341155Y-93240492D01*
X97330659Y-93163878D01*
X97330206Y-93160568D01*
X97328879Y-93157501D01*
X97271632Y-93025211D01*
X97271631Y-93025210D01*
X97270305Y-93022145D01*
X97175386Y-92904930D01*
X97052442Y-92817558D01*
X97049302Y-92816427D01*
X97049299Y-92816426D01*
X96913674Y-92767598D01*
X96913673Y-92767598D01*
X96910532Y-92766467D01*
X96907204Y-92766223D01*
X96907201Y-92766222D01*
X96875794Y-92763916D01*
X96848067Y-92761880D01*
X96814564Y-92745030D01*
X96802789Y-92709423D01*
X96819639Y-92675919D01*
X96831727Y-92668248D01*
X97039047Y-92575943D01*
X97042218Y-92574662D01*
X97557173Y-92387234D01*
X97560395Y-92386187D01*
X98060440Y-92242801D01*
X98068351Y-92241224D01*
X100073166Y-92010786D01*
X100086786Y-92011127D01*
G37*
%TD.AperFunction*%
%TD*%
M02*
