%TF.GenerationSoftware,KiCad,Pcbnew,(6.0.2)*%
%TF.CreationDate,2022-06-06T11:24:12+03:00*%
%TF.ProjectId,TypeC_Bulgin_PCB,54797065-435f-4427-956c-67696e5f5043,rev?*%
%TF.SameCoordinates,Original*%
%TF.FileFunction,Soldermask,Top*%
%TF.FilePolarity,Negative*%
%FSLAX46Y46*%
G04 Gerber Fmt 4.6, Leading zero omitted, Abs format (unit mm)*
G04 Created by KiCad (PCBNEW (6.0.2)) date 2022-06-06 11:24:12*
%MOMM*%
%LPD*%
G01*
G04 APERTURE LIST*
G04 Aperture macros list*
%AMRoundRect*
0 Rectangle with rounded corners*
0 $1 Rounding radius*
0 $2 $3 $4 $5 $6 $7 $8 $9 X,Y pos of 4 corners*
0 Add a 4 corners polygon primitive as box body*
4,1,4,$2,$3,$4,$5,$6,$7,$8,$9,$2,$3,0*
0 Add four circle primitives for the rounded corners*
1,1,$1+$1,$2,$3*
1,1,$1+$1,$4,$5*
1,1,$1+$1,$6,$7*
1,1,$1+$1,$8,$9*
0 Add four rect primitives between the rounded corners*
20,1,$1+$1,$2,$3,$4,$5,0*
20,1,$1+$1,$4,$5,$6,$7,0*
20,1,$1+$1,$6,$7,$8,$9,0*
20,1,$1+$1,$8,$9,$2,$3,0*%
G04 Aperture macros list end*
%ADD10RoundRect,0.153846X-0.246154X0.396154X-0.246154X-0.396154X0.246154X-0.396154X0.246154X0.396154X0*%
%ADD11O,0.800000X1.200000*%
%ADD12C,0.600000*%
%ADD13R,0.270000X1.300000*%
%ADD14O,1.700000X1.200000*%
%ADD15RoundRect,0.153846X0.246154X-0.396154X0.246154X0.396154X-0.246154X0.396154X-0.246154X-0.396154X0*%
%ADD16R,0.850000X0.850000*%
G04 APERTURE END LIST*
D10*
%TO.C,J3*%
X104025000Y-105130000D03*
D11*
X103390000Y-106400000D03*
X102755000Y-105130000D03*
X102120000Y-106400000D03*
X101485000Y-105130000D03*
X100850000Y-106400000D03*
X100215000Y-105130000D03*
X99580000Y-106400000D03*
X98945000Y-105130000D03*
X98310000Y-106400000D03*
X97675000Y-105130000D03*
X97040000Y-106400000D03*
X96405000Y-105130000D03*
%TD*%
D12*
%TO.C,J6*%
X94500000Y-98700000D03*
X105500000Y-98700000D03*
D13*
X97250000Y-98250000D03*
X97750000Y-98250000D03*
X98250000Y-98250000D03*
X98750000Y-98250000D03*
X99250000Y-98250000D03*
X99750000Y-98250000D03*
X100250000Y-98250000D03*
X100750000Y-98250000D03*
X101250000Y-98250000D03*
X101750000Y-98250000D03*
X102250000Y-98250000D03*
X102750000Y-98250000D03*
X102750000Y-101750000D03*
X102250000Y-101750000D03*
X101750000Y-101750000D03*
X101250000Y-101750000D03*
X100750000Y-101750000D03*
X100250000Y-101750000D03*
X99750000Y-101750000D03*
X99250000Y-101750000D03*
X98750000Y-101750000D03*
X98250000Y-101750000D03*
X97750000Y-101750000D03*
X97250000Y-101750000D03*
D14*
X95900000Y-98530000D03*
X104100000Y-101470000D03*
X104100000Y-98530000D03*
X95900000Y-101470000D03*
%TD*%
D15*
%TO.C,J4*%
X96160000Y-94780000D03*
D11*
X96795000Y-93510000D03*
X97430000Y-94780000D03*
X98065000Y-93510000D03*
X98700000Y-94780000D03*
X99335000Y-93510000D03*
X99970000Y-94780000D03*
X100605000Y-93510000D03*
X101240000Y-94780000D03*
X101875000Y-93510000D03*
X102510000Y-94780000D03*
X103145000Y-93510000D03*
X103780000Y-94780000D03*
%TD*%
D16*
%TO.C,J1*%
X93140000Y-99890000D03*
%TD*%
M02*
