M48
; DRILL file {KiCad (6.0.2)} date Sat Jun  4 16:58:02 2022
; FORMAT={-:-/ absolute / metric / decimal}
; #@! TF.CreationDate,2022-06-04T16:58:02+03:00
; #@! TF.GenerationSoftware,Kicad,Pcbnew,(6.0.2)
; #@! TF.FileFunction,Plated,1,2,PTH
FMAT,2
METRIC
; #@! TA.AperFunction,Plated,PTH,ViaDrill
T1C0.400
; #@! TA.AperFunction,Plated,PTH,ComponentDrill
T2C0.500
; #@! TA.AperFunction,Plated,PTH,ComponentDrill
T3C0.800
%
G90
G05
T1
X144.39Y-85.5
X144.46Y-89.2
X145.26Y-83.71
X145.86Y-90.85
X145.97Y-84.88
X146.12Y-82.47
X146.31Y-92.67
X147.58Y-90.75
X147.718Y-87.172
X148.737Y-87.11
X149.663Y-87.11
X149.93Y-91.43
X150.71Y-87.15
X151.67Y-87.51
X152.737Y-87.497
X153.51Y-91.39
X153.663Y-87.497
X154.71Y-84.59
X154.71Y-87.49
X156.28Y-82.5
X156.69Y-91.89
X157.08Y-84.48
X157.24Y-90.38
X157.38Y-87.61
T2
X144.34Y-87.39
X147.36Y-82.28
X147.605Y-92.63
X147.995Y-81.01
X148.24Y-93.9
X148.63Y-82.28
X148.875Y-92.63
X149.265Y-81.01
X149.51Y-93.9
X149.9Y-82.28
X150.145Y-92.63
X150.535Y-81.01
X150.78Y-93.9
X151.17Y-82.28
X151.415Y-92.63
X151.805Y-81.01
X152.05Y-93.9
X152.44Y-82.28
X152.685Y-92.63
X153.075Y-81.01
X153.32Y-93.9
X153.71Y-82.28
X153.955Y-92.63
X154.345Y-81.01
X154.59Y-93.9
X154.98Y-82.28
X155.225Y-92.63
T3
G00X146.85Y-86.03
M15
G01X147.35Y-86.03
M16
G05
G00X146.85Y-88.97
M15
G01X147.35Y-88.97
M16
G05
G00X155.05Y-86.03
M15
G01X155.55Y-86.03
M16
G05
G00X155.05Y-88.97
M15
G01X155.55Y-88.97
M16
G05
T0
M30
