M48
; DRILL file {KiCad (6.0.2)} date Mon Jun  6 09:31:26 2022
; FORMAT={-:-/ absolute / metric / decimal}
; #@! TF.CreationDate,2022-06-06T09:31:26+03:00
; #@! TF.GenerationSoftware,Kicad,Pcbnew,(6.0.2)
; #@! TF.FileFunction,Plated,1,2,PTH
FMAT,2
METRIC
; #@! TA.AperFunction,Plated,PTH,ViaDrill
T1C0.400
; #@! TA.AperFunction,Plated,PTH,ComponentDrill
T2C0.500
; #@! TA.AperFunction,Plated,PTH,ComponentDrill
T3C0.800
%
G90
G05
T1
X93.19Y-98.0
X93.26Y-101.7
X94.06Y-96.21
X94.66Y-103.35
X94.77Y-97.38
X94.92Y-94.97
X95.11Y-105.17
X96.38Y-103.25
X96.53Y-100.01
X97.536Y-100.003
X98.463Y-100.003
X99.54Y-100.01
X99.62Y-103.78
X100.47Y-100.01
X101.536Y-99.997
X102.31Y-103.89
X102.463Y-99.997
X103.51Y-97.09
X103.51Y-99.99
X105.08Y-95.0
X105.49Y-104.39
X105.88Y-96.98
X106.04Y-102.88
X106.18Y-100.11
T2
X93.14Y-99.89
X96.16Y-94.78
X96.405Y-105.13
X96.795Y-93.51
X97.04Y-106.4
X97.43Y-94.78
X97.675Y-105.13
X98.065Y-93.51
X98.31Y-106.4
X98.7Y-94.78
X98.945Y-105.13
X99.335Y-93.51
X99.58Y-106.4
X99.97Y-94.78
X100.215Y-105.13
X100.605Y-93.51
X100.85Y-106.4
X101.24Y-94.78
X101.485Y-105.13
X101.875Y-93.51
X102.12Y-106.4
X102.51Y-94.78
X102.755Y-105.13
X103.145Y-93.51
X103.39Y-106.4
X103.78Y-94.78
X104.025Y-105.13
T3
G00X95.65Y-98.53
M15
G01X96.15Y-98.53
M16
G05
G00X95.65Y-101.47
M15
G01X96.15Y-101.47
M16
G05
G00X103.85Y-98.53
M15
G01X104.35Y-98.53
M16
G05
G00X103.85Y-101.47
M15
G01X104.35Y-101.47
M16
G05
T0
M30
