%TF.GenerationSoftware,KiCad,Pcbnew,(6.0.2)*%
%TF.CreationDate,2022-06-06T08:56:34+03:00*%
%TF.ProjectId,TypeC_Bulgin_PCB,54797065-435f-4427-956c-67696e5f5043,rev?*%
%TF.SameCoordinates,Original*%
%TF.FileFunction,Copper,L2,Bot*%
%TF.FilePolarity,Positive*%
%FSLAX46Y46*%
G04 Gerber Fmt 4.6, Leading zero omitted, Abs format (unit mm)*
G04 Created by KiCad (PCBNEW (6.0.2)) date 2022-06-06 08:56:34*
%MOMM*%
%LPD*%
G01*
G04 APERTURE LIST*
G04 Aperture macros list*
%AMRoundRect*
0 Rectangle with rounded corners*
0 $1 Rounding radius*
0 $2 $3 $4 $5 $6 $7 $8 $9 X,Y pos of 4 corners*
0 Add a 4 corners polygon primitive as box body*
4,1,4,$2,$3,$4,$5,$6,$7,$8,$9,$2,$3,0*
0 Add four circle primitives for the rounded corners*
1,1,$1+$1,$2,$3*
1,1,$1+$1,$4,$5*
1,1,$1+$1,$6,$7*
1,1,$1+$1,$8,$9*
0 Add four rect primitives between the rounded corners*
20,1,$1+$1,$2,$3,$4,$5,0*
20,1,$1+$1,$4,$5,$6,$7,0*
20,1,$1+$1,$6,$7,$8,$9,0*
20,1,$1+$1,$8,$9,$2,$3,0*%
G04 Aperture macros list end*
%TA.AperFunction,ComponentPad*%
%ADD10RoundRect,0.153846X-0.246154X0.396154X-0.246154X-0.396154X0.246154X-0.396154X0.246154X0.396154X0*%
%TD*%
%TA.AperFunction,ComponentPad*%
%ADD11O,0.800000X1.200000*%
%TD*%
%TA.AperFunction,ComponentPad*%
%ADD12O,1.700000X1.200000*%
%TD*%
%TA.AperFunction,ComponentPad*%
%ADD13RoundRect,0.153846X0.246154X-0.396154X0.246154X0.396154X-0.246154X0.396154X-0.246154X-0.396154X0*%
%TD*%
%TA.AperFunction,ComponentPad*%
%ADD14R,0.850000X0.850000*%
%TD*%
%TA.AperFunction,ViaPad*%
%ADD15C,0.800000*%
%TD*%
%TA.AperFunction,Conductor*%
%ADD16C,0.112000*%
%TD*%
%TA.AperFunction,Conductor*%
%ADD17C,0.800000*%
%TD*%
G04 APERTURE END LIST*
D10*
%TO.P,J3,1,Pin_1*%
%TO.N,VBUS*%
X104025000Y-105130000D03*
D11*
%TO.P,J3,2,Pin_2*%
X103390000Y-106400000D03*
%TO.P,J3,3,Pin_3*%
%TO.N,unconnected-(J3-Pad3)*%
X102755000Y-105130000D03*
%TO.P,J3,4,Pin_4*%
%TO.N,GND*%
X102120000Y-106400000D03*
%TO.P,J3,5,Pin_5*%
%TO.N,TX1+*%
X101485000Y-105130000D03*
%TO.P,J3,6,Pin_6*%
%TO.N,TX1-*%
X100850000Y-106400000D03*
%TO.P,J3,7,Pin_7*%
%TO.N,GND*%
X100215000Y-105130000D03*
%TO.P,J3,8,Pin_8*%
%TO.N,unconnected-(J3-Pad8)*%
X99580000Y-106400000D03*
%TO.P,J3,9,Pin_9*%
%TO.N,unconnected-(J3-Pad9)*%
X98945000Y-105130000D03*
%TO.P,J3,10,Pin_10*%
%TO.N,GND*%
X98310000Y-106400000D03*
%TO.P,J3,11,Pin_11*%
%TO.N,RX1-*%
X97675000Y-105130000D03*
%TO.P,J3,12,Pin_12*%
%TO.N,RX1+*%
X97040000Y-106400000D03*
%TO.P,J3,13,Pin_13*%
%TO.N,GND*%
X96405000Y-105130000D03*
%TD*%
D12*
%TO.P,J6,S1,SHIELD*%
%TO.N,Net-(J1-Pad1)*%
X95900000Y-98530000D03*
X104100000Y-101470000D03*
X104100000Y-98530000D03*
X95900000Y-101470000D03*
%TD*%
D13*
%TO.P,J4,1,Pin_1*%
%TO.N,VBUS*%
X96160000Y-94780000D03*
D11*
%TO.P,J4,2,Pin_2*%
X96795000Y-93510000D03*
%TO.P,J4,3,Pin_3*%
%TO.N,unconnected-(J4-Pad3)*%
X97430000Y-94780000D03*
%TO.P,J4,4,Pin_4*%
%TO.N,GND*%
X98065000Y-93510000D03*
%TO.P,J4,5,Pin_5*%
%TO.N,TX2+*%
X98700000Y-94780000D03*
%TO.P,J4,6,Pin_6*%
%TO.N,TX2-*%
X99335000Y-93510000D03*
%TO.P,J4,7,Pin_7*%
%TO.N,GND*%
X99970000Y-94780000D03*
%TO.P,J4,8,Pin_8*%
%TO.N,unconnected-(J4-Pad8)*%
X100605000Y-93510000D03*
%TO.P,J4,9,Pin_9*%
%TO.N,unconnected-(J4-Pad9)*%
X101240000Y-94780000D03*
%TO.P,J4,10,Pin_10*%
%TO.N,GND*%
X101875000Y-93510000D03*
%TO.P,J4,11,Pin_11*%
%TO.N,RX2-*%
X102510000Y-94780000D03*
%TO.P,J4,12,Pin_12*%
%TO.N,RX2+*%
X103145000Y-93510000D03*
%TO.P,J4,13,Pin_13*%
%TO.N,GND*%
X103780000Y-94780000D03*
%TD*%
D14*
%TO.P,J1,1,Pin_1*%
%TO.N,Net-(J1-Pad1)*%
X93140000Y-99890000D03*
%TD*%
D15*
%TO.N,GND*%
X105080000Y-95000000D03*
X106040000Y-102880000D03*
X94060000Y-96210000D03*
X106180000Y-100110000D03*
X96517610Y-99671781D03*
X105490000Y-104390000D03*
X102310000Y-103890000D03*
X103510000Y-97090000D03*
X103510000Y-99990000D03*
X96380000Y-103250000D03*
X94770000Y-97380000D03*
X105880000Y-96980000D03*
X99510000Y-99650000D03*
X98730000Y-103930000D03*
X93190000Y-98000000D03*
X95110000Y-105170000D03*
X94660000Y-103350000D03*
X93260000Y-101700000D03*
X94920000Y-94970000D03*
X100470000Y-100010000D03*
%TO.N,TX1-*%
X97536500Y-99609772D03*
%TO.N,TX1+*%
X98463500Y-99609772D03*
%TO.N,TX2-*%
X102463500Y-99996990D03*
%TO.N,TX2+*%
X101536500Y-99996990D03*
%TD*%
D16*
%TO.N,TX1-*%
X97880500Y-100519500D02*
X97880500Y-99953772D01*
X100850000Y-103489000D02*
X97880500Y-100519500D01*
X97880500Y-99953772D02*
X97536500Y-99609772D01*
X100850000Y-106400000D02*
X100850000Y-103489000D01*
%TO.N,TX1+*%
X101089001Y-103390001D02*
X100994500Y-103295500D01*
X98119500Y-99953772D02*
X98463500Y-99609772D01*
X98119500Y-100420500D02*
X98119500Y-99953772D01*
X101089001Y-104734001D02*
X101089001Y-103390001D01*
X100341632Y-102285251D02*
X100281735Y-102345147D01*
X100816808Y-102760427D02*
X100756911Y-102820323D01*
X100519323Y-102582737D02*
X100519324Y-102582736D01*
X100994500Y-103057912D02*
X101054396Y-102998015D01*
X100519323Y-102820323D02*
X100519324Y-102820324D01*
X100044147Y-102345147D02*
X100044148Y-102345148D01*
X100044148Y-102345148D02*
X98119500Y-100420500D01*
X100816809Y-102760426D02*
X100816808Y-102760427D01*
X100994499Y-103057913D02*
X100994500Y-103057912D01*
X101485000Y-105130000D02*
X101089001Y-104734001D01*
X100519324Y-102582736D02*
X100579220Y-102522839D01*
X100341633Y-102285250D02*
X100341632Y-102285251D01*
X100994499Y-103057913D02*
G75*
G03*
X100994500Y-103295500I118795J-118793D01*
G01*
X100519323Y-102582737D02*
G75*
G03*
X100519324Y-102820324I118795J-118793D01*
G01*
X100044147Y-102345147D02*
G75*
G03*
X100281735Y-102345147I118794J118794D01*
G01*
X100341633Y-102285250D02*
G75*
G02*
X100579220Y-102285251I118793J-118795D01*
G01*
X101054396Y-102760427D02*
G75*
G02*
X101054396Y-102998015I-118794J-118794D01*
G01*
X100816809Y-102760426D02*
G75*
G02*
X101054396Y-102760427I118793J-118795D01*
G01*
X100579220Y-102285251D02*
G75*
G02*
X100579220Y-102522839I-118794J-118794D01*
G01*
X100519323Y-102820323D02*
G75*
G03*
X100756911Y-102820323I118794J118794D01*
G01*
%TO.N,TX2-*%
X102463500Y-99996990D02*
X102119500Y-99652990D01*
X102119500Y-99150500D02*
X99335000Y-96366000D01*
X99335000Y-96366000D02*
X99335000Y-93510000D01*
X102119500Y-99652990D02*
X102119500Y-99150500D01*
%TO.N,TX2+*%
X98700000Y-94780000D02*
X99095999Y-95175999D01*
X99200499Y-96807087D02*
X99200500Y-96807087D01*
X99675675Y-97282262D02*
X99615778Y-97342158D01*
X100150849Y-97519849D02*
X100150850Y-97519850D01*
X99378190Y-97104571D02*
X99438086Y-97044674D01*
X99200500Y-96807087D02*
X99140603Y-96866983D01*
X99378190Y-97104570D02*
X99378190Y-97104571D01*
X99853365Y-97579745D02*
X99853365Y-97579746D01*
X99675674Y-97044674D02*
X99675675Y-97044675D01*
X99095999Y-95175999D02*
X99095999Y-96464999D01*
X100150850Y-97519850D02*
X101880500Y-99249500D01*
X99095999Y-96464999D02*
X99200500Y-96569500D01*
X99675674Y-97282262D02*
X99675675Y-97282262D01*
X101880500Y-99249500D02*
X101880500Y-99652990D01*
X101880500Y-99652990D02*
X101536500Y-99996990D01*
X99853365Y-97579746D02*
X99913261Y-97519849D01*
X99853365Y-97579745D02*
G75*
G02*
X99615778Y-97579746I-118794J118794D01*
G01*
X99675674Y-97044674D02*
G75*
G03*
X99438086Y-97044674I-118794J-118794D01*
G01*
X99140603Y-97104571D02*
G75*
G02*
X99140603Y-96866983I118794J118794D01*
G01*
X99200499Y-96807087D02*
G75*
G03*
X99200500Y-96569500I-118794J118794D01*
G01*
X99378190Y-97104570D02*
G75*
G02*
X99140603Y-97104571I-118794J118794D01*
G01*
X100150849Y-97519849D02*
G75*
G03*
X99913261Y-97519849I-118794J-118794D01*
G01*
X99615778Y-97579746D02*
G75*
G02*
X99615778Y-97342158I118794J118794D01*
G01*
X99675674Y-97282262D02*
G75*
G03*
X99675675Y-97044675I-118794J118794D01*
G01*
D17*
%TO.N,Net-(J1-Pad1)*%
X95900000Y-100610000D02*
X95900000Y-101470000D01*
X95180000Y-99890000D02*
X95399521Y-99670479D01*
X93140000Y-99890000D02*
X95180000Y-99890000D01*
X95399521Y-99670479D02*
X95399521Y-99030479D01*
X95180000Y-99890000D02*
X95900000Y-100610000D01*
X95399521Y-99030479D02*
X95900000Y-98530000D01*
%TD*%
%TA.AperFunction,Conductor*%
%TO.N,GND*%
G36*
X100086786Y-92011127D02*
G01*
X102514196Y-92414096D01*
X102522930Y-92416389D01*
X102708939Y-92484091D01*
X102715485Y-92487033D01*
X102877561Y-92574662D01*
X103065165Y-92676094D01*
X103088816Y-92705196D01*
X103084962Y-92742501D01*
X103055859Y-92766153D01*
X103051547Y-92767228D01*
X102962257Y-92785233D01*
X102959281Y-92786749D01*
X102959279Y-92786750D01*
X102830848Y-92852188D01*
X102830845Y-92852190D01*
X102827868Y-92853707D01*
X102716844Y-92955799D01*
X102715085Y-92958636D01*
X102653230Y-93058399D01*
X102637365Y-93083986D01*
X102636434Y-93087189D01*
X102636434Y-93087190D01*
X102614115Y-93164014D01*
X102595285Y-93228825D01*
X102595097Y-93231389D01*
X102595096Y-93231393D01*
X102594823Y-93235122D01*
X102594500Y-93239515D01*
X102594500Y-93747785D01*
X102594726Y-93749432D01*
X102594726Y-93749438D01*
X102600083Y-93788540D01*
X102609794Y-93859432D01*
X102611121Y-93862498D01*
X102611121Y-93862499D01*
X102656269Y-93966830D01*
X102656858Y-94004328D01*
X102630759Y-94031260D01*
X102607710Y-94035158D01*
X102554630Y-94031260D01*
X102475109Y-94025420D01*
X102416392Y-94037260D01*
X102379592Y-94030040D01*
X102358675Y-93998913D01*
X102365063Y-93963407D01*
X102380413Y-93938650D01*
X102383106Y-93932598D01*
X102423498Y-93793567D01*
X102424403Y-93788540D01*
X102424933Y-93781319D01*
X102425000Y-93779508D01*
X102425000Y-93644747D01*
X102422145Y-93637855D01*
X102415253Y-93635000D01*
X102009747Y-93635000D01*
X102002855Y-93637855D01*
X102000000Y-93644747D01*
X102000000Y-94236152D01*
X102002855Y-94243044D01*
X102003910Y-94243481D01*
X102030428Y-94270000D01*
X102030428Y-94307503D01*
X102026805Y-94314568D01*
X102019265Y-94326729D01*
X102004125Y-94351148D01*
X102002365Y-94353986D01*
X102001434Y-94357189D01*
X102001434Y-94357190D01*
X101979115Y-94434014D01*
X101960285Y-94498825D01*
X101960097Y-94501389D01*
X101960096Y-94501393D01*
X101959823Y-94505122D01*
X101959500Y-94509515D01*
X101959500Y-95017785D01*
X101959726Y-95019432D01*
X101959726Y-95019438D01*
X101965083Y-95058540D01*
X101974794Y-95129432D01*
X101976121Y-95132498D01*
X101976121Y-95132499D01*
X102027293Y-95250749D01*
X102034695Y-95267855D01*
X102129614Y-95385070D01*
X102252558Y-95472442D01*
X102255698Y-95473573D01*
X102255701Y-95473574D01*
X102391326Y-95522402D01*
X102391327Y-95522402D01*
X102394468Y-95523533D01*
X102397796Y-95523777D01*
X102397799Y-95523778D01*
X102477532Y-95529633D01*
X102544891Y-95534580D01*
X102548164Y-95533920D01*
X102548165Y-95533920D01*
X102689467Y-95505428D01*
X102689470Y-95505427D01*
X102692743Y-95504767D01*
X102695719Y-95503251D01*
X102695721Y-95503250D01*
X102824152Y-95437812D01*
X102824155Y-95437810D01*
X102827132Y-95436293D01*
X102832210Y-95431624D01*
X102882836Y-95385070D01*
X102938156Y-95334201D01*
X102991986Y-95247382D01*
X103015878Y-95208848D01*
X103015878Y-95208847D01*
X103017635Y-95206014D01*
X103018566Y-95202810D01*
X103058997Y-95063647D01*
X103058997Y-95063645D01*
X103059715Y-95061175D01*
X103059909Y-95058540D01*
X103060433Y-95051392D01*
X103060500Y-95050485D01*
X103060500Y-95016078D01*
X103230000Y-95016078D01*
X103230226Y-95019402D01*
X103244827Y-95125986D01*
X103246607Y-95132363D01*
X103303800Y-95264528D01*
X103307229Y-95270190D01*
X103397858Y-95382107D01*
X103402681Y-95386636D01*
X103520069Y-95470060D01*
X103525934Y-95473126D01*
X103645829Y-95516291D01*
X103653282Y-95515940D01*
X103655000Y-95514051D01*
X103655000Y-95506152D01*
X103905000Y-95506152D01*
X103907855Y-95513044D01*
X103911556Y-95514577D01*
X103959302Y-95504950D01*
X103965555Y-95502773D01*
X104093864Y-95437397D01*
X104099304Y-95433616D01*
X104205309Y-95336139D01*
X104209526Y-95331042D01*
X104285414Y-95208646D01*
X104288106Y-95202598D01*
X104328498Y-95063567D01*
X104329403Y-95058540D01*
X104329933Y-95051319D01*
X104330000Y-95049508D01*
X104330000Y-94914747D01*
X104327145Y-94907855D01*
X104320253Y-94905000D01*
X103914747Y-94905000D01*
X103907855Y-94907855D01*
X103905000Y-94914747D01*
X103905000Y-95506152D01*
X103655000Y-95506152D01*
X103655000Y-94914747D01*
X103652145Y-94907855D01*
X103645253Y-94905000D01*
X103239747Y-94905000D01*
X103232855Y-94907855D01*
X103230000Y-94914747D01*
X103230000Y-95016078D01*
X103060500Y-95016078D01*
X103060500Y-94542215D01*
X103056155Y-94510492D01*
X103045659Y-94433878D01*
X103045206Y-94430568D01*
X103013544Y-94357402D01*
X102998731Y-94323170D01*
X102998142Y-94285672D01*
X103024241Y-94258740D01*
X103047290Y-94254842D01*
X103092322Y-94258149D01*
X103179891Y-94264580D01*
X103238608Y-94252740D01*
X103275408Y-94259960D01*
X103296325Y-94291087D01*
X103289937Y-94326593D01*
X103274587Y-94351350D01*
X103271894Y-94357402D01*
X103231502Y-94496433D01*
X103230597Y-94501460D01*
X103230067Y-94508681D01*
X103230000Y-94510492D01*
X103230000Y-94645253D01*
X103232855Y-94652145D01*
X103239747Y-94655000D01*
X103645253Y-94655000D01*
X103652145Y-94652145D01*
X103655000Y-94645253D01*
X103905000Y-94645253D01*
X103907855Y-94652145D01*
X103914747Y-94655000D01*
X104320253Y-94655000D01*
X104327145Y-94652145D01*
X104330000Y-94645253D01*
X104330000Y-94543922D01*
X104329774Y-94540598D01*
X104315173Y-94434014D01*
X104313393Y-94427637D01*
X104256200Y-94295472D01*
X104252771Y-94289810D01*
X104162142Y-94177893D01*
X104157319Y-94173364D01*
X104039931Y-94089940D01*
X104034066Y-94086874D01*
X103914171Y-94043709D01*
X103906718Y-94044060D01*
X103905000Y-94045949D01*
X103905000Y-94645253D01*
X103655000Y-94645253D01*
X103655000Y-94053848D01*
X103652145Y-94046956D01*
X103651090Y-94046519D01*
X103624572Y-94020000D01*
X103624572Y-93982497D01*
X103628197Y-93975428D01*
X103635651Y-93963407D01*
X103644521Y-93949101D01*
X103650878Y-93938848D01*
X103650878Y-93938847D01*
X103652635Y-93936014D01*
X103653566Y-93932810D01*
X103693997Y-93793647D01*
X103693997Y-93793645D01*
X103694715Y-93791175D01*
X103694909Y-93788540D01*
X103695433Y-93781392D01*
X103695500Y-93780485D01*
X103695500Y-93272215D01*
X103691155Y-93240492D01*
X103680659Y-93163878D01*
X103680206Y-93160568D01*
X103650569Y-93092081D01*
X103649980Y-93054583D01*
X103676079Y-93027651D01*
X103713577Y-93027062D01*
X103718837Y-93029515D01*
X104692613Y-93556006D01*
X104705635Y-93566225D01*
X106513388Y-95563271D01*
X106605457Y-95664981D01*
X106613011Y-95676059D01*
X107417030Y-97294024D01*
X107421263Y-97306559D01*
X107612672Y-98300824D01*
X107778982Y-99164714D01*
X107779846Y-99175376D01*
X107760387Y-99856465D01*
X107740379Y-100556763D01*
X107740086Y-100567001D01*
X107739549Y-100572964D01*
X107480895Y-102274115D01*
X107477722Y-102285499D01*
X106935396Y-103594831D01*
X106814839Y-103885889D01*
X106812004Y-103891638D01*
X106745765Y-104006368D01*
X106739726Y-104014675D01*
X104975828Y-105971350D01*
X104952960Y-105996717D01*
X104946496Y-106002703D01*
X104155434Y-106612951D01*
X104151471Y-106615708D01*
X104015466Y-106700693D01*
X103978477Y-106706883D01*
X103947946Y-106685105D01*
X103940500Y-106659139D01*
X103940500Y-106162215D01*
X103936155Y-106130492D01*
X103925659Y-106053878D01*
X103925206Y-106050568D01*
X103893544Y-105977402D01*
X103866632Y-105915211D01*
X103866631Y-105915210D01*
X103865305Y-105912145D01*
X103863203Y-105909550D01*
X103861472Y-105906691D01*
X103862565Y-105906029D01*
X103853190Y-105874377D01*
X103871085Y-105841419D01*
X103901921Y-105830500D01*
X104309186Y-105830499D01*
X104316374Y-105830499D01*
X104342907Y-105827343D01*
X104346264Y-105825852D01*
X104346267Y-105825851D01*
X104442389Y-105783155D01*
X104442390Y-105783154D01*
X104446524Y-105781318D01*
X104449719Y-105778117D01*
X104449721Y-105778116D01*
X104520155Y-105707558D01*
X104526624Y-105701078D01*
X104530802Y-105691629D01*
X104541709Y-105666956D01*
X104572468Y-105597382D01*
X104575500Y-105571375D01*
X104575499Y-104688626D01*
X104572343Y-104662093D01*
X104564961Y-104645472D01*
X104528155Y-104562611D01*
X104528154Y-104562610D01*
X104526318Y-104558476D01*
X104523117Y-104555281D01*
X104523116Y-104555279D01*
X104449592Y-104481884D01*
X104446078Y-104478376D01*
X104441573Y-104476384D01*
X104359138Y-104439940D01*
X104342382Y-104432532D01*
X104338726Y-104432106D01*
X104338723Y-104432105D01*
X104329175Y-104430992D01*
X104316375Y-104429500D01*
X104028050Y-104429500D01*
X103733626Y-104429501D01*
X103707093Y-104432657D01*
X103703736Y-104434148D01*
X103703733Y-104434149D01*
X103607611Y-104476845D01*
X103607610Y-104476846D01*
X103603476Y-104478682D01*
X103600281Y-104481883D01*
X103600279Y-104481884D01*
X103582746Y-104499448D01*
X103523376Y-104558922D01*
X103477532Y-104662618D01*
X103474500Y-104688625D01*
X103474501Y-105571374D01*
X103474672Y-105572809D01*
X103474672Y-105572814D01*
X103477419Y-105595911D01*
X103467260Y-105632012D01*
X103434549Y-105650355D01*
X103425176Y-105650566D01*
X103355109Y-105645420D01*
X103297066Y-105657124D01*
X103260265Y-105649904D01*
X103239348Y-105618777D01*
X103245736Y-105583271D01*
X103260876Y-105558852D01*
X103260878Y-105558848D01*
X103262635Y-105556014D01*
X103263566Y-105552810D01*
X103303997Y-105413647D01*
X103303997Y-105413645D01*
X103304715Y-105411175D01*
X103304909Y-105408540D01*
X103305433Y-105401392D01*
X103305500Y-105400485D01*
X103305500Y-104892215D01*
X103301155Y-104860492D01*
X103290659Y-104783878D01*
X103290206Y-104780568D01*
X103258544Y-104707402D01*
X103231632Y-104645211D01*
X103231631Y-104645210D01*
X103230305Y-104642145D01*
X103135386Y-104524930D01*
X103012442Y-104437558D01*
X103009302Y-104436427D01*
X103009299Y-104436426D01*
X102873674Y-104387598D01*
X102873673Y-104387598D01*
X102870532Y-104386467D01*
X102867204Y-104386223D01*
X102867201Y-104386222D01*
X102787468Y-104380367D01*
X102720109Y-104375420D01*
X102716836Y-104376080D01*
X102716835Y-104376080D01*
X102575533Y-104404572D01*
X102575530Y-104404573D01*
X102572257Y-104405233D01*
X102569281Y-104406749D01*
X102569279Y-104406750D01*
X102440848Y-104472188D01*
X102440845Y-104472190D01*
X102437868Y-104473707D01*
X102435408Y-104475969D01*
X102432458Y-104478682D01*
X102326844Y-104575799D01*
X102325085Y-104578636D01*
X102256889Y-104688626D01*
X102247365Y-104703986D01*
X102246434Y-104707189D01*
X102246434Y-104707190D01*
X102224115Y-104784014D01*
X102205285Y-104848825D01*
X102205097Y-104851389D01*
X102205096Y-104851393D01*
X102204823Y-104855122D01*
X102204500Y-104859515D01*
X102204500Y-105367785D01*
X102204726Y-105369432D01*
X102204726Y-105369438D01*
X102210083Y-105408540D01*
X102219794Y-105479432D01*
X102266288Y-105586872D01*
X102270474Y-105596546D01*
X102271063Y-105634044D01*
X102258330Y-105647183D01*
X102260379Y-105649047D01*
X102245000Y-105665949D01*
X102245000Y-106265253D01*
X102247855Y-106272145D01*
X102254747Y-106275000D01*
X102660253Y-106275000D01*
X102667145Y-106272145D01*
X102670000Y-106265253D01*
X102670000Y-106163922D01*
X102669774Y-106160598D01*
X102655173Y-106054014D01*
X102653393Y-106047637D01*
X102608168Y-105943128D01*
X102607579Y-105905630D01*
X102633678Y-105878698D01*
X102656725Y-105874800D01*
X102789891Y-105884580D01*
X102847934Y-105872876D01*
X102884735Y-105880096D01*
X102905652Y-105911223D01*
X102899264Y-105946729D01*
X102884124Y-105971148D01*
X102884122Y-105971152D01*
X102882365Y-105973986D01*
X102881434Y-105977189D01*
X102881434Y-105977190D01*
X102847840Y-106092822D01*
X102840285Y-106118825D01*
X102840097Y-106121389D01*
X102840096Y-106121393D01*
X102839891Y-106124188D01*
X102839500Y-106129515D01*
X102839500Y-106637785D01*
X102839726Y-106639432D01*
X102839726Y-106639438D01*
X102845083Y-106678540D01*
X102854794Y-106749432D01*
X102856121Y-106752498D01*
X102856121Y-106752499D01*
X102886548Y-106822810D01*
X102914695Y-106887855D01*
X103009614Y-107005070D01*
X103069926Y-107047932D01*
X103099832Y-107069185D01*
X103119761Y-107100954D01*
X103111388Y-107137511D01*
X103090626Y-107154217D01*
X102939875Y-107218329D01*
X102720464Y-107311641D01*
X102718046Y-107312594D01*
X102516734Y-107385866D01*
X102442835Y-107412763D01*
X102439597Y-107413815D01*
X102227641Y-107474593D01*
X101912824Y-107564865D01*
X101909506Y-107565692D01*
X101741001Y-107601509D01*
X101736813Y-107602211D01*
X100622991Y-107739631D01*
X100616991Y-107740000D01*
X99058661Y-107740000D01*
X99051841Y-107739523D01*
X98763040Y-107698934D01*
X98758225Y-107698010D01*
X97489948Y-107387987D01*
X97484824Y-107386433D01*
X97092574Y-107243666D01*
X97064924Y-107218329D01*
X97063288Y-107180862D01*
X97088625Y-107153212D01*
X97099648Y-107149588D01*
X97219467Y-107125428D01*
X97219470Y-107125427D01*
X97222743Y-107124767D01*
X97225719Y-107123251D01*
X97225721Y-107123250D01*
X97354152Y-107057812D01*
X97354155Y-107057810D01*
X97357132Y-107056293D01*
X97468156Y-106954201D01*
X97547635Y-106826014D01*
X97548566Y-106822810D01*
X97588997Y-106683647D01*
X97588997Y-106683645D01*
X97589715Y-106681175D01*
X97589909Y-106678540D01*
X97590433Y-106671392D01*
X97590500Y-106670485D01*
X97590500Y-106636078D01*
X97760000Y-106636078D01*
X97760226Y-106639402D01*
X97774827Y-106745986D01*
X97776607Y-106752363D01*
X97833800Y-106884528D01*
X97837229Y-106890190D01*
X97927858Y-107002107D01*
X97932681Y-107006636D01*
X98050069Y-107090060D01*
X98055934Y-107093126D01*
X98175829Y-107136291D01*
X98183282Y-107135940D01*
X98185000Y-107134051D01*
X98185000Y-107126152D01*
X98435000Y-107126152D01*
X98437855Y-107133044D01*
X98441556Y-107134577D01*
X98489302Y-107124950D01*
X98495555Y-107122773D01*
X98623864Y-107057397D01*
X98629304Y-107053616D01*
X98735309Y-106956139D01*
X98739526Y-106951042D01*
X98815414Y-106828646D01*
X98818106Y-106822598D01*
X98858498Y-106683567D01*
X98859403Y-106678540D01*
X98859933Y-106671319D01*
X98860000Y-106669508D01*
X98860000Y-106534747D01*
X98857145Y-106527855D01*
X98850253Y-106525000D01*
X98444747Y-106525000D01*
X98437855Y-106527855D01*
X98435000Y-106534747D01*
X98435000Y-107126152D01*
X98185000Y-107126152D01*
X98185000Y-106534747D01*
X98182145Y-106527855D01*
X98175253Y-106525000D01*
X97769747Y-106525000D01*
X97762855Y-106527855D01*
X97760000Y-106534747D01*
X97760000Y-106636078D01*
X97590500Y-106636078D01*
X97590500Y-106162215D01*
X97586155Y-106130492D01*
X97575659Y-106053878D01*
X97575206Y-106050568D01*
X97554493Y-106002703D01*
X97528731Y-105943170D01*
X97528142Y-105905672D01*
X97554241Y-105878740D01*
X97577290Y-105874842D01*
X97622322Y-105878149D01*
X97709891Y-105884580D01*
X97768608Y-105872740D01*
X97805408Y-105879960D01*
X97826325Y-105911087D01*
X97819937Y-105946593D01*
X97804587Y-105971350D01*
X97801894Y-105977402D01*
X97761502Y-106116433D01*
X97760597Y-106121460D01*
X97760067Y-106128681D01*
X97760000Y-106130492D01*
X97760000Y-106265253D01*
X97762855Y-106272145D01*
X97769747Y-106275000D01*
X98175253Y-106275000D01*
X98182145Y-106272145D01*
X98185000Y-106265253D01*
X98185000Y-105673848D01*
X98182145Y-105666956D01*
X98181090Y-105666519D01*
X98154572Y-105640000D01*
X98154572Y-105602497D01*
X98158197Y-105595428D01*
X98159255Y-105593723D01*
X98174521Y-105569101D01*
X98180878Y-105558848D01*
X98180878Y-105558847D01*
X98182635Y-105556014D01*
X98183566Y-105552810D01*
X98223997Y-105413647D01*
X98223997Y-105413645D01*
X98224715Y-105411175D01*
X98224909Y-105408540D01*
X98225433Y-105401392D01*
X98225500Y-105400485D01*
X98225500Y-105367785D01*
X98394500Y-105367785D01*
X98394726Y-105369432D01*
X98394726Y-105369438D01*
X98400083Y-105408540D01*
X98409794Y-105479432D01*
X98456288Y-105586872D01*
X98460474Y-105596546D01*
X98461063Y-105634044D01*
X98448330Y-105647183D01*
X98450379Y-105649047D01*
X98435000Y-105665949D01*
X98435000Y-106265253D01*
X98437855Y-106272145D01*
X98444747Y-106275000D01*
X98850253Y-106275000D01*
X98857145Y-106272145D01*
X98860000Y-106265253D01*
X98860000Y-106163922D01*
X98859774Y-106160598D01*
X98845173Y-106054014D01*
X98843393Y-106047637D01*
X98798168Y-105943128D01*
X98797579Y-105905630D01*
X98823678Y-105878698D01*
X98846725Y-105874800D01*
X98979891Y-105884580D01*
X99037934Y-105872876D01*
X99074735Y-105880096D01*
X99095652Y-105911223D01*
X99089264Y-105946729D01*
X99074124Y-105971148D01*
X99074122Y-105971152D01*
X99072365Y-105973986D01*
X99071434Y-105977189D01*
X99071434Y-105977190D01*
X99037840Y-106092822D01*
X99030285Y-106118825D01*
X99030097Y-106121389D01*
X99030096Y-106121393D01*
X99029891Y-106124188D01*
X99029500Y-106129515D01*
X99029500Y-106637785D01*
X99029726Y-106639432D01*
X99029726Y-106639438D01*
X99035083Y-106678540D01*
X99044794Y-106749432D01*
X99046121Y-106752498D01*
X99046121Y-106752499D01*
X99076548Y-106822810D01*
X99104695Y-106887855D01*
X99199614Y-107005070D01*
X99322558Y-107092442D01*
X99325698Y-107093573D01*
X99325701Y-107093574D01*
X99461326Y-107142402D01*
X99461327Y-107142402D01*
X99464468Y-107143533D01*
X99467796Y-107143777D01*
X99467799Y-107143778D01*
X99546917Y-107149588D01*
X99614891Y-107154580D01*
X99618164Y-107153920D01*
X99618165Y-107153920D01*
X99759467Y-107125428D01*
X99759470Y-107125427D01*
X99762743Y-107124767D01*
X99765719Y-107123251D01*
X99765721Y-107123250D01*
X99894152Y-107057812D01*
X99894155Y-107057810D01*
X99897132Y-107056293D01*
X100008156Y-106954201D01*
X100087635Y-106826014D01*
X100088566Y-106822810D01*
X100128997Y-106683647D01*
X100128997Y-106683645D01*
X100129715Y-106681175D01*
X100129909Y-106678540D01*
X100130433Y-106671392D01*
X100130500Y-106670485D01*
X100130500Y-106162215D01*
X100126155Y-106130492D01*
X100115659Y-106053878D01*
X100115206Y-106050568D01*
X100064526Y-105933453D01*
X100063937Y-105895956D01*
X100076670Y-105882817D01*
X100074621Y-105880953D01*
X100090000Y-105864051D01*
X100090000Y-105264747D01*
X100087145Y-105257855D01*
X100080253Y-105255000D01*
X99674747Y-105255000D01*
X99667855Y-105257855D01*
X99665000Y-105264747D01*
X99665000Y-105366078D01*
X99665226Y-105369402D01*
X99679827Y-105475986D01*
X99681607Y-105482363D01*
X99726832Y-105586872D01*
X99727421Y-105624370D01*
X99701322Y-105651302D01*
X99678275Y-105655200D01*
X99545109Y-105645420D01*
X99487066Y-105657124D01*
X99450265Y-105649904D01*
X99429348Y-105618777D01*
X99435736Y-105583271D01*
X99450876Y-105558852D01*
X99450878Y-105558848D01*
X99452635Y-105556014D01*
X99453566Y-105552810D01*
X99493997Y-105413647D01*
X99493997Y-105413645D01*
X99494715Y-105411175D01*
X99494909Y-105408540D01*
X99495433Y-105401392D01*
X99495500Y-105400485D01*
X99495500Y-104995253D01*
X99665000Y-104995253D01*
X99667855Y-105002145D01*
X99674747Y-105005000D01*
X100080253Y-105005000D01*
X100087145Y-105002145D01*
X100090000Y-104995253D01*
X100090000Y-104403848D01*
X100087145Y-104396956D01*
X100083444Y-104395423D01*
X100035698Y-104405050D01*
X100029445Y-104407227D01*
X99901136Y-104472603D01*
X99895696Y-104476384D01*
X99789691Y-104573861D01*
X99785474Y-104578958D01*
X99709586Y-104701354D01*
X99706894Y-104707402D01*
X99666502Y-104846433D01*
X99665597Y-104851460D01*
X99665067Y-104858681D01*
X99665000Y-104860492D01*
X99665000Y-104995253D01*
X99495500Y-104995253D01*
X99495500Y-104892215D01*
X99491155Y-104860492D01*
X99480659Y-104783878D01*
X99480206Y-104780568D01*
X99448544Y-104707402D01*
X99421632Y-104645211D01*
X99421631Y-104645210D01*
X99420305Y-104642145D01*
X99325386Y-104524930D01*
X99202442Y-104437558D01*
X99199302Y-104436427D01*
X99199299Y-104436426D01*
X99063674Y-104387598D01*
X99063673Y-104387598D01*
X99060532Y-104386467D01*
X99057204Y-104386223D01*
X99057201Y-104386222D01*
X98977468Y-104380367D01*
X98910109Y-104375420D01*
X98906836Y-104376080D01*
X98906835Y-104376080D01*
X98765533Y-104404572D01*
X98765530Y-104404573D01*
X98762257Y-104405233D01*
X98759281Y-104406749D01*
X98759279Y-104406750D01*
X98630848Y-104472188D01*
X98630845Y-104472190D01*
X98627868Y-104473707D01*
X98625408Y-104475969D01*
X98622458Y-104478682D01*
X98516844Y-104575799D01*
X98515085Y-104578636D01*
X98446889Y-104688626D01*
X98437365Y-104703986D01*
X98436434Y-104707189D01*
X98436434Y-104707190D01*
X98414115Y-104784014D01*
X98395285Y-104848825D01*
X98395097Y-104851389D01*
X98395096Y-104851393D01*
X98394823Y-104855122D01*
X98394500Y-104859515D01*
X98394500Y-105367785D01*
X98225500Y-105367785D01*
X98225500Y-104892215D01*
X98221155Y-104860492D01*
X98210659Y-104783878D01*
X98210206Y-104780568D01*
X98178544Y-104707402D01*
X98151632Y-104645211D01*
X98151631Y-104645210D01*
X98150305Y-104642145D01*
X98055386Y-104524930D01*
X97932442Y-104437558D01*
X97929302Y-104436427D01*
X97929299Y-104436426D01*
X97793674Y-104387598D01*
X97793673Y-104387598D01*
X97790532Y-104386467D01*
X97787204Y-104386223D01*
X97787201Y-104386222D01*
X97707468Y-104380367D01*
X97640109Y-104375420D01*
X97636836Y-104376080D01*
X97636835Y-104376080D01*
X97495533Y-104404572D01*
X97495530Y-104404573D01*
X97492257Y-104405233D01*
X97489281Y-104406749D01*
X97489279Y-104406750D01*
X97360848Y-104472188D01*
X97360845Y-104472190D01*
X97357868Y-104473707D01*
X97355408Y-104475969D01*
X97352458Y-104478682D01*
X97246844Y-104575799D01*
X97245085Y-104578636D01*
X97176889Y-104688626D01*
X97167365Y-104703986D01*
X97166434Y-104707189D01*
X97166434Y-104707190D01*
X97144115Y-104784014D01*
X97125285Y-104848825D01*
X97125097Y-104851389D01*
X97125096Y-104851393D01*
X97124823Y-104855122D01*
X97124500Y-104859515D01*
X97124500Y-105367785D01*
X97124726Y-105369432D01*
X97124726Y-105369438D01*
X97130083Y-105408540D01*
X97139794Y-105479432D01*
X97141121Y-105482498D01*
X97141121Y-105482499D01*
X97186269Y-105586830D01*
X97186858Y-105624328D01*
X97160759Y-105651260D01*
X97137710Y-105655158D01*
X97084630Y-105651260D01*
X97005109Y-105645420D01*
X96946392Y-105657260D01*
X96909592Y-105650040D01*
X96888675Y-105618913D01*
X96895063Y-105583407D01*
X96910413Y-105558650D01*
X96913106Y-105552598D01*
X96953498Y-105413567D01*
X96954403Y-105408540D01*
X96954933Y-105401319D01*
X96955000Y-105399508D01*
X96955000Y-105264747D01*
X96952145Y-105257855D01*
X96945253Y-105255000D01*
X96539747Y-105255000D01*
X96532855Y-105257855D01*
X96530000Y-105264747D01*
X96530000Y-105856152D01*
X96532855Y-105863044D01*
X96533910Y-105863481D01*
X96560428Y-105890000D01*
X96560428Y-105927503D01*
X96556805Y-105934568D01*
X96549265Y-105946729D01*
X96534125Y-105971148D01*
X96532365Y-105973986D01*
X96531434Y-105977189D01*
X96531434Y-105977190D01*
X96497840Y-106092822D01*
X96490285Y-106118825D01*
X96490097Y-106121389D01*
X96490096Y-106121393D01*
X96489891Y-106124188D01*
X96489500Y-106129515D01*
X96489500Y-106637785D01*
X96489726Y-106639432D01*
X96489726Y-106639438D01*
X96495083Y-106678540D01*
X96504794Y-106749432D01*
X96506121Y-106752498D01*
X96506121Y-106752499D01*
X96564695Y-106887855D01*
X96563823Y-106888232D01*
X96568945Y-106921701D01*
X96546743Y-106951926D01*
X96509671Y-106957599D01*
X96497781Y-106952967D01*
X96494861Y-106951364D01*
X95597961Y-106459044D01*
X95595587Y-106457652D01*
X95583823Y-106450301D01*
X95581009Y-106448404D01*
X95137656Y-106126289D01*
X95134967Y-106124188D01*
X95125629Y-106116353D01*
X95097574Y-106092812D01*
X95094049Y-106089545D01*
X94386840Y-105366078D01*
X95855000Y-105366078D01*
X95855226Y-105369402D01*
X95869827Y-105475986D01*
X95871607Y-105482363D01*
X95928800Y-105614528D01*
X95932229Y-105620190D01*
X96022858Y-105732107D01*
X96027681Y-105736636D01*
X96145069Y-105820060D01*
X96150934Y-105823126D01*
X96270829Y-105866291D01*
X96278282Y-105865940D01*
X96280000Y-105864051D01*
X96280000Y-105264747D01*
X96277145Y-105257855D01*
X96270253Y-105255000D01*
X95864747Y-105255000D01*
X95857855Y-105257855D01*
X95855000Y-105264747D01*
X95855000Y-105366078D01*
X94386840Y-105366078D01*
X94024348Y-104995253D01*
X95855000Y-104995253D01*
X95857855Y-105002145D01*
X95864747Y-105005000D01*
X96270253Y-105005000D01*
X96277145Y-105002145D01*
X96280000Y-104995253D01*
X96530000Y-104995253D01*
X96532855Y-105002145D01*
X96539747Y-105005000D01*
X96945253Y-105005000D01*
X96952145Y-105002145D01*
X96955000Y-104995253D01*
X96955000Y-104893922D01*
X96954774Y-104890598D01*
X96940173Y-104784014D01*
X96938393Y-104777637D01*
X96881200Y-104645472D01*
X96877771Y-104639810D01*
X96787142Y-104527893D01*
X96782319Y-104523364D01*
X96664931Y-104439940D01*
X96659066Y-104436874D01*
X96539171Y-104393709D01*
X96531718Y-104394060D01*
X96530000Y-104395949D01*
X96530000Y-104995253D01*
X96280000Y-104995253D01*
X96280000Y-104403848D01*
X96277145Y-104396956D01*
X96273444Y-104395423D01*
X96225698Y-104405050D01*
X96219445Y-104407227D01*
X96091136Y-104472603D01*
X96085696Y-104476384D01*
X95979691Y-104573861D01*
X95975474Y-104578958D01*
X95899586Y-104701354D01*
X95896894Y-104707402D01*
X95856502Y-104846433D01*
X95855597Y-104851460D01*
X95855067Y-104858681D01*
X95855000Y-104860492D01*
X95855000Y-104995253D01*
X94024348Y-104995253D01*
X93714237Y-104678013D01*
X93710667Y-104673931D01*
X93701829Y-104662618D01*
X93620464Y-104558476D01*
X93609817Y-104544848D01*
X93607807Y-104542081D01*
X93414784Y-104255912D01*
X93412172Y-104251571D01*
X92971158Y-103424672D01*
X92715281Y-102944902D01*
X92713097Y-102940225D01*
X92659321Y-102807125D01*
X92656856Y-102799109D01*
X92595656Y-102515588D01*
X92181103Y-100595110D01*
X92180000Y-100584771D01*
X92180000Y-100334748D01*
X92514500Y-100334748D01*
X92526133Y-100393231D01*
X92570448Y-100459552D01*
X92636769Y-100503867D01*
X92695252Y-100515500D01*
X93584748Y-100515500D01*
X93643231Y-100503867D01*
X93650877Y-100498758D01*
X93678100Y-100490500D01*
X94910969Y-100490500D01*
X94945617Y-100504852D01*
X95185965Y-100745200D01*
X95200317Y-100779848D01*
X95185965Y-100814496D01*
X95177288Y-100821398D01*
X95149625Y-100838684D01*
X95147682Y-100840613D01*
X95147680Y-100840615D01*
X95140556Y-100847690D01*
X95022193Y-100965230D01*
X94925963Y-101116864D01*
X94865719Y-101286049D01*
X94844455Y-101464376D01*
X94863227Y-101642983D01*
X94921103Y-101812993D01*
X95015206Y-101965955D01*
X95017121Y-101967911D01*
X95017123Y-101967913D01*
X95138941Y-102092310D01*
X95138944Y-102092312D01*
X95140859Y-102094268D01*
X95143159Y-102095751D01*
X95143160Y-102095751D01*
X95184392Y-102122323D01*
X95291817Y-102191554D01*
X95364881Y-102218147D01*
X95458003Y-102252041D01*
X95458005Y-102252041D01*
X95460578Y-102252978D01*
X95599283Y-102270500D01*
X96195155Y-102270500D01*
X96196506Y-102270348D01*
X96196514Y-102270348D01*
X96325754Y-102255851D01*
X96325755Y-102255851D01*
X96328472Y-102255546D01*
X96366696Y-102242235D01*
X96495484Y-102197387D01*
X96495487Y-102197385D01*
X96498073Y-102196485D01*
X96505965Y-102191554D01*
X96648050Y-102102769D01*
X96648051Y-102102768D01*
X96650375Y-102101316D01*
X96657473Y-102094268D01*
X96775860Y-101976703D01*
X96777807Y-101974770D01*
X96874037Y-101823136D01*
X96934281Y-101653951D01*
X96955545Y-101475624D01*
X96936773Y-101297017D01*
X96878897Y-101127007D01*
X96784794Y-100974045D01*
X96774269Y-100963297D01*
X96661059Y-100847690D01*
X96661056Y-100847688D01*
X96659141Y-100845732D01*
X96656845Y-100844253D01*
X96656841Y-100844249D01*
X96556909Y-100779848D01*
X96522955Y-100757966D01*
X96501607Y-100727134D01*
X96500500Y-100716779D01*
X96500500Y-100652574D01*
X96500919Y-100646178D01*
X96505263Y-100613183D01*
X96505682Y-100610000D01*
X96495283Y-100531008D01*
X96485463Y-100456420D01*
X96485463Y-100456419D01*
X96485044Y-100453238D01*
X96483817Y-100450276D01*
X96483816Y-100450272D01*
X96425765Y-100310126D01*
X96424536Y-100307159D01*
X96409291Y-100287291D01*
X96397287Y-100271647D01*
X96330235Y-100184263D01*
X96330234Y-100184262D01*
X96328282Y-100181718D01*
X96299331Y-100159503D01*
X96294513Y-100155278D01*
X95999547Y-99860312D01*
X95985195Y-99825664D01*
X95985620Y-99819225D01*
X95985688Y-99818712D01*
X96004785Y-99673661D01*
X96005204Y-99670479D01*
X96000440Y-99634294D01*
X96000021Y-99627898D01*
X96000021Y-99609772D01*
X96981250Y-99609772D01*
X96981669Y-99612955D01*
X96984478Y-99634294D01*
X97000170Y-99753481D01*
X97055639Y-99887397D01*
X97143879Y-100002393D01*
X97258875Y-100090633D01*
X97392791Y-100146102D01*
X97536500Y-100165022D01*
X97618605Y-100154212D01*
X97654829Y-100163918D01*
X97673581Y-100196397D01*
X97674000Y-100202793D01*
X97674000Y-100475923D01*
X97672482Y-100484829D01*
X97672504Y-100484832D01*
X97671879Y-100490316D01*
X97670051Y-100495522D01*
X97670661Y-100501005D01*
X97670661Y-100501007D01*
X97673699Y-100528303D01*
X97674000Y-100533722D01*
X97674000Y-100542782D01*
X97674611Y-100545459D01*
X97675940Y-100551286D01*
X97676866Y-100556760D01*
X97680471Y-100589157D01*
X97683398Y-100593833D01*
X97684974Y-100598358D01*
X97686344Y-100601673D01*
X97688415Y-100605977D01*
X97689642Y-100611354D01*
X97693078Y-100615666D01*
X97693079Y-100615668D01*
X97709955Y-100636845D01*
X97713167Y-100641382D01*
X97717889Y-100648925D01*
X97724265Y-100655301D01*
X97727938Y-100659413D01*
X97748355Y-100685035D01*
X97753327Y-100687433D01*
X97757331Y-100690630D01*
X97765134Y-100696170D01*
X100629148Y-103560183D01*
X100643500Y-103594831D01*
X100643500Y-104464800D01*
X100629148Y-104499448D01*
X100594500Y-104513800D01*
X100566115Y-104504741D01*
X100474931Y-104439940D01*
X100469066Y-104436874D01*
X100349171Y-104393709D01*
X100341718Y-104394060D01*
X100340000Y-104395949D01*
X100340000Y-105856152D01*
X100342855Y-105863044D01*
X100343910Y-105863481D01*
X100370428Y-105890000D01*
X100370428Y-105927503D01*
X100366805Y-105934568D01*
X100359265Y-105946729D01*
X100344125Y-105971148D01*
X100342365Y-105973986D01*
X100341434Y-105977189D01*
X100341434Y-105977190D01*
X100307840Y-106092822D01*
X100300285Y-106118825D01*
X100300097Y-106121389D01*
X100300096Y-106121393D01*
X100299891Y-106124188D01*
X100299500Y-106129515D01*
X100299500Y-106637785D01*
X100299726Y-106639432D01*
X100299726Y-106639438D01*
X100305083Y-106678540D01*
X100314794Y-106749432D01*
X100316121Y-106752498D01*
X100316121Y-106752499D01*
X100346548Y-106822810D01*
X100374695Y-106887855D01*
X100469614Y-107005070D01*
X100592558Y-107092442D01*
X100595698Y-107093573D01*
X100595701Y-107093574D01*
X100731326Y-107142402D01*
X100731327Y-107142402D01*
X100734468Y-107143533D01*
X100737796Y-107143777D01*
X100737799Y-107143778D01*
X100816917Y-107149588D01*
X100884891Y-107154580D01*
X100888164Y-107153920D01*
X100888165Y-107153920D01*
X101029467Y-107125428D01*
X101029470Y-107125427D01*
X101032743Y-107124767D01*
X101035719Y-107123251D01*
X101035721Y-107123250D01*
X101164152Y-107057812D01*
X101164155Y-107057810D01*
X101167132Y-107056293D01*
X101278156Y-106954201D01*
X101357635Y-106826014D01*
X101358566Y-106822810D01*
X101398997Y-106683647D01*
X101398997Y-106683645D01*
X101399715Y-106681175D01*
X101399909Y-106678540D01*
X101400433Y-106671392D01*
X101400500Y-106670485D01*
X101400500Y-106636078D01*
X101570000Y-106636078D01*
X101570226Y-106639402D01*
X101584827Y-106745986D01*
X101586607Y-106752363D01*
X101643800Y-106884528D01*
X101647229Y-106890190D01*
X101737858Y-107002107D01*
X101742681Y-107006636D01*
X101860069Y-107090060D01*
X101865934Y-107093126D01*
X101985829Y-107136291D01*
X101993282Y-107135940D01*
X101995000Y-107134051D01*
X101995000Y-107126152D01*
X102245000Y-107126152D01*
X102247855Y-107133044D01*
X102251556Y-107134577D01*
X102299302Y-107124950D01*
X102305555Y-107122773D01*
X102433864Y-107057397D01*
X102439304Y-107053616D01*
X102545309Y-106956139D01*
X102549526Y-106951042D01*
X102625414Y-106828646D01*
X102628106Y-106822598D01*
X102668498Y-106683567D01*
X102669403Y-106678540D01*
X102669933Y-106671319D01*
X102670000Y-106669508D01*
X102670000Y-106534747D01*
X102667145Y-106527855D01*
X102660253Y-106525000D01*
X102254747Y-106525000D01*
X102247855Y-106527855D01*
X102245000Y-106534747D01*
X102245000Y-107126152D01*
X101995000Y-107126152D01*
X101995000Y-106534747D01*
X101992145Y-106527855D01*
X101985253Y-106525000D01*
X101579747Y-106525000D01*
X101572855Y-106527855D01*
X101570000Y-106534747D01*
X101570000Y-106636078D01*
X101400500Y-106636078D01*
X101400500Y-106162215D01*
X101396155Y-106130492D01*
X101385659Y-106053878D01*
X101385206Y-106050568D01*
X101364493Y-106002703D01*
X101338731Y-105943170D01*
X101338142Y-105905672D01*
X101364241Y-105878740D01*
X101387290Y-105874842D01*
X101432322Y-105878149D01*
X101519891Y-105884580D01*
X101578608Y-105872740D01*
X101615408Y-105879960D01*
X101636325Y-105911087D01*
X101629937Y-105946593D01*
X101614587Y-105971350D01*
X101611894Y-105977402D01*
X101571502Y-106116433D01*
X101570597Y-106121460D01*
X101570067Y-106128681D01*
X101570000Y-106130492D01*
X101570000Y-106265253D01*
X101572855Y-106272145D01*
X101579747Y-106275000D01*
X101985253Y-106275000D01*
X101992145Y-106272145D01*
X101995000Y-106265253D01*
X101995000Y-105673848D01*
X101992145Y-105666956D01*
X101991090Y-105666519D01*
X101964572Y-105640000D01*
X101964572Y-105602497D01*
X101968197Y-105595428D01*
X101969255Y-105593723D01*
X101984521Y-105569101D01*
X101990878Y-105558848D01*
X101990878Y-105558847D01*
X101992635Y-105556014D01*
X101993566Y-105552810D01*
X102033997Y-105413647D01*
X102033997Y-105413645D01*
X102034715Y-105411175D01*
X102034909Y-105408540D01*
X102035433Y-105401392D01*
X102035500Y-105400485D01*
X102035500Y-104892215D01*
X102031155Y-104860492D01*
X102020659Y-104783878D01*
X102020206Y-104780568D01*
X101988544Y-104707402D01*
X101961632Y-104645211D01*
X101961631Y-104645210D01*
X101960305Y-104642145D01*
X101865386Y-104524930D01*
X101742442Y-104437558D01*
X101739302Y-104436427D01*
X101739299Y-104436426D01*
X101603674Y-104387598D01*
X101603673Y-104387598D01*
X101600532Y-104386467D01*
X101597204Y-104386223D01*
X101597201Y-104386222D01*
X101517468Y-104380367D01*
X101450109Y-104375420D01*
X101446836Y-104376080D01*
X101446835Y-104376080D01*
X101354186Y-104394762D01*
X101317385Y-104387542D01*
X101296468Y-104356414D01*
X101295501Y-104346729D01*
X101295501Y-103433578D01*
X101297019Y-103424672D01*
X101296997Y-103424669D01*
X101297622Y-103419185D01*
X101299450Y-103413979D01*
X101295802Y-103381198D01*
X101295501Y-103375779D01*
X101295501Y-103366719D01*
X101293560Y-103358209D01*
X101292635Y-103352738D01*
X101289640Y-103325826D01*
X101289030Y-103320344D01*
X101286103Y-103315668D01*
X101284527Y-103311143D01*
X101283157Y-103307828D01*
X101281086Y-103303525D01*
X101279859Y-103298147D01*
X101276420Y-103293831D01*
X101259545Y-103272653D01*
X101256335Y-103268120D01*
X101253082Y-103262925D01*
X101251612Y-103260577D01*
X101245244Y-103254209D01*
X101241571Y-103250098D01*
X101224585Y-103228782D01*
X101224586Y-103228782D01*
X101221146Y-103224466D01*
X101216174Y-103222068D01*
X101211864Y-103218627D01*
X101213408Y-103216693D01*
X101194768Y-103195803D01*
X101196900Y-103158360D01*
X101202738Y-103149083D01*
X101203067Y-103148671D01*
X101203646Y-103148310D01*
X101204169Y-103147788D01*
X101205636Y-103145453D01*
X101205643Y-103145445D01*
X101214715Y-103131010D01*
X101217327Y-103127254D01*
X101260772Y-103070636D01*
X101262728Y-103068087D01*
X101300463Y-102976985D01*
X101313334Y-102879221D01*
X101300463Y-102781457D01*
X101262728Y-102690355D01*
X101217942Y-102631989D01*
X101215239Y-102628089D01*
X101206166Y-102613540D01*
X101206160Y-102613532D01*
X101204691Y-102611177D01*
X101204169Y-102610654D01*
X101187392Y-102600110D01*
X101183640Y-102597499D01*
X101127015Y-102554050D01*
X101127013Y-102554049D01*
X101124468Y-102552096D01*
X101121501Y-102550867D01*
X101036332Y-102515588D01*
X101036331Y-102515588D01*
X101033367Y-102514360D01*
X101030186Y-102513941D01*
X101030185Y-102513941D01*
X100938787Y-102501908D01*
X100935604Y-102501489D01*
X100886695Y-102507928D01*
X100850471Y-102498221D01*
X100831719Y-102465743D01*
X100831719Y-102452951D01*
X100837739Y-102407227D01*
X100838158Y-102404045D01*
X100825287Y-102306281D01*
X100787552Y-102215179D01*
X100742766Y-102156813D01*
X100740063Y-102152913D01*
X100730990Y-102138364D01*
X100730984Y-102138356D01*
X100729515Y-102136001D01*
X100728993Y-102135478D01*
X100712216Y-102124934D01*
X100708464Y-102122323D01*
X100651839Y-102078874D01*
X100651837Y-102078873D01*
X100649292Y-102076920D01*
X100558191Y-102039184D01*
X100555010Y-102038765D01*
X100555009Y-102038765D01*
X100463611Y-102026732D01*
X100460428Y-102026313D01*
X100362664Y-102039183D01*
X100359698Y-102040411D01*
X100359696Y-102040412D01*
X100317113Y-102058050D01*
X100271562Y-102076918D01*
X100213183Y-102121714D01*
X100209308Y-102124400D01*
X100192385Y-102134954D01*
X100191861Y-102135476D01*
X100191494Y-102136059D01*
X100189798Y-102137405D01*
X100153734Y-102147693D01*
X100124699Y-102133664D01*
X99455411Y-101464376D01*
X103044455Y-101464376D01*
X103063227Y-101642983D01*
X103121103Y-101812993D01*
X103215206Y-101965955D01*
X103217121Y-101967911D01*
X103217123Y-101967913D01*
X103338941Y-102092310D01*
X103338944Y-102092312D01*
X103340859Y-102094268D01*
X103343159Y-102095751D01*
X103343160Y-102095751D01*
X103384392Y-102122323D01*
X103491817Y-102191554D01*
X103564881Y-102218147D01*
X103658003Y-102252041D01*
X103658005Y-102252041D01*
X103660578Y-102252978D01*
X103799283Y-102270500D01*
X104395155Y-102270500D01*
X104396506Y-102270348D01*
X104396514Y-102270348D01*
X104525754Y-102255851D01*
X104525755Y-102255851D01*
X104528472Y-102255546D01*
X104566696Y-102242235D01*
X104695484Y-102197387D01*
X104695487Y-102197385D01*
X104698073Y-102196485D01*
X104705965Y-102191554D01*
X104848050Y-102102769D01*
X104848051Y-102102768D01*
X104850375Y-102101316D01*
X104857473Y-102094268D01*
X104975860Y-101976703D01*
X104977807Y-101974770D01*
X105074037Y-101823136D01*
X105134281Y-101653951D01*
X105155545Y-101475624D01*
X105136773Y-101297017D01*
X105078897Y-101127007D01*
X104984794Y-100974045D01*
X104974269Y-100963297D01*
X104861059Y-100847690D01*
X104861056Y-100847688D01*
X104859141Y-100845732D01*
X104708183Y-100748446D01*
X104548412Y-100690294D01*
X104541997Y-100687959D01*
X104541995Y-100687959D01*
X104539422Y-100687022D01*
X104400717Y-100669500D01*
X103804845Y-100669500D01*
X103803494Y-100669652D01*
X103803486Y-100669652D01*
X103674246Y-100684149D01*
X103674245Y-100684149D01*
X103671528Y-100684454D01*
X103668940Y-100685355D01*
X103668941Y-100685355D01*
X103504516Y-100742613D01*
X103504513Y-100742615D01*
X103501927Y-100743515D01*
X103499604Y-100744966D01*
X103499603Y-100744967D01*
X103478799Y-100757967D01*
X103349625Y-100838684D01*
X103347682Y-100840613D01*
X103347680Y-100840615D01*
X103340556Y-100847690D01*
X103222193Y-100965230D01*
X103125963Y-101116864D01*
X103065719Y-101286049D01*
X103044455Y-101464376D01*
X99455411Y-101464376D01*
X98340352Y-100349317D01*
X98326000Y-100314669D01*
X98326000Y-100202793D01*
X98340352Y-100168145D01*
X98375000Y-100153793D01*
X98381391Y-100154212D01*
X98463500Y-100165022D01*
X98607209Y-100146102D01*
X98741125Y-100090633D01*
X98856121Y-100002393D01*
X98944361Y-99887397D01*
X98999830Y-99753481D01*
X99015522Y-99634294D01*
X99018331Y-99612955D01*
X99018750Y-99609772D01*
X98999830Y-99466063D01*
X98944361Y-99332147D01*
X98883237Y-99252489D01*
X98858077Y-99219700D01*
X98856121Y-99217151D01*
X98741125Y-99128911D01*
X98607209Y-99073442D01*
X98463500Y-99054522D01*
X98319791Y-99073442D01*
X98185875Y-99128911D01*
X98070879Y-99217151D01*
X98047179Y-99248038D01*
X98038874Y-99258861D01*
X98006396Y-99277613D01*
X97970171Y-99267906D01*
X97961126Y-99258861D01*
X97952822Y-99248038D01*
X97929121Y-99217151D01*
X97814125Y-99128911D01*
X97680209Y-99073442D01*
X97536500Y-99054522D01*
X97392791Y-99073442D01*
X97258875Y-99128911D01*
X97143879Y-99217151D01*
X97141923Y-99219700D01*
X97116763Y-99252489D01*
X97055639Y-99332147D01*
X97000170Y-99466063D01*
X96981250Y-99609772D01*
X96000021Y-99609772D01*
X96000021Y-99379500D01*
X96014373Y-99344852D01*
X96049021Y-99330500D01*
X96195155Y-99330500D01*
X96196506Y-99330348D01*
X96196514Y-99330348D01*
X96325754Y-99315851D01*
X96325755Y-99315851D01*
X96328472Y-99315546D01*
X96366696Y-99302235D01*
X96495484Y-99257387D01*
X96495487Y-99257385D01*
X96498073Y-99256485D01*
X96505965Y-99251554D01*
X96648050Y-99162769D01*
X96648051Y-99162768D01*
X96650375Y-99161316D01*
X96657473Y-99154268D01*
X96731411Y-99080843D01*
X96777807Y-99034770D01*
X96855659Y-98912095D01*
X96872570Y-98885448D01*
X96872571Y-98885446D01*
X96874037Y-98883136D01*
X96911446Y-98778081D01*
X96933362Y-98716532D01*
X96934281Y-98713951D01*
X96955545Y-98535624D01*
X96951474Y-98496884D01*
X96937885Y-98367600D01*
X96936773Y-98357017D01*
X96878897Y-98187007D01*
X96784794Y-98034045D01*
X96774269Y-98023297D01*
X96661059Y-97907690D01*
X96661056Y-97907688D01*
X96659141Y-97905732D01*
X96508183Y-97808446D01*
X96366029Y-97756706D01*
X96341997Y-97747959D01*
X96341995Y-97747959D01*
X96339422Y-97747022D01*
X96200717Y-97729500D01*
X95604845Y-97729500D01*
X95603494Y-97729652D01*
X95603486Y-97729652D01*
X95474246Y-97744149D01*
X95474245Y-97744149D01*
X95471528Y-97744454D01*
X95436345Y-97756706D01*
X95304516Y-97802613D01*
X95304513Y-97802615D01*
X95301927Y-97803515D01*
X95299604Y-97804966D01*
X95299603Y-97804967D01*
X95151950Y-97897231D01*
X95149625Y-97898684D01*
X95147682Y-97900613D01*
X95147680Y-97900615D01*
X95140556Y-97907690D01*
X95022193Y-98025230D01*
X95016599Y-98034045D01*
X94931477Y-98168176D01*
X94925963Y-98176864D01*
X94925045Y-98179442D01*
X94925044Y-98179444D01*
X94887543Y-98284760D01*
X94862400Y-98312586D01*
X94824945Y-98314484D01*
X94808946Y-98305050D01*
X94780231Y-98279690D01*
X94777612Y-98277377D01*
X94774454Y-98275894D01*
X94774452Y-98275893D01*
X94700317Y-98241087D01*
X94647837Y-98216447D01*
X94538991Y-98199500D01*
X94464060Y-98199500D01*
X94462336Y-98199747D01*
X94462334Y-98199747D01*
X94390889Y-98209979D01*
X94358082Y-98214677D01*
X94227572Y-98274016D01*
X94224929Y-98276293D01*
X94224928Y-98276294D01*
X94131245Y-98357017D01*
X94118963Y-98367600D01*
X94040985Y-98487905D01*
X93999907Y-98625261D01*
X93999031Y-98768624D01*
X93999990Y-98771979D01*
X93999990Y-98771980D01*
X94037469Y-98903116D01*
X94038428Y-98906471D01*
X94114930Y-99027720D01*
X94222388Y-99122623D01*
X94225546Y-99124106D01*
X94225548Y-99124107D01*
X94268168Y-99144117D01*
X94352163Y-99183553D01*
X94406384Y-99191995D01*
X94406949Y-99192083D01*
X94438977Y-99211595D01*
X94447828Y-99248038D01*
X94428316Y-99280066D01*
X94399411Y-99289500D01*
X93678100Y-99289500D01*
X93650877Y-99281242D01*
X93647245Y-99278815D01*
X93643231Y-99276133D01*
X93584748Y-99264500D01*
X92695252Y-99264500D01*
X92636769Y-99276133D01*
X92570448Y-99320448D01*
X92526133Y-99386769D01*
X92514500Y-99445252D01*
X92514500Y-100334748D01*
X92180000Y-100334748D01*
X92180000Y-99951570D01*
X92180100Y-99948438D01*
X92194933Y-99716816D01*
X92293549Y-98176894D01*
X92294903Y-98168182D01*
X92405619Y-97724126D01*
X92406559Y-97720847D01*
X92414070Y-97697732D01*
X92416264Y-97692163D01*
X93424009Y-95531489D01*
X93427793Y-95524800D01*
X93429411Y-95522402D01*
X93457674Y-95480500D01*
X93568196Y-95316645D01*
X93574925Y-95308659D01*
X95684780Y-93287827D01*
X95692708Y-93281660D01*
X95987028Y-93097748D01*
X96048551Y-93059304D01*
X96051512Y-93057595D01*
X96104323Y-93029515D01*
X96267425Y-92942792D01*
X96304755Y-92939197D01*
X96333693Y-92963052D01*
X96337288Y-93000382D01*
X96332074Y-93011877D01*
X96302668Y-93059305D01*
X96287365Y-93083986D01*
X96286434Y-93087189D01*
X96286434Y-93087190D01*
X96264115Y-93164014D01*
X96245285Y-93228825D01*
X96245097Y-93231389D01*
X96245096Y-93231393D01*
X96244823Y-93235122D01*
X96244500Y-93239515D01*
X96244500Y-93747785D01*
X96244726Y-93749432D01*
X96244726Y-93749438D01*
X96250083Y-93788540D01*
X96259794Y-93859432D01*
X96261121Y-93862498D01*
X96261121Y-93862499D01*
X96294075Y-93938650D01*
X96319695Y-93997855D01*
X96321797Y-94000450D01*
X96323528Y-94003309D01*
X96322435Y-94003971D01*
X96331810Y-94035623D01*
X96313915Y-94068581D01*
X96283079Y-94079500D01*
X95875814Y-94079501D01*
X95868626Y-94079501D01*
X95842093Y-94082657D01*
X95838736Y-94084148D01*
X95838733Y-94084149D01*
X95742611Y-94126845D01*
X95742610Y-94126846D01*
X95738476Y-94128682D01*
X95735281Y-94131883D01*
X95735279Y-94131884D01*
X95700931Y-94166293D01*
X95658376Y-94208922D01*
X95656546Y-94213060D01*
X95656546Y-94213061D01*
X95650915Y-94225799D01*
X95612532Y-94312618D01*
X95609500Y-94338625D01*
X95609501Y-95221374D01*
X95612657Y-95247907D01*
X95614148Y-95251264D01*
X95614149Y-95251267D01*
X95639642Y-95308659D01*
X95658682Y-95351524D01*
X95661883Y-95354719D01*
X95661884Y-95354721D01*
X95689318Y-95382107D01*
X95738922Y-95431624D01*
X95743060Y-95433454D01*
X95743061Y-95433454D01*
X95744366Y-95434031D01*
X95842618Y-95477468D01*
X95846274Y-95477894D01*
X95846277Y-95477895D01*
X95855825Y-95479008D01*
X95868625Y-95480500D01*
X96156950Y-95480500D01*
X96451374Y-95480499D01*
X96477907Y-95477343D01*
X96481264Y-95475852D01*
X96481267Y-95475851D01*
X96577389Y-95433155D01*
X96577390Y-95433154D01*
X96581524Y-95431318D01*
X96584719Y-95428117D01*
X96584721Y-95428116D01*
X96657987Y-95354721D01*
X96661624Y-95351078D01*
X96707468Y-95247382D01*
X96710500Y-95221375D01*
X96710499Y-94338626D01*
X96707638Y-94314572D01*
X96707581Y-94314089D01*
X96717740Y-94277988D01*
X96750451Y-94259645D01*
X96759824Y-94259434D01*
X96829891Y-94264580D01*
X96887934Y-94252876D01*
X96924735Y-94260096D01*
X96945652Y-94291223D01*
X96939264Y-94326729D01*
X96924124Y-94351148D01*
X96924122Y-94351152D01*
X96922365Y-94353986D01*
X96921434Y-94357189D01*
X96921434Y-94357190D01*
X96899115Y-94434014D01*
X96880285Y-94498825D01*
X96880097Y-94501389D01*
X96880096Y-94501393D01*
X96879823Y-94505122D01*
X96879500Y-94509515D01*
X96879500Y-95017785D01*
X96879726Y-95019432D01*
X96879726Y-95019438D01*
X96885083Y-95058540D01*
X96894794Y-95129432D01*
X96896121Y-95132498D01*
X96896121Y-95132499D01*
X96947293Y-95250749D01*
X96954695Y-95267855D01*
X97049614Y-95385070D01*
X97172558Y-95472442D01*
X97175698Y-95473573D01*
X97175701Y-95473574D01*
X97311326Y-95522402D01*
X97311327Y-95522402D01*
X97314468Y-95523533D01*
X97317796Y-95523777D01*
X97317799Y-95523778D01*
X97397532Y-95529633D01*
X97464891Y-95534580D01*
X97468164Y-95533920D01*
X97468165Y-95533920D01*
X97609467Y-95505428D01*
X97609470Y-95505427D01*
X97612743Y-95504767D01*
X97615719Y-95503251D01*
X97615721Y-95503250D01*
X97744152Y-95437812D01*
X97744155Y-95437810D01*
X97747132Y-95436293D01*
X97752210Y-95431624D01*
X97802836Y-95385070D01*
X97858156Y-95334201D01*
X97911986Y-95247382D01*
X97935878Y-95208848D01*
X97935878Y-95208847D01*
X97937635Y-95206014D01*
X97938566Y-95202810D01*
X97978997Y-95063647D01*
X97978997Y-95063645D01*
X97979715Y-95061175D01*
X97979909Y-95058540D01*
X97980433Y-95051392D01*
X97980500Y-95050485D01*
X97980500Y-95017785D01*
X98149500Y-95017785D01*
X98149726Y-95019432D01*
X98149726Y-95019438D01*
X98155083Y-95058540D01*
X98164794Y-95129432D01*
X98166121Y-95132498D01*
X98166121Y-95132499D01*
X98217293Y-95250749D01*
X98224695Y-95267855D01*
X98319614Y-95385070D01*
X98442558Y-95472442D01*
X98445698Y-95473573D01*
X98445701Y-95473574D01*
X98581326Y-95522402D01*
X98581327Y-95522402D01*
X98584468Y-95523533D01*
X98587796Y-95523777D01*
X98587799Y-95523778D01*
X98667532Y-95529633D01*
X98734891Y-95534580D01*
X98738164Y-95533920D01*
X98738165Y-95533920D01*
X98830814Y-95515238D01*
X98867615Y-95522458D01*
X98888532Y-95553586D01*
X98889499Y-95563271D01*
X98889499Y-96421422D01*
X98887981Y-96430328D01*
X98888003Y-96430331D01*
X98887378Y-96435815D01*
X98885550Y-96441021D01*
X98886160Y-96446504D01*
X98886160Y-96446506D01*
X98889198Y-96473802D01*
X98889499Y-96479221D01*
X98889499Y-96488281D01*
X98890110Y-96490958D01*
X98891439Y-96496785D01*
X98892365Y-96502259D01*
X98895970Y-96534656D01*
X98898897Y-96539332D01*
X98900473Y-96543857D01*
X98901843Y-96547172D01*
X98903914Y-96551476D01*
X98905141Y-96556853D01*
X98908577Y-96561165D01*
X98908578Y-96561167D01*
X98925454Y-96582344D01*
X98928666Y-96586881D01*
X98933388Y-96594424D01*
X98939764Y-96600800D01*
X98943437Y-96604912D01*
X98963854Y-96630534D01*
X98968826Y-96632932D01*
X98972830Y-96636129D01*
X98980633Y-96641669D01*
X98989079Y-96650115D01*
X99003431Y-96684763D01*
X98992724Y-96715335D01*
X98991932Y-96716327D01*
X98991353Y-96716688D01*
X98990830Y-96717210D01*
X98989363Y-96719545D01*
X98989356Y-96719553D01*
X98980284Y-96733988D01*
X98977672Y-96737744D01*
X98932271Y-96796911D01*
X98894536Y-96888013D01*
X98881665Y-96985777D01*
X98894536Y-97083541D01*
X98932271Y-97174643D01*
X98934227Y-97177192D01*
X98977065Y-97233019D01*
X98979765Y-97236915D01*
X98990309Y-97253822D01*
X98990831Y-97254345D01*
X98993167Y-97255813D01*
X98993168Y-97255814D01*
X99007614Y-97264893D01*
X99011368Y-97267505D01*
X99070532Y-97312903D01*
X99116083Y-97331770D01*
X99158666Y-97349409D01*
X99158668Y-97349410D01*
X99161634Y-97350638D01*
X99259398Y-97363508D01*
X99262581Y-97363089D01*
X99262582Y-97363089D01*
X99308303Y-97357070D01*
X99344528Y-97366777D01*
X99363279Y-97399256D01*
X99363279Y-97412043D01*
X99356840Y-97460952D01*
X99369711Y-97558716D01*
X99407446Y-97649818D01*
X99409402Y-97652367D01*
X99452240Y-97708194D01*
X99454940Y-97712090D01*
X99465484Y-97728997D01*
X99466006Y-97729520D01*
X99468342Y-97730988D01*
X99468343Y-97730989D01*
X99482789Y-97740068D01*
X99486543Y-97742680D01*
X99545707Y-97788078D01*
X99580798Y-97802613D01*
X99633841Y-97824584D01*
X99633843Y-97824585D01*
X99636809Y-97825813D01*
X99734573Y-97838683D01*
X99737756Y-97838264D01*
X99829154Y-97826231D01*
X99829155Y-97826231D01*
X99832336Y-97825812D01*
X99874261Y-97808446D01*
X99920470Y-97789305D01*
X99923437Y-97788076D01*
X99964320Y-97756705D01*
X99972932Y-97751412D01*
X99985220Y-97745511D01*
X99988667Y-97741201D01*
X99992984Y-97737767D01*
X99993014Y-97737805D01*
X99998100Y-97733283D01*
X99998071Y-97733246D01*
X99998725Y-97732726D01*
X99999704Y-97731856D01*
X100000250Y-97731515D01*
X100000251Y-97731514D01*
X100002615Y-97730040D01*
X100003138Y-97729518D01*
X100003510Y-97728927D01*
X100005173Y-97727606D01*
X100041232Y-97717297D01*
X100070294Y-97731330D01*
X101659648Y-99320683D01*
X101674000Y-99355331D01*
X101674000Y-99403969D01*
X101659648Y-99438617D01*
X101625000Y-99452969D01*
X101618609Y-99452550D01*
X101536500Y-99441740D01*
X101392791Y-99460660D01*
X101258875Y-99516129D01*
X101143879Y-99604369D01*
X101055639Y-99719365D01*
X101000170Y-99853281D01*
X100981250Y-99996990D01*
X101000170Y-100140699D01*
X101055639Y-100274615D01*
X101143879Y-100389611D01*
X101258875Y-100477851D01*
X101392791Y-100533320D01*
X101464661Y-100542782D01*
X101529254Y-100551286D01*
X101536500Y-100552240D01*
X101543747Y-100551286D01*
X101608339Y-100542782D01*
X101680209Y-100533320D01*
X101814125Y-100477851D01*
X101929121Y-100389611D01*
X101961127Y-100347901D01*
X101993604Y-100329149D01*
X102029829Y-100338856D01*
X102038873Y-100347900D01*
X102070879Y-100389611D01*
X102185875Y-100477851D01*
X102319791Y-100533320D01*
X102391661Y-100542782D01*
X102456254Y-100551286D01*
X102463500Y-100552240D01*
X102470747Y-100551286D01*
X102535339Y-100542782D01*
X102607209Y-100533320D01*
X102741125Y-100477851D01*
X102856121Y-100389611D01*
X102944361Y-100274615D01*
X102999830Y-100140699D01*
X103018750Y-99996990D01*
X102999830Y-99853281D01*
X102944361Y-99719365D01*
X102856121Y-99604369D01*
X102741125Y-99516129D01*
X102607209Y-99460660D01*
X102463500Y-99441740D01*
X102381395Y-99452550D01*
X102345171Y-99442844D01*
X102326419Y-99410365D01*
X102326000Y-99403969D01*
X102326000Y-99194077D01*
X102327518Y-99185171D01*
X102327496Y-99185168D01*
X102328121Y-99179684D01*
X102329949Y-99174478D01*
X102328863Y-99164714D01*
X102326301Y-99141697D01*
X102326000Y-99136278D01*
X102326000Y-99127218D01*
X102324059Y-99118708D01*
X102323134Y-99113237D01*
X102320139Y-99086325D01*
X102319529Y-99080843D01*
X102316602Y-99076167D01*
X102315026Y-99071642D01*
X102313656Y-99068327D01*
X102311585Y-99064024D01*
X102310358Y-99058646D01*
X102292873Y-99036703D01*
X102290044Y-99033152D01*
X102286834Y-99028619D01*
X102283581Y-99023424D01*
X102282111Y-99021076D01*
X102275743Y-99014708D01*
X102272070Y-99010597D01*
X102255084Y-98989281D01*
X102255085Y-98989281D01*
X102251645Y-98984965D01*
X102246675Y-98982568D01*
X102242677Y-98979376D01*
X102234864Y-98973829D01*
X101785411Y-98524376D01*
X103044455Y-98524376D01*
X103063227Y-98702983D01*
X103121103Y-98872993D01*
X103122539Y-98875327D01*
X103208287Y-99014708D01*
X103215206Y-99025955D01*
X103217121Y-99027911D01*
X103217123Y-99027913D01*
X103338941Y-99152310D01*
X103338944Y-99152312D01*
X103340859Y-99154268D01*
X103343159Y-99155751D01*
X103343160Y-99155751D01*
X103429813Y-99211595D01*
X103491817Y-99251554D01*
X103566716Y-99278815D01*
X103658003Y-99312041D01*
X103658005Y-99312041D01*
X103660578Y-99312978D01*
X103799283Y-99330500D01*
X104395155Y-99330500D01*
X104396506Y-99330348D01*
X104396514Y-99330348D01*
X104525754Y-99315851D01*
X104525755Y-99315851D01*
X104528472Y-99315546D01*
X104566696Y-99302235D01*
X104695484Y-99257387D01*
X104695487Y-99257385D01*
X104698073Y-99256485D01*
X104705965Y-99251554D01*
X104848050Y-99162769D01*
X104848051Y-99162768D01*
X104850375Y-99161316D01*
X104857473Y-99154268D01*
X104931411Y-99080843D01*
X104977807Y-99034770D01*
X105007306Y-98988287D01*
X105037989Y-98966723D01*
X105074934Y-98973171D01*
X105090118Y-98988395D01*
X105114930Y-99027720D01*
X105222388Y-99122623D01*
X105225546Y-99124106D01*
X105225548Y-99124107D01*
X105268168Y-99144117D01*
X105352163Y-99183553D01*
X105461009Y-99200500D01*
X105535940Y-99200500D01*
X105537664Y-99200253D01*
X105537666Y-99200253D01*
X105609266Y-99189999D01*
X105641918Y-99185323D01*
X105772428Y-99125984D01*
X105784012Y-99116003D01*
X105878391Y-99034680D01*
X105881037Y-99032400D01*
X105959015Y-98912095D01*
X106000093Y-98774739D01*
X106000969Y-98631376D01*
X105961572Y-98493529D01*
X105885070Y-98372280D01*
X105777612Y-98277377D01*
X105774454Y-98275894D01*
X105774452Y-98275893D01*
X105700317Y-98241087D01*
X105647837Y-98216447D01*
X105538991Y-98199500D01*
X105464060Y-98199500D01*
X105462336Y-98199747D01*
X105462334Y-98199747D01*
X105390889Y-98209979D01*
X105358082Y-98214677D01*
X105227572Y-98274016D01*
X105191556Y-98305050D01*
X105190502Y-98305958D01*
X105154885Y-98317703D01*
X105121396Y-98300824D01*
X105112130Y-98284629D01*
X105108517Y-98274016D01*
X105078897Y-98187007D01*
X104984794Y-98034045D01*
X104974269Y-98023297D01*
X104861059Y-97907690D01*
X104861056Y-97907688D01*
X104859141Y-97905732D01*
X104708183Y-97808446D01*
X104566029Y-97756706D01*
X104541997Y-97747959D01*
X104541995Y-97747959D01*
X104539422Y-97747022D01*
X104400717Y-97729500D01*
X103804845Y-97729500D01*
X103803494Y-97729652D01*
X103803486Y-97729652D01*
X103674246Y-97744149D01*
X103674245Y-97744149D01*
X103671528Y-97744454D01*
X103636345Y-97756706D01*
X103504516Y-97802613D01*
X103504513Y-97802615D01*
X103501927Y-97803515D01*
X103499604Y-97804966D01*
X103499603Y-97804967D01*
X103351950Y-97897231D01*
X103349625Y-97898684D01*
X103347682Y-97900613D01*
X103347680Y-97900615D01*
X103340556Y-97907690D01*
X103222193Y-98025230D01*
X103216599Y-98034045D01*
X103131477Y-98168176D01*
X103125963Y-98176864D01*
X103125045Y-98179442D01*
X103125044Y-98179444D01*
X103066638Y-98343468D01*
X103065719Y-98346049D01*
X103065395Y-98348769D01*
X103065394Y-98348772D01*
X103062591Y-98372280D01*
X103044455Y-98524376D01*
X101785411Y-98524376D01*
X99555852Y-96294817D01*
X99541500Y-96260169D01*
X99541500Y-95445200D01*
X99555852Y-95410552D01*
X99590500Y-95396200D01*
X99618885Y-95405259D01*
X99710069Y-95470060D01*
X99715934Y-95473126D01*
X99835829Y-95516291D01*
X99843282Y-95515940D01*
X99845000Y-95514051D01*
X99845000Y-95506152D01*
X100095000Y-95506152D01*
X100097855Y-95513044D01*
X100101556Y-95514577D01*
X100149302Y-95504950D01*
X100155555Y-95502773D01*
X100283864Y-95437397D01*
X100289304Y-95433616D01*
X100395309Y-95336139D01*
X100399526Y-95331042D01*
X100475414Y-95208646D01*
X100478106Y-95202598D01*
X100518498Y-95063567D01*
X100519403Y-95058540D01*
X100519933Y-95051319D01*
X100520000Y-95049508D01*
X100520000Y-94914747D01*
X100517145Y-94907855D01*
X100510253Y-94905000D01*
X100104747Y-94905000D01*
X100097855Y-94907855D01*
X100095000Y-94914747D01*
X100095000Y-95506152D01*
X99845000Y-95506152D01*
X99845000Y-94053848D01*
X99842145Y-94046956D01*
X99841090Y-94046519D01*
X99814572Y-94020000D01*
X99814572Y-93982497D01*
X99818197Y-93975428D01*
X99825651Y-93963407D01*
X99834521Y-93949101D01*
X99840878Y-93938848D01*
X99840878Y-93938847D01*
X99842635Y-93936014D01*
X99843566Y-93932810D01*
X99883997Y-93793647D01*
X99883997Y-93793645D01*
X99884715Y-93791175D01*
X99884909Y-93788540D01*
X99885433Y-93781392D01*
X99885500Y-93780485D01*
X99885500Y-93747785D01*
X100054500Y-93747785D01*
X100054726Y-93749432D01*
X100054726Y-93749438D01*
X100060083Y-93788540D01*
X100069794Y-93859432D01*
X100116288Y-93966872D01*
X100120474Y-93976546D01*
X100121063Y-94014044D01*
X100108330Y-94027183D01*
X100110379Y-94029047D01*
X100095000Y-94045949D01*
X100095000Y-94645253D01*
X100097855Y-94652145D01*
X100104747Y-94655000D01*
X100510253Y-94655000D01*
X100517145Y-94652145D01*
X100520000Y-94645253D01*
X100520000Y-94543922D01*
X100519774Y-94540598D01*
X100505173Y-94434014D01*
X100503393Y-94427637D01*
X100458168Y-94323128D01*
X100457579Y-94285630D01*
X100483678Y-94258698D01*
X100506725Y-94254800D01*
X100639891Y-94264580D01*
X100697934Y-94252876D01*
X100734735Y-94260096D01*
X100755652Y-94291223D01*
X100749264Y-94326729D01*
X100734124Y-94351148D01*
X100734122Y-94351152D01*
X100732365Y-94353986D01*
X100731434Y-94357189D01*
X100731434Y-94357190D01*
X100709115Y-94434014D01*
X100690285Y-94498825D01*
X100690097Y-94501389D01*
X100690096Y-94501393D01*
X100689823Y-94505122D01*
X100689500Y-94509515D01*
X100689500Y-95017785D01*
X100689726Y-95019432D01*
X100689726Y-95019438D01*
X100695083Y-95058540D01*
X100704794Y-95129432D01*
X100706121Y-95132498D01*
X100706121Y-95132499D01*
X100757293Y-95250749D01*
X100764695Y-95267855D01*
X100859614Y-95385070D01*
X100982558Y-95472442D01*
X100985698Y-95473573D01*
X100985701Y-95473574D01*
X101121326Y-95522402D01*
X101121327Y-95522402D01*
X101124468Y-95523533D01*
X101127796Y-95523777D01*
X101127799Y-95523778D01*
X101207532Y-95529633D01*
X101274891Y-95534580D01*
X101278164Y-95533920D01*
X101278165Y-95533920D01*
X101419467Y-95505428D01*
X101419470Y-95505427D01*
X101422743Y-95504767D01*
X101425719Y-95503251D01*
X101425721Y-95503250D01*
X101554152Y-95437812D01*
X101554155Y-95437810D01*
X101557132Y-95436293D01*
X101562210Y-95431624D01*
X101612836Y-95385070D01*
X101668156Y-95334201D01*
X101721986Y-95247382D01*
X101745878Y-95208848D01*
X101745878Y-95208847D01*
X101747635Y-95206014D01*
X101748566Y-95202810D01*
X101788997Y-95063647D01*
X101788997Y-95063645D01*
X101789715Y-95061175D01*
X101789909Y-95058540D01*
X101790433Y-95051392D01*
X101790500Y-95050485D01*
X101790500Y-94542215D01*
X101786155Y-94510492D01*
X101775659Y-94433878D01*
X101775206Y-94430568D01*
X101724526Y-94313453D01*
X101723937Y-94275956D01*
X101736670Y-94262817D01*
X101734621Y-94260953D01*
X101750000Y-94244051D01*
X101750000Y-93644747D01*
X101747145Y-93637855D01*
X101740253Y-93635000D01*
X101334747Y-93635000D01*
X101327855Y-93637855D01*
X101325000Y-93644747D01*
X101325000Y-93746078D01*
X101325226Y-93749402D01*
X101339827Y-93855986D01*
X101341607Y-93862363D01*
X101386832Y-93966872D01*
X101387421Y-94004370D01*
X101361322Y-94031302D01*
X101338275Y-94035200D01*
X101205109Y-94025420D01*
X101147066Y-94037124D01*
X101110265Y-94029904D01*
X101089348Y-93998777D01*
X101095736Y-93963271D01*
X101110876Y-93938852D01*
X101110878Y-93938848D01*
X101112635Y-93936014D01*
X101113566Y-93932810D01*
X101153997Y-93793647D01*
X101153997Y-93793645D01*
X101154715Y-93791175D01*
X101154909Y-93788540D01*
X101155433Y-93781392D01*
X101155500Y-93780485D01*
X101155500Y-93375253D01*
X101325000Y-93375253D01*
X101327855Y-93382145D01*
X101334747Y-93385000D01*
X101740253Y-93385000D01*
X101747145Y-93382145D01*
X101750000Y-93375253D01*
X102000000Y-93375253D01*
X102002855Y-93382145D01*
X102009747Y-93385000D01*
X102415253Y-93385000D01*
X102422145Y-93382145D01*
X102425000Y-93375253D01*
X102425000Y-93273922D01*
X102424774Y-93270598D01*
X102410173Y-93164014D01*
X102408393Y-93157637D01*
X102351200Y-93025472D01*
X102347771Y-93019810D01*
X102257142Y-92907893D01*
X102252319Y-92903364D01*
X102134931Y-92819940D01*
X102129066Y-92816874D01*
X102009171Y-92773709D01*
X102001718Y-92774060D01*
X102000000Y-92775949D01*
X102000000Y-93375253D01*
X101750000Y-93375253D01*
X101750000Y-92783848D01*
X101747145Y-92776956D01*
X101743444Y-92775423D01*
X101695698Y-92785050D01*
X101689445Y-92787227D01*
X101561136Y-92852603D01*
X101555696Y-92856384D01*
X101449691Y-92953861D01*
X101445474Y-92958958D01*
X101369586Y-93081354D01*
X101366894Y-93087402D01*
X101326502Y-93226433D01*
X101325597Y-93231460D01*
X101325067Y-93238681D01*
X101325000Y-93240492D01*
X101325000Y-93375253D01*
X101155500Y-93375253D01*
X101155500Y-93272215D01*
X101151155Y-93240492D01*
X101140659Y-93163878D01*
X101140206Y-93160568D01*
X101138879Y-93157501D01*
X101081632Y-93025211D01*
X101081631Y-93025210D01*
X101080305Y-93022145D01*
X100985386Y-92904930D01*
X100862442Y-92817558D01*
X100859302Y-92816427D01*
X100859299Y-92816426D01*
X100723674Y-92767598D01*
X100723673Y-92767598D01*
X100720532Y-92766467D01*
X100717204Y-92766223D01*
X100717201Y-92766222D01*
X100637468Y-92760367D01*
X100570109Y-92755420D01*
X100566836Y-92756080D01*
X100566835Y-92756080D01*
X100425533Y-92784572D01*
X100425530Y-92784573D01*
X100422257Y-92785233D01*
X100419281Y-92786749D01*
X100419279Y-92786750D01*
X100290848Y-92852188D01*
X100290845Y-92852190D01*
X100287868Y-92853707D01*
X100176844Y-92955799D01*
X100175085Y-92958636D01*
X100113230Y-93058399D01*
X100097365Y-93083986D01*
X100096434Y-93087189D01*
X100096434Y-93087190D01*
X100074115Y-93164014D01*
X100055285Y-93228825D01*
X100055097Y-93231389D01*
X100055096Y-93231393D01*
X100054823Y-93235122D01*
X100054500Y-93239515D01*
X100054500Y-93747785D01*
X99885500Y-93747785D01*
X99885500Y-93272215D01*
X99881155Y-93240492D01*
X99870659Y-93163878D01*
X99870206Y-93160568D01*
X99868879Y-93157501D01*
X99811632Y-93025211D01*
X99811631Y-93025210D01*
X99810305Y-93022145D01*
X99715386Y-92904930D01*
X99592442Y-92817558D01*
X99589302Y-92816427D01*
X99589299Y-92816426D01*
X99453674Y-92767598D01*
X99453673Y-92767598D01*
X99450532Y-92766467D01*
X99447204Y-92766223D01*
X99447201Y-92766222D01*
X99367468Y-92760367D01*
X99300109Y-92755420D01*
X99296836Y-92756080D01*
X99296835Y-92756080D01*
X99155533Y-92784572D01*
X99155530Y-92784573D01*
X99152257Y-92785233D01*
X99149281Y-92786749D01*
X99149279Y-92786750D01*
X99020848Y-92852188D01*
X99020845Y-92852190D01*
X99017868Y-92853707D01*
X98906844Y-92955799D01*
X98905085Y-92958636D01*
X98843230Y-93058399D01*
X98827365Y-93083986D01*
X98826434Y-93087189D01*
X98826434Y-93087190D01*
X98804115Y-93164014D01*
X98785285Y-93228825D01*
X98785097Y-93231389D01*
X98785096Y-93231393D01*
X98784823Y-93235122D01*
X98784500Y-93239515D01*
X98784500Y-93747785D01*
X98784726Y-93749432D01*
X98784726Y-93749438D01*
X98790083Y-93788540D01*
X98799794Y-93859432D01*
X98801121Y-93862498D01*
X98801121Y-93862499D01*
X98846269Y-93966830D01*
X98846858Y-94004328D01*
X98820759Y-94031260D01*
X98797710Y-94035158D01*
X98744630Y-94031260D01*
X98665109Y-94025420D01*
X98606392Y-94037260D01*
X98569592Y-94030040D01*
X98548675Y-93998913D01*
X98555063Y-93963407D01*
X98570413Y-93938650D01*
X98573106Y-93932598D01*
X98613498Y-93793567D01*
X98614403Y-93788540D01*
X98614933Y-93781319D01*
X98615000Y-93779508D01*
X98615000Y-93644747D01*
X98612145Y-93637855D01*
X98605253Y-93635000D01*
X98199747Y-93635000D01*
X98192855Y-93637855D01*
X98190000Y-93644747D01*
X98190000Y-94236152D01*
X98192855Y-94243044D01*
X98193910Y-94243481D01*
X98220428Y-94270000D01*
X98220428Y-94307503D01*
X98216805Y-94314568D01*
X98209265Y-94326729D01*
X98194125Y-94351148D01*
X98192365Y-94353986D01*
X98191434Y-94357189D01*
X98191434Y-94357190D01*
X98169115Y-94434014D01*
X98150285Y-94498825D01*
X98150097Y-94501389D01*
X98150096Y-94501393D01*
X98149823Y-94505122D01*
X98149500Y-94509515D01*
X98149500Y-95017785D01*
X97980500Y-95017785D01*
X97980500Y-94542215D01*
X97976155Y-94510492D01*
X97965659Y-94433878D01*
X97965206Y-94430568D01*
X97914526Y-94313453D01*
X97913937Y-94275956D01*
X97926670Y-94262817D01*
X97924621Y-94260953D01*
X97940000Y-94244051D01*
X97940000Y-93644747D01*
X97937145Y-93637855D01*
X97930253Y-93635000D01*
X97524747Y-93635000D01*
X97517855Y-93637855D01*
X97515000Y-93644747D01*
X97515000Y-93746078D01*
X97515226Y-93749402D01*
X97529827Y-93855986D01*
X97531607Y-93862363D01*
X97576832Y-93966872D01*
X97577421Y-94004370D01*
X97551322Y-94031302D01*
X97528275Y-94035200D01*
X97395109Y-94025420D01*
X97337066Y-94037124D01*
X97300265Y-94029904D01*
X97279348Y-93998777D01*
X97285736Y-93963271D01*
X97300876Y-93938852D01*
X97300878Y-93938848D01*
X97302635Y-93936014D01*
X97303566Y-93932810D01*
X97343997Y-93793647D01*
X97343997Y-93793645D01*
X97344715Y-93791175D01*
X97344909Y-93788540D01*
X97345433Y-93781392D01*
X97345500Y-93780485D01*
X97345500Y-93375253D01*
X97515000Y-93375253D01*
X97517855Y-93382145D01*
X97524747Y-93385000D01*
X97930253Y-93385000D01*
X97937145Y-93382145D01*
X97940000Y-93375253D01*
X98190000Y-93375253D01*
X98192855Y-93382145D01*
X98199747Y-93385000D01*
X98605253Y-93385000D01*
X98612145Y-93382145D01*
X98615000Y-93375253D01*
X98615000Y-93273922D01*
X98614774Y-93270598D01*
X98600173Y-93164014D01*
X98598393Y-93157637D01*
X98541200Y-93025472D01*
X98537771Y-93019810D01*
X98447142Y-92907893D01*
X98442319Y-92903364D01*
X98324931Y-92819940D01*
X98319066Y-92816874D01*
X98199171Y-92773709D01*
X98191718Y-92774060D01*
X98190000Y-92775949D01*
X98190000Y-93375253D01*
X97940000Y-93375253D01*
X97940000Y-92783848D01*
X97937145Y-92776956D01*
X97933444Y-92775423D01*
X97885698Y-92785050D01*
X97879445Y-92787227D01*
X97751136Y-92852603D01*
X97745696Y-92856384D01*
X97639691Y-92953861D01*
X97635474Y-92958958D01*
X97559586Y-93081354D01*
X97556894Y-93087402D01*
X97516502Y-93226433D01*
X97515597Y-93231460D01*
X97515067Y-93238681D01*
X97515000Y-93240492D01*
X97515000Y-93375253D01*
X97345500Y-93375253D01*
X97345500Y-93272215D01*
X97341155Y-93240492D01*
X97330659Y-93163878D01*
X97330206Y-93160568D01*
X97328879Y-93157501D01*
X97271632Y-93025211D01*
X97271631Y-93025210D01*
X97270305Y-93022145D01*
X97175386Y-92904930D01*
X97052442Y-92817558D01*
X97049302Y-92816427D01*
X97049299Y-92816426D01*
X96913674Y-92767598D01*
X96913673Y-92767598D01*
X96910532Y-92766467D01*
X96907204Y-92766223D01*
X96907201Y-92766222D01*
X96875794Y-92763916D01*
X96848067Y-92761880D01*
X96814564Y-92745030D01*
X96802789Y-92709423D01*
X96819639Y-92675919D01*
X96831727Y-92668248D01*
X97039047Y-92575943D01*
X97042218Y-92574662D01*
X97557173Y-92387234D01*
X97560395Y-92386187D01*
X98060440Y-92242801D01*
X98068351Y-92241224D01*
X100073166Y-92010786D01*
X100086786Y-92011127D01*
G37*
%TD.AperFunction*%
%TD*%
M02*
