%TF.GenerationSoftware,KiCad,Pcbnew,(6.0.2)*%
%TF.CreationDate,2022-06-04T16:58:09+03:00*%
%TF.ProjectId,TypeC_Bulgin_PCB,54797065-435f-4427-956c-67696e5f5043,rev?*%
%TF.SameCoordinates,Original*%
%TF.FileFunction,Copper,L2,Bot*%
%TF.FilePolarity,Positive*%
%FSLAX46Y46*%
G04 Gerber Fmt 4.6, Leading zero omitted, Abs format (unit mm)*
G04 Created by KiCad (PCBNEW (6.0.2)) date 2022-06-04 16:58:09*
%MOMM*%
%LPD*%
G01*
G04 APERTURE LIST*
G04 Aperture macros list*
%AMRoundRect*
0 Rectangle with rounded corners*
0 $1 Rounding radius*
0 $2 $3 $4 $5 $6 $7 $8 $9 X,Y pos of 4 corners*
0 Add a 4 corners polygon primitive as box body*
4,1,4,$2,$3,$4,$5,$6,$7,$8,$9,$2,$3,0*
0 Add four circle primitives for the rounded corners*
1,1,$1+$1,$2,$3*
1,1,$1+$1,$4,$5*
1,1,$1+$1,$6,$7*
1,1,$1+$1,$8,$9*
0 Add four rect primitives between the rounded corners*
20,1,$1+$1,$2,$3,$4,$5,0*
20,1,$1+$1,$4,$5,$6,$7,0*
20,1,$1+$1,$6,$7,$8,$9,0*
20,1,$1+$1,$8,$9,$2,$3,0*%
G04 Aperture macros list end*
%TA.AperFunction,ComponentPad*%
%ADD10RoundRect,0.153846X-0.246154X0.396154X-0.246154X-0.396154X0.246154X-0.396154X0.246154X0.396154X0*%
%TD*%
%TA.AperFunction,ComponentPad*%
%ADD11O,0.800000X1.200000*%
%TD*%
%TA.AperFunction,ComponentPad*%
%ADD12O,1.700000X1.200000*%
%TD*%
%TA.AperFunction,ComponentPad*%
%ADD13RoundRect,0.153846X0.246154X-0.396154X0.246154X0.396154X-0.246154X0.396154X-0.246154X-0.396154X0*%
%TD*%
%TA.AperFunction,ComponentPad*%
%ADD14R,0.850000X0.850000*%
%TD*%
%TA.AperFunction,ViaPad*%
%ADD15C,0.800000*%
%TD*%
%TA.AperFunction,Conductor*%
%ADD16C,0.112000*%
%TD*%
%TA.AperFunction,Conductor*%
%ADD17C,0.800000*%
%TD*%
G04 APERTURE END LIST*
D10*
%TO.P,J3,1,Pin_1*%
%TO.N,VBUS*%
X155225000Y-92630000D03*
D11*
%TO.P,J3,2,Pin_2*%
X154590000Y-93900000D03*
%TO.P,J3,3,Pin_3*%
%TO.N,unconnected-(J3-Pad3)*%
X153955000Y-92630000D03*
%TO.P,J3,4,Pin_4*%
%TO.N,GND*%
X153320000Y-93900000D03*
%TO.P,J3,5,Pin_5*%
%TO.N,TX1+*%
X152685000Y-92630000D03*
%TO.P,J3,6,Pin_6*%
%TO.N,TX1-*%
X152050000Y-93900000D03*
%TO.P,J3,7,Pin_7*%
%TO.N,GND*%
X151415000Y-92630000D03*
%TO.P,J3,8,Pin_8*%
%TO.N,unconnected-(J3-Pad8)*%
X150780000Y-93900000D03*
%TO.P,J3,9,Pin_9*%
%TO.N,unconnected-(J3-Pad9)*%
X150145000Y-92630000D03*
%TO.P,J3,10,Pin_10*%
%TO.N,GND*%
X149510000Y-93900000D03*
%TO.P,J3,11,Pin_11*%
%TO.N,RX1-*%
X148875000Y-92630000D03*
%TO.P,J3,12,Pin_12*%
%TO.N,RX1+*%
X148240000Y-93900000D03*
%TO.P,J3,13,Pin_13*%
%TO.N,GND*%
X147605000Y-92630000D03*
%TD*%
D12*
%TO.P,J6,S1,SHIELD*%
%TO.N,Net-(J1-Pad1)*%
X147100000Y-86030000D03*
X155300000Y-88970000D03*
X155300000Y-86030000D03*
X147100000Y-88970000D03*
%TD*%
D13*
%TO.P,J4,1,Pin_1*%
%TO.N,VBUS*%
X147360000Y-82280000D03*
D11*
%TO.P,J4,2,Pin_2*%
X147995000Y-81010000D03*
%TO.P,J4,3,Pin_3*%
%TO.N,unconnected-(J4-Pad3)*%
X148630000Y-82280000D03*
%TO.P,J4,4,Pin_4*%
%TO.N,GND*%
X149265000Y-81010000D03*
%TO.P,J4,5,Pin_5*%
%TO.N,TX2+*%
X149900000Y-82280000D03*
%TO.P,J4,6,Pin_6*%
%TO.N,TX2-*%
X150535000Y-81010000D03*
%TO.P,J4,7,Pin_7*%
%TO.N,GND*%
X151170000Y-82280000D03*
%TO.P,J4,8,Pin_8*%
%TO.N,unconnected-(J4-Pad8)*%
X151805000Y-81010000D03*
%TO.P,J4,9,Pin_9*%
%TO.N,unconnected-(J4-Pad9)*%
X152440000Y-82280000D03*
%TO.P,J4,10,Pin_10*%
%TO.N,GND*%
X153075000Y-81010000D03*
%TO.P,J4,11,Pin_11*%
%TO.N,RX2-*%
X153710000Y-82280000D03*
%TO.P,J4,12,Pin_12*%
%TO.N,RX2+*%
X154345000Y-81010000D03*
%TO.P,J4,13,Pin_13*%
%TO.N,GND*%
X154980000Y-82280000D03*
%TD*%
D14*
%TO.P,J1,1,Pin_1*%
%TO.N,Net-(J1-Pad1)*%
X144340000Y-87390000D03*
%TD*%
D15*
%TO.N,GND*%
X156280000Y-82500000D03*
X157240000Y-90380000D03*
X145260000Y-83710000D03*
X157380000Y-87610000D03*
X147717610Y-87171781D03*
X156690000Y-91890000D03*
X153510000Y-91390000D03*
X154710000Y-84590000D03*
X154710000Y-87490000D03*
X147580000Y-90750000D03*
X145970000Y-84880000D03*
X157080000Y-84480000D03*
X150710000Y-87150000D03*
X149930000Y-91430000D03*
X144390000Y-85500000D03*
X146310000Y-92670000D03*
X145860000Y-90850000D03*
X144460000Y-89200000D03*
X146120000Y-82470000D03*
X151670000Y-87510000D03*
%TO.N,TX1-*%
X148736500Y-87109772D03*
%TO.N,TX1+*%
X149663500Y-87109772D03*
%TO.N,TX2-*%
X153663500Y-87496990D03*
%TO.N,TX2+*%
X152736500Y-87496990D03*
%TD*%
D16*
%TO.N,TX1-*%
X149080500Y-88019500D02*
X149080500Y-87453772D01*
X152050000Y-90989000D02*
X149080500Y-88019500D01*
X149080500Y-87453772D02*
X148736500Y-87109772D01*
X152050000Y-93900000D02*
X152050000Y-90989000D01*
%TO.N,TX1+*%
X152289001Y-90890001D02*
X152194500Y-90795500D01*
X149319500Y-87453772D02*
X149663500Y-87109772D01*
X149319500Y-87920500D02*
X149319500Y-87453772D01*
X152289001Y-92234001D02*
X152289001Y-90890001D01*
X151541632Y-89785251D02*
X151481735Y-89845147D01*
X152016808Y-90260427D02*
X151956911Y-90320323D01*
X151719323Y-90082737D02*
X151719324Y-90082736D01*
X152194500Y-90557912D02*
X152254396Y-90498015D01*
X151719323Y-90320323D02*
X151719324Y-90320324D01*
X151244147Y-89845147D02*
X151244148Y-89845148D01*
X151244148Y-89845148D02*
X149319500Y-87920500D01*
X152016809Y-90260426D02*
X152016808Y-90260427D01*
X152194499Y-90557913D02*
X152194500Y-90557912D01*
X152685000Y-92630000D02*
X152289001Y-92234001D01*
X151719324Y-90082736D02*
X151779220Y-90022839D01*
X151541633Y-89785250D02*
X151541632Y-89785251D01*
X152194499Y-90557913D02*
G75*
G03*
X152194500Y-90795500I118795J-118793D01*
G01*
X151719323Y-90082737D02*
G75*
G03*
X151719324Y-90320324I118795J-118793D01*
G01*
X151244147Y-89845147D02*
G75*
G03*
X151481735Y-89845147I118794J118794D01*
G01*
X151541633Y-89785250D02*
G75*
G02*
X151779220Y-89785251I118793J-118795D01*
G01*
X152254396Y-90260427D02*
G75*
G02*
X152254396Y-90498015I-118794J-118794D01*
G01*
X152016809Y-90260426D02*
G75*
G02*
X152254396Y-90260427I118793J-118795D01*
G01*
X151779220Y-89785251D02*
G75*
G02*
X151779220Y-90022839I-118794J-118794D01*
G01*
X151719323Y-90320323D02*
G75*
G03*
X151956911Y-90320323I118794J118794D01*
G01*
%TO.N,TX2-*%
X153663500Y-87496990D02*
X153319500Y-87152990D01*
X153319500Y-86650500D02*
X150535000Y-83866000D01*
X150535000Y-83866000D02*
X150535000Y-81010000D01*
X153319500Y-87152990D02*
X153319500Y-86650500D01*
%TO.N,TX2+*%
X149900000Y-82280000D02*
X150295999Y-82675999D01*
X150400499Y-84307087D02*
X150400500Y-84307087D01*
X150875675Y-84782262D02*
X150815778Y-84842158D01*
X151350849Y-85019849D02*
X151350850Y-85019850D01*
X150578190Y-84604571D02*
X150638086Y-84544674D01*
X150400500Y-84307087D02*
X150340603Y-84366983D01*
X150578190Y-84604570D02*
X150578190Y-84604571D01*
X151053365Y-85079745D02*
X151053365Y-85079746D01*
X150875674Y-84544674D02*
X150875675Y-84544675D01*
X150295999Y-82675999D02*
X150295999Y-83964999D01*
X151350850Y-85019850D02*
X153080500Y-86749500D01*
X150295999Y-83964999D02*
X150400500Y-84069500D01*
X150875674Y-84782262D02*
X150875675Y-84782262D01*
X153080500Y-86749500D02*
X153080500Y-87152990D01*
X153080500Y-87152990D02*
X152736500Y-87496990D01*
X151053365Y-85079746D02*
X151113261Y-85019849D01*
X151053365Y-85079745D02*
G75*
G02*
X150815778Y-85079746I-118794J118794D01*
G01*
X150875674Y-84544674D02*
G75*
G03*
X150638086Y-84544674I-118794J-118794D01*
G01*
X150340603Y-84604571D02*
G75*
G02*
X150340603Y-84366983I118794J118794D01*
G01*
X150400499Y-84307087D02*
G75*
G03*
X150400500Y-84069500I-118794J118794D01*
G01*
X150578190Y-84604570D02*
G75*
G02*
X150340603Y-84604571I-118794J118794D01*
G01*
X151350849Y-85019849D02*
G75*
G03*
X151113261Y-85019849I-118794J-118794D01*
G01*
X150815778Y-85079746D02*
G75*
G02*
X150815778Y-84842158I118794J118794D01*
G01*
X150875674Y-84782262D02*
G75*
G03*
X150875675Y-84544675I-118794J118794D01*
G01*
D17*
%TO.N,Net-(J1-Pad1)*%
X147100000Y-88110000D02*
X147100000Y-88970000D01*
X146380000Y-87390000D02*
X146599521Y-87170479D01*
X144340000Y-87390000D02*
X146380000Y-87390000D01*
X146599521Y-87170479D02*
X146599521Y-86530479D01*
X146380000Y-87390000D02*
X147100000Y-88110000D01*
X146599521Y-86530479D02*
X147100000Y-86030000D01*
%TD*%
%TA.AperFunction,Conductor*%
%TO.N,GND*%
G36*
X151286786Y-79511127D02*
G01*
X153714196Y-79914096D01*
X153722930Y-79916389D01*
X153908939Y-79984091D01*
X153915485Y-79987033D01*
X154077561Y-80074662D01*
X154265165Y-80176094D01*
X154288816Y-80205196D01*
X154284962Y-80242501D01*
X154255859Y-80266153D01*
X154251547Y-80267228D01*
X154162257Y-80285233D01*
X154159281Y-80286749D01*
X154159279Y-80286750D01*
X154030848Y-80352188D01*
X154030845Y-80352190D01*
X154027868Y-80353707D01*
X153916844Y-80455799D01*
X153915085Y-80458636D01*
X153853230Y-80558399D01*
X153837365Y-80583986D01*
X153836434Y-80587189D01*
X153836434Y-80587190D01*
X153814115Y-80664014D01*
X153795285Y-80728825D01*
X153795097Y-80731389D01*
X153795096Y-80731393D01*
X153794823Y-80735122D01*
X153794500Y-80739515D01*
X153794500Y-81247785D01*
X153794726Y-81249432D01*
X153794726Y-81249438D01*
X153800083Y-81288540D01*
X153809794Y-81359432D01*
X153811121Y-81362498D01*
X153811121Y-81362499D01*
X153856269Y-81466830D01*
X153856858Y-81504328D01*
X153830759Y-81531260D01*
X153807710Y-81535158D01*
X153754630Y-81531260D01*
X153675109Y-81525420D01*
X153616392Y-81537260D01*
X153579592Y-81530040D01*
X153558675Y-81498913D01*
X153565063Y-81463407D01*
X153580413Y-81438650D01*
X153583106Y-81432598D01*
X153623498Y-81293567D01*
X153624403Y-81288540D01*
X153624933Y-81281319D01*
X153625000Y-81279508D01*
X153625000Y-81144747D01*
X153622145Y-81137855D01*
X153615253Y-81135000D01*
X153209747Y-81135000D01*
X153202855Y-81137855D01*
X153200000Y-81144747D01*
X153200000Y-81736152D01*
X153202855Y-81743044D01*
X153203910Y-81743481D01*
X153230428Y-81770000D01*
X153230428Y-81807503D01*
X153226805Y-81814568D01*
X153219265Y-81826729D01*
X153204125Y-81851148D01*
X153202365Y-81853986D01*
X153201434Y-81857189D01*
X153201434Y-81857190D01*
X153179115Y-81934014D01*
X153160285Y-81998825D01*
X153160097Y-82001389D01*
X153160096Y-82001393D01*
X153159823Y-82005122D01*
X153159500Y-82009515D01*
X153159500Y-82517785D01*
X153159726Y-82519432D01*
X153159726Y-82519438D01*
X153165083Y-82558540D01*
X153174794Y-82629432D01*
X153176121Y-82632498D01*
X153176121Y-82632499D01*
X153227293Y-82750749D01*
X153234695Y-82767855D01*
X153329614Y-82885070D01*
X153452558Y-82972442D01*
X153455698Y-82973573D01*
X153455701Y-82973574D01*
X153591326Y-83022402D01*
X153591327Y-83022402D01*
X153594468Y-83023533D01*
X153597796Y-83023777D01*
X153597799Y-83023778D01*
X153677532Y-83029633D01*
X153744891Y-83034580D01*
X153748164Y-83033920D01*
X153748165Y-83033920D01*
X153889467Y-83005428D01*
X153889470Y-83005427D01*
X153892743Y-83004767D01*
X153895719Y-83003251D01*
X153895721Y-83003250D01*
X154024152Y-82937812D01*
X154024155Y-82937810D01*
X154027132Y-82936293D01*
X154032210Y-82931624D01*
X154082836Y-82885070D01*
X154138156Y-82834201D01*
X154191986Y-82747382D01*
X154215878Y-82708848D01*
X154215878Y-82708847D01*
X154217635Y-82706014D01*
X154218566Y-82702810D01*
X154258997Y-82563647D01*
X154258997Y-82563645D01*
X154259715Y-82561175D01*
X154259909Y-82558540D01*
X154260433Y-82551392D01*
X154260500Y-82550485D01*
X154260500Y-82516078D01*
X154430000Y-82516078D01*
X154430226Y-82519402D01*
X154444827Y-82625986D01*
X154446607Y-82632363D01*
X154503800Y-82764528D01*
X154507229Y-82770190D01*
X154597858Y-82882107D01*
X154602681Y-82886636D01*
X154720069Y-82970060D01*
X154725934Y-82973126D01*
X154845829Y-83016291D01*
X154853282Y-83015940D01*
X154855000Y-83014051D01*
X154855000Y-83006152D01*
X155105000Y-83006152D01*
X155107855Y-83013044D01*
X155111556Y-83014577D01*
X155159302Y-83004950D01*
X155165555Y-83002773D01*
X155293864Y-82937397D01*
X155299304Y-82933616D01*
X155405309Y-82836139D01*
X155409526Y-82831042D01*
X155485414Y-82708646D01*
X155488106Y-82702598D01*
X155528498Y-82563567D01*
X155529403Y-82558540D01*
X155529933Y-82551319D01*
X155530000Y-82549508D01*
X155530000Y-82414747D01*
X155527145Y-82407855D01*
X155520253Y-82405000D01*
X155114747Y-82405000D01*
X155107855Y-82407855D01*
X155105000Y-82414747D01*
X155105000Y-83006152D01*
X154855000Y-83006152D01*
X154855000Y-82414747D01*
X154852145Y-82407855D01*
X154845253Y-82405000D01*
X154439747Y-82405000D01*
X154432855Y-82407855D01*
X154430000Y-82414747D01*
X154430000Y-82516078D01*
X154260500Y-82516078D01*
X154260500Y-82042215D01*
X154256155Y-82010492D01*
X154245659Y-81933878D01*
X154245206Y-81930568D01*
X154213544Y-81857402D01*
X154198731Y-81823170D01*
X154198142Y-81785672D01*
X154224241Y-81758740D01*
X154247290Y-81754842D01*
X154292322Y-81758149D01*
X154379891Y-81764580D01*
X154438608Y-81752740D01*
X154475408Y-81759960D01*
X154496325Y-81791087D01*
X154489937Y-81826593D01*
X154474587Y-81851350D01*
X154471894Y-81857402D01*
X154431502Y-81996433D01*
X154430597Y-82001460D01*
X154430067Y-82008681D01*
X154430000Y-82010492D01*
X154430000Y-82145253D01*
X154432855Y-82152145D01*
X154439747Y-82155000D01*
X154845253Y-82155000D01*
X154852145Y-82152145D01*
X154855000Y-82145253D01*
X155105000Y-82145253D01*
X155107855Y-82152145D01*
X155114747Y-82155000D01*
X155520253Y-82155000D01*
X155527145Y-82152145D01*
X155530000Y-82145253D01*
X155530000Y-82043922D01*
X155529774Y-82040598D01*
X155515173Y-81934014D01*
X155513393Y-81927637D01*
X155456200Y-81795472D01*
X155452771Y-81789810D01*
X155362142Y-81677893D01*
X155357319Y-81673364D01*
X155239931Y-81589940D01*
X155234066Y-81586874D01*
X155114171Y-81543709D01*
X155106718Y-81544060D01*
X155105000Y-81545949D01*
X155105000Y-82145253D01*
X154855000Y-82145253D01*
X154855000Y-81553848D01*
X154852145Y-81546956D01*
X154851090Y-81546519D01*
X154824572Y-81520000D01*
X154824572Y-81482497D01*
X154828197Y-81475428D01*
X154835651Y-81463407D01*
X154844521Y-81449101D01*
X154850878Y-81438848D01*
X154850878Y-81438847D01*
X154852635Y-81436014D01*
X154853566Y-81432810D01*
X154893997Y-81293647D01*
X154893997Y-81293645D01*
X154894715Y-81291175D01*
X154894909Y-81288540D01*
X154895433Y-81281392D01*
X154895500Y-81280485D01*
X154895500Y-80772215D01*
X154891155Y-80740492D01*
X154880659Y-80663878D01*
X154880206Y-80660568D01*
X154850569Y-80592081D01*
X154849980Y-80554583D01*
X154876079Y-80527651D01*
X154913577Y-80527062D01*
X154918837Y-80529515D01*
X155892613Y-81056006D01*
X155905635Y-81066225D01*
X157713388Y-83063271D01*
X157805457Y-83164981D01*
X157813011Y-83176059D01*
X158617030Y-84794024D01*
X158621263Y-84806559D01*
X158812672Y-85800824D01*
X158978982Y-86664714D01*
X158979846Y-86675376D01*
X158960387Y-87356465D01*
X158940379Y-88056763D01*
X158940086Y-88067001D01*
X158939549Y-88072964D01*
X158680895Y-89774115D01*
X158677722Y-89785499D01*
X158135396Y-91094831D01*
X158014839Y-91385889D01*
X158012004Y-91391638D01*
X157945765Y-91506368D01*
X157939726Y-91514675D01*
X156175828Y-93471350D01*
X156152960Y-93496717D01*
X156146496Y-93502703D01*
X155355434Y-94112951D01*
X155351471Y-94115708D01*
X155215466Y-94200693D01*
X155178477Y-94206883D01*
X155147946Y-94185105D01*
X155140500Y-94159139D01*
X155140500Y-93662215D01*
X155136155Y-93630492D01*
X155125659Y-93553878D01*
X155125206Y-93550568D01*
X155093544Y-93477402D01*
X155066632Y-93415211D01*
X155066631Y-93415210D01*
X155065305Y-93412145D01*
X155063203Y-93409550D01*
X155061472Y-93406691D01*
X155062565Y-93406029D01*
X155053190Y-93374377D01*
X155071085Y-93341419D01*
X155101921Y-93330500D01*
X155509186Y-93330499D01*
X155516374Y-93330499D01*
X155542907Y-93327343D01*
X155546264Y-93325852D01*
X155546267Y-93325851D01*
X155642389Y-93283155D01*
X155642390Y-93283154D01*
X155646524Y-93281318D01*
X155649719Y-93278117D01*
X155649721Y-93278116D01*
X155720155Y-93207558D01*
X155726624Y-93201078D01*
X155730802Y-93191629D01*
X155741709Y-93166956D01*
X155772468Y-93097382D01*
X155775500Y-93071375D01*
X155775499Y-92188626D01*
X155772343Y-92162093D01*
X155764961Y-92145472D01*
X155728155Y-92062611D01*
X155728154Y-92062610D01*
X155726318Y-92058476D01*
X155723117Y-92055281D01*
X155723116Y-92055279D01*
X155649592Y-91981884D01*
X155646078Y-91978376D01*
X155641573Y-91976384D01*
X155559138Y-91939940D01*
X155542382Y-91932532D01*
X155538726Y-91932106D01*
X155538723Y-91932105D01*
X155529175Y-91930992D01*
X155516375Y-91929500D01*
X155228050Y-91929500D01*
X154933626Y-91929501D01*
X154907093Y-91932657D01*
X154903736Y-91934148D01*
X154903733Y-91934149D01*
X154807611Y-91976845D01*
X154807610Y-91976846D01*
X154803476Y-91978682D01*
X154800281Y-91981883D01*
X154800279Y-91981884D01*
X154782746Y-91999448D01*
X154723376Y-92058922D01*
X154677532Y-92162618D01*
X154674500Y-92188625D01*
X154674501Y-93071374D01*
X154674672Y-93072809D01*
X154674672Y-93072814D01*
X154677419Y-93095911D01*
X154667260Y-93132012D01*
X154634549Y-93150355D01*
X154625176Y-93150566D01*
X154555109Y-93145420D01*
X154497066Y-93157124D01*
X154460265Y-93149904D01*
X154439348Y-93118777D01*
X154445736Y-93083271D01*
X154460876Y-93058852D01*
X154460878Y-93058848D01*
X154462635Y-93056014D01*
X154463566Y-93052810D01*
X154503997Y-92913647D01*
X154503997Y-92913645D01*
X154504715Y-92911175D01*
X154504909Y-92908540D01*
X154505433Y-92901392D01*
X154505500Y-92900485D01*
X154505500Y-92392215D01*
X154501155Y-92360492D01*
X154490659Y-92283878D01*
X154490206Y-92280568D01*
X154458544Y-92207402D01*
X154431632Y-92145211D01*
X154431631Y-92145210D01*
X154430305Y-92142145D01*
X154335386Y-92024930D01*
X154212442Y-91937558D01*
X154209302Y-91936427D01*
X154209299Y-91936426D01*
X154073674Y-91887598D01*
X154073673Y-91887598D01*
X154070532Y-91886467D01*
X154067204Y-91886223D01*
X154067201Y-91886222D01*
X153987468Y-91880367D01*
X153920109Y-91875420D01*
X153916836Y-91876080D01*
X153916835Y-91876080D01*
X153775533Y-91904572D01*
X153775530Y-91904573D01*
X153772257Y-91905233D01*
X153769281Y-91906749D01*
X153769279Y-91906750D01*
X153640848Y-91972188D01*
X153640845Y-91972190D01*
X153637868Y-91973707D01*
X153635408Y-91975969D01*
X153632458Y-91978682D01*
X153526844Y-92075799D01*
X153525085Y-92078636D01*
X153456889Y-92188626D01*
X153447365Y-92203986D01*
X153446434Y-92207189D01*
X153446434Y-92207190D01*
X153424115Y-92284014D01*
X153405285Y-92348825D01*
X153405097Y-92351389D01*
X153405096Y-92351393D01*
X153404823Y-92355122D01*
X153404500Y-92359515D01*
X153404500Y-92867785D01*
X153404726Y-92869432D01*
X153404726Y-92869438D01*
X153410083Y-92908540D01*
X153419794Y-92979432D01*
X153466288Y-93086872D01*
X153470474Y-93096546D01*
X153471063Y-93134044D01*
X153458330Y-93147183D01*
X153460379Y-93149047D01*
X153445000Y-93165949D01*
X153445000Y-93765253D01*
X153447855Y-93772145D01*
X153454747Y-93775000D01*
X153860253Y-93775000D01*
X153867145Y-93772145D01*
X153870000Y-93765253D01*
X153870000Y-93663922D01*
X153869774Y-93660598D01*
X153855173Y-93554014D01*
X153853393Y-93547637D01*
X153808168Y-93443128D01*
X153807579Y-93405630D01*
X153833678Y-93378698D01*
X153856725Y-93374800D01*
X153989891Y-93384580D01*
X154047934Y-93372876D01*
X154084735Y-93380096D01*
X154105652Y-93411223D01*
X154099264Y-93446729D01*
X154084124Y-93471148D01*
X154084122Y-93471152D01*
X154082365Y-93473986D01*
X154081434Y-93477189D01*
X154081434Y-93477190D01*
X154047840Y-93592822D01*
X154040285Y-93618825D01*
X154040097Y-93621389D01*
X154040096Y-93621393D01*
X154039891Y-93624188D01*
X154039500Y-93629515D01*
X154039500Y-94137785D01*
X154039726Y-94139432D01*
X154039726Y-94139438D01*
X154045083Y-94178540D01*
X154054794Y-94249432D01*
X154056121Y-94252498D01*
X154056121Y-94252499D01*
X154086548Y-94322810D01*
X154114695Y-94387855D01*
X154209614Y-94505070D01*
X154269926Y-94547932D01*
X154299832Y-94569185D01*
X154319761Y-94600954D01*
X154311388Y-94637511D01*
X154290626Y-94654217D01*
X154139875Y-94718329D01*
X153920464Y-94811641D01*
X153918046Y-94812594D01*
X153716734Y-94885866D01*
X153642835Y-94912763D01*
X153639597Y-94913815D01*
X153427641Y-94974593D01*
X153112824Y-95064865D01*
X153109506Y-95065692D01*
X152941001Y-95101509D01*
X152936813Y-95102211D01*
X151822991Y-95239631D01*
X151816991Y-95240000D01*
X150258661Y-95240000D01*
X150251841Y-95239523D01*
X149963040Y-95198934D01*
X149958225Y-95198010D01*
X148689948Y-94887987D01*
X148684824Y-94886433D01*
X148292574Y-94743666D01*
X148264924Y-94718329D01*
X148263288Y-94680862D01*
X148288625Y-94653212D01*
X148299648Y-94649588D01*
X148419467Y-94625428D01*
X148419470Y-94625427D01*
X148422743Y-94624767D01*
X148425719Y-94623251D01*
X148425721Y-94623250D01*
X148554152Y-94557812D01*
X148554155Y-94557810D01*
X148557132Y-94556293D01*
X148668156Y-94454201D01*
X148747635Y-94326014D01*
X148748566Y-94322810D01*
X148788997Y-94183647D01*
X148788997Y-94183645D01*
X148789715Y-94181175D01*
X148789909Y-94178540D01*
X148790433Y-94171392D01*
X148790500Y-94170485D01*
X148790500Y-94136078D01*
X148960000Y-94136078D01*
X148960226Y-94139402D01*
X148974827Y-94245986D01*
X148976607Y-94252363D01*
X149033800Y-94384528D01*
X149037229Y-94390190D01*
X149127858Y-94502107D01*
X149132681Y-94506636D01*
X149250069Y-94590060D01*
X149255934Y-94593126D01*
X149375829Y-94636291D01*
X149383282Y-94635940D01*
X149385000Y-94634051D01*
X149385000Y-94626152D01*
X149635000Y-94626152D01*
X149637855Y-94633044D01*
X149641556Y-94634577D01*
X149689302Y-94624950D01*
X149695555Y-94622773D01*
X149823864Y-94557397D01*
X149829304Y-94553616D01*
X149935309Y-94456139D01*
X149939526Y-94451042D01*
X150015414Y-94328646D01*
X150018106Y-94322598D01*
X150058498Y-94183567D01*
X150059403Y-94178540D01*
X150059933Y-94171319D01*
X150060000Y-94169508D01*
X150060000Y-94034747D01*
X150057145Y-94027855D01*
X150050253Y-94025000D01*
X149644747Y-94025000D01*
X149637855Y-94027855D01*
X149635000Y-94034747D01*
X149635000Y-94626152D01*
X149385000Y-94626152D01*
X149385000Y-94034747D01*
X149382145Y-94027855D01*
X149375253Y-94025000D01*
X148969747Y-94025000D01*
X148962855Y-94027855D01*
X148960000Y-94034747D01*
X148960000Y-94136078D01*
X148790500Y-94136078D01*
X148790500Y-93662215D01*
X148786155Y-93630492D01*
X148775659Y-93553878D01*
X148775206Y-93550568D01*
X148754493Y-93502703D01*
X148728731Y-93443170D01*
X148728142Y-93405672D01*
X148754241Y-93378740D01*
X148777290Y-93374842D01*
X148822322Y-93378149D01*
X148909891Y-93384580D01*
X148968608Y-93372740D01*
X149005408Y-93379960D01*
X149026325Y-93411087D01*
X149019937Y-93446593D01*
X149004587Y-93471350D01*
X149001894Y-93477402D01*
X148961502Y-93616433D01*
X148960597Y-93621460D01*
X148960067Y-93628681D01*
X148960000Y-93630492D01*
X148960000Y-93765253D01*
X148962855Y-93772145D01*
X148969747Y-93775000D01*
X149375253Y-93775000D01*
X149382145Y-93772145D01*
X149385000Y-93765253D01*
X149385000Y-93173848D01*
X149382145Y-93166956D01*
X149381090Y-93166519D01*
X149354572Y-93140000D01*
X149354572Y-93102497D01*
X149358197Y-93095428D01*
X149359255Y-93093723D01*
X149374521Y-93069101D01*
X149380878Y-93058848D01*
X149380878Y-93058847D01*
X149382635Y-93056014D01*
X149383566Y-93052810D01*
X149423997Y-92913647D01*
X149423997Y-92913645D01*
X149424715Y-92911175D01*
X149424909Y-92908540D01*
X149425433Y-92901392D01*
X149425500Y-92900485D01*
X149425500Y-92867785D01*
X149594500Y-92867785D01*
X149594726Y-92869432D01*
X149594726Y-92869438D01*
X149600083Y-92908540D01*
X149609794Y-92979432D01*
X149656288Y-93086872D01*
X149660474Y-93096546D01*
X149661063Y-93134044D01*
X149648330Y-93147183D01*
X149650379Y-93149047D01*
X149635000Y-93165949D01*
X149635000Y-93765253D01*
X149637855Y-93772145D01*
X149644747Y-93775000D01*
X150050253Y-93775000D01*
X150057145Y-93772145D01*
X150060000Y-93765253D01*
X150060000Y-93663922D01*
X150059774Y-93660598D01*
X150045173Y-93554014D01*
X150043393Y-93547637D01*
X149998168Y-93443128D01*
X149997579Y-93405630D01*
X150023678Y-93378698D01*
X150046725Y-93374800D01*
X150179891Y-93384580D01*
X150237934Y-93372876D01*
X150274735Y-93380096D01*
X150295652Y-93411223D01*
X150289264Y-93446729D01*
X150274124Y-93471148D01*
X150274122Y-93471152D01*
X150272365Y-93473986D01*
X150271434Y-93477189D01*
X150271434Y-93477190D01*
X150237840Y-93592822D01*
X150230285Y-93618825D01*
X150230097Y-93621389D01*
X150230096Y-93621393D01*
X150229891Y-93624188D01*
X150229500Y-93629515D01*
X150229500Y-94137785D01*
X150229726Y-94139432D01*
X150229726Y-94139438D01*
X150235083Y-94178540D01*
X150244794Y-94249432D01*
X150246121Y-94252498D01*
X150246121Y-94252499D01*
X150276548Y-94322810D01*
X150304695Y-94387855D01*
X150399614Y-94505070D01*
X150522558Y-94592442D01*
X150525698Y-94593573D01*
X150525701Y-94593574D01*
X150661326Y-94642402D01*
X150661327Y-94642402D01*
X150664468Y-94643533D01*
X150667796Y-94643777D01*
X150667799Y-94643778D01*
X150746917Y-94649588D01*
X150814891Y-94654580D01*
X150818164Y-94653920D01*
X150818165Y-94653920D01*
X150959467Y-94625428D01*
X150959470Y-94625427D01*
X150962743Y-94624767D01*
X150965719Y-94623251D01*
X150965721Y-94623250D01*
X151094152Y-94557812D01*
X151094155Y-94557810D01*
X151097132Y-94556293D01*
X151208156Y-94454201D01*
X151287635Y-94326014D01*
X151288566Y-94322810D01*
X151328997Y-94183647D01*
X151328997Y-94183645D01*
X151329715Y-94181175D01*
X151329909Y-94178540D01*
X151330433Y-94171392D01*
X151330500Y-94170485D01*
X151330500Y-93662215D01*
X151326155Y-93630492D01*
X151315659Y-93553878D01*
X151315206Y-93550568D01*
X151264526Y-93433453D01*
X151263937Y-93395956D01*
X151276670Y-93382817D01*
X151274621Y-93380953D01*
X151290000Y-93364051D01*
X151290000Y-92764747D01*
X151287145Y-92757855D01*
X151280253Y-92755000D01*
X150874747Y-92755000D01*
X150867855Y-92757855D01*
X150865000Y-92764747D01*
X150865000Y-92866078D01*
X150865226Y-92869402D01*
X150879827Y-92975986D01*
X150881607Y-92982363D01*
X150926832Y-93086872D01*
X150927421Y-93124370D01*
X150901322Y-93151302D01*
X150878275Y-93155200D01*
X150745109Y-93145420D01*
X150687066Y-93157124D01*
X150650265Y-93149904D01*
X150629348Y-93118777D01*
X150635736Y-93083271D01*
X150650876Y-93058852D01*
X150650878Y-93058848D01*
X150652635Y-93056014D01*
X150653566Y-93052810D01*
X150693997Y-92913647D01*
X150693997Y-92913645D01*
X150694715Y-92911175D01*
X150694909Y-92908540D01*
X150695433Y-92901392D01*
X150695500Y-92900485D01*
X150695500Y-92495253D01*
X150865000Y-92495253D01*
X150867855Y-92502145D01*
X150874747Y-92505000D01*
X151280253Y-92505000D01*
X151287145Y-92502145D01*
X151290000Y-92495253D01*
X151290000Y-91903848D01*
X151287145Y-91896956D01*
X151283444Y-91895423D01*
X151235698Y-91905050D01*
X151229445Y-91907227D01*
X151101136Y-91972603D01*
X151095696Y-91976384D01*
X150989691Y-92073861D01*
X150985474Y-92078958D01*
X150909586Y-92201354D01*
X150906894Y-92207402D01*
X150866502Y-92346433D01*
X150865597Y-92351460D01*
X150865067Y-92358681D01*
X150865000Y-92360492D01*
X150865000Y-92495253D01*
X150695500Y-92495253D01*
X150695500Y-92392215D01*
X150691155Y-92360492D01*
X150680659Y-92283878D01*
X150680206Y-92280568D01*
X150648544Y-92207402D01*
X150621632Y-92145211D01*
X150621631Y-92145210D01*
X150620305Y-92142145D01*
X150525386Y-92024930D01*
X150402442Y-91937558D01*
X150399302Y-91936427D01*
X150399299Y-91936426D01*
X150263674Y-91887598D01*
X150263673Y-91887598D01*
X150260532Y-91886467D01*
X150257204Y-91886223D01*
X150257201Y-91886222D01*
X150177468Y-91880367D01*
X150110109Y-91875420D01*
X150106836Y-91876080D01*
X150106835Y-91876080D01*
X149965533Y-91904572D01*
X149965530Y-91904573D01*
X149962257Y-91905233D01*
X149959281Y-91906749D01*
X149959279Y-91906750D01*
X149830848Y-91972188D01*
X149830845Y-91972190D01*
X149827868Y-91973707D01*
X149825408Y-91975969D01*
X149822458Y-91978682D01*
X149716844Y-92075799D01*
X149715085Y-92078636D01*
X149646889Y-92188626D01*
X149637365Y-92203986D01*
X149636434Y-92207189D01*
X149636434Y-92207190D01*
X149614115Y-92284014D01*
X149595285Y-92348825D01*
X149595097Y-92351389D01*
X149595096Y-92351393D01*
X149594823Y-92355122D01*
X149594500Y-92359515D01*
X149594500Y-92867785D01*
X149425500Y-92867785D01*
X149425500Y-92392215D01*
X149421155Y-92360492D01*
X149410659Y-92283878D01*
X149410206Y-92280568D01*
X149378544Y-92207402D01*
X149351632Y-92145211D01*
X149351631Y-92145210D01*
X149350305Y-92142145D01*
X149255386Y-92024930D01*
X149132442Y-91937558D01*
X149129302Y-91936427D01*
X149129299Y-91936426D01*
X148993674Y-91887598D01*
X148993673Y-91887598D01*
X148990532Y-91886467D01*
X148987204Y-91886223D01*
X148987201Y-91886222D01*
X148907468Y-91880367D01*
X148840109Y-91875420D01*
X148836836Y-91876080D01*
X148836835Y-91876080D01*
X148695533Y-91904572D01*
X148695530Y-91904573D01*
X148692257Y-91905233D01*
X148689281Y-91906749D01*
X148689279Y-91906750D01*
X148560848Y-91972188D01*
X148560845Y-91972190D01*
X148557868Y-91973707D01*
X148555408Y-91975969D01*
X148552458Y-91978682D01*
X148446844Y-92075799D01*
X148445085Y-92078636D01*
X148376889Y-92188626D01*
X148367365Y-92203986D01*
X148366434Y-92207189D01*
X148366434Y-92207190D01*
X148344115Y-92284014D01*
X148325285Y-92348825D01*
X148325097Y-92351389D01*
X148325096Y-92351393D01*
X148324823Y-92355122D01*
X148324500Y-92359515D01*
X148324500Y-92867785D01*
X148324726Y-92869432D01*
X148324726Y-92869438D01*
X148330083Y-92908540D01*
X148339794Y-92979432D01*
X148341121Y-92982498D01*
X148341121Y-92982499D01*
X148386269Y-93086830D01*
X148386858Y-93124328D01*
X148360759Y-93151260D01*
X148337710Y-93155158D01*
X148284630Y-93151260D01*
X148205109Y-93145420D01*
X148146392Y-93157260D01*
X148109592Y-93150040D01*
X148088675Y-93118913D01*
X148095063Y-93083407D01*
X148110413Y-93058650D01*
X148113106Y-93052598D01*
X148153498Y-92913567D01*
X148154403Y-92908540D01*
X148154933Y-92901319D01*
X148155000Y-92899508D01*
X148155000Y-92764747D01*
X148152145Y-92757855D01*
X148145253Y-92755000D01*
X147739747Y-92755000D01*
X147732855Y-92757855D01*
X147730000Y-92764747D01*
X147730000Y-93356152D01*
X147732855Y-93363044D01*
X147733910Y-93363481D01*
X147760428Y-93390000D01*
X147760428Y-93427503D01*
X147756805Y-93434568D01*
X147749265Y-93446729D01*
X147734125Y-93471148D01*
X147732365Y-93473986D01*
X147731434Y-93477189D01*
X147731434Y-93477190D01*
X147697840Y-93592822D01*
X147690285Y-93618825D01*
X147690097Y-93621389D01*
X147690096Y-93621393D01*
X147689891Y-93624188D01*
X147689500Y-93629515D01*
X147689500Y-94137785D01*
X147689726Y-94139432D01*
X147689726Y-94139438D01*
X147695083Y-94178540D01*
X147704794Y-94249432D01*
X147706121Y-94252498D01*
X147706121Y-94252499D01*
X147764695Y-94387855D01*
X147763823Y-94388232D01*
X147768945Y-94421701D01*
X147746743Y-94451926D01*
X147709671Y-94457599D01*
X147697781Y-94452967D01*
X147694861Y-94451364D01*
X146797961Y-93959044D01*
X146795587Y-93957652D01*
X146783823Y-93950301D01*
X146781009Y-93948404D01*
X146337656Y-93626289D01*
X146334967Y-93624188D01*
X146325629Y-93616353D01*
X146297574Y-93592812D01*
X146294049Y-93589545D01*
X145586840Y-92866078D01*
X147055000Y-92866078D01*
X147055226Y-92869402D01*
X147069827Y-92975986D01*
X147071607Y-92982363D01*
X147128800Y-93114528D01*
X147132229Y-93120190D01*
X147222858Y-93232107D01*
X147227681Y-93236636D01*
X147345069Y-93320060D01*
X147350934Y-93323126D01*
X147470829Y-93366291D01*
X147478282Y-93365940D01*
X147480000Y-93364051D01*
X147480000Y-92764747D01*
X147477145Y-92757855D01*
X147470253Y-92755000D01*
X147064747Y-92755000D01*
X147057855Y-92757855D01*
X147055000Y-92764747D01*
X147055000Y-92866078D01*
X145586840Y-92866078D01*
X145224348Y-92495253D01*
X147055000Y-92495253D01*
X147057855Y-92502145D01*
X147064747Y-92505000D01*
X147470253Y-92505000D01*
X147477145Y-92502145D01*
X147480000Y-92495253D01*
X147730000Y-92495253D01*
X147732855Y-92502145D01*
X147739747Y-92505000D01*
X148145253Y-92505000D01*
X148152145Y-92502145D01*
X148155000Y-92495253D01*
X148155000Y-92393922D01*
X148154774Y-92390598D01*
X148140173Y-92284014D01*
X148138393Y-92277637D01*
X148081200Y-92145472D01*
X148077771Y-92139810D01*
X147987142Y-92027893D01*
X147982319Y-92023364D01*
X147864931Y-91939940D01*
X147859066Y-91936874D01*
X147739171Y-91893709D01*
X147731718Y-91894060D01*
X147730000Y-91895949D01*
X147730000Y-92495253D01*
X147480000Y-92495253D01*
X147480000Y-91903848D01*
X147477145Y-91896956D01*
X147473444Y-91895423D01*
X147425698Y-91905050D01*
X147419445Y-91907227D01*
X147291136Y-91972603D01*
X147285696Y-91976384D01*
X147179691Y-92073861D01*
X147175474Y-92078958D01*
X147099586Y-92201354D01*
X147096894Y-92207402D01*
X147056502Y-92346433D01*
X147055597Y-92351460D01*
X147055067Y-92358681D01*
X147055000Y-92360492D01*
X147055000Y-92495253D01*
X145224348Y-92495253D01*
X144914237Y-92178013D01*
X144910667Y-92173931D01*
X144901829Y-92162618D01*
X144820464Y-92058476D01*
X144809817Y-92044848D01*
X144807807Y-92042081D01*
X144614784Y-91755912D01*
X144612172Y-91751571D01*
X144171158Y-90924672D01*
X143915281Y-90444902D01*
X143913097Y-90440225D01*
X143859321Y-90307125D01*
X143856856Y-90299109D01*
X143795656Y-90015588D01*
X143381103Y-88095110D01*
X143380000Y-88084771D01*
X143380000Y-87834748D01*
X143714500Y-87834748D01*
X143726133Y-87893231D01*
X143770448Y-87959552D01*
X143836769Y-88003867D01*
X143895252Y-88015500D01*
X144784748Y-88015500D01*
X144843231Y-88003867D01*
X144850877Y-87998758D01*
X144878100Y-87990500D01*
X146110969Y-87990500D01*
X146145617Y-88004852D01*
X146385965Y-88245200D01*
X146400317Y-88279848D01*
X146385965Y-88314496D01*
X146377288Y-88321398D01*
X146349625Y-88338684D01*
X146347682Y-88340613D01*
X146347680Y-88340615D01*
X146340556Y-88347690D01*
X146222193Y-88465230D01*
X146125963Y-88616864D01*
X146065719Y-88786049D01*
X146044455Y-88964376D01*
X146063227Y-89142983D01*
X146121103Y-89312993D01*
X146215206Y-89465955D01*
X146217121Y-89467911D01*
X146217123Y-89467913D01*
X146338941Y-89592310D01*
X146338944Y-89592312D01*
X146340859Y-89594268D01*
X146343159Y-89595751D01*
X146343160Y-89595751D01*
X146384392Y-89622323D01*
X146491817Y-89691554D01*
X146564881Y-89718147D01*
X146658003Y-89752041D01*
X146658005Y-89752041D01*
X146660578Y-89752978D01*
X146799283Y-89770500D01*
X147395155Y-89770500D01*
X147396506Y-89770348D01*
X147396514Y-89770348D01*
X147525754Y-89755851D01*
X147525755Y-89755851D01*
X147528472Y-89755546D01*
X147566696Y-89742235D01*
X147695484Y-89697387D01*
X147695487Y-89697385D01*
X147698073Y-89696485D01*
X147705965Y-89691554D01*
X147848050Y-89602769D01*
X147848051Y-89602768D01*
X147850375Y-89601316D01*
X147857473Y-89594268D01*
X147975860Y-89476703D01*
X147977807Y-89474770D01*
X148074037Y-89323136D01*
X148134281Y-89153951D01*
X148155545Y-88975624D01*
X148136773Y-88797017D01*
X148078897Y-88627007D01*
X147984794Y-88474045D01*
X147974269Y-88463297D01*
X147861059Y-88347690D01*
X147861056Y-88347688D01*
X147859141Y-88345732D01*
X147856845Y-88344253D01*
X147856841Y-88344249D01*
X147756909Y-88279848D01*
X147722955Y-88257966D01*
X147701607Y-88227134D01*
X147700500Y-88216779D01*
X147700500Y-88152574D01*
X147700919Y-88146178D01*
X147705263Y-88113183D01*
X147705682Y-88110000D01*
X147695283Y-88031008D01*
X147685463Y-87956420D01*
X147685463Y-87956419D01*
X147685044Y-87953238D01*
X147683817Y-87950276D01*
X147683816Y-87950272D01*
X147625765Y-87810126D01*
X147624536Y-87807159D01*
X147609291Y-87787291D01*
X147597287Y-87771647D01*
X147530235Y-87684263D01*
X147530234Y-87684262D01*
X147528282Y-87681718D01*
X147499331Y-87659503D01*
X147494513Y-87655278D01*
X147199547Y-87360312D01*
X147185195Y-87325664D01*
X147185620Y-87319225D01*
X147185688Y-87318712D01*
X147204785Y-87173661D01*
X147205204Y-87170479D01*
X147200440Y-87134294D01*
X147200021Y-87127898D01*
X147200021Y-87109772D01*
X148181250Y-87109772D01*
X148181669Y-87112955D01*
X148184478Y-87134294D01*
X148200170Y-87253481D01*
X148255639Y-87387397D01*
X148343879Y-87502393D01*
X148458875Y-87590633D01*
X148592791Y-87646102D01*
X148736500Y-87665022D01*
X148818605Y-87654212D01*
X148854829Y-87663918D01*
X148873581Y-87696397D01*
X148874000Y-87702793D01*
X148874000Y-87975923D01*
X148872482Y-87984829D01*
X148872504Y-87984832D01*
X148871879Y-87990316D01*
X148870051Y-87995522D01*
X148870661Y-88001005D01*
X148870661Y-88001007D01*
X148873699Y-88028303D01*
X148874000Y-88033722D01*
X148874000Y-88042782D01*
X148874611Y-88045459D01*
X148875940Y-88051286D01*
X148876866Y-88056760D01*
X148880471Y-88089157D01*
X148883398Y-88093833D01*
X148884974Y-88098358D01*
X148886344Y-88101673D01*
X148888415Y-88105977D01*
X148889642Y-88111354D01*
X148893078Y-88115666D01*
X148893079Y-88115668D01*
X148909955Y-88136845D01*
X148913167Y-88141382D01*
X148917889Y-88148925D01*
X148924265Y-88155301D01*
X148927938Y-88159413D01*
X148948355Y-88185035D01*
X148953327Y-88187433D01*
X148957331Y-88190630D01*
X148965134Y-88196170D01*
X151829148Y-91060183D01*
X151843500Y-91094831D01*
X151843500Y-91964800D01*
X151829148Y-91999448D01*
X151794500Y-92013800D01*
X151766115Y-92004741D01*
X151674931Y-91939940D01*
X151669066Y-91936874D01*
X151549171Y-91893709D01*
X151541718Y-91894060D01*
X151540000Y-91895949D01*
X151540000Y-93356152D01*
X151542855Y-93363044D01*
X151543910Y-93363481D01*
X151570428Y-93390000D01*
X151570428Y-93427503D01*
X151566805Y-93434568D01*
X151559265Y-93446729D01*
X151544125Y-93471148D01*
X151542365Y-93473986D01*
X151541434Y-93477189D01*
X151541434Y-93477190D01*
X151507840Y-93592822D01*
X151500285Y-93618825D01*
X151500097Y-93621389D01*
X151500096Y-93621393D01*
X151499891Y-93624188D01*
X151499500Y-93629515D01*
X151499500Y-94137785D01*
X151499726Y-94139432D01*
X151499726Y-94139438D01*
X151505083Y-94178540D01*
X151514794Y-94249432D01*
X151516121Y-94252498D01*
X151516121Y-94252499D01*
X151546548Y-94322810D01*
X151574695Y-94387855D01*
X151669614Y-94505070D01*
X151792558Y-94592442D01*
X151795698Y-94593573D01*
X151795701Y-94593574D01*
X151931326Y-94642402D01*
X151931327Y-94642402D01*
X151934468Y-94643533D01*
X151937796Y-94643777D01*
X151937799Y-94643778D01*
X152016917Y-94649588D01*
X152084891Y-94654580D01*
X152088164Y-94653920D01*
X152088165Y-94653920D01*
X152229467Y-94625428D01*
X152229470Y-94625427D01*
X152232743Y-94624767D01*
X152235719Y-94623251D01*
X152235721Y-94623250D01*
X152364152Y-94557812D01*
X152364155Y-94557810D01*
X152367132Y-94556293D01*
X152478156Y-94454201D01*
X152557635Y-94326014D01*
X152558566Y-94322810D01*
X152598997Y-94183647D01*
X152598997Y-94183645D01*
X152599715Y-94181175D01*
X152599909Y-94178540D01*
X152600433Y-94171392D01*
X152600500Y-94170485D01*
X152600500Y-94136078D01*
X152770000Y-94136078D01*
X152770226Y-94139402D01*
X152784827Y-94245986D01*
X152786607Y-94252363D01*
X152843800Y-94384528D01*
X152847229Y-94390190D01*
X152937858Y-94502107D01*
X152942681Y-94506636D01*
X153060069Y-94590060D01*
X153065934Y-94593126D01*
X153185829Y-94636291D01*
X153193282Y-94635940D01*
X153195000Y-94634051D01*
X153195000Y-94626152D01*
X153445000Y-94626152D01*
X153447855Y-94633044D01*
X153451556Y-94634577D01*
X153499302Y-94624950D01*
X153505555Y-94622773D01*
X153633864Y-94557397D01*
X153639304Y-94553616D01*
X153745309Y-94456139D01*
X153749526Y-94451042D01*
X153825414Y-94328646D01*
X153828106Y-94322598D01*
X153868498Y-94183567D01*
X153869403Y-94178540D01*
X153869933Y-94171319D01*
X153870000Y-94169508D01*
X153870000Y-94034747D01*
X153867145Y-94027855D01*
X153860253Y-94025000D01*
X153454747Y-94025000D01*
X153447855Y-94027855D01*
X153445000Y-94034747D01*
X153445000Y-94626152D01*
X153195000Y-94626152D01*
X153195000Y-94034747D01*
X153192145Y-94027855D01*
X153185253Y-94025000D01*
X152779747Y-94025000D01*
X152772855Y-94027855D01*
X152770000Y-94034747D01*
X152770000Y-94136078D01*
X152600500Y-94136078D01*
X152600500Y-93662215D01*
X152596155Y-93630492D01*
X152585659Y-93553878D01*
X152585206Y-93550568D01*
X152564493Y-93502703D01*
X152538731Y-93443170D01*
X152538142Y-93405672D01*
X152564241Y-93378740D01*
X152587290Y-93374842D01*
X152632322Y-93378149D01*
X152719891Y-93384580D01*
X152778608Y-93372740D01*
X152815408Y-93379960D01*
X152836325Y-93411087D01*
X152829937Y-93446593D01*
X152814587Y-93471350D01*
X152811894Y-93477402D01*
X152771502Y-93616433D01*
X152770597Y-93621460D01*
X152770067Y-93628681D01*
X152770000Y-93630492D01*
X152770000Y-93765253D01*
X152772855Y-93772145D01*
X152779747Y-93775000D01*
X153185253Y-93775000D01*
X153192145Y-93772145D01*
X153195000Y-93765253D01*
X153195000Y-93173848D01*
X153192145Y-93166956D01*
X153191090Y-93166519D01*
X153164572Y-93140000D01*
X153164572Y-93102497D01*
X153168197Y-93095428D01*
X153169255Y-93093723D01*
X153184521Y-93069101D01*
X153190878Y-93058848D01*
X153190878Y-93058847D01*
X153192635Y-93056014D01*
X153193566Y-93052810D01*
X153233997Y-92913647D01*
X153233997Y-92913645D01*
X153234715Y-92911175D01*
X153234909Y-92908540D01*
X153235433Y-92901392D01*
X153235500Y-92900485D01*
X153235500Y-92392215D01*
X153231155Y-92360492D01*
X153220659Y-92283878D01*
X153220206Y-92280568D01*
X153188544Y-92207402D01*
X153161632Y-92145211D01*
X153161631Y-92145210D01*
X153160305Y-92142145D01*
X153065386Y-92024930D01*
X152942442Y-91937558D01*
X152939302Y-91936427D01*
X152939299Y-91936426D01*
X152803674Y-91887598D01*
X152803673Y-91887598D01*
X152800532Y-91886467D01*
X152797204Y-91886223D01*
X152797201Y-91886222D01*
X152717468Y-91880367D01*
X152650109Y-91875420D01*
X152646836Y-91876080D01*
X152646835Y-91876080D01*
X152554186Y-91894762D01*
X152517385Y-91887542D01*
X152496468Y-91856414D01*
X152495501Y-91846729D01*
X152495501Y-90933578D01*
X152497019Y-90924672D01*
X152496997Y-90924669D01*
X152497622Y-90919185D01*
X152499450Y-90913979D01*
X152495802Y-90881198D01*
X152495501Y-90875779D01*
X152495501Y-90866719D01*
X152493560Y-90858209D01*
X152492635Y-90852738D01*
X152489640Y-90825826D01*
X152489030Y-90820344D01*
X152486103Y-90815668D01*
X152484527Y-90811143D01*
X152483157Y-90807828D01*
X152481086Y-90803525D01*
X152479859Y-90798147D01*
X152476420Y-90793831D01*
X152459545Y-90772653D01*
X152456335Y-90768120D01*
X152453082Y-90762925D01*
X152451612Y-90760577D01*
X152445244Y-90754209D01*
X152441571Y-90750098D01*
X152424585Y-90728782D01*
X152424586Y-90728782D01*
X152421146Y-90724466D01*
X152416174Y-90722068D01*
X152411864Y-90718627D01*
X152413408Y-90716693D01*
X152394768Y-90695803D01*
X152396900Y-90658360D01*
X152402738Y-90649083D01*
X152403067Y-90648671D01*
X152403646Y-90648310D01*
X152404169Y-90647788D01*
X152405636Y-90645453D01*
X152405643Y-90645445D01*
X152414715Y-90631010D01*
X152417327Y-90627254D01*
X152460772Y-90570636D01*
X152462728Y-90568087D01*
X152500463Y-90476985D01*
X152513334Y-90379221D01*
X152500463Y-90281457D01*
X152462728Y-90190355D01*
X152417942Y-90131989D01*
X152415239Y-90128089D01*
X152406166Y-90113540D01*
X152406160Y-90113532D01*
X152404691Y-90111177D01*
X152404169Y-90110654D01*
X152387392Y-90100110D01*
X152383640Y-90097499D01*
X152327015Y-90054050D01*
X152327013Y-90054049D01*
X152324468Y-90052096D01*
X152321501Y-90050867D01*
X152236332Y-90015588D01*
X152236331Y-90015588D01*
X152233367Y-90014360D01*
X152230186Y-90013941D01*
X152230185Y-90013941D01*
X152138787Y-90001908D01*
X152135604Y-90001489D01*
X152086695Y-90007928D01*
X152050471Y-89998221D01*
X152031719Y-89965743D01*
X152031719Y-89952951D01*
X152037739Y-89907227D01*
X152038158Y-89904045D01*
X152025287Y-89806281D01*
X151987552Y-89715179D01*
X151942766Y-89656813D01*
X151940063Y-89652913D01*
X151930990Y-89638364D01*
X151930984Y-89638356D01*
X151929515Y-89636001D01*
X151928993Y-89635478D01*
X151912216Y-89624934D01*
X151908464Y-89622323D01*
X151851839Y-89578874D01*
X151851837Y-89578873D01*
X151849292Y-89576920D01*
X151758191Y-89539184D01*
X151755010Y-89538765D01*
X151755009Y-89538765D01*
X151663611Y-89526732D01*
X151660428Y-89526313D01*
X151562664Y-89539183D01*
X151559698Y-89540411D01*
X151559696Y-89540412D01*
X151517113Y-89558050D01*
X151471562Y-89576918D01*
X151413183Y-89621714D01*
X151409308Y-89624400D01*
X151392385Y-89634954D01*
X151391861Y-89635476D01*
X151391494Y-89636059D01*
X151389798Y-89637405D01*
X151353734Y-89647693D01*
X151324699Y-89633664D01*
X150655411Y-88964376D01*
X154244455Y-88964376D01*
X154263227Y-89142983D01*
X154321103Y-89312993D01*
X154415206Y-89465955D01*
X154417121Y-89467911D01*
X154417123Y-89467913D01*
X154538941Y-89592310D01*
X154538944Y-89592312D01*
X154540859Y-89594268D01*
X154543159Y-89595751D01*
X154543160Y-89595751D01*
X154584392Y-89622323D01*
X154691817Y-89691554D01*
X154764881Y-89718147D01*
X154858003Y-89752041D01*
X154858005Y-89752041D01*
X154860578Y-89752978D01*
X154999283Y-89770500D01*
X155595155Y-89770500D01*
X155596506Y-89770348D01*
X155596514Y-89770348D01*
X155725754Y-89755851D01*
X155725755Y-89755851D01*
X155728472Y-89755546D01*
X155766696Y-89742235D01*
X155895484Y-89697387D01*
X155895487Y-89697385D01*
X155898073Y-89696485D01*
X155905965Y-89691554D01*
X156048050Y-89602769D01*
X156048051Y-89602768D01*
X156050375Y-89601316D01*
X156057473Y-89594268D01*
X156175860Y-89476703D01*
X156177807Y-89474770D01*
X156274037Y-89323136D01*
X156334281Y-89153951D01*
X156355545Y-88975624D01*
X156336773Y-88797017D01*
X156278897Y-88627007D01*
X156184794Y-88474045D01*
X156174269Y-88463297D01*
X156061059Y-88347690D01*
X156061056Y-88347688D01*
X156059141Y-88345732D01*
X155908183Y-88248446D01*
X155748412Y-88190294D01*
X155741997Y-88187959D01*
X155741995Y-88187959D01*
X155739422Y-88187022D01*
X155600717Y-88169500D01*
X155004845Y-88169500D01*
X155003494Y-88169652D01*
X155003486Y-88169652D01*
X154874246Y-88184149D01*
X154874245Y-88184149D01*
X154871528Y-88184454D01*
X154868940Y-88185355D01*
X154868941Y-88185355D01*
X154704516Y-88242613D01*
X154704513Y-88242615D01*
X154701927Y-88243515D01*
X154699604Y-88244966D01*
X154699603Y-88244967D01*
X154678799Y-88257967D01*
X154549625Y-88338684D01*
X154547682Y-88340613D01*
X154547680Y-88340615D01*
X154540556Y-88347690D01*
X154422193Y-88465230D01*
X154325963Y-88616864D01*
X154265719Y-88786049D01*
X154244455Y-88964376D01*
X150655411Y-88964376D01*
X149540352Y-87849317D01*
X149526000Y-87814669D01*
X149526000Y-87702793D01*
X149540352Y-87668145D01*
X149575000Y-87653793D01*
X149581391Y-87654212D01*
X149663500Y-87665022D01*
X149807209Y-87646102D01*
X149941125Y-87590633D01*
X150056121Y-87502393D01*
X150144361Y-87387397D01*
X150199830Y-87253481D01*
X150215522Y-87134294D01*
X150218331Y-87112955D01*
X150218750Y-87109772D01*
X150199830Y-86966063D01*
X150144361Y-86832147D01*
X150083237Y-86752489D01*
X150058077Y-86719700D01*
X150056121Y-86717151D01*
X149941125Y-86628911D01*
X149807209Y-86573442D01*
X149663500Y-86554522D01*
X149519791Y-86573442D01*
X149385875Y-86628911D01*
X149270879Y-86717151D01*
X149247179Y-86748038D01*
X149238874Y-86758861D01*
X149206396Y-86777613D01*
X149170171Y-86767906D01*
X149161126Y-86758861D01*
X149152822Y-86748038D01*
X149129121Y-86717151D01*
X149014125Y-86628911D01*
X148880209Y-86573442D01*
X148736500Y-86554522D01*
X148592791Y-86573442D01*
X148458875Y-86628911D01*
X148343879Y-86717151D01*
X148341923Y-86719700D01*
X148316763Y-86752489D01*
X148255639Y-86832147D01*
X148200170Y-86966063D01*
X148181250Y-87109772D01*
X147200021Y-87109772D01*
X147200021Y-86879500D01*
X147214373Y-86844852D01*
X147249021Y-86830500D01*
X147395155Y-86830500D01*
X147396506Y-86830348D01*
X147396514Y-86830348D01*
X147525754Y-86815851D01*
X147525755Y-86815851D01*
X147528472Y-86815546D01*
X147566696Y-86802235D01*
X147695484Y-86757387D01*
X147695487Y-86757385D01*
X147698073Y-86756485D01*
X147705965Y-86751554D01*
X147848050Y-86662769D01*
X147848051Y-86662768D01*
X147850375Y-86661316D01*
X147857473Y-86654268D01*
X147931411Y-86580843D01*
X147977807Y-86534770D01*
X148055659Y-86412095D01*
X148072570Y-86385448D01*
X148072571Y-86385446D01*
X148074037Y-86383136D01*
X148111446Y-86278081D01*
X148133362Y-86216532D01*
X148134281Y-86213951D01*
X148155545Y-86035624D01*
X148151474Y-85996884D01*
X148137885Y-85867600D01*
X148136773Y-85857017D01*
X148078897Y-85687007D01*
X147984794Y-85534045D01*
X147974269Y-85523297D01*
X147861059Y-85407690D01*
X147861056Y-85407688D01*
X147859141Y-85405732D01*
X147708183Y-85308446D01*
X147566029Y-85256706D01*
X147541997Y-85247959D01*
X147541995Y-85247959D01*
X147539422Y-85247022D01*
X147400717Y-85229500D01*
X146804845Y-85229500D01*
X146803494Y-85229652D01*
X146803486Y-85229652D01*
X146674246Y-85244149D01*
X146674245Y-85244149D01*
X146671528Y-85244454D01*
X146636345Y-85256706D01*
X146504516Y-85302613D01*
X146504513Y-85302615D01*
X146501927Y-85303515D01*
X146499604Y-85304966D01*
X146499603Y-85304967D01*
X146351950Y-85397231D01*
X146349625Y-85398684D01*
X146347682Y-85400613D01*
X146347680Y-85400615D01*
X146340556Y-85407690D01*
X146222193Y-85525230D01*
X146216599Y-85534045D01*
X146131477Y-85668176D01*
X146125963Y-85676864D01*
X146125045Y-85679442D01*
X146125044Y-85679444D01*
X146087543Y-85784760D01*
X146062400Y-85812586D01*
X146024945Y-85814484D01*
X146008946Y-85805050D01*
X145980231Y-85779690D01*
X145977612Y-85777377D01*
X145974454Y-85775894D01*
X145974452Y-85775893D01*
X145900317Y-85741087D01*
X145847837Y-85716447D01*
X145738991Y-85699500D01*
X145664060Y-85699500D01*
X145662336Y-85699747D01*
X145662334Y-85699747D01*
X145590889Y-85709979D01*
X145558082Y-85714677D01*
X145427572Y-85774016D01*
X145424929Y-85776293D01*
X145424928Y-85776294D01*
X145331245Y-85857017D01*
X145318963Y-85867600D01*
X145240985Y-85987905D01*
X145199907Y-86125261D01*
X145199031Y-86268624D01*
X145199990Y-86271979D01*
X145199990Y-86271980D01*
X145237469Y-86403116D01*
X145238428Y-86406471D01*
X145314930Y-86527720D01*
X145422388Y-86622623D01*
X145425546Y-86624106D01*
X145425548Y-86624107D01*
X145468168Y-86644117D01*
X145552163Y-86683553D01*
X145606384Y-86691995D01*
X145606949Y-86692083D01*
X145638977Y-86711595D01*
X145647828Y-86748038D01*
X145628316Y-86780066D01*
X145599411Y-86789500D01*
X144878100Y-86789500D01*
X144850877Y-86781242D01*
X144847245Y-86778815D01*
X144843231Y-86776133D01*
X144784748Y-86764500D01*
X143895252Y-86764500D01*
X143836769Y-86776133D01*
X143770448Y-86820448D01*
X143726133Y-86886769D01*
X143714500Y-86945252D01*
X143714500Y-87834748D01*
X143380000Y-87834748D01*
X143380000Y-87451570D01*
X143380100Y-87448438D01*
X143394933Y-87216816D01*
X143493549Y-85676894D01*
X143494903Y-85668182D01*
X143605619Y-85224126D01*
X143606559Y-85220847D01*
X143614070Y-85197732D01*
X143616264Y-85192163D01*
X144624009Y-83031489D01*
X144627793Y-83024800D01*
X144629411Y-83022402D01*
X144657674Y-82980500D01*
X144768196Y-82816645D01*
X144774925Y-82808659D01*
X146884780Y-80787827D01*
X146892708Y-80781660D01*
X147187028Y-80597748D01*
X147248551Y-80559304D01*
X147251512Y-80557595D01*
X147304323Y-80529515D01*
X147467425Y-80442792D01*
X147504755Y-80439197D01*
X147533693Y-80463052D01*
X147537288Y-80500382D01*
X147532074Y-80511877D01*
X147502668Y-80559305D01*
X147487365Y-80583986D01*
X147486434Y-80587189D01*
X147486434Y-80587190D01*
X147464115Y-80664014D01*
X147445285Y-80728825D01*
X147445097Y-80731389D01*
X147445096Y-80731393D01*
X147444823Y-80735122D01*
X147444500Y-80739515D01*
X147444500Y-81247785D01*
X147444726Y-81249432D01*
X147444726Y-81249438D01*
X147450083Y-81288540D01*
X147459794Y-81359432D01*
X147461121Y-81362498D01*
X147461121Y-81362499D01*
X147494075Y-81438650D01*
X147519695Y-81497855D01*
X147521797Y-81500450D01*
X147523528Y-81503309D01*
X147522435Y-81503971D01*
X147531810Y-81535623D01*
X147513915Y-81568581D01*
X147483079Y-81579500D01*
X147075814Y-81579501D01*
X147068626Y-81579501D01*
X147042093Y-81582657D01*
X147038736Y-81584148D01*
X147038733Y-81584149D01*
X146942611Y-81626845D01*
X146942610Y-81626846D01*
X146938476Y-81628682D01*
X146935281Y-81631883D01*
X146935279Y-81631884D01*
X146900931Y-81666293D01*
X146858376Y-81708922D01*
X146856546Y-81713060D01*
X146856546Y-81713061D01*
X146850915Y-81725799D01*
X146812532Y-81812618D01*
X146809500Y-81838625D01*
X146809501Y-82721374D01*
X146812657Y-82747907D01*
X146814148Y-82751264D01*
X146814149Y-82751267D01*
X146839642Y-82808659D01*
X146858682Y-82851524D01*
X146861883Y-82854719D01*
X146861884Y-82854721D01*
X146889318Y-82882107D01*
X146938922Y-82931624D01*
X146943060Y-82933454D01*
X146943061Y-82933454D01*
X146944366Y-82934031D01*
X147042618Y-82977468D01*
X147046274Y-82977894D01*
X147046277Y-82977895D01*
X147055825Y-82979008D01*
X147068625Y-82980500D01*
X147356950Y-82980500D01*
X147651374Y-82980499D01*
X147677907Y-82977343D01*
X147681264Y-82975852D01*
X147681267Y-82975851D01*
X147777389Y-82933155D01*
X147777390Y-82933154D01*
X147781524Y-82931318D01*
X147784719Y-82928117D01*
X147784721Y-82928116D01*
X147857987Y-82854721D01*
X147861624Y-82851078D01*
X147907468Y-82747382D01*
X147910500Y-82721375D01*
X147910499Y-81838626D01*
X147907638Y-81814572D01*
X147907581Y-81814089D01*
X147917740Y-81777988D01*
X147950451Y-81759645D01*
X147959824Y-81759434D01*
X148029891Y-81764580D01*
X148087934Y-81752876D01*
X148124735Y-81760096D01*
X148145652Y-81791223D01*
X148139264Y-81826729D01*
X148124124Y-81851148D01*
X148124122Y-81851152D01*
X148122365Y-81853986D01*
X148121434Y-81857189D01*
X148121434Y-81857190D01*
X148099115Y-81934014D01*
X148080285Y-81998825D01*
X148080097Y-82001389D01*
X148080096Y-82001393D01*
X148079823Y-82005122D01*
X148079500Y-82009515D01*
X148079500Y-82517785D01*
X148079726Y-82519432D01*
X148079726Y-82519438D01*
X148085083Y-82558540D01*
X148094794Y-82629432D01*
X148096121Y-82632498D01*
X148096121Y-82632499D01*
X148147293Y-82750749D01*
X148154695Y-82767855D01*
X148249614Y-82885070D01*
X148372558Y-82972442D01*
X148375698Y-82973573D01*
X148375701Y-82973574D01*
X148511326Y-83022402D01*
X148511327Y-83022402D01*
X148514468Y-83023533D01*
X148517796Y-83023777D01*
X148517799Y-83023778D01*
X148597532Y-83029633D01*
X148664891Y-83034580D01*
X148668164Y-83033920D01*
X148668165Y-83033920D01*
X148809467Y-83005428D01*
X148809470Y-83005427D01*
X148812743Y-83004767D01*
X148815719Y-83003251D01*
X148815721Y-83003250D01*
X148944152Y-82937812D01*
X148944155Y-82937810D01*
X148947132Y-82936293D01*
X148952210Y-82931624D01*
X149002836Y-82885070D01*
X149058156Y-82834201D01*
X149111986Y-82747382D01*
X149135878Y-82708848D01*
X149135878Y-82708847D01*
X149137635Y-82706014D01*
X149138566Y-82702810D01*
X149178997Y-82563647D01*
X149178997Y-82563645D01*
X149179715Y-82561175D01*
X149179909Y-82558540D01*
X149180433Y-82551392D01*
X149180500Y-82550485D01*
X149180500Y-82517785D01*
X149349500Y-82517785D01*
X149349726Y-82519432D01*
X149349726Y-82519438D01*
X149355083Y-82558540D01*
X149364794Y-82629432D01*
X149366121Y-82632498D01*
X149366121Y-82632499D01*
X149417293Y-82750749D01*
X149424695Y-82767855D01*
X149519614Y-82885070D01*
X149642558Y-82972442D01*
X149645698Y-82973573D01*
X149645701Y-82973574D01*
X149781326Y-83022402D01*
X149781327Y-83022402D01*
X149784468Y-83023533D01*
X149787796Y-83023777D01*
X149787799Y-83023778D01*
X149867532Y-83029633D01*
X149934891Y-83034580D01*
X149938164Y-83033920D01*
X149938165Y-83033920D01*
X150030814Y-83015238D01*
X150067615Y-83022458D01*
X150088532Y-83053586D01*
X150089499Y-83063271D01*
X150089499Y-83921422D01*
X150087981Y-83930328D01*
X150088003Y-83930331D01*
X150087378Y-83935815D01*
X150085550Y-83941021D01*
X150086160Y-83946504D01*
X150086160Y-83946506D01*
X150089198Y-83973802D01*
X150089499Y-83979221D01*
X150089499Y-83988281D01*
X150090110Y-83990958D01*
X150091439Y-83996785D01*
X150092365Y-84002259D01*
X150095970Y-84034656D01*
X150098897Y-84039332D01*
X150100473Y-84043857D01*
X150101843Y-84047172D01*
X150103914Y-84051476D01*
X150105141Y-84056853D01*
X150108577Y-84061165D01*
X150108578Y-84061167D01*
X150125454Y-84082344D01*
X150128666Y-84086881D01*
X150133388Y-84094424D01*
X150139764Y-84100800D01*
X150143437Y-84104912D01*
X150163854Y-84130534D01*
X150168826Y-84132932D01*
X150172830Y-84136129D01*
X150180633Y-84141669D01*
X150189079Y-84150115D01*
X150203431Y-84184763D01*
X150192724Y-84215335D01*
X150191932Y-84216327D01*
X150191353Y-84216688D01*
X150190830Y-84217210D01*
X150189363Y-84219545D01*
X150189356Y-84219553D01*
X150180284Y-84233988D01*
X150177672Y-84237744D01*
X150132271Y-84296911D01*
X150094536Y-84388013D01*
X150081665Y-84485777D01*
X150094536Y-84583541D01*
X150132271Y-84674643D01*
X150134227Y-84677192D01*
X150177065Y-84733019D01*
X150179765Y-84736915D01*
X150190309Y-84753822D01*
X150190831Y-84754345D01*
X150193167Y-84755813D01*
X150193168Y-84755814D01*
X150207614Y-84764893D01*
X150211368Y-84767505D01*
X150270532Y-84812903D01*
X150316083Y-84831771D01*
X150358666Y-84849409D01*
X150358668Y-84849410D01*
X150361634Y-84850638D01*
X150459398Y-84863508D01*
X150462581Y-84863089D01*
X150462582Y-84863089D01*
X150508303Y-84857070D01*
X150544528Y-84866777D01*
X150563279Y-84899256D01*
X150563279Y-84912043D01*
X150556840Y-84960952D01*
X150569711Y-85058716D01*
X150607446Y-85149818D01*
X150609402Y-85152367D01*
X150652240Y-85208194D01*
X150654940Y-85212090D01*
X150665484Y-85228997D01*
X150666006Y-85229520D01*
X150668342Y-85230988D01*
X150668343Y-85230989D01*
X150682789Y-85240068D01*
X150686543Y-85242680D01*
X150745707Y-85288078D01*
X150780798Y-85302613D01*
X150833841Y-85324584D01*
X150833843Y-85324585D01*
X150836809Y-85325813D01*
X150934573Y-85338683D01*
X150937756Y-85338264D01*
X151029154Y-85326231D01*
X151029155Y-85326231D01*
X151032336Y-85325812D01*
X151074261Y-85308446D01*
X151120470Y-85289305D01*
X151123437Y-85288076D01*
X151164320Y-85256705D01*
X151172932Y-85251412D01*
X151185220Y-85245511D01*
X151188667Y-85241201D01*
X151192984Y-85237767D01*
X151193014Y-85237805D01*
X151198100Y-85233283D01*
X151198071Y-85233246D01*
X151198725Y-85232726D01*
X151199704Y-85231856D01*
X151200250Y-85231515D01*
X151200251Y-85231514D01*
X151202615Y-85230040D01*
X151203138Y-85229518D01*
X151203510Y-85228927D01*
X151205173Y-85227606D01*
X151241232Y-85217297D01*
X151270294Y-85231330D01*
X152859648Y-86820683D01*
X152874000Y-86855331D01*
X152874000Y-86903969D01*
X152859648Y-86938617D01*
X152825000Y-86952969D01*
X152818609Y-86952550D01*
X152736500Y-86941740D01*
X152592791Y-86960660D01*
X152458875Y-87016129D01*
X152343879Y-87104369D01*
X152255639Y-87219365D01*
X152200170Y-87353281D01*
X152181250Y-87496990D01*
X152200170Y-87640699D01*
X152255639Y-87774615D01*
X152343879Y-87889611D01*
X152458875Y-87977851D01*
X152592791Y-88033320D01*
X152664661Y-88042782D01*
X152729254Y-88051286D01*
X152736500Y-88052240D01*
X152743747Y-88051286D01*
X152808339Y-88042782D01*
X152880209Y-88033320D01*
X153014125Y-87977851D01*
X153129121Y-87889611D01*
X153161127Y-87847901D01*
X153193604Y-87829149D01*
X153229829Y-87838856D01*
X153238873Y-87847900D01*
X153270879Y-87889611D01*
X153385875Y-87977851D01*
X153519791Y-88033320D01*
X153591661Y-88042782D01*
X153656254Y-88051286D01*
X153663500Y-88052240D01*
X153670747Y-88051286D01*
X153735339Y-88042782D01*
X153807209Y-88033320D01*
X153941125Y-87977851D01*
X154056121Y-87889611D01*
X154144361Y-87774615D01*
X154199830Y-87640699D01*
X154218750Y-87496990D01*
X154199830Y-87353281D01*
X154144361Y-87219365D01*
X154056121Y-87104369D01*
X153941125Y-87016129D01*
X153807209Y-86960660D01*
X153663500Y-86941740D01*
X153581395Y-86952550D01*
X153545171Y-86942844D01*
X153526419Y-86910365D01*
X153526000Y-86903969D01*
X153526000Y-86694077D01*
X153527518Y-86685171D01*
X153527496Y-86685168D01*
X153528121Y-86679684D01*
X153529949Y-86674478D01*
X153528863Y-86664714D01*
X153526301Y-86641697D01*
X153526000Y-86636278D01*
X153526000Y-86627218D01*
X153524059Y-86618708D01*
X153523134Y-86613237D01*
X153520139Y-86586325D01*
X153519529Y-86580843D01*
X153516602Y-86576167D01*
X153515026Y-86571642D01*
X153513656Y-86568327D01*
X153511585Y-86564024D01*
X153510358Y-86558646D01*
X153492873Y-86536703D01*
X153490044Y-86533152D01*
X153486834Y-86528619D01*
X153483581Y-86523424D01*
X153482111Y-86521076D01*
X153475743Y-86514708D01*
X153472070Y-86510597D01*
X153455084Y-86489281D01*
X153455085Y-86489281D01*
X153451645Y-86484965D01*
X153446675Y-86482568D01*
X153442677Y-86479376D01*
X153434864Y-86473829D01*
X152985411Y-86024376D01*
X154244455Y-86024376D01*
X154263227Y-86202983D01*
X154321103Y-86372993D01*
X154322539Y-86375327D01*
X154408287Y-86514708D01*
X154415206Y-86525955D01*
X154417121Y-86527911D01*
X154417123Y-86527913D01*
X154538941Y-86652310D01*
X154538944Y-86652312D01*
X154540859Y-86654268D01*
X154543159Y-86655751D01*
X154543160Y-86655751D01*
X154629813Y-86711595D01*
X154691817Y-86751554D01*
X154766716Y-86778815D01*
X154858003Y-86812041D01*
X154858005Y-86812041D01*
X154860578Y-86812978D01*
X154999283Y-86830500D01*
X155595155Y-86830500D01*
X155596506Y-86830348D01*
X155596514Y-86830348D01*
X155725754Y-86815851D01*
X155725755Y-86815851D01*
X155728472Y-86815546D01*
X155766696Y-86802235D01*
X155895484Y-86757387D01*
X155895487Y-86757385D01*
X155898073Y-86756485D01*
X155905965Y-86751554D01*
X156048050Y-86662769D01*
X156048051Y-86662768D01*
X156050375Y-86661316D01*
X156057473Y-86654268D01*
X156131411Y-86580843D01*
X156177807Y-86534770D01*
X156207306Y-86488287D01*
X156237989Y-86466723D01*
X156274934Y-86473171D01*
X156290118Y-86488395D01*
X156314930Y-86527720D01*
X156422388Y-86622623D01*
X156425546Y-86624106D01*
X156425548Y-86624107D01*
X156468168Y-86644117D01*
X156552163Y-86683553D01*
X156661009Y-86700500D01*
X156735940Y-86700500D01*
X156737664Y-86700253D01*
X156737666Y-86700253D01*
X156809266Y-86689999D01*
X156841918Y-86685323D01*
X156972428Y-86625984D01*
X156984012Y-86616003D01*
X157078391Y-86534680D01*
X157081037Y-86532400D01*
X157159015Y-86412095D01*
X157200093Y-86274739D01*
X157200969Y-86131376D01*
X157161572Y-85993529D01*
X157085070Y-85872280D01*
X156977612Y-85777377D01*
X156974454Y-85775894D01*
X156974452Y-85775893D01*
X156900317Y-85741087D01*
X156847837Y-85716447D01*
X156738991Y-85699500D01*
X156664060Y-85699500D01*
X156662336Y-85699747D01*
X156662334Y-85699747D01*
X156590889Y-85709979D01*
X156558082Y-85714677D01*
X156427572Y-85774016D01*
X156391556Y-85805050D01*
X156390502Y-85805958D01*
X156354885Y-85817703D01*
X156321396Y-85800824D01*
X156312130Y-85784629D01*
X156308517Y-85774016D01*
X156278897Y-85687007D01*
X156184794Y-85534045D01*
X156174269Y-85523297D01*
X156061059Y-85407690D01*
X156061056Y-85407688D01*
X156059141Y-85405732D01*
X155908183Y-85308446D01*
X155766029Y-85256706D01*
X155741997Y-85247959D01*
X155741995Y-85247959D01*
X155739422Y-85247022D01*
X155600717Y-85229500D01*
X155004845Y-85229500D01*
X155003494Y-85229652D01*
X155003486Y-85229652D01*
X154874246Y-85244149D01*
X154874245Y-85244149D01*
X154871528Y-85244454D01*
X154836345Y-85256706D01*
X154704516Y-85302613D01*
X154704513Y-85302615D01*
X154701927Y-85303515D01*
X154699604Y-85304966D01*
X154699603Y-85304967D01*
X154551950Y-85397231D01*
X154549625Y-85398684D01*
X154547682Y-85400613D01*
X154547680Y-85400615D01*
X154540556Y-85407690D01*
X154422193Y-85525230D01*
X154416599Y-85534045D01*
X154331477Y-85668176D01*
X154325963Y-85676864D01*
X154325045Y-85679442D01*
X154325044Y-85679444D01*
X154266638Y-85843468D01*
X154265719Y-85846049D01*
X154265395Y-85848769D01*
X154265394Y-85848772D01*
X154262591Y-85872280D01*
X154244455Y-86024376D01*
X152985411Y-86024376D01*
X150755852Y-83794817D01*
X150741500Y-83760169D01*
X150741500Y-82945200D01*
X150755852Y-82910552D01*
X150790500Y-82896200D01*
X150818885Y-82905259D01*
X150910069Y-82970060D01*
X150915934Y-82973126D01*
X151035829Y-83016291D01*
X151043282Y-83015940D01*
X151045000Y-83014051D01*
X151045000Y-83006152D01*
X151295000Y-83006152D01*
X151297855Y-83013044D01*
X151301556Y-83014577D01*
X151349302Y-83004950D01*
X151355555Y-83002773D01*
X151483864Y-82937397D01*
X151489304Y-82933616D01*
X151595309Y-82836139D01*
X151599526Y-82831042D01*
X151675414Y-82708646D01*
X151678106Y-82702598D01*
X151718498Y-82563567D01*
X151719403Y-82558540D01*
X151719933Y-82551319D01*
X151720000Y-82549508D01*
X151720000Y-82414747D01*
X151717145Y-82407855D01*
X151710253Y-82405000D01*
X151304747Y-82405000D01*
X151297855Y-82407855D01*
X151295000Y-82414747D01*
X151295000Y-83006152D01*
X151045000Y-83006152D01*
X151045000Y-81553848D01*
X151042145Y-81546956D01*
X151041090Y-81546519D01*
X151014572Y-81520000D01*
X151014572Y-81482497D01*
X151018197Y-81475428D01*
X151025651Y-81463407D01*
X151034521Y-81449101D01*
X151040878Y-81438848D01*
X151040878Y-81438847D01*
X151042635Y-81436014D01*
X151043566Y-81432810D01*
X151083997Y-81293647D01*
X151083997Y-81293645D01*
X151084715Y-81291175D01*
X151084909Y-81288540D01*
X151085433Y-81281392D01*
X151085500Y-81280485D01*
X151085500Y-81247785D01*
X151254500Y-81247785D01*
X151254726Y-81249432D01*
X151254726Y-81249438D01*
X151260083Y-81288540D01*
X151269794Y-81359432D01*
X151316288Y-81466872D01*
X151320474Y-81476546D01*
X151321063Y-81514044D01*
X151308330Y-81527183D01*
X151310379Y-81529047D01*
X151295000Y-81545949D01*
X151295000Y-82145253D01*
X151297855Y-82152145D01*
X151304747Y-82155000D01*
X151710253Y-82155000D01*
X151717145Y-82152145D01*
X151720000Y-82145253D01*
X151720000Y-82043922D01*
X151719774Y-82040598D01*
X151705173Y-81934014D01*
X151703393Y-81927637D01*
X151658168Y-81823128D01*
X151657579Y-81785630D01*
X151683678Y-81758698D01*
X151706725Y-81754800D01*
X151839891Y-81764580D01*
X151897934Y-81752876D01*
X151934735Y-81760096D01*
X151955652Y-81791223D01*
X151949264Y-81826729D01*
X151934124Y-81851148D01*
X151934122Y-81851152D01*
X151932365Y-81853986D01*
X151931434Y-81857189D01*
X151931434Y-81857190D01*
X151909115Y-81934014D01*
X151890285Y-81998825D01*
X151890097Y-82001389D01*
X151890096Y-82001393D01*
X151889823Y-82005122D01*
X151889500Y-82009515D01*
X151889500Y-82517785D01*
X151889726Y-82519432D01*
X151889726Y-82519438D01*
X151895083Y-82558540D01*
X151904794Y-82629432D01*
X151906121Y-82632498D01*
X151906121Y-82632499D01*
X151957293Y-82750749D01*
X151964695Y-82767855D01*
X152059614Y-82885070D01*
X152182558Y-82972442D01*
X152185698Y-82973573D01*
X152185701Y-82973574D01*
X152321326Y-83022402D01*
X152321327Y-83022402D01*
X152324468Y-83023533D01*
X152327796Y-83023777D01*
X152327799Y-83023778D01*
X152407532Y-83029633D01*
X152474891Y-83034580D01*
X152478164Y-83033920D01*
X152478165Y-83033920D01*
X152619467Y-83005428D01*
X152619470Y-83005427D01*
X152622743Y-83004767D01*
X152625719Y-83003251D01*
X152625721Y-83003250D01*
X152754152Y-82937812D01*
X152754155Y-82937810D01*
X152757132Y-82936293D01*
X152762210Y-82931624D01*
X152812836Y-82885070D01*
X152868156Y-82834201D01*
X152921986Y-82747382D01*
X152945878Y-82708848D01*
X152945878Y-82708847D01*
X152947635Y-82706014D01*
X152948566Y-82702810D01*
X152988997Y-82563647D01*
X152988997Y-82563645D01*
X152989715Y-82561175D01*
X152989909Y-82558540D01*
X152990433Y-82551392D01*
X152990500Y-82550485D01*
X152990500Y-82042215D01*
X152986155Y-82010492D01*
X152975659Y-81933878D01*
X152975206Y-81930568D01*
X152924526Y-81813453D01*
X152923937Y-81775956D01*
X152936670Y-81762817D01*
X152934621Y-81760953D01*
X152950000Y-81744051D01*
X152950000Y-81144747D01*
X152947145Y-81137855D01*
X152940253Y-81135000D01*
X152534747Y-81135000D01*
X152527855Y-81137855D01*
X152525000Y-81144747D01*
X152525000Y-81246078D01*
X152525226Y-81249402D01*
X152539827Y-81355986D01*
X152541607Y-81362363D01*
X152586832Y-81466872D01*
X152587421Y-81504370D01*
X152561322Y-81531302D01*
X152538275Y-81535200D01*
X152405109Y-81525420D01*
X152347066Y-81537124D01*
X152310265Y-81529904D01*
X152289348Y-81498777D01*
X152295736Y-81463271D01*
X152310876Y-81438852D01*
X152310878Y-81438848D01*
X152312635Y-81436014D01*
X152313566Y-81432810D01*
X152353997Y-81293647D01*
X152353997Y-81293645D01*
X152354715Y-81291175D01*
X152354909Y-81288540D01*
X152355433Y-81281392D01*
X152355500Y-81280485D01*
X152355500Y-80875253D01*
X152525000Y-80875253D01*
X152527855Y-80882145D01*
X152534747Y-80885000D01*
X152940253Y-80885000D01*
X152947145Y-80882145D01*
X152950000Y-80875253D01*
X153200000Y-80875253D01*
X153202855Y-80882145D01*
X153209747Y-80885000D01*
X153615253Y-80885000D01*
X153622145Y-80882145D01*
X153625000Y-80875253D01*
X153625000Y-80773922D01*
X153624774Y-80770598D01*
X153610173Y-80664014D01*
X153608393Y-80657637D01*
X153551200Y-80525472D01*
X153547771Y-80519810D01*
X153457142Y-80407893D01*
X153452319Y-80403364D01*
X153334931Y-80319940D01*
X153329066Y-80316874D01*
X153209171Y-80273709D01*
X153201718Y-80274060D01*
X153200000Y-80275949D01*
X153200000Y-80875253D01*
X152950000Y-80875253D01*
X152950000Y-80283848D01*
X152947145Y-80276956D01*
X152943444Y-80275423D01*
X152895698Y-80285050D01*
X152889445Y-80287227D01*
X152761136Y-80352603D01*
X152755696Y-80356384D01*
X152649691Y-80453861D01*
X152645474Y-80458958D01*
X152569586Y-80581354D01*
X152566894Y-80587402D01*
X152526502Y-80726433D01*
X152525597Y-80731460D01*
X152525067Y-80738681D01*
X152525000Y-80740492D01*
X152525000Y-80875253D01*
X152355500Y-80875253D01*
X152355500Y-80772215D01*
X152351155Y-80740492D01*
X152340659Y-80663878D01*
X152340206Y-80660568D01*
X152338879Y-80657501D01*
X152281632Y-80525211D01*
X152281631Y-80525210D01*
X152280305Y-80522145D01*
X152185386Y-80404930D01*
X152062442Y-80317558D01*
X152059302Y-80316427D01*
X152059299Y-80316426D01*
X151923674Y-80267598D01*
X151923673Y-80267598D01*
X151920532Y-80266467D01*
X151917204Y-80266223D01*
X151917201Y-80266222D01*
X151837468Y-80260367D01*
X151770109Y-80255420D01*
X151766836Y-80256080D01*
X151766835Y-80256080D01*
X151625533Y-80284572D01*
X151625530Y-80284573D01*
X151622257Y-80285233D01*
X151619281Y-80286749D01*
X151619279Y-80286750D01*
X151490848Y-80352188D01*
X151490845Y-80352190D01*
X151487868Y-80353707D01*
X151376844Y-80455799D01*
X151375085Y-80458636D01*
X151313230Y-80558399D01*
X151297365Y-80583986D01*
X151296434Y-80587189D01*
X151296434Y-80587190D01*
X151274115Y-80664014D01*
X151255285Y-80728825D01*
X151255097Y-80731389D01*
X151255096Y-80731393D01*
X151254823Y-80735122D01*
X151254500Y-80739515D01*
X151254500Y-81247785D01*
X151085500Y-81247785D01*
X151085500Y-80772215D01*
X151081155Y-80740492D01*
X151070659Y-80663878D01*
X151070206Y-80660568D01*
X151068879Y-80657501D01*
X151011632Y-80525211D01*
X151011631Y-80525210D01*
X151010305Y-80522145D01*
X150915386Y-80404930D01*
X150792442Y-80317558D01*
X150789302Y-80316427D01*
X150789299Y-80316426D01*
X150653674Y-80267598D01*
X150653673Y-80267598D01*
X150650532Y-80266467D01*
X150647204Y-80266223D01*
X150647201Y-80266222D01*
X150567468Y-80260367D01*
X150500109Y-80255420D01*
X150496836Y-80256080D01*
X150496835Y-80256080D01*
X150355533Y-80284572D01*
X150355530Y-80284573D01*
X150352257Y-80285233D01*
X150349281Y-80286749D01*
X150349279Y-80286750D01*
X150220848Y-80352188D01*
X150220845Y-80352190D01*
X150217868Y-80353707D01*
X150106844Y-80455799D01*
X150105085Y-80458636D01*
X150043230Y-80558399D01*
X150027365Y-80583986D01*
X150026434Y-80587189D01*
X150026434Y-80587190D01*
X150004115Y-80664014D01*
X149985285Y-80728825D01*
X149985097Y-80731389D01*
X149985096Y-80731393D01*
X149984823Y-80735122D01*
X149984500Y-80739515D01*
X149984500Y-81247785D01*
X149984726Y-81249432D01*
X149984726Y-81249438D01*
X149990083Y-81288540D01*
X149999794Y-81359432D01*
X150001121Y-81362498D01*
X150001121Y-81362499D01*
X150046269Y-81466830D01*
X150046858Y-81504328D01*
X150020759Y-81531260D01*
X149997710Y-81535158D01*
X149944630Y-81531260D01*
X149865109Y-81525420D01*
X149806392Y-81537260D01*
X149769592Y-81530040D01*
X149748675Y-81498913D01*
X149755063Y-81463407D01*
X149770413Y-81438650D01*
X149773106Y-81432598D01*
X149813498Y-81293567D01*
X149814403Y-81288540D01*
X149814933Y-81281319D01*
X149815000Y-81279508D01*
X149815000Y-81144747D01*
X149812145Y-81137855D01*
X149805253Y-81135000D01*
X149399747Y-81135000D01*
X149392855Y-81137855D01*
X149390000Y-81144747D01*
X149390000Y-81736152D01*
X149392855Y-81743044D01*
X149393910Y-81743481D01*
X149420428Y-81770000D01*
X149420428Y-81807503D01*
X149416805Y-81814568D01*
X149409265Y-81826729D01*
X149394125Y-81851148D01*
X149392365Y-81853986D01*
X149391434Y-81857189D01*
X149391434Y-81857190D01*
X149369115Y-81934014D01*
X149350285Y-81998825D01*
X149350097Y-82001389D01*
X149350096Y-82001393D01*
X149349823Y-82005122D01*
X149349500Y-82009515D01*
X149349500Y-82517785D01*
X149180500Y-82517785D01*
X149180500Y-82042215D01*
X149176155Y-82010492D01*
X149165659Y-81933878D01*
X149165206Y-81930568D01*
X149114526Y-81813453D01*
X149113937Y-81775956D01*
X149126670Y-81762817D01*
X149124621Y-81760953D01*
X149140000Y-81744051D01*
X149140000Y-81144747D01*
X149137145Y-81137855D01*
X149130253Y-81135000D01*
X148724747Y-81135000D01*
X148717855Y-81137855D01*
X148715000Y-81144747D01*
X148715000Y-81246078D01*
X148715226Y-81249402D01*
X148729827Y-81355986D01*
X148731607Y-81362363D01*
X148776832Y-81466872D01*
X148777421Y-81504370D01*
X148751322Y-81531302D01*
X148728275Y-81535200D01*
X148595109Y-81525420D01*
X148537066Y-81537124D01*
X148500265Y-81529904D01*
X148479348Y-81498777D01*
X148485736Y-81463271D01*
X148500876Y-81438852D01*
X148500878Y-81438848D01*
X148502635Y-81436014D01*
X148503566Y-81432810D01*
X148543997Y-81293647D01*
X148543997Y-81293645D01*
X148544715Y-81291175D01*
X148544909Y-81288540D01*
X148545433Y-81281392D01*
X148545500Y-81280485D01*
X148545500Y-80875253D01*
X148715000Y-80875253D01*
X148717855Y-80882145D01*
X148724747Y-80885000D01*
X149130253Y-80885000D01*
X149137145Y-80882145D01*
X149140000Y-80875253D01*
X149390000Y-80875253D01*
X149392855Y-80882145D01*
X149399747Y-80885000D01*
X149805253Y-80885000D01*
X149812145Y-80882145D01*
X149815000Y-80875253D01*
X149815000Y-80773922D01*
X149814774Y-80770598D01*
X149800173Y-80664014D01*
X149798393Y-80657637D01*
X149741200Y-80525472D01*
X149737771Y-80519810D01*
X149647142Y-80407893D01*
X149642319Y-80403364D01*
X149524931Y-80319940D01*
X149519066Y-80316874D01*
X149399171Y-80273709D01*
X149391718Y-80274060D01*
X149390000Y-80275949D01*
X149390000Y-80875253D01*
X149140000Y-80875253D01*
X149140000Y-80283848D01*
X149137145Y-80276956D01*
X149133444Y-80275423D01*
X149085698Y-80285050D01*
X149079445Y-80287227D01*
X148951136Y-80352603D01*
X148945696Y-80356384D01*
X148839691Y-80453861D01*
X148835474Y-80458958D01*
X148759586Y-80581354D01*
X148756894Y-80587402D01*
X148716502Y-80726433D01*
X148715597Y-80731460D01*
X148715067Y-80738681D01*
X148715000Y-80740492D01*
X148715000Y-80875253D01*
X148545500Y-80875253D01*
X148545500Y-80772215D01*
X148541155Y-80740492D01*
X148530659Y-80663878D01*
X148530206Y-80660568D01*
X148528879Y-80657501D01*
X148471632Y-80525211D01*
X148471631Y-80525210D01*
X148470305Y-80522145D01*
X148375386Y-80404930D01*
X148252442Y-80317558D01*
X148249302Y-80316427D01*
X148249299Y-80316426D01*
X148113674Y-80267598D01*
X148113673Y-80267598D01*
X148110532Y-80266467D01*
X148107204Y-80266223D01*
X148107201Y-80266222D01*
X148075794Y-80263916D01*
X148048067Y-80261880D01*
X148014564Y-80245030D01*
X148002789Y-80209423D01*
X148019639Y-80175919D01*
X148031727Y-80168248D01*
X148239047Y-80075943D01*
X148242218Y-80074662D01*
X148757173Y-79887234D01*
X148760395Y-79886187D01*
X149260440Y-79742801D01*
X149268351Y-79741224D01*
X151273166Y-79510786D01*
X151286786Y-79511127D01*
G37*
%TD.AperFunction*%
%TD*%
M02*
